<svg width="390" height="844" viewBox="0 0 390 844" fill="none" xmlns="http://www.w3.org/2000/svg">
<rect width="390" height="844" fill="#F3F2EE"/>
<path opacity="0.2" d="M160.828 472.1L160.068 472.751L160.118 472.809L160.177 472.859L160.828 472.1ZM159.928 447.95H160.928V446.95H159.928V447.95ZM108.778 447.05L108.018 447.701L108.068 447.759L108.127 447.809L108.778 447.05ZM108.178 436.7L107.229 436.384L107.217 436.42L107.207 436.457L108.178 436.7ZM109.528 434L108.712 433.421L108.704 433.433L108.695 433.445L109.528 434ZM154.528 370.55L155.343 371.128L155.345 371.127L154.528 370.55ZM173.278 369.05L172.518 369.701L172.568 369.759L172.627 369.809L173.278 369.05ZM174.328 434.9H173.328V435.9H174.328V434.9ZM190.378 435.95L189.618 436.601L189.668 436.659L189.727 436.709L190.378 435.95ZM190.378 447.05L191.085 447.757L191.085 447.757L190.378 447.05ZM174.328 447.95V446.95H173.328V447.95H174.328ZM173.278 472.1L172.57 471.393L172.57 471.393L173.278 472.1ZM123.928 435.2L123.109 434.625L122.003 436.2H123.928V435.2ZM160.078 435.2V436.2H161.078V435.2H160.078ZM160.078 383.75H161.078V380.587L159.259 383.175L160.078 383.75ZM163.378 472C162.594 472 161.981 471.772 161.478 471.341L160.177 472.859C161.074 473.628 162.161 474 163.378 474V472ZM161.587 471.449C161.156 470.946 160.928 470.333 160.928 469.55H158.928C158.928 470.767 159.299 471.854 160.068 472.751L161.587 471.449ZM160.928 469.55V447.95H158.928V469.55H160.928ZM159.928 446.95H111.328V448.95H159.928V446.95ZM111.328 446.95C110.544 446.95 109.931 446.722 109.428 446.291L108.127 447.809C109.024 448.578 110.111 448.95 111.328 448.95V446.95ZM109.537 446.399C109.106 445.896 108.878 445.283 108.878 444.5H106.878C106.878 445.717 107.249 446.804 108.018 447.701L109.537 446.399ZM108.878 444.5V438.5H106.878V444.5H108.878ZM108.878 438.5C108.878 438.229 108.951 437.728 109.148 436.943L107.207 436.457C107.004 437.272 106.878 437.971 106.878 438.5H108.878ZM109.126 437.016C109.395 436.211 109.802 435.391 110.36 434.555L108.695 433.445C108.053 434.409 107.561 435.389 107.229 436.384L109.126 437.016ZM110.343 434.578L155.343 371.128L153.712 369.971L108.712 433.421L110.343 434.578ZM155.345 371.127C156.318 369.748 157.828 369 160.078 369V367C157.327 367 155.137 367.952 153.711 369.973L155.345 371.127ZM160.078 369H170.878V367H160.078V369ZM170.878 369C171.614 369 172.126 369.243 172.518 369.701L174.037 368.399C173.229 367.457 172.142 367 170.878 367V369ZM172.627 369.809C173.085 370.202 173.328 370.714 173.328 371.45H175.328C175.328 370.186 174.87 369.098 173.928 368.291L172.627 369.809ZM173.328 371.45V434.9H175.328V371.45H173.328ZM174.328 435.9H187.828V433.9H174.328V435.9ZM187.828 435.9C188.698 435.9 189.245 436.166 189.618 436.601L191.137 435.299C190.31 434.334 189.157 433.9 187.828 433.9V435.9ZM189.727 436.709C190.185 437.102 190.428 437.614 190.428 438.35H192.428C192.428 437.086 191.97 435.998 191.028 435.191L189.727 436.709ZM190.428 438.35V444.5H192.428V438.35H190.428ZM190.428 444.5C190.428 445.238 190.181 445.833 189.67 446.343L191.085 447.757C191.974 446.867 192.428 445.762 192.428 444.5H190.428ZM189.67 446.343C189.291 446.722 188.763 446.95 187.978 446.95V448.95C189.192 448.95 190.264 448.578 191.085 447.757L189.67 446.343ZM187.978 446.95H174.328V448.95H187.978V446.95ZM173.328 447.95V469.55H175.328V447.95H173.328ZM173.328 469.55C173.328 470.288 173.081 470.883 172.57 471.393L173.985 472.807C174.874 471.917 175.328 470.812 175.328 469.55H173.328ZM172.57 471.393C172.191 471.772 171.663 472 170.878 472V474C172.092 474 173.164 473.628 173.985 472.807L172.57 471.393ZM170.878 472H163.378V474H170.878V472ZM123.928 436.2H160.078V434.2H123.928V436.2ZM161.078 435.2V383.75H159.078V435.2H161.078ZM159.259 383.175L123.109 434.625L124.746 435.775L160.896 384.325L159.259 383.175ZM221.442 469.55L220.936 470.413L220.947 470.419L221.442 469.55ZM208.092 456.35L207.214 456.829L207.219 456.838L207.224 456.848L208.092 456.35ZM204.642 429.95L203.68 429.675L203.677 429.687L203.674 429.699L204.642 429.95ZM207.492 422.15L206.59 421.717L206.586 421.725L206.583 421.733L207.492 422.15ZM210.942 415.55L210.084 415.036L210.08 415.042L210.076 415.049L210.942 415.55ZM214.092 410.75L214.892 411.35L214.898 411.341L214.904 411.333L214.092 410.75ZM242.592 371L241.884 370.293L241.827 370.351L241.779 370.417L242.592 371ZM244.392 369.2L245.099 369.907L245.122 369.884L245.144 369.858L244.392 369.2ZM257.592 369.05L256.778 369.631L256.826 369.699L256.884 369.757L257.592 369.05ZM258.342 372.5L259.29 372.816L259.302 372.78L259.312 372.743L258.342 372.5ZM257.892 373.25L257.184 372.543L257.126 372.601L257.078 372.668L257.892 373.25ZM235.992 403.85L235.178 403.268L233.386 405.773L236.308 404.799L235.992 403.85ZM240.042 403.1L240.108 404.098L240.137 404.096L240.166 404.092L240.042 403.1ZM244.542 402.8L244.56 401.8L244.551 401.8H244.542V402.8ZM259.542 405.8L259.931 404.879L259.931 404.879L259.542 405.8ZM271.092 413.6L270.374 414.296L270.384 414.307L270.395 414.318L271.092 413.6ZM278.592 424.85L277.662 425.218L277.665 425.225L278.592 424.85ZM276.642 456.05L277.52 456.529L277.52 456.529L276.642 456.05ZM263.442 469.4L262.936 468.537L262.929 468.541L263.442 469.4ZM254.142 459.05L254.589 459.944L254.589 459.944L254.142 459.05ZM262.842 451.25L262.006 450.701L262.002 450.707L262.842 451.25ZM262.992 425.75L262.145 426.282L262.152 426.293L262.992 425.75ZM254.142 417.95L253.694 418.844L253.709 418.852L253.724 418.859L254.142 417.95ZM230.742 417.95L231.169 418.854L231.179 418.849L231.189 418.844L230.742 417.95ZM221.892 425.75L221.056 425.201L221.052 425.207L221.892 425.75ZM221.892 451.25L221.045 451.782L221.054 451.796L221.063 451.81L221.892 451.25ZM242.592 473.5C234.423 473.5 227.553 471.877 221.936 468.681L220.947 470.419C226.93 473.823 234.16 475.5 242.592 475.5V473.5ZM221.947 468.687C216.285 465.368 211.965 461.089 208.959 455.852L207.224 456.848C210.418 462.411 214.998 466.932 220.936 470.413L221.947 468.687ZM208.969 455.871C206.051 450.521 204.592 444.736 204.592 438.5H202.592C202.592 445.064 204.132 451.179 207.214 456.829L208.969 455.871ZM204.592 438.5C204.592 435.578 204.932 432.813 205.61 430.201L203.674 429.699C202.951 432.487 202.592 435.422 202.592 438.5H204.592ZM205.603 430.225C206.391 427.468 207.324 424.916 208.401 422.567L206.583 421.733C205.459 424.184 204.493 426.832 203.68 429.675L205.603 430.225ZM208.393 422.583C209.585 420.1 210.723 417.924 211.807 416.051L210.076 415.049C208.96 416.976 207.798 419.2 206.59 421.717L208.393 422.583ZM211.799 416.064C212.99 414.08 214.02 412.512 214.892 411.35L213.292 410.15C212.363 411.388 211.293 413.02 210.084 415.036L211.799 416.064ZM214.904 411.333L243.404 371.583L241.779 370.417L213.279 410.167L214.904 411.333ZM243.299 371.707C243.799 371.207 244.399 370.607 245.099 369.907L243.684 368.493C242.984 369.193 242.384 369.793 241.884 370.293L243.299 371.707ZM245.144 369.858C245.599 369.339 246.333 369 247.542 369V367C245.95 367 244.585 367.461 243.639 368.541L245.144 369.858ZM247.542 369H255.492V367H247.542V369ZM255.492 369C256.086 369 256.476 369.208 256.778 369.631L258.405 368.469C257.708 367.492 256.697 367 255.492 367V369ZM256.884 369.757C257.285 370.157 257.492 370.647 257.492 371.3H259.492C259.492 370.153 259.099 369.143 258.299 368.343L256.884 369.757ZM257.492 371.3C257.492 371.616 257.452 371.934 257.371 372.257L259.312 372.743C259.431 372.266 259.492 371.784 259.492 371.3H257.492ZM257.393 372.184C257.336 372.354 257.262 372.465 257.184 372.543L258.599 373.957C258.921 373.635 259.147 373.246 259.29 372.816L257.393 372.184ZM257.078 372.668L235.178 403.268L236.805 404.432L258.705 373.832L257.078 372.668ZM236.308 404.799C237.414 404.43 238.678 404.193 240.108 404.098L239.975 402.102C238.406 402.207 236.97 402.47 235.675 402.901L236.308 404.799ZM240.166 404.092C241.731 403.897 243.189 403.8 244.542 403.8V401.8C243.094 401.8 241.553 401.903 239.918 402.108L240.166 404.092ZM244.523 403.8C249.912 403.898 254.784 404.877 259.153 406.721L259.931 404.879C255.299 402.923 250.171 401.902 244.56 401.8L244.523 403.8ZM259.153 406.721C263.537 408.572 267.273 411.098 270.374 414.296L271.81 412.904C268.51 409.502 264.546 406.828 259.931 404.879L259.153 406.721ZM270.395 414.318C273.593 417.418 276.014 421.049 277.662 425.218L279.522 424.482C277.77 420.051 275.19 416.182 271.788 412.882L270.395 414.318ZM277.665 425.225C279.314 429.299 280.142 433.671 280.142 438.35H282.142C282.142 433.429 281.27 428.801 279.519 424.475L277.665 425.225ZM280.142 438.35C280.142 444.484 278.683 450.219 275.764 455.571L277.52 456.529C280.6 450.881 282.142 444.816 282.142 438.35H280.142ZM275.764 455.571C272.857 460.9 268.591 465.222 262.936 468.537L263.947 470.263C269.892 466.778 274.426 462.2 277.52 456.529L275.764 455.571ZM262.929 468.541C257.417 471.829 250.653 473.5 242.592 473.5V475.5C250.93 475.5 258.066 473.771 263.954 470.259L262.929 468.541ZM242.442 462.75C246.79 462.75 250.844 461.817 254.589 459.944L253.694 458.156C250.239 459.883 246.493 460.75 242.442 460.75V462.75ZM254.589 459.944C258.35 458.064 261.385 455.342 263.681 451.793L262.002 450.707C259.898 453.958 257.134 456.436 253.694 458.156L254.589 459.944ZM263.677 451.799C266.104 448.107 267.292 443.657 267.292 438.5H265.292C265.292 443.343 264.179 447.393 262.006 450.701L263.677 451.799ZM267.292 438.5C267.292 433.257 266.16 428.806 263.831 425.207L262.152 426.293C264.223 429.494 265.292 433.543 265.292 438.5H267.292ZM263.838 425.218C261.536 421.556 258.439 418.824 254.559 417.041L253.724 418.859C257.245 420.476 260.047 422.944 262.145 426.282L263.838 425.218ZM254.589 417.056C250.844 415.183 246.79 414.25 242.442 414.25V416.25C246.493 416.25 250.239 417.117 253.694 418.844L254.589 417.056ZM242.442 414.25C238.093 414.25 234.039 415.183 230.294 417.056L231.189 418.844C234.644 417.117 238.39 416.25 242.442 416.25V414.25ZM230.315 417.046C226.54 418.828 223.451 421.555 221.056 425.201L222.727 426.299C224.932 422.945 227.744 420.472 231.169 418.854L230.315 417.046ZM221.052 425.207C218.723 428.806 217.592 433.257 217.592 438.5H219.592C219.592 433.543 220.66 429.494 222.731 426.293L221.052 425.207ZM217.592 438.5C217.592 443.649 218.726 448.092 221.045 451.782L222.738 450.718C220.658 447.408 219.592 443.351 219.592 438.5H217.592ZM221.063 451.81C223.458 455.35 226.538 458.066 230.294 459.944L231.189 458.156C227.746 456.434 224.926 453.95 222.72 450.69L221.063 451.81ZM230.294 459.944C234.039 461.817 238.093 462.75 242.442 462.75V460.75C238.39 460.75 234.644 459.883 231.189 458.156L230.294 459.944Z" fill="black"/>
<path d="M187.006 567.94C190.781 561.353 200.219 561.353 203.994 567.94L239.671 630.181C243.447 636.767 238.727 645 231.177 645H159.823C152.273 645 147.553 636.767 151.329 630.181L187.006 567.94Z" fill="black"/>
<path fill-rule="evenodd" clip-rule="evenodd" d="M239.839 132.663L202.594 68.1446C199.441 62.6827 191.559 62.6827 188.406 68.1446L151.161 132.663C148.008 138.124 151.949 144.952 158.255 144.952H232.745C239.051 144.952 242.992 138.125 239.839 132.663ZM204.368 67.1205C200.427 60.2932 190.573 60.2932 186.632 67.1205L149.387 131.639C145.446 138.466 150.372 147 158.255 147H232.745C240.628 147 245.554 138.466 241.613 131.639L204.368 67.1205Z" fill="black"/>
<circle cx="195" cy="737" r="39.5" stroke="black"/>
<circle cx="13" cy="13" r="12.5" transform="matrix(1 0 0 -1 182 724)" fill="black" stroke="black"/>
<rect y="834" width="182" height="10" fill="black"/>
</svg>
