<svg width="390" height="844" viewBox="0 0 390 844" fill="none" xmlns="http://www.w3.org/2000/svg">
<rect width="390" height="844" fill="black"/>
<path opacity="0.2" d="M113.207 472.1L112.448 472.751L112.498 472.809L112.557 472.859L113.207 472.1ZM112.307 385.55H113.307V383.516L111.697 384.758L112.307 385.55ZM87.4074 404.75L88.0075 405.55L88.0181 405.542L87.4074 404.75ZM84.8574 405.5L84.747 406.494L84.747 406.494L84.8574 405.5ZM82.6074 404.15L83.4074 403.55L83.4003 403.54L83.3929 403.531L82.6074 404.15ZM78.7074 399.2L77.8754 399.755L77.8974 399.788L77.9219 399.819L78.7074 399.2ZM77.9574 396.5L76.9812 396.283L76.9695 396.336L76.9635 396.39L77.9574 396.5ZM79.4574 394.25L80.0575 395.05L80.0678 395.042L79.4574 394.25ZM112.157 369.05L111.576 368.236L111.561 368.247L111.547 368.258L112.157 369.05ZM114.107 368.15L113.943 367.164L113.943 367.164L114.107 368.15ZM126.107 369.05L125.348 369.701L125.373 369.73L125.4 369.757L126.107 369.05ZM126.107 472.1L126.815 472.807L126.842 472.78L126.867 472.751L126.107 472.1ZM115.757 472C114.974 472 114.361 471.772 113.858 471.341L112.557 472.859C113.454 473.628 114.54 474 115.757 474V472ZM113.967 471.449C113.536 470.946 113.307 470.333 113.307 469.55H111.307C111.307 470.767 111.679 471.854 112.448 472.751L113.967 471.449ZM113.307 469.55V385.55H111.307V469.55H113.307ZM111.697 384.758L86.7968 403.958L88.0181 405.542L112.918 386.342L111.697 384.758ZM86.8074 403.95C86.1879 404.415 85.5877 404.575 84.9679 404.506L84.747 406.494C85.9271 406.625 87.027 406.285 88.0074 405.55L86.8074 403.95ZM84.9679 404.506C84.3724 404.44 83.8609 404.155 83.4074 403.55L81.8074 404.75C82.5539 405.745 83.5424 406.36 84.747 406.494L84.9679 404.506ZM83.3929 403.531L79.4929 398.581L77.9219 399.819L81.8219 404.769L83.3929 403.531ZM79.5395 398.645C79.0435 397.901 78.8821 397.233 78.9513 396.61L76.9635 396.39C76.8327 397.567 77.1714 398.699 77.8754 399.755L79.5395 398.645ZM78.9336 396.717C79.0773 396.07 79.431 395.52 80.0574 395.05L78.8574 393.45C77.8839 394.18 77.2376 395.13 76.9812 396.283L78.9336 396.717ZM80.0678 395.042L112.768 369.842L111.547 368.258L78.847 393.458L80.0678 395.042ZM112.739 369.864C113.363 369.418 113.871 369.203 114.272 369.136L113.943 367.164C113.144 367.297 112.352 367.682 111.576 368.236L112.739 369.864ZM114.272 369.136C114.81 369.047 115.404 369 116.057 369V367C115.31 367 114.605 367.053 113.943 367.164L114.272 369.136ZM116.057 369H123.707V367H116.057V369ZM123.707 369C124.443 369 124.956 369.243 125.348 369.701L126.867 368.399C126.059 367.457 124.971 367 123.707 367V369ZM125.4 369.757C125.78 370.136 126.007 370.664 126.007 371.45H128.007C128.007 370.236 127.635 369.164 126.815 368.343L125.4 369.757ZM126.007 371.45V469.55H128.007V371.45H126.007ZM126.007 469.55C126.007 470.333 125.779 470.946 125.348 471.449L126.867 472.751C127.636 471.854 128.007 470.767 128.007 469.55H126.007ZM125.4 471.393C125.021 471.772 124.493 472 123.707 472V474C124.922 474 125.994 473.628 126.815 472.807L125.4 471.393ZM123.707 472H115.757V474H123.707V472ZM146.768 472.1L146.008 472.751L146.058 472.809L146.117 472.859L146.768 472.1ZM146.618 461.75L145.707 461.336L145.707 461.336L146.618 461.75ZM149.618 458.15L150.273 458.906L150.299 458.882L150.325 458.857L149.618 458.15ZM181.418 426.35L180.773 425.585L180.741 425.613L180.71 425.643L181.418 426.35ZM193.418 415.4L192.699 414.705L192.699 414.705L193.418 415.4ZM199.718 406.55L198.811 406.129L198.804 406.142L198.798 406.156L199.718 406.55ZM196.868 384.35L196.139 385.035L196.144 385.041L196.15 385.046L196.868 384.35ZM172.268 381.8L172.751 382.676L172.762 382.669L172.773 382.663L172.268 381.8ZM165.368 388.55L164.505 388.044L164.499 388.054L165.368 388.55ZM162.218 398.15L163.206 398.302L163.207 398.295L163.208 398.288L162.218 398.15ZM160.568 400.85L160.082 399.976L160.059 399.988L160.038 400.002L160.568 400.85ZM148.268 400.85L147.56 401.557L147.593 401.589L147.627 401.618L148.268 400.85ZM147.368 398.75L146.368 398.724L146.368 398.737V398.75H147.368ZM149.768 387.35L150.698 387.717L150.701 387.709L149.768 387.35ZM156.368 376.85L155.649 376.155L155.643 376.161L155.637 376.167L156.368 376.85ZM167.318 369.35L167.722 370.265L167.731 370.26L167.318 369.35ZM201.968 370.7L201.466 371.565L201.476 371.571L201.486 371.577L201.968 370.7ZM213.218 381.95L214.108 381.495L214.108 381.495L213.218 381.95ZM214.568 409.55L215.491 409.935L215.494 409.926L214.568 409.55ZM207.968 420.2L207.198 419.562L207.196 419.564L207.968 420.2ZM197.468 430.7L196.817 429.941L196.785 429.968L196.755 429.998L197.468 430.7ZM168.668 459.95L167.955 459.248L166.28 460.95H168.668V459.95ZM218.018 460.85L217.31 461.557L217.338 461.584L217.367 461.609L218.018 460.85ZM218.018 472.1L218.725 472.807L218.725 472.807L218.018 472.1ZM149.318 472C148.535 472 147.921 471.772 147.418 471.341L146.117 472.859C147.014 473.628 148.101 474 149.318 474V472ZM147.527 471.449C147.096 470.946 146.868 470.333 146.868 469.55H144.868C144.868 470.767 145.239 471.854 146.008 472.751L147.527 471.449ZM146.868 469.55V464.75H144.868V469.55H146.868ZM146.868 464.75C146.868 464.033 147.068 463.176 147.528 462.164L145.707 461.336C145.167 462.524 144.868 463.667 144.868 464.75H146.868ZM147.528 462.164C147.942 461.253 148.82 460.165 150.273 458.906L148.963 457.394C147.415 458.735 146.293 460.047 145.707 461.336L147.528 462.164ZM150.325 458.857L182.125 427.057L180.71 425.643L148.91 457.443L150.325 458.857ZM182.062 427.115C187.175 422.804 191.203 419.129 194.137 416.095L192.699 414.705C189.832 417.671 185.86 421.296 180.773 425.585L182.062 427.115ZM194.136 416.095C197.188 412.941 199.373 409.892 200.637 406.944L198.798 406.156C197.662 408.808 195.647 411.659 192.699 414.705L194.136 416.095ZM200.625 406.971C201.984 404.043 202.668 401 202.668 397.85H200.668C200.668 400.7 200.051 403.457 198.811 406.129L200.625 406.971ZM202.668 397.85C202.668 391.956 201.008 387.183 197.585 383.654L196.15 385.046C199.128 388.117 200.668 392.344 200.668 397.85H202.668ZM197.596 383.665C194.148 380.001 189.093 378.25 182.618 378.25V380.25C188.742 380.25 193.187 381.899 196.139 385.035L197.596 383.665ZM182.618 378.25C178.474 378.25 174.842 379.132 171.762 380.937L172.773 382.663C175.493 381.068 178.761 380.25 182.618 380.25V378.25ZM171.785 380.924C168.725 382.613 166.294 384.992 164.505 388.044L166.23 389.056C167.841 386.308 170.011 384.187 172.751 382.676L171.785 380.924ZM164.499 388.054C162.829 390.978 161.742 394.302 161.227 398.012L163.208 398.288C163.693 394.798 164.707 391.722 166.236 389.046L164.499 388.054ZM161.229 397.998C161.062 399.085 160.639 399.666 160.082 399.976L161.053 401.724C162.296 401.034 162.973 399.815 163.206 398.302L161.229 397.998ZM160.038 400.002C159.343 400.436 158.776 400.6 158.318 400.6V402.6C159.26 402.6 160.192 402.264 161.098 401.698L160.038 400.002ZM158.318 400.6H150.518V402.6H158.318V400.6ZM150.518 400.6C149.814 400.6 149.301 400.41 148.908 400.082L147.627 401.618C148.434 402.29 149.421 402.6 150.518 402.6V400.6ZM148.975 400.143C148.55 399.718 148.368 399.267 148.368 398.75H146.368C146.368 399.833 146.786 400.782 147.56 401.557L148.975 400.143ZM148.367 398.776C148.464 395.102 149.237 391.417 150.698 387.717L148.837 386.983C147.298 390.883 146.471 394.798 146.368 398.724L148.367 398.776ZM150.701 387.709C152.154 383.931 154.284 380.541 157.098 377.533L155.637 376.167C152.651 379.359 150.381 382.969 148.834 386.991L150.701 387.709ZM157.086 377.545C159.989 374.546 163.529 372.117 167.722 370.265L166.913 368.435C162.506 370.383 158.746 372.954 155.649 376.155L157.086 377.545ZM167.731 370.26C171.978 368.33 176.932 367.35 182.618 367.35V365.35C176.703 365.35 171.457 366.37 166.904 368.44L167.731 370.26ZM182.618 367.35C190.403 367.35 196.664 368.78 201.466 371.565L202.469 369.835C197.271 366.82 190.632 365.35 182.618 365.35V367.35ZM201.486 371.577C206.429 374.29 210.027 377.901 212.327 382.405L214.108 381.495C211.608 376.599 207.706 372.71 202.449 369.823L201.486 371.577ZM212.327 382.405C214.651 386.955 215.818 391.948 215.818 397.4H217.818C217.818 391.652 216.584 386.345 214.108 381.495L212.327 382.405ZM215.818 397.4C215.818 401.684 215.088 405.605 213.641 409.174L215.494 409.926C217.047 406.095 217.818 401.916 217.818 397.4H215.818ZM213.645 409.165C212.188 412.66 210.044 416.126 207.198 419.562L208.738 420.838C211.691 417.274 213.947 413.64 215.491 409.935L213.645 409.165ZM207.196 419.564C204.44 422.91 200.983 426.369 196.817 429.941L198.118 431.459C202.352 427.831 205.895 424.29 208.74 420.836L207.196 419.564ZM196.755 429.998L167.955 459.248L169.38 460.652L198.18 431.402L196.755 429.998ZM168.668 460.95H215.468V458.95H168.668V460.95ZM215.468 460.95C216.384 460.95 216.949 461.196 217.31 461.557L218.725 460.143C217.886 459.304 216.751 458.95 215.468 458.95V460.95ZM217.367 461.609C217.802 461.982 218.068 462.53 218.068 463.4H220.068C220.068 462.07 219.633 460.918 218.668 460.091L217.367 461.609ZM218.068 463.4V469.55H220.068V463.4H218.068ZM218.068 469.55C218.068 470.288 217.821 470.883 217.31 471.393L218.725 472.807C219.614 471.917 220.068 470.812 220.068 469.55H218.068ZM217.31 471.393C216.949 471.754 216.384 472 215.468 472V474C216.751 474 217.886 473.646 218.725 472.807L217.31 471.393ZM215.468 472H149.318V474H215.468V472ZM254.755 472.25L254.432 473.197L254.442 473.2L254.451 473.203L254.755 472.25ZM242.905 465.95L242.274 466.726L242.274 466.726L242.905 465.95ZM235.555 457.4L234.666 457.859L234.672 457.87L234.678 457.881L235.555 457.4ZM233.005 447.8H232.005V447.815L232.005 447.83L233.005 447.8ZM233.905 445.7L233.265 444.932L233.265 444.932L233.905 445.7ZM245.905 445.55L246.401 444.682L246.401 444.682L245.905 445.55ZM247.705 448.1L248.668 447.832L248.655 447.786L248.638 447.741L247.705 448.1ZM252.805 456.5L252.165 457.268L252.172 457.275L252.18 457.281L252.805 456.5ZM261.355 460.7L261.112 461.67L261.13 461.675L261.147 461.678L261.355 460.7ZM288.055 456.8L288.664 457.593L288.664 457.593L288.055 456.8ZM288.655 428.3L289.238 427.488L289.238 427.488L288.655 428.3ZM255.655 423.2L254.948 423.907L254.975 423.934L255.004 423.959L255.655 423.2ZM255.205 414.35L254.336 413.854L254.323 413.878L254.31 413.903L255.205 414.35ZM256.405 412.55L255.667 411.875L255.645 411.899L255.624 411.925L256.405 412.55ZM285.505 380.75L286.242 381.425L287.775 379.75H285.505V380.75ZM238.705 379.85L237.998 380.557L238.025 380.584L238.054 380.609L238.705 379.85ZM238.705 369.05L239.412 369.757L239.412 369.757L238.705 369.05ZM303.655 369.05L302.895 369.701L302.945 369.759L303.004 369.809L303.655 369.05ZM304.105 378.95L303.273 378.395L303.259 378.415L303.247 378.435L304.105 378.95ZM303.055 380.45L303.799 381.118L303.818 381.097L303.836 381.075L303.055 380.45ZM274.105 412.7L273.361 412.032L271.981 413.569L274.042 413.698L274.105 412.7ZM276.505 412.85L276.442 413.848L276.458 413.849L276.474 413.85L276.505 412.85ZM293.755 416.45L293.345 417.362L293.352 417.365L293.755 416.45ZM305.305 426.35L304.452 426.873L304.459 426.884L304.467 426.896L305.305 426.35ZM304.555 459.95L305.373 460.525L305.379 460.517L304.555 459.95ZM290.905 470.75L291.301 471.668L290.905 470.75ZM271.255 473.5C265.031 473.5 259.638 472.759 255.059 471.297L254.451 473.203C259.272 474.741 264.879 475.5 271.255 475.5V473.5ZM255.077 471.303C250.467 469.734 246.627 467.686 243.535 465.174L242.274 466.726C245.583 469.414 249.643 471.566 254.432 473.197L255.077 471.303ZM243.535 465.174C240.419 462.642 238.06 459.889 236.432 456.919L234.678 457.881C236.45 461.111 238.99 464.058 242.274 466.726L243.535 465.174ZM236.443 456.941C234.908 453.966 234.099 450.912 234.004 447.77L232.005 447.83C232.11 451.288 233.002 454.634 234.666 457.859L236.443 456.941ZM234.005 447.8C234.005 447.146 234.209 446.748 234.545 446.468L233.265 444.932C232.4 445.652 232.005 446.654 232.005 447.8H234.005ZM234.545 446.468C234.938 446.14 235.451 445.95 236.155 445.95V443.95C235.058 443.95 234.071 444.26 233.265 444.932L234.545 446.468ZM236.155 445.95H243.505V443.95H236.155V445.95ZM243.505 445.95C244.251 445.95 244.877 446.114 245.409 446.418L246.401 444.682C245.533 444.186 244.558 443.95 243.505 443.95V445.95ZM245.409 446.418C245.808 446.646 246.3 447.232 246.771 448.459L248.638 447.741C248.11 446.368 247.402 445.254 246.401 444.682L245.409 446.418ZM246.741 448.368C247.785 452.124 249.58 455.114 252.165 457.268L253.445 455.732C251.23 453.886 249.625 451.276 248.668 447.832L246.741 448.368ZM252.18 457.281C254.796 459.373 257.777 460.836 261.112 461.67L261.597 459.73C258.532 458.964 255.814 457.627 253.429 455.719L252.18 457.281ZM261.147 461.678C264.514 462.392 267.883 462.75 271.255 462.75V460.75C268.026 460.75 264.795 460.408 261.562 459.722L261.147 461.678ZM271.255 462.75C278.314 462.75 284.146 461.06 288.664 457.593L287.446 456.007C283.363 459.14 277.995 460.75 271.255 460.75V462.75ZM288.664 457.593C293.256 454.069 295.505 448.898 295.505 442.25H293.505C293.505 448.402 291.453 452.931 287.446 456.007L288.664 457.593ZM295.505 442.25C295.505 435.552 293.486 430.538 289.238 427.488L288.071 429.112C291.623 431.662 293.505 435.948 293.505 442.25H295.505ZM289.238 427.488C285.108 424.523 279.476 423.1 272.455 423.1V425.1C279.233 425.1 284.401 426.477 288.071 429.112L289.238 427.488ZM272.455 423.1H258.205V425.1H272.455V423.1ZM258.205 423.1C257.422 423.1 256.808 422.872 256.305 422.441L255.004 423.959C255.901 424.728 256.988 425.1 258.205 425.1V423.1ZM256.362 422.493C256 422.131 255.755 421.567 255.755 420.65H253.755C253.755 421.933 254.109 423.069 254.948 423.907L256.362 422.493ZM255.755 420.65V416.6H253.755V420.65H255.755ZM255.755 416.6C255.755 415.805 255.888 415.219 256.099 414.797L254.31 413.903C253.921 414.681 253.755 415.595 253.755 416.6H255.755ZM256.073 414.846C256.453 414.18 256.825 413.625 257.186 413.175L255.624 411.925C255.184 412.475 254.756 413.12 254.336 413.854L256.073 414.846ZM257.142 413.225L286.242 381.425L284.767 380.075L255.667 411.875L257.142 413.225ZM285.505 379.75H241.255V381.75H285.505V379.75ZM241.255 379.75C240.472 379.75 239.858 379.522 239.355 379.091L238.054 380.609C238.951 381.378 240.038 381.75 241.255 381.75V379.75ZM239.412 379.143C239.05 378.781 238.805 378.217 238.805 377.3H236.805C236.805 378.583 237.159 379.719 237.998 380.557L239.412 379.143ZM238.805 377.3V371.6H236.805V377.3H238.805ZM238.805 371.6C238.805 370.683 239.05 370.119 239.412 369.757L237.998 368.343C237.159 369.181 236.805 370.317 236.805 371.6H238.805ZM239.412 369.757C239.922 369.247 240.517 369 241.255 369V367C239.992 367 238.887 367.453 237.998 368.343L239.412 369.757ZM241.255 369H301.105V367H241.255V369ZM301.105 369C301.975 369 302.522 369.266 302.895 369.701L304.414 368.399C303.587 367.434 302.435 367 301.105 367V369ZM303.004 369.809C303.439 370.182 303.705 370.73 303.705 371.6H305.705C305.705 370.27 305.27 369.118 304.305 368.291L303.004 369.809ZM303.705 371.6V377H305.705V371.6H303.705ZM303.705 377C303.705 377.496 303.567 377.954 303.273 378.395L304.937 379.505C305.443 378.746 305.705 377.904 305.705 377H303.705ZM303.247 378.435C302.972 378.894 302.649 379.357 302.274 379.825L303.836 381.075C304.261 380.543 304.637 380.006 304.962 379.464L303.247 378.435ZM302.311 379.782L273.361 412.032L274.849 413.368L303.799 381.118L302.311 379.782ZM274.042 413.698L276.442 413.848L276.567 411.852L274.167 411.702L274.042 413.698ZM276.474 413.85C282.973 414.046 288.589 415.227 293.345 417.362L294.164 415.538C289.121 413.273 283.237 412.054 276.535 411.85L276.474 413.85ZM293.352 417.365C298.177 419.488 301.865 422.657 304.452 426.873L306.157 425.827C303.344 421.243 299.332 417.812 294.157 415.535L293.352 417.365ZM304.467 426.896C307.135 430.993 308.505 436.239 308.505 442.7H310.505C310.505 435.961 309.075 430.307 306.143 425.804L304.467 426.896ZM308.505 442.7C308.505 449.229 306.899 454.774 303.731 459.383L305.379 460.517C308.81 455.526 310.505 449.571 310.505 442.7H308.505ZM303.736 459.375C300.553 463.909 296.156 467.397 290.509 469.832L291.301 471.668C297.253 469.103 301.956 465.391 305.373 460.525L303.736 459.375ZM290.509 469.832C284.852 472.27 278.44 473.5 271.255 473.5V475.5C278.67 475.5 285.358 474.23 291.301 471.668L290.509 469.832Z" fill="#F3F2EE"/>
<path d="M298.944 633.08C295.611 631.156 295.611 626.344 298.944 624.42L330.444 606.233C333.777 604.309 337.944 606.714 337.944 610.563L337.944 646.937C337.944 650.786 333.777 653.191 330.444 651.267L298.944 633.08Z" fill="#F3F2EE"/>
<path fill-rule="evenodd" clip-rule="evenodd" d="M330.944 269.543L299.444 287.73C296.777 289.27 296.777 293.119 299.444 294.658L330.944 312.845C333.611 314.384 336.944 312.46 336.944 309.381L336.944 273.007C336.944 269.928 333.611 268.004 330.944 269.543ZM298.944 286.864C295.611 288.788 295.611 293.6 298.944 295.524L330.444 313.711C333.777 315.635 337.944 313.23 337.944 309.381L337.944 273.007C337.944 269.158 333.777 266.753 330.444 268.677L298.944 286.864Z" fill="#F3F2EE"/>
<circle cx="195" cy="737" r="39.5" stroke="#F3F2EE"/>
<circle cx="13" cy="13" r="12.5" transform="matrix(1 0 0 -1 208 750)" fill="#F3F2EE" stroke="#F3F2EE"/>
<rect y="834" width="390" height="10" fill="#F3F2EE"/>
</svg>
