<svg width="387" height="63" viewBox="0 0 387 63" fill="none" xmlns="http://www.w3.org/2000/svg">
<path fill-rule="evenodd" clip-rule="evenodd" d="M189.551 0.542847H387V62.1469H189.551V0.542847ZM209.043 45.5138C211.349 47.7568 214.572 48.8784 218.71 48.8784C221.459 48.8784 223.844 48.3571 225.866 47.3146C227.888 46.2404 229.436 44.7398 230.51 42.8127C231.584 40.8856 232.121 38.6268 232.121 36.0363V31.4871C232.121 31.1395 232.01 30.871 231.789 30.6815C231.6 30.4603 231.347 30.3497 231.031 30.3497H220.322C220.006 30.3497 219.737 30.4603 219.516 30.6815C219.326 30.9026 219.232 31.1711 219.232 31.4871V33.0035C219.232 33.351 219.326 33.6353 219.516 33.8564C219.737 34.046 220.006 34.1408 220.322 34.1408H227.43V36.1311C227.43 39.0375 226.64 41.2173 225.06 42.6706C223.481 44.1238 221.364 44.8504 218.71 44.8504C216.088 44.8504 214.035 44.1396 212.55 42.7179C211.065 41.2647 210.259 39.0217 210.133 35.9889C210.102 35.0411 210.086 33.6353 210.086 31.7714C210.086 29.8759 210.102 28.47 210.133 27.5539C210.259 24.5526 211.065 22.3412 212.55 20.9196C214.035 19.498 216.088 18.7871 218.71 18.7871C220.985 18.7871 222.786 19.2926 224.113 20.3035C225.471 21.3145 226.387 22.5308 226.861 23.9524C226.987 24.2999 227.114 24.5368 227.24 24.6632C227.398 24.758 227.635 24.8054 227.951 24.8054H230.747C231.031 24.8054 231.268 24.7264 231.458 24.5684C231.647 24.4105 231.742 24.2051 231.742 23.9524V23.8576C231.679 22.6255 231.158 21.2987 230.178 19.8771C229.199 18.4554 227.73 17.2549 225.771 16.2756C223.844 15.2646 221.49 14.7592 218.71 14.7592C214.603 14.7592 211.397 15.8807 209.091 18.1237C206.784 20.3667 205.552 23.4311 205.394 27.3169C205.363 28.2331 205.347 29.7179 205.347 31.7714C205.347 33.7933 205.363 35.2781 205.394 36.2258C205.552 40.1432 206.769 43.2392 209.043 45.5138ZM238.186 48.1202C238.376 48.3097 238.597 48.4045 238.85 48.4045H241.267C241.582 48.4045 241.835 48.3255 242.025 48.1675C242.246 47.978 242.388 47.7884 242.451 47.5989L245.058 40.8698H260.601L263.207 47.5989C263.27 47.7884 263.397 47.978 263.586 48.1675C263.776 48.3255 264.044 48.4045 264.392 48.4045H266.809C267.061 48.4045 267.282 48.3097 267.472 48.1202C267.661 47.9306 267.756 47.7095 267.756 47.4567L267.661 46.9355L255.957 16.2756C255.704 15.5806 255.199 15.2331 254.44 15.2331H251.218C250.46 15.2331 249.954 15.5806 249.702 16.2756L237.949 46.9355C237.918 47.0302 237.902 47.204 237.902 47.4567C237.902 47.7095 237.997 47.9306 238.186 48.1202ZM252.829 19.9718L259.226 36.7945H246.432L252.829 19.9718ZM276.756 48.4045C276.44 48.4045 276.172 48.3097 275.951 48.1202C275.761 47.899 275.666 47.6305 275.666 47.3146V16.3704C275.666 16.0228 275.761 15.7543 275.951 15.5648C276.172 15.3436 276.44 15.2331 276.756 15.2331H279.126C279.631 15.2331 280.042 15.4858 280.358 15.9913L290.357 35.1359L300.45 15.9913C300.513 15.8017 300.64 15.628 300.829 15.47C301.05 15.312 301.319 15.2331 301.635 15.2331H303.957C304.304 15.2331 304.573 15.3436 304.762 15.5648C304.984 15.7543 305.094 16.0228 305.094 16.3704V47.3146C305.094 47.6305 304.984 47.899 304.762 48.1202C304.541 48.3097 304.273 48.4045 303.957 48.4045H301.635C301.319 48.4045 301.05 48.3097 300.829 48.1202C300.64 47.899 300.545 47.6305 300.545 47.3146V23.9998L292.631 39.4482C292.315 40.1116 291.81 40.4433 291.115 40.4433H289.646C288.951 40.4433 288.445 40.1116 288.129 39.4482L280.168 23.9998V47.3146C280.168 47.6305 280.058 47.899 279.836 48.1202C279.647 48.3097 279.394 48.4045 279.078 48.4045H276.756ZM316.417 48.1202C316.638 48.3097 316.907 48.4045 317.223 48.4045H337.173C337.489 48.4045 337.742 48.3097 337.931 48.1202C338.152 47.899 338.263 47.6305 338.263 47.3146V45.4664C338.263 45.1189 338.168 44.8504 337.979 44.6608C337.789 44.4713 337.521 44.3765 337.173 44.3765H320.682V33.6195H335.751C336.067 33.6195 336.32 33.5247 336.51 33.3352C336.731 33.114 336.841 32.8455 336.841 32.5296V30.7762C336.841 30.4287 336.731 30.1602 336.51 29.9706C336.32 29.7495 336.067 29.6389 335.751 29.6389H320.682V19.261H336.794C337.141 19.261 337.41 19.1662 337.599 18.9767C337.789 18.7555 337.884 18.487 337.884 18.1711V16.3704C337.884 16.0228 337.773 15.7543 337.552 15.5648C337.363 15.3436 337.11 15.2331 336.794 15.2331H317.223C316.907 15.2331 316.638 15.3436 316.417 15.5648C316.228 15.7543 316.133 16.0228 316.133 16.3704V47.3146C316.133 47.6305 316.228 47.899 316.417 48.1202ZM358.376 48.8784C355.754 48.8784 353.48 48.4677 351.553 47.6463C349.657 46.8249 348.204 45.7508 347.193 44.4239C346.182 43.0655 345.645 41.6122 345.582 40.0642C345.582 39.8115 345.677 39.5904 345.866 39.4008C346.087 39.1797 346.34 39.0691 346.624 39.0691H349.041C349.641 39.0691 350.052 39.385 350.273 40.0168C350.557 41.3437 351.363 42.481 352.69 43.4288C354.048 44.3765 355.944 44.8504 358.376 44.8504C360.999 44.8504 362.973 44.3923 364.3 43.4762C365.627 42.5284 366.29 41.2173 366.29 39.543C366.29 38.4688 365.958 37.6001 365.295 36.9366C364.663 36.2732 363.715 35.6888 362.452 35.1833C361.188 34.6778 359.293 34.046 356.765 33.2878C354.301 32.5928 352.342 31.8504 350.889 31.0606C349.436 30.2708 348.346 29.2914 347.619 28.1225C346.893 26.9536 346.529 25.4846 346.529 23.7155C346.529 22.0095 346.988 20.4773 347.904 19.1188C348.852 17.7604 350.194 16.7021 351.932 15.9439C353.669 15.1541 355.739 14.7592 358.139 14.7592C360.604 14.7592 362.72 15.2015 364.489 16.086C366.259 16.939 367.601 18.0289 368.517 19.3558C369.434 20.6826 369.923 22.0095 369.986 23.3364C369.986 23.5891 369.892 23.8102 369.702 23.9998C369.544 24.1893 369.307 24.2841 368.991 24.2841H366.48C365.816 24.2841 365.406 23.984 365.248 23.3837C365.058 22.0569 364.316 20.967 363.02 20.114C361.725 19.2294 360.098 18.7871 358.139 18.7871C355.991 18.7871 354.301 19.1978 353.069 20.0192C351.837 20.8406 351.221 22.0569 351.221 23.6681C351.221 24.7422 351.505 25.6268 352.074 26.3218C352.674 27.0168 353.574 27.6328 354.775 28.1699C355.975 28.6754 357.729 29.2598 360.035 29.9233C362.72 30.6499 364.837 31.4081 366.385 32.1979C367.933 32.9561 369.086 33.9196 369.844 35.0885C370.602 36.2258 370.982 37.6791 370.982 39.4482C370.982 42.3862 369.844 44.6924 367.57 46.3668C365.295 48.0412 362.231 48.8784 358.376 48.8784ZM23.2302 30.3051C24.1291 29.6622 24.8785 28.8324 25.427 27.8729C26.1863 26.5344 26.5717 25.0165 26.5427 23.4779C26.5889 22.235 26.3281 20.9999 25.7833 19.8819C25.2385 18.7638 24.4265 17.7972 23.4192 17.0676C20.8644 15.4 17.8402 14.5997 14.7949 14.7855H0V47.2897H15.6667C18.8962 47.498 22.1092 46.685 24.851 44.9658C25.9114 44.2048 26.7649 43.1909 27.3338 42.0163C27.9027 40.8416 28.1692 39.5433 28.1089 38.2395C28.1732 36.3561 27.6185 34.5036 26.5298 32.9654C25.6755 31.8111 24.5394 30.8951 23.2302 30.3051ZM15.3173 41.6906H6.67135V33.6076H15.3173C19.3199 33.6076 21.3912 34.8836 21.3912 37.6492C21.3912 40.4148 19.3199 41.6906 15.3173 41.6906ZM6.67135 20.3831H14.1844C15.6749 20.2835 17.1608 20.6356 18.4482 21.3935C18.8772 21.7288 19.2241 22.1575 19.4627 22.6469C19.7014 23.1364 19.8253 23.6737 19.8253 24.2182C19.8253 24.7628 19.7014 25.3001 19.4627 25.7896C19.2241 26.279 18.8772 26.7077 18.4482 27.043C17.16 27.7988 15.6747 28.1507 14.1844 28.0533H6.67135V20.3831ZM45.9467 14.7856H39.2724V47.2911H45.9467V14.7856ZM84.7179 27.8729C84.1669 28.8306 83.418 29.6598 82.521 30.3051C83.8296 30.8962 84.9654 31.8119 85.8207 32.9653C86.9094 34.5035 87.4641 36.356 87.3998 38.2394C87.4601 39.5432 87.1936 40.8415 86.6247 42.0162C86.0557 43.1909 85.2025 44.2047 84.1421 44.9657C81.4003 46.6848 78.1871 47.4978 74.9576 47.2896H59.2909V14.7855H74.0858C77.131 14.6003 80.1549 15.4006 82.7101 17.0676C83.7161 17.798 84.527 18.7649 85.071 19.8829C85.615 21.0008 85.8754 22.2354 85.8293 23.4778C85.8598 25.016 85.4759 26.534 84.7179 27.8729ZM65.9622 41.6906H74.6054C78.6108 41.6906 80.6821 40.4147 80.6821 37.6491C80.6821 34.8836 78.6108 33.6075 74.6082 33.6075H65.9622V41.6906ZM73.4767 20.3831H65.9622V28.0533H73.4767C74.967 28.1508 76.4523 27.7989 77.7405 27.043C78.1692 26.7075 78.516 26.2787 78.7545 25.7893C78.9929 25.2999 79.1167 24.7626 79.1167 24.2182C79.1167 23.6738 78.9929 23.1364 78.7545 22.647C78.516 22.1576 78.1692 21.7289 77.7405 21.3934C76.4532 20.6354 74.9672 20.2833 73.4767 20.3831ZM105.238 14.7856H98.5632V47.2911H105.238V14.7856ZM140.924 47.2897L137.877 40.0034H123.3L120.295 47.2897H113.345L127.513 14.7855H133.752L147.962 47.2897H140.924ZM125.637 34.4016H135.579L130.591 22.4559L125.637 34.4016ZM162.698 14.7856H156.024V47.2911H162.698V14.7856Z" fill="white"/>
</svg>
