<svg width="535" height="53" viewBox="0 0 535 53" fill="none" xmlns="http://www.w3.org/2000/svg">
<path d="M5.62562 1.09091V52H0.977184V1.09091H5.62562ZM58.8092 1.09091V52H54.2851L24.2069 9.36861H23.8092V52H19.1608V1.09091H23.6601L53.8376 43.772H54.2354V1.09091H58.8092ZM72.3444 52V1.09091H101.801V5.26704H76.9928V24.4325H99.4893V28.6087H76.9928V52H72.3444ZM118.008 1.09091V52H113.36V1.09091H118.008ZM171.192 1.09091V52H166.668L136.59 9.36861H136.192V52H131.544V1.09091H136.043L166.22 43.772H166.618V1.09091H171.192ZM189.376 1.09091V52H184.727V1.09091H189.376ZM199.828 5.26704V1.09091H236.742V5.26704H220.61V52H215.961V5.26704H199.828ZM247.208 52V1.09091H276.739V5.26704H251.856V24.4325H275.173V28.6087H251.856V47.8239H277.236V52H247.208ZM335.056 14.4645C334.791 12.1113 333.697 10.2884 331.774 8.99574C329.852 7.68655 327.433 7.03196 324.516 7.03196C322.428 7.03196 320.621 7.3634 319.097 8.02628C317.572 8.67258 316.387 9.56747 315.542 10.7109C314.714 11.8378 314.299 13.1222 314.299 14.5639C314.299 15.7737 314.581 16.8177 315.144 17.696C315.724 18.5743 316.478 19.3118 317.407 19.9084C318.351 20.4884 319.362 20.9773 320.439 21.375C321.516 21.7562 322.552 22.071 323.546 22.3196L328.518 23.6122C330.142 24.0099 331.808 24.5485 333.514 25.228C335.221 25.9074 336.804 26.8023 338.262 27.9126C339.721 29.023 340.897 30.3984 341.792 32.0391C342.704 33.6797 343.159 35.6435 343.159 37.9304C343.159 40.8139 342.414 43.3743 340.922 45.6115C339.447 47.8487 337.301 49.6136 334.484 50.9062C331.683 52.1989 328.294 52.8452 324.317 52.8452C320.505 52.8452 317.208 52.2403 314.424 51.0305C311.639 49.8208 309.46 48.1056 307.886 45.8849C306.312 43.6477 305.442 40.9962 305.276 37.9304H312.982C313.131 39.7699 313.728 41.3028 314.772 42.5291C315.832 43.7389 317.183 44.642 318.823 45.2386C320.481 45.8187 322.295 46.1087 324.267 46.1087C326.438 46.1087 328.369 45.7689 330.059 45.0895C331.766 44.3935 333.108 43.4323 334.086 42.206C335.064 40.9631 335.553 39.513 335.553 37.8558C335.553 36.3478 335.122 35.1132 334.26 34.152C333.415 33.1908 332.263 32.3954 330.805 31.7656C329.363 31.1359 327.731 30.5807 325.908 30.1001L319.892 28.4595C315.816 27.3492 312.584 25.7169 310.198 23.5625C307.828 21.4081 306.643 18.5578 306.643 15.0114C306.643 12.0781 307.438 9.51775 309.029 7.33025C310.62 5.14275 312.775 3.44413 315.492 2.23438C318.21 1.00805 321.276 0.394884 324.69 0.394884C328.137 0.394884 331.178 0.999762 333.813 2.20952C336.464 3.41927 338.552 5.08475 340.077 7.20596C341.602 9.3106 342.397 11.7301 342.463 14.4645H335.056ZM396.56 26.5455C396.56 31.9811 395.566 36.6544 393.578 40.5653C391.589 44.4598 388.863 47.4593 385.399 49.5639C381.952 51.652 378.033 52.696 373.641 52.696C369.233 52.696 365.297 51.652 361.834 49.5639C358.387 47.4593 355.669 44.4515 353.68 40.5405C351.692 36.6295 350.698 31.9645 350.698 26.5455C350.698 21.1098 351.692 16.4448 353.68 12.5504C355.669 8.63944 358.387 5.63991 361.834 3.55185C365.297 1.4472 369.233 0.394884 373.641 0.394884C378.033 0.394884 381.952 1.4472 385.399 3.55185C388.863 5.63991 391.589 8.63944 393.578 12.5504C395.566 16.4448 396.56 21.1098 396.56 26.5455ZM388.954 26.5455C388.954 22.4025 388.283 18.9141 386.94 16.0803C385.615 13.2299 383.792 11.0755 381.472 9.61719C379.168 8.14228 376.558 7.40483 373.641 7.40483C370.708 7.40483 368.09 8.14228 365.786 9.61719C363.483 11.0755 361.66 13.2299 360.318 16.0803C358.992 18.9141 358.329 22.4025 358.329 26.5455C358.329 30.6884 358.992 34.1851 360.318 37.0355C361.66 39.8693 363.483 42.0237 365.786 43.4986C368.09 44.9569 370.708 45.6861 373.641 45.6861C376.558 45.6861 379.168 44.9569 381.472 43.4986C383.792 42.0237 385.615 39.8693 386.94 37.0355C388.283 34.1851 388.954 30.6884 388.954 26.5455ZM406.137 52V1.09091H413.818V45.3878H436.886V52H406.137ZM452.547 52H444.393L462.714 1.09091H471.588L489.908 52H481.755L467.362 10.3381H466.964L452.547 52ZM453.914 32.0639H480.363V38.527H453.914V32.0639ZM497.26 52V1.09091H515.406C519.35 1.09091 522.623 1.77036 525.225 3.12926C527.844 4.48816 529.799 6.36908 531.092 8.77202C532.384 11.1584 533.031 13.9176 533.031 17.0497C533.031 20.1652 532.376 22.9079 531.067 25.2777C529.774 27.6309 527.819 29.4621 525.2 30.7713C522.599 32.0805 519.326 32.7351 515.381 32.7351H501.635V26.1229H514.685C517.171 26.1229 519.193 25.7666 520.751 25.054C522.325 24.3414 523.477 23.3056 524.206 21.9467C524.935 20.5878 525.3 18.9555 525.3 17.0497C525.3 15.1274 524.927 13.4619 524.181 12.0533C523.452 10.6446 522.3 9.56747 520.726 8.82173C519.168 8.05942 517.122 7.67827 514.586 7.67827H504.941V52H497.26ZM522.391 29.0312L534.97 52H526.22L513.89 29.0312H522.391Z" fill="white"/>
</svg>
