<svg width="104" height="104" viewBox="0 0 104 104" fill="none" xmlns="http://www.w3.org/2000/svg">
<path fill-rule="evenodd" clip-rule="evenodd" d="M100 52C100 78.5097 78.5097 100 52 100C25.4903 100 4 78.5097 4 52C4 25.4903 25.4903 4 52 4C78.5097 4 100 25.4903 100 52ZM104 52C104 80.7188 80.7188 104 52 104C23.2812 104 0 80.7188 0 52C0 23.2812 23.2812 0 52 0C80.7188 0 104 23.2812 104 52ZM93 52C93 74.6437 74.6437 93 52 93C29.3563 93 11 74.6437 11 52C11 29.3563 29.3563 11 52 11C74.6437 11 93 29.3563 93 52ZM83 52C83 69.1208 69.1208 83 52 83C34.8792 83 21 69.1208 21 52C21 34.8792 34.8792 21 52 21C69.1208 21 83 34.8792 83 52Z" fill="white"/>
<path d="M39 58L52 45L65 58" stroke="white" stroke-width="5" stroke-linecap="round"/>
</svg>
