<svg width="608" height="87" viewBox="0 0 608 87" fill="none" xmlns="http://www.w3.org/2000/svg">
<rect x="45.6455" width="516.709" height="86.7267" fill="white"/>
<rect y="0.136597" width="2.73874" height="86.7267" fill="white"/>
<rect x="5.47754" y="0.136597" width="7.3033" height="86.7267" fill="white"/>
<rect x="20.084" y="0.136597" width="12.7808" height="86.7267" fill="white"/>
<rect x="2.73877" y="0.136597" width="2.73874" height="86.7267" fill="black"/>
<rect x="12.7808" y="0.136597" width="7.3033" height="86.7267" fill="black"/>
<rect x="32.8647" y="0.136597" width="12.7808" height="86.7267" fill="black"/>
<rect x="608" y="86.8633" width="2.73874" height="86.7267" transform="rotate(-180 608 86.8633)" fill="white"/>
<rect x="602.522" y="86.8633" width="7.3033" height="86.7267" transform="rotate(-180 602.522 86.8633)" fill="white"/>
<rect x="587.916" y="86.8633" width="12.7808" height="86.7267" transform="rotate(-180 587.916 86.8633)" fill="white"/>
<rect x="605.261" y="86.8633" width="2.73874" height="86.7267" transform="rotate(-180 605.261 86.8633)" fill="black"/>
<rect x="595.219" y="86.8633" width="7.3033" height="86.7267" transform="rotate(-180 595.219 86.8633)" fill="black"/>
<rect x="575.135" y="86.8633" width="12.7808" height="86.7267" transform="rotate(-180 575.135 86.8633)" fill="black"/>
</svg>
