<svg width="144" height="145" viewBox="0 0 144 145" fill="none" xmlns="http://www.w3.org/2000/svg">
<path d="M143.528 72.1836C143.528 32.3177 111.398 -2.49975e-05 71.7639 -2.15326e-05C32.1298 -1.80677e-05 5.46311e-06 32.3177 8.9483e-06 72.1836C1.24335e-05 112.049 32.1298 144.367 71.764 144.367C111.398 144.367 143.528 112.049 143.528 72.1836Z" fill="black"/>
<path fill-rule="evenodd" clip-rule="evenodd" d="M71.7639 1.99998C110.283 1.99998 141.528 33.4112 141.528 72.1836C141.528 110.956 110.283 142.367 71.764 142.367C33.2454 142.367 2.00001 110.956 2.00001 72.1836C2.00001 33.4112 33.2454 1.99998 71.7639 1.99998ZM71.7639 -2.15326e-05C111.398 -2.49975e-05 143.528 32.3177 143.528 72.1836C143.528 112.049 111.398 144.367 71.764 144.367C32.1298 144.367 1.24335e-05 112.049 8.9483e-06 72.1836C5.46311e-06 32.3177 32.1298 -1.80677e-05 71.7639 -2.15326e-05Z" fill="white"/>
</svg>
