<svg width="145" height="145" viewBox="0 0 145 145" fill="none" xmlns="http://www.w3.org/2000/svg">
<path d="M144.318 72.1836C144.318 32.3177 112.189 -2.49975e-05 72.5545 -2.15326e-05C32.9203 -1.80677e-05 0.790518 32.3177 0.790521 72.1836C0.790525 112.049 32.9203 144.367 72.5545 144.367C112.189 144.367 144.318 112.049 144.318 72.1836Z" fill="white"/>
<path fill-rule="evenodd" clip-rule="evenodd" d="M143.715 62.7826L140.74 63.1673C141.121 66.1171 141.318 69.1264 141.318 72.1836C141.318 75.2407 141.121 78.2501 140.74 81.1998L143.715 81.5845C144.113 78.5075 144.318 75.3697 144.318 72.1836C144.318 68.9975 144.113 65.8596 143.715 62.7826ZM138.901 99.7461L136.126 98.6055C133.817 104.224 130.793 109.47 127.167 114.229L129.553 116.047C133.336 111.082 136.491 105.609 138.901 99.7461ZM116.323 129.392L114.485 127.021C109.751 130.691 104.529 133.754 98.9355 136.094L100.093 138.861C105.933 136.418 111.383 133.222 116.323 129.392ZM81.9544 143.754L81.563 140.779C78.6161 141.167 75.6093 141.367 72.5545 141.367C69.4996 141.367 66.4928 141.167 63.5459 140.779L63.1545 143.754C66.2308 144.158 69.3684 144.367 72.5545 144.367C75.7405 144.367 78.8781 144.158 81.9544 143.754ZM45.0157 138.861L46.1735 136.094C40.5801 133.754 35.3583 130.691 30.6236 127.021L28.7856 129.392C33.7257 133.222 39.1757 136.418 45.0157 138.861ZM15.5556 116.047L17.942 114.229C14.3163 109.47 11.2919 104.224 8.98253 98.6055L6.20782 99.7461C8.61771 105.609 11.7733 111.082 15.5556 116.047ZM1.39361 81.5846C0.995741 78.5075 0.790521 75.3697 0.790521 72.1836C0.790521 68.9975 0.99574 65.8596 1.39361 62.7826L4.36884 63.1673C3.98743 66.1171 3.79052 69.1265 3.79052 72.1836C3.79052 75.2407 3.98743 78.2501 4.36884 81.1998L1.39361 81.5846ZM6.20781 44.6211L8.98252 45.7617C11.2919 40.1436 14.3163 34.8974 17.942 30.1378L15.5556 28.3199C11.7733 33.285 8.61771 38.7586 6.20781 44.6211ZM28.7856 14.9752L30.6236 17.3462C35.3583 13.6758 40.5801 10.6134 46.1735 8.27348L45.0157 5.50589C39.1757 7.94893 33.7257 11.1456 28.7856 14.9752ZM63.1545 0.613627L63.5459 3.58799C66.4928 3.2002 69.4996 2.99998 72.5545 2.99998C75.6093 2.99998 78.6161 3.2002 81.563 3.58799L81.9544 0.613625C78.8781 0.20881 75.7405 -2.18111e-05 72.5545 -2.15326e-05C69.3684 -2.12541e-05 66.2308 0.208811 63.1545 0.613627ZM100.093 5.50588L98.9354 8.27347C104.529 10.6134 109.751 13.6758 114.485 17.3462L116.323 14.9751C111.383 11.1456 105.933 7.94892 100.093 5.50588ZM129.553 28.3199L127.167 30.1378C130.793 34.8973 133.817 40.1436 136.126 45.7617L138.901 44.6211C136.491 38.7585 133.336 33.2849 129.553 28.3199Z" fill="black" fill-opacity="0.3"/>
</svg>
