<svg width="161" height="66" viewBox="0 0 161 66" fill="none" xmlns="http://www.w3.org/2000/svg">
<path fill-rule="evenodd" clip-rule="evenodd" d="M48.2613 32.5165C48.2613 40.5064 41.7385 47.0331 33.6307 47.0331C25.5228 47.0331 19 40.5064 19 32.5165C19 24.5267 25.5228 18 33.6307 18C41.7385 18 48.2613 24.5267 48.2613 32.5165ZM53.2613 32.5165C53.2613 43.2952 44.4724 52.0331 33.6307 52.0331C22.789 52.0331 14 43.2952 14 32.5165C14 21.7379 22.789 13 33.6307 13C44.4724 13 53.2613 21.7379 53.2613 32.5165Z" fill="white"/>
<path d="M37.3076 30.4337C38.5419 32.5716 37.8195 35.2995 35.6941 36.5267C33.5686 37.7538 30.845 37.0155 29.6107 34.8776C28.3763 32.7397 29.0988 30.0118 31.2242 28.7847C33.3497 27.5575 36.0733 28.2958 37.3076 30.4337Z" fill="white"/>
<path fill-rule="evenodd" clip-rule="evenodd" d="M33.1941 32.1965C32.9043 32.3638 32.8449 32.704 32.9775 32.9337C33.1101 33.1635 33.4345 33.2821 33.7242 33.1148C34.014 32.9475 34.0734 32.6073 33.9408 32.3776C33.8081 32.1479 33.4838 32.0292 33.1941 32.1965ZM35.6941 36.5267C37.8195 35.2995 38.5419 32.5716 37.3076 30.4337C36.0733 28.2958 33.3497 27.5575 31.2242 28.7847C29.0988 30.0118 28.3763 32.7397 29.6107 34.8776C30.845 37.0155 33.5686 37.7538 35.6941 36.5267Z" fill="white"/>
<path fill-rule="evenodd" clip-rule="evenodd" d="M153 2H8C4.68629 2 2 4.68629 2 8V58C2 61.3137 4.68629 64 8 64H153C156.314 64 159 61.3137 159 58V8C159 4.68629 156.314 2 153 2ZM8 0C3.58172 0 0 3.58172 0 8V58C0 62.4183 3.58172 66 8 66H153C157.418 66 161 62.4183 161 58V8C161 3.58172 157.418 0 153 0H8Z" fill="white"/>
</svg>
