<svg width="104" height="105" viewBox="0 0 104 105" fill="none" xmlns="http://www.w3.org/2000/svg">
<path fill-rule="evenodd" clip-rule="evenodd" d="M76.2761 93.9175C69.1539 98.1011 60.8571 100.5 52 100.5C25.4903 100.5 4 79.0097 4 52.5C4 39.958 8.81024 28.5395 16.6865 19.9888C18.1839 20.824 19.9091 21.3 21.7455 21.3C27.4892 21.3 32.1455 16.6438 32.1455 10.9C32.1455 10.2074 32.0778 9.53066 31.9486 8.87596C38.0503 6.06673 44.8422 4.5 52 4.5C78.5097 4.5 100 25.9903 100 52.5C100 63.1662 96.521 73.0198 90.6359 80.988C89.2492 80.3031 87.6877 79.9182 86.0364 79.9182C80.2926 79.9182 75.6364 84.5744 75.6364 90.3182C75.6364 91.5835 75.8623 92.796 76.2761 93.9175ZM78.3589 97.3338C70.6299 101.888 61.62 104.5 52 104.5C23.2812 104.5 0 81.2188 0 52.5C0 38.9735 5.16464 26.6534 13.6295 17.4038C12.2004 15.6228 11.3455 13.3612 11.3455 10.9C11.3455 5.15624 16.0017 0.5 21.7455 0.5C25.3727 0.5 28.5662 2.35694 30.4273 5.17203C36.9988 2.1718 44.3042 0.5 52 0.5C80.7188 0.5 104 23.7812 104 52.5C104 64.079 100.215 74.7741 93.8158 83.4158C95.4462 85.252 96.4364 87.6695 96.4364 90.3182C96.4364 96.0619 91.7801 100.718 86.0364 100.718C82.9961 100.718 80.2606 99.4136 78.3589 97.3338ZM52 79.9182C67.1426 79.9182 79.4182 67.6426 79.4182 52.5C79.4182 37.3574 67.1426 25.0818 52 25.0818C36.8574 25.0818 24.5818 37.3574 24.5818 52.5C24.5818 67.6426 36.8574 79.9182 52 79.9182Z" fill="white"/>
</svg>
