<svg width="161" height="66" viewBox="0 0 161 66" fill="none" xmlns="http://www.w3.org/2000/svg">
<path fill-rule="evenodd" clip-rule="evenodd" d="M48.2265 32.5C48.2265 35.4126 47.3628 38.2598 45.7446 40.6816C44.1265 43.1033 41.8265 44.9909 39.1356 46.1055C36.4447 47.2201 33.4837 47.5117 30.627 46.9435C27.7704 46.3753 25.1464 44.9727 23.0868 42.9132C21.0273 40.8536 19.6247 38.2296 19.0565 35.373C18.4883 32.5163 18.7799 29.5553 19.8945 26.8644C21.0091 24.1735 22.8967 21.8735 25.3184 20.2554C27.7402 18.6372 30.5874 17.7735 33.5 17.7735V13C32.1492 13 30.8091 13.1403 29.5 13.4147C27.0715 13.9237 24.75 14.8941 22.6664 16.2863C19.4596 18.429 16.9603 21.4745 15.4844 25.0377C14.0084 28.6008 13.6223 32.5216 14.3747 36.3043C15.1271 40.0869 16.9843 43.5615 19.7114 46.2886C22.4385 49.0157 25.9131 50.8729 29.6957 51.6253C33.4784 52.3777 37.3992 51.9916 40.9623 50.5156C44.5255 49.0397 47.571 46.5404 49.7137 43.3336C51.1059 41.25 52.0763 38.9285 52.5853 36.5C52.8597 35.1909 53 33.8508 53 32.5H48.2265Z" fill="white"/>
<path fill-rule="evenodd" clip-rule="evenodd" d="M153 2H8C4.68629 2 2 4.68629 2 8V58C2 61.3137 4.68629 64 8 64H153C156.314 64 159 61.3137 159 58V8C159 4.68629 156.314 2 153 2ZM8 0C3.58172 0 0 3.58172 0 8V58C0 62.4183 3.58172 66 8 66H153C157.418 66 161 62.4183 161 58V8C161 3.58172 157.418 0 153 0H8Z" fill="white"/>
</svg>
