<svg width="208" height="210" viewBox="0 0 208 210" fill="none" xmlns="http://www.w3.org/2000/svg">
<path fill-rule="evenodd" clip-rule="evenodd" d="M208 0.425781C203.701 0.143555 199.363 0 194.992 0C87.301 0 0 87.0806 0 194.5C0 199.717 0.205811 204.886 0.610107 210H14.6582C14.2224 204.891 14 199.721 14 194.5C14 94.8462 94.9998 14 194.992 14C199.366 14 203.704 14.1548 208 14.459V0.425781ZM208 107.312C203.755 106.685 199.412 106.359 194.992 106.359C146.314 106.359 106.852 145.821 106.852 194.5C106.852 199.789 107.317 204.968 108.21 210H208V107.312Z" fill="white"/>
</svg>
