<svg width="92" height="107" viewBox="0 0 92 107" fill="none" xmlns="http://www.w3.org/2000/svg">
<path fill-rule="evenodd" clip-rule="evenodd" d="M46 4.5C26.3641 4.5 10.2068 19.3933 8.20802 38.5H83.792C81.7932 19.3933 65.6359 4.5 46 4.5ZM87.8953 39.5107C86.3622 17.7098 68.1909 0.5 46 0.5C23.8091 0.5 5.63777 17.7098 4.10474 39.5107C1.65589 40.8784 0 43.4958 0 46.5V98.5C0 102.918 3.58172 106.5 8 106.5H84C88.4183 106.5 92 102.918 92 98.5V46.5C92 43.4958 90.3441 40.8784 87.8953 39.5107ZM45.5 52.5L52.4888 63.3808L64.9967 66.6652L56.8081 76.6742L57.5496 89.5849L45.5 84.89L33.4504 89.5849L34.1919 76.6742L26.0033 66.6652L38.5112 63.3808L45.5 52.5Z" fill="white"/>
</svg>
