<svg width="68" height="68" viewBox="0 0 68 68" fill="none" xmlns="http://www.w3.org/2000/svg">
<path fill-rule="evenodd" clip-rule="evenodd" d="M5.73003 52.8894C1.99406 47.2981 -1.19225e-06 40.7245 -1.48619e-06 34L4 34C4 39.9334 5.75947 45.7336 9.05591 50.6671C12.3524 55.6006 17.0377 59.4457 22.5195 61.7164C28.0013 63.987 34.0333 64.5811 39.8527 63.4235C45.6721 62.266 51.0176 59.4088 55.2132 55.2132C59.4088 51.0176 62.266 45.6721 63.4236 39.8527C64.5811 34.0333 63.987 28.0013 61.7164 22.5195C59.4458 17.0377 55.6006 12.3523 50.6671 9.05589C45.7336 5.75945 39.9334 3.99998 34 3.99998L34 -1.6745e-05C40.7246 -1.70389e-05 47.2981 1.99405 52.8894 5.73002C58.4807 9.46598 62.8385 14.7761 65.4119 20.9887C67.9853 27.2014 68.6586 34.0377 67.3467 40.6331C66.0348 47.2284 62.7966 53.2866 58.0416 58.0416C53.2866 62.7966 47.2284 66.0348 40.6331 67.3467C34.0377 68.6586 27.2015 67.9853 20.9888 65.4119C14.7761 62.8385 9.466 58.4806 5.73003 52.8894Z" fill="white"/>
<ellipse cx="34" cy="34.0001" rx="10.9091" ry="10.9091" transform="rotate(-90 34 34.0001)" fill="white"/>
</svg>
