<svg width="161" height="66" viewBox="0 0 161 66" fill="none" xmlns="http://www.w3.org/2000/svg">
<path d="M33.5 12L40.4888 22.8808L52.9967 26.1652L44.8081 36.1742L45.5496 49.0849L33.5 44.39L21.4504 49.0849L22.192 36.1742L14.0034 26.1652L26.5112 22.8808L33.5 12Z" fill="white"/>
<path fill-rule="evenodd" clip-rule="evenodd" d="M153 2H8C4.68629 2 2 4.68629 2 8V58C2 61.3137 4.68629 64 8 64H153C156.314 64 159 61.3137 159 58V8C159 4.68629 156.314 2 153 2ZM8 0C3.58172 0 0 3.58172 0 8V58C0 62.4183 3.58172 66 8 66H153C157.418 66 161 62.4183 161 58V8C161 3.58172 157.418 0 153 0H8Z" fill="white"/>
</svg>
