<svg width="66" height="66" viewBox="0 0 66 66" fill="none" xmlns="http://www.w3.org/2000/svg">
<path fill-rule="evenodd" clip-rule="evenodd" d="M5 0C2.23859 0 0 2.23859 0 5V61C0 63.7614 2.23859 66 5 66H61C63.7614 66 66 63.7614 66 61V5C66 2.23859 63.7614 0 61 0H5ZM22 27C22 24.2386 24.2386 22 27 22H39C41.7614 22 44 24.2386 44 27V39C44 41.7614 41.7614 44 39 44H27C24.2386 44 22 41.7614 22 39V27ZM28.2857 30.2857C28.2857 29.1812 29.1812 28.2857 30.2857 28.2857H35.7143C36.8188 28.2857 37.7143 29.1812 37.7143 30.2857V35.7143C37.7143 36.8188 36.8188 37.7143 35.7143 37.7143H30.2857C29.1812 37.7143 28.2857 36.8188 28.2857 35.7143V30.2857Z" fill="black"/>
</svg>
