<svg width="66" height="66" viewBox="0 0 66 66" fill="none" xmlns="http://www.w3.org/2000/svg">
<mask id="path-1-inside-1_92_760" fill="white">
<path fill-rule="evenodd" clip-rule="evenodd" d="M5 0C2.23858 0 0 2.23858 0 5V61C0 63.7614 2.23858 66 5 66H61C63.7614 66 66 63.7614 66 61V5C66 2.23858 63.7614 0 61 0H5ZM29.9377 21.3076C28.8159 20.9789 27.6365 20.9126 26.4865 21.1136C25.0678 21.3616 23.7437 22.0073 22.6609 22.9794C21.5781 23.9515 20.7788 25.2119 20.3515 26.6212C19.9243 28.0304 19.8857 29.5333 20.2401 30.9636C20.5945 32.394 21.3281 33.6958 22.3595 34.7249L32.096 44.6146L32.2182 44.7238C32.4674 44.9203 32.7775 45.0175 33.0913 44.9974C33.405 44.9773 33.7009 44.8413 33.9243 44.6146L43.605 34.7822L43.6674 34.7276L43.9013 34.481C44.861 33.4273 45.525 32.1271 45.823 30.7179C46.1209 29.3088 46.0417 27.8433 45.5937 26.4766C45.1457 25.1099 44.3456 23.8929 43.2781 22.9544C42.2107 22.0159 40.9156 21.3909 39.53 21.1456L39.2104 21.0976C38.1111 20.9507 36.994 21.0459 35.9335 21.3767C34.8729 21.7076 33.8934 22.2666 33.0602 23.0164L33.016 23.0563L32.968 23.0124C32.095 22.2188 31.0594 21.6362 29.9377 21.3076Z"/>
</mask>
<path fill-rule="evenodd" clip-rule="evenodd" d="M5 0C2.23858 0 0 2.23858 0 5V61C0 63.7614 2.23858 66 5 66H61C63.7614 66 66 63.7614 66 61V5C66 2.23858 63.7614 0 61 0H5ZM29.9377 21.3076C28.8159 20.9789 27.6365 20.9126 26.4865 21.1136C25.0678 21.3616 23.7437 22.0073 22.6609 22.9794C21.5781 23.9515 20.7788 25.2119 20.3515 26.6212C19.9243 28.0304 19.8857 29.5333 20.2401 30.9636C20.5945 32.394 21.3281 33.6958 22.3595 34.7249L32.096 44.6146L32.2182 44.7238C32.4674 44.9203 32.7775 45.0175 33.0913 44.9974C33.405 44.9773 33.7009 44.8413 33.9243 44.6146L43.605 34.7822L43.6674 34.7276L43.9013 34.481C44.861 33.4273 45.525 32.1271 45.823 30.7179C46.1209 29.3088 46.0417 27.8433 45.5937 26.4766C45.1457 25.1099 44.3456 23.8929 43.2781 22.9544C42.2107 22.0159 40.9156 21.3909 39.53 21.1456L39.2104 21.0976C38.1111 20.9507 36.994 21.0459 35.9335 21.3767C34.8729 21.7076 33.8934 22.2666 33.0602 23.0164L33.016 23.0563L32.968 23.0124C32.095 22.2188 31.0594 21.6362 29.9377 21.3076Z" fill="black"/>
<path d="M26.4865 21.1136L26.3143 20.1285L26.3143 20.1285L26.4865 21.1136ZM29.9377 21.3076L30.2188 20.3479L30.2188 20.3479L29.9377 21.3076ZM22.6609 22.9794L23.329 23.7236L23.329 23.7236L22.6609 22.9794ZM20.3515 26.6212L21.3085 26.9113L21.3085 26.9113L20.3515 26.6212ZM22.3595 34.7249L23.0721 34.0233L23.0658 34.017L22.3595 34.7249ZM32.096 44.6146L31.3834 45.3161L31.4057 45.3388L31.4293 45.3599L32.096 44.6146ZM32.2182 44.7238L31.5515 45.4692L31.5746 45.4899L31.599 45.5091L32.2182 44.7238ZM33.0913 44.9974L33.0273 43.9994L33.0273 43.9995L33.0913 44.9974ZM33.9243 44.6146L34.6366 45.3164L34.6369 45.3162L33.9243 44.6146ZM43.605 34.7822L42.9461 34.03L42.9183 34.0543L42.8924 34.0806L43.605 34.7822ZM43.6674 34.7276L44.3263 35.4798L44.361 35.4493L44.3928 35.4159L43.6674 34.7276ZM43.9013 34.481L44.6267 35.1693L44.6337 35.162L44.6406 35.1544L43.9013 34.481ZM45.823 30.7179L46.8013 30.9248L46.8013 30.9248L45.823 30.7179ZM45.5937 26.4766L46.5439 26.1651L46.5439 26.1651L45.5937 26.4766ZM43.2781 22.9544L42.6179 23.7054L42.6179 23.7054L43.2781 22.9544ZM39.53 21.1456L39.7044 20.1609L39.6914 20.1586L39.6784 20.1566L39.53 21.1456ZM39.2104 21.0976L39.3588 20.1087L39.3508 20.1075L39.3428 20.1064L39.2104 21.0976ZM33.0602 23.0164L32.3913 22.273L32.3893 22.2749L33.0602 23.0164ZM33.016 23.0563L32.3412 23.7943L33.0124 24.4082L33.687 23.7978L33.016 23.0563ZM32.968 23.0124L33.6428 22.2744L33.6406 22.2724L32.968 23.0124ZM1 5C1 2.79086 2.79086 1 5 1V-1C1.68629 -1 -1 1.68629 -1 5H1ZM1 61V5H-1V61H1ZM5 65C2.79086 65 1 63.2091 1 61H-1C-1 64.3137 1.68629 67 5 67V65ZM61 65H5V67H61V65ZM65 61C65 63.2091 63.2091 65 61 65V67C64.3137 67 67 64.3137 67 61H65ZM65 5V61H67V5H65ZM61 1C63.2091 1 65 2.79086 65 5H67C67 1.68629 64.3137 -1 61 -1V1ZM5 1H61V-1H5V1ZM26.6586 22.0987C27.6574 21.9241 28.6817 21.9816 29.6565 22.2672L30.2188 20.3479C28.9501 19.9762 27.6156 19.9011 26.3143 20.1285L26.6586 22.0987ZM23.329 23.7236C24.2739 22.8753 25.4266 22.314 26.6586 22.0987L26.3143 20.1285C24.709 20.4091 23.2136 21.1394 21.9929 22.2353L23.329 23.7236ZM21.3085 26.9113C21.6834 25.6748 22.3838 24.572 23.329 23.7236L21.9929 22.2353C20.7724 23.331 19.8742 24.7491 19.3946 26.331L21.3085 26.9113ZM21.2108 30.7231C20.8997 29.4676 20.9336 28.148 21.3085 26.9113L19.3946 26.331C18.915 27.9128 18.8718 29.5991 19.2695 31.2042L21.2108 30.7231ZM23.0658 34.017C22.165 33.1182 21.5218 31.9786 21.2108 30.7231L19.2695 31.2042C19.6672 32.8093 20.4911 34.2733 21.6532 35.4328L23.0658 34.017ZM32.8086 43.913L23.0721 34.0233L21.6469 35.4265L31.3834 45.3161L32.8086 43.913ZM32.8849 43.9785L32.7627 43.8692L31.4293 45.3599L31.5515 45.4692L32.8849 43.9785ZM33.0273 43.9995C32.9623 44.0036 32.8949 43.9839 32.8374 43.9386L31.599 45.5091C32.0399 45.8567 32.5928 46.0314 33.1552 45.9954L33.0273 43.9995ZM33.212 43.9127C33.1586 43.9669 33.0925 43.9953 33.0273 43.9994L33.1552 45.9954C33.7174 45.9594 34.2432 45.7157 34.6366 45.3164L33.212 43.9127ZM42.8924 34.0806L33.2117 43.913L34.6369 45.3162L44.3176 35.4838L42.8924 34.0806ZM43.0084 33.9753L42.9461 34.03L44.2639 35.5344L44.3263 35.4798L43.0084 33.9753ZM43.1758 33.7927L42.9419 34.0393L44.3928 35.4159L44.6267 35.1693L43.1758 33.7927ZM44.8446 30.5111C44.583 31.7481 44.0006 32.8869 43.162 33.8077L44.6406 35.1544C45.7214 33.9678 46.467 32.506 46.8013 30.9248L44.8446 30.5111ZM44.6434 26.7881C45.0365 27.9873 45.1062 29.274 44.8446 30.5111L46.8013 30.9248C47.1356 29.3437 47.0468 27.6994 46.5439 26.1651L44.6434 26.7881ZM42.6179 23.7054C43.5495 24.5244 44.2504 25.589 44.6434 26.7881L46.5439 26.1651C46.041 24.6307 45.1417 23.2613 43.9384 22.2033L42.6179 23.7054ZM39.3557 22.1302C40.559 22.3433 41.6865 22.8865 42.6179 23.7054L43.9384 22.2033C42.7349 21.1452 41.2722 20.4385 39.7044 20.1609L39.3557 22.1302ZM39.062 22.0865L39.3816 22.1345L39.6784 20.1566L39.3588 20.1087L39.062 22.0865ZM36.2313 22.3313C37.153 22.0438 38.1233 21.9612 39.0779 22.0888L39.3428 20.1064C38.0989 19.9402 36.835 20.0479 35.6356 20.4221L36.2313 22.3313ZM33.7291 23.7597C34.4563 23.1053 35.3095 22.6189 36.2313 22.3313L35.6356 20.4221C34.4364 20.7963 33.3305 21.4278 32.3913 22.273L33.7291 23.7597ZM33.687 23.7978L33.7312 23.7579L32.3893 22.2749L32.3451 22.3148L33.687 23.7978ZM32.2931 23.7503L32.3412 23.7943L33.6909 22.3184L33.6428 22.2744L32.2931 23.7503ZM29.6565 22.2672C30.6314 22.5528 31.5334 23.0597 32.2953 23.7523L33.6406 22.2724C32.6566 21.3778 31.4874 20.7195 30.2188 20.3479L29.6565 22.2672Z" fill="black" mask="url(#path-1-inside-1_92_760)"/>
</svg>
