<svg width="66" height="66" viewBox="0 0 66 66" fill="none" xmlns="http://www.w3.org/2000/svg">
<mask id="path-1-inside-1_115_839" fill="white">
<path fill-rule="evenodd" clip-rule="evenodd" d="M5 0C2.23858 0 0 2.23858 0 5V61C0 63.7614 2.23858 66 5 66H61C63.7614 66 66 63.7614 66 61V5C66 2.23858 63.7614 0 61 0H5ZM32.9972 18.8333L32.8357 18.8432C32.7789 18.8496 32.7212 18.8596 32.6657 18.873L32.507 18.9211C32.3984 18.9612 32.2951 19.0145 32.1996 19.0798L32.0636 19.1861L31.691 19.5048C28.7048 21.9854 24.9001 23.262 21.0221 23.0847C20.7053 23.0703 20.3929 23.1625 20.1347 23.3467C19.8766 23.5308 19.6877 23.7963 19.5983 24.1005C18.9022 26.4686 18.6892 28.9526 18.9721 31.4047C19.2549 33.8568 20.0278 36.227 21.2448 38.3745C22.4618 40.522 24.0981 42.4029 26.0564 43.9055C28.0147 45.4081 30.2551 46.5017 32.6444 47.1213C32.8776 47.1818 33.1224 47.1818 33.3556 47.1213C35.7448 46.5015 37.985 45.4078 39.9432 43.9052C41.9013 42.4025 43.5374 40.5215 44.7543 38.3741C45.9711 36.2266 46.7439 33.8564 47.0267 31.4044C47.3094 28.9524 47.0964 26.4685 46.4002 24.1005C46.3108 23.7963 46.122 23.5308 45.8638 23.3467C45.6057 23.1625 45.2933 23.0703 44.9765 23.0847L44.492 23.0989C40.7773 23.1532 37.1654 21.8785 34.3076 19.5048L33.9463 19.196L33.799 19.0798C33.7034 19.0145 33.6002 18.9612 33.4916 18.9211L33.3343 18.873L33.2479 18.8546L33.1643 18.8432L32.9972 18.8333Z"/>
</mask>
<path fill-rule="evenodd" clip-rule="evenodd" d="M5 0C2.23858 0 0 2.23858 0 5V61C0 63.7614 2.23858 66 5 66H61C63.7614 66 66 63.7614 66 61V5C66 2.23858 63.7614 0 61 0H5ZM32.9972 18.8333L32.8357 18.8432C32.7789 18.8496 32.7212 18.8596 32.6657 18.873L32.507 18.9211C32.3984 18.9612 32.2951 19.0145 32.1996 19.0798L32.0636 19.1861L31.691 19.5048C28.7048 21.9854 24.9001 23.262 21.0221 23.0847C20.7053 23.0703 20.3929 23.1625 20.1347 23.3467C19.8766 23.5308 19.6877 23.7963 19.5983 24.1005C18.9022 26.4686 18.6892 28.9526 18.9721 31.4047C19.2549 33.8568 20.0278 36.227 21.2448 38.3745C22.4618 40.522 24.0981 42.4029 26.0564 43.9055C28.0147 45.4081 30.2551 46.5017 32.6444 47.1213C32.8776 47.1818 33.1224 47.1818 33.3556 47.1213C35.7448 46.5015 37.985 45.4078 39.9432 43.9052C41.9013 42.4025 43.5374 40.5215 44.7543 38.3741C45.9711 36.2266 46.7439 33.8564 47.0267 31.4044C47.3094 28.9524 47.0964 26.4685 46.4002 24.1005C46.3108 23.7963 46.122 23.5308 45.8638 23.3467C45.6057 23.1625 45.2933 23.0703 44.9765 23.0847L44.492 23.0989C40.7773 23.1532 37.1654 21.8785 34.3076 19.5048L33.9463 19.196L33.799 19.0798C33.7034 19.0145 33.6002 18.9612 33.4916 18.9211L33.3343 18.873L33.2479 18.8546L33.1643 18.8432L32.9972 18.8333Z" fill="black"/>
<path d="M32.8357 18.8432L32.7744 17.8451L32.7489 17.8467L32.7236 17.8495L32.8357 18.8432ZM32.9972 18.8333L33.0564 17.8351L32.9961 17.8315L32.9359 17.8352L32.9972 18.8333ZM32.6657 18.873L32.4309 17.9009L32.4028 17.9077L32.3752 17.9161L32.6657 18.873ZM32.507 18.9211L32.2165 17.9643L32.1885 17.9728L32.1611 17.9829L32.507 18.9211ZM32.1996 19.0798L31.6351 18.2543L31.6089 18.2722L31.5839 18.2918L32.1996 19.0798ZM32.0636 19.1861L31.4479 18.398L31.4304 18.4117L31.4135 18.4262L32.0636 19.1861ZM31.691 19.5048L32.33 20.274L32.3356 20.2694L32.3411 20.2647L31.691 19.5048ZM21.0221 23.0847L21.0677 22.0858L21.0677 22.0858L21.0221 23.0847ZM20.1347 23.3467L19.554 22.5326L19.554 22.5326L20.1347 23.3467ZM19.5983 24.1005L20.5577 24.3825L20.5578 24.3824L19.5983 24.1005ZM21.2448 38.3745L20.3748 38.8675L20.3748 38.8675L21.2448 38.3745ZM26.0564 43.9055L26.6651 43.1121L26.6651 43.1121L26.0564 43.9055ZM32.6444 47.1213L32.3934 48.0893L32.3934 48.0893L32.6444 47.1213ZM33.3556 47.1213L33.6066 48.0893L33.6067 48.0893L33.3556 47.1213ZM44.7543 38.3741L45.6243 38.8671L45.6243 38.8671L44.7543 38.3741ZM47.0267 31.4044L48.0201 31.519L48.0201 31.519L47.0267 31.4044ZM46.4002 24.1005L45.4408 24.3824L45.4408 24.3825L46.4002 24.1005ZM45.8638 23.3467L45.283 24.1607L45.283 24.1607L45.8638 23.3467ZM44.9765 23.0847L45.0057 24.0843L45.0139 24.0841L45.0221 24.0837L44.9765 23.0847ZM44.492 23.0989L44.5066 24.0988L44.5139 24.0987L44.5212 24.0985L44.492 23.0989ZM34.3076 19.5048L33.6578 20.2649L33.6632 20.2695L33.6686 20.2741L34.3076 19.5048ZM33.9463 19.196L34.5961 18.4359L34.5811 18.423L34.5655 18.4107L33.9463 19.196ZM33.799 19.0798L34.4181 18.2945L34.3915 18.2735L34.3634 18.2543L33.799 19.0798ZM33.4916 18.9211L33.8375 17.9829L33.8112 17.9732L33.7845 17.965L33.4916 18.9211ZM33.3343 18.873L33.6272 17.9168L33.5855 17.904L33.5428 17.8949L33.3343 18.873ZM33.2479 18.8546L33.4563 17.8765L33.4196 17.8687L33.3823 17.8636L33.2479 18.8546ZM33.1643 18.8432L33.2987 17.8523L33.2613 17.8472L33.2235 17.845L33.1643 18.8432ZM1 5C1 2.79086 2.79086 1 5 1V-1C1.68629 -1 -1 1.68629 -1 5H1ZM1 61V5H-1V61H1ZM5 65C2.79086 65 1 63.2091 1 61H-1C-1 64.3137 1.68629 67 5 67V65ZM61 65H5V67H61V65ZM65 61C65 63.2091 63.2091 65 61 65V67C64.3137 67 67 64.3137 67 61H65ZM65 5V61H67V5H65ZM61 1C63.2091 1 65 2.79086 65 5H67C67 1.68629 64.3137 -1 61 -1V1ZM5 1H61V-1H5V1ZM32.8969 19.8413L33.0584 19.8314L32.9359 17.8352L32.7744 17.8451L32.8969 19.8413ZM32.9005 19.845C32.9129 19.842 32.9294 19.839 32.9478 19.8369L32.7236 17.8495C32.6284 17.8603 32.5295 17.8771 32.4309 17.9009L32.9005 19.845ZM32.7975 19.878L32.9561 19.8299L32.3752 17.9161L32.2165 17.9643L32.7975 19.878ZM32.764 19.9053C32.7916 19.8864 32.8215 19.871 32.8529 19.8594L32.1611 17.9829C31.9753 18.0514 31.7986 18.1425 31.6351 18.2543L32.764 19.9053ZM32.6792 19.9741L32.8152 19.8678L31.5839 18.2918L31.4479 18.398L32.6792 19.9741ZM32.3411 20.2647L32.7137 19.9459L31.4135 18.4262L31.0409 18.7449L32.3411 20.2647ZM20.9764 24.0837C25.1033 24.2723 29.1521 22.9138 32.33 20.274L31.052 18.7356C28.2574 21.057 24.697 22.2517 21.0677 22.0858L20.9764 24.0837ZM20.7155 24.1607C20.7914 24.1066 20.8833 24.0794 20.9765 24.0837L21.0677 22.0858C20.5273 22.0611 19.9943 22.2185 19.554 22.5326L20.7155 24.1607ZM20.5578 24.3824C20.584 24.293 20.6396 24.2149 20.7155 24.1607L19.554 22.5326C19.1136 22.8468 18.7914 23.2995 18.6389 23.8185L20.5578 24.3824ZM19.9655 31.2901C19.698 28.9711 19.8994 26.6221 20.5577 24.3825L18.6389 23.8185C17.905 26.3152 17.6805 28.934 17.9787 31.5193L19.9655 31.2901ZM22.1148 37.8814C20.9639 35.8506 20.233 33.609 19.9655 31.2901L17.9787 31.5193C18.2769 34.1045 19.0917 36.6034 20.3748 38.8675L22.1148 37.8814ZM26.6651 43.1121C24.8132 41.6911 23.2657 39.9123 22.1148 37.8814L20.3748 38.8675C21.6579 41.1316 23.383 43.1147 25.4476 44.6989L26.6651 43.1121ZM32.8954 46.1533C30.6358 45.5674 28.5171 44.5331 26.6651 43.1121L25.4476 44.6989C27.5123 46.2831 29.8743 47.436 32.3934 48.0893L32.8954 46.1533ZM33.1046 46.1533C33.036 46.1711 32.964 46.1711 32.8954 46.1533L32.3934 48.0893C32.7912 48.1925 33.2088 48.1925 33.6066 48.0893L33.1046 46.1533ZM39.3344 43.1118C37.4825 44.5329 35.3639 45.5672 33.1045 46.1534L33.6067 48.0893C36.1256 47.4359 38.4875 46.2828 40.5519 44.6985L39.3344 43.1118ZM43.8843 37.8811C42.7335 39.9119 41.1862 41.6908 39.3344 43.1118L40.5519 44.6985C42.6164 43.1142 44.3414 41.1311 45.6243 38.8671L43.8843 37.8811ZM46.0332 31.2899C45.7658 33.6087 45.035 35.8502 43.8842 37.8811L45.6243 38.8671C46.9072 36.603 47.722 34.1041 48.0201 31.519L46.0332 31.2899ZM45.4408 24.3825C46.0992 26.622 46.3006 28.971 46.0332 31.2899L48.0201 31.519C48.3182 28.9338 48.0936 26.3151 47.3596 23.8184L45.4408 24.3825ZM45.283 24.1607C45.359 24.2149 45.4145 24.293 45.4408 24.3824L47.3597 23.8185C47.2072 23.2995 46.8849 22.8468 46.4446 22.5326L45.283 24.1607ZM45.0221 24.0837C45.1152 24.0794 45.2071 24.1066 45.283 24.1607L46.4446 22.5326C46.0043 22.2185 45.4713 22.0611 44.9309 22.0858L45.0221 24.0837ZM44.5212 24.0985L45.0057 24.0843L44.9473 22.0852L44.4628 22.0993L44.5212 24.0985ZM33.6686 20.2741C36.7099 22.8001 40.5535 24.1565 44.5066 24.0988L44.4774 22.099C41.0011 22.1498 37.621 20.9569 34.9465 18.7356L33.6686 20.2741ZM33.2965 19.9561L33.6578 20.2649L34.9574 18.7447L34.5961 18.4359L33.2965 19.9561ZM33.1798 19.8651L33.3272 19.9813L34.5655 18.4107L34.4181 18.2945L33.1798 19.8651ZM33.1457 19.8594C33.1771 19.871 33.2069 19.8864 33.2346 19.9053L34.3634 18.2543C34.1999 18.1426 34.0233 18.0514 33.8375 17.9829L33.1457 19.8594ZM33.0415 19.8291L33.1987 19.8773L33.7845 17.965L33.6272 17.9168L33.0415 19.8291ZM33.0395 19.8326L33.1259 19.851L33.5428 17.8949L33.4563 17.8765L33.0395 19.8326ZM33.03 19.8342L33.1135 19.8455L33.3823 17.8636L33.2987 17.8523L33.03 19.8342ZM32.9379 19.8316L33.1051 19.8415L33.2235 17.845L33.0564 17.8351L32.9379 19.8316Z" fill="black" mask="url(#path-1-inside-1_115_839)"/>
</svg>
