<svg width="66" height="66" viewBox="0 0 66 66" fill="none" xmlns="http://www.w3.org/2000/svg">
<path fill-rule="evenodd" clip-rule="evenodd" d="M5 1H61C63.2091 1 65 2.79086 65 5V61C65 63.2091 63.2091 65 61 65H5C2.79086 65 1 63.2091 1 61V5C1 2.79086 2.79086 1 5 1ZM0 5C0 2.23858 2.23858 0 5 0H61C63.7614 0 66 2.23858 66 5V61C66 63.7614 63.7614 66 61 66H5C2.23858 66 0 63.7614 0 61V5ZM21 32.125C21 26.0633 26.2694 21 32.9583 21C39.6472 21 44.9167 26.0633 44.9167 32.125C44.9167 34.9182 43.8096 37.4807 41.957 39.4494C41.717 39.7044 41.5833 40.0414 41.5833 40.3917V44.625C41.5833 44.7024 41.5526 44.7765 41.4979 44.8312C41.4432 44.8859 41.369 44.9167 41.2917 44.9167H37.6667V41.2916C37.6667 40.5322 37.051 39.9166 36.2917 39.9166C35.5323 39.9166 34.9167 40.5322 34.9167 41.2916V44.9167H31V41.2916C31 40.5322 30.3844 39.9166 29.625 39.9166C28.8656 39.9166 28.25 40.5322 28.25 41.2916V44.9167H24.625C24.5476 44.9167 24.4735 44.8859 24.4188 44.8312C24.3641 44.7765 24.3333 44.7024 24.3333 44.625V40.3917C24.3333 40.0413 24.1996 39.7041 23.9593 39.449C22.1072 37.4823 21 34.9201 21 32.125ZM26.2917 31.2917C26.2917 31.7337 26.4673 32.1576 26.7798 32.4702C27.0924 32.7827 27.5163 32.9583 27.9583 32.9583C28.4004 32.9583 28.8243 32.7827 29.1368 32.4702C29.4494 32.1576 29.625 31.7337 29.625 31.2917C29.625 30.8496 29.4494 30.4257 29.1368 30.1132C28.8243 29.8006 28.4004 29.625 27.9583 29.625C27.5163 29.625 27.0924 29.8006 26.7798 30.1132C26.4673 30.4257 26.2917 30.8496 26.2917 31.2917ZM36.7798 32.4702C36.4673 32.1576 36.2917 31.7337 36.2917 31.2917C36.2917 30.8496 36.4673 30.4257 36.7798 30.1132C37.0924 29.8006 37.5163 29.625 37.9583 29.625C38.4004 29.625 38.8243 29.8006 39.1368 30.1132C39.4494 30.4257 39.625 30.8496 39.625 31.2917C39.625 31.7337 39.4494 32.1576 39.1368 32.4702C38.8243 32.7827 38.4004 32.9583 37.9583 32.9583C37.5163 32.9583 37.0924 32.7827 36.7798 32.4702Z" fill="black"/>
</svg>
