<svg width="66" height="66" viewBox="0 0 66 66" fill="none" xmlns="http://www.w3.org/2000/svg">
<rect x="0.5" y="0.5" width="65" height="65" rx="4.5" stroke="black"/>
<g clip-path="url(#clip0_92_748)">
<path d="M33 22.3333C38.72 22.3333 43.484 25.572 47.22 31.872L47.5133 32.3773L47.5733 32.5106L47.6133 32.6213L47.632 32.6946L47.6507 32.804L47.6653 32.9373V33.084L47.6467 33.232C47.6379 33.2815 47.6263 33.3305 47.612 33.3786L47.56 33.5226L47.512 33.6226L47.4907 33.6626C43.8053 40.1106 39.0907 43.5026 33.4173 43.6613L33 43.6666C27.1387 43.6666 22.284 40.268 18.5093 33.6613C18.3943 33.4599 18.3338 33.2319 18.3338 33C18.3338 32.768 18.3943 32.5401 18.5093 32.3386C22.284 25.732 27.1387 22.3333 33 22.3333ZM33 29C31.9391 29 30.9217 29.4214 30.1716 30.1716C29.4214 30.9217 29 31.9391 29 33C29 34.0608 29.4214 35.0783 30.1716 35.8284C30.9217 36.5786 31.9391 37 33 37C34.0609 37 35.0783 36.5786 35.8284 35.8284C36.5786 35.0783 37 34.0608 37 33C37 31.9391 36.5786 30.9217 35.8284 30.1716C35.0783 29.4214 34.0609 29 33 29Z" fill="black"/>
</g>
<defs>
<clipPath id="clip0_92_748">
<rect width="32" height="32" fill="white" transform="translate(17 17)"/>
</clipPath>
</defs>
</svg>
