<svg width="66" height="66" viewBox="0 0 66 66" fill="none" xmlns="http://www.w3.org/2000/svg">
<mask id="path-1-inside-1_92_753" fill="white">
<path fill-rule="evenodd" clip-rule="evenodd" d="M5 0C2.23858 0 0 2.23858 0 5V61C0 63.7614 2.23858 66 5 66H61C63.7614 66 66 63.7614 66 61V5C66 2.23858 63.7614 0 61 0H5ZM46 33C42.5333 38.7778 38.2 41.6667 33 41.6667C27.8 41.6667 23.4667 38.7778 20 33C23.4667 27.2223 27.8 24.3334 33 24.3334C38.2 24.3334 42.5333 27.2223 46 33ZM30.111 33C30.111 33.7662 30.4154 34.501 30.9572 35.0428C31.499 35.5846 32.2338 35.8889 32.9999 35.8889C33.7661 35.8889 34.5009 35.5846 35.0427 35.0428C35.5845 34.501 35.8888 33.7662 35.8888 33C35.8888 32.2339 35.5845 31.4991 35.0427 30.9573C34.5009 30.4155 33.7661 30.1111 32.9999 30.1111C32.2338 30.1111 31.499 30.4155 30.9572 30.9573C30.4154 31.4991 30.111 32.2339 30.111 33Z"/>
</mask>
<path fill-rule="evenodd" clip-rule="evenodd" d="M5 0C2.23858 0 0 2.23858 0 5V61C0 63.7614 2.23858 66 5 66H61C63.7614 66 66 63.7614 66 61V5C66 2.23858 63.7614 0 61 0H5ZM46 33C42.5333 38.7778 38.2 41.6667 33 41.6667C27.8 41.6667 23.4667 38.7778 20 33C23.4667 27.2223 27.8 24.3334 33 24.3334C38.2 24.3334 42.5333 27.2223 46 33ZM30.111 33C30.111 33.7662 30.4154 34.501 30.9572 35.0428C31.499 35.5846 32.2338 35.8889 32.9999 35.8889C33.7661 35.8889 34.5009 35.5846 35.0427 35.0428C35.5845 34.501 35.8888 33.7662 35.8888 33C35.8888 32.2339 35.5845 31.4991 35.0427 30.9573C34.5009 30.4155 33.7661 30.1111 32.9999 30.1111C32.2338 30.1111 31.499 30.4155 30.9572 30.9573C30.4154 31.4991 30.111 32.2339 30.111 33Z" fill="black"/>
<path d="M46 33L46.8575 33.5145L47.1662 33L46.8575 32.4855L46 33ZM20 33L19.1425 32.4855L18.8338 33L19.1425 33.5145L20 33ZM35.0427 30.9573L35.7498 30.2502L35.7498 30.2502L35.0427 30.9573ZM30.9572 30.9573L30.2501 30.2502L30.2501 30.2502L30.9572 30.9573ZM1 5C1 2.79086 2.79086 1 5 1V-1C1.68629 -1 -1 1.68629 -1 5H1ZM1 61V5H-1V61H1ZM5 65C2.79086 65 1 63.2091 1 61H-1C-1 64.3137 1.68629 67 5 67V65ZM61 65H5V67H61V65ZM65 61C65 63.2091 63.2091 65 61 65V67C64.3137 67 67 64.3137 67 61H65ZM65 5V61H67V5H65ZM61 1C63.2091 1 65 2.79086 65 5H67C67 1.68629 64.3137 -1 61 -1V1ZM5 1H61V-1H5V1ZM33 42.6667C38.6556 42.6667 43.2711 39.4918 46.8575 33.5145L45.1425 32.4855C41.7955 38.0638 37.7444 40.6667 33 40.6667V42.6667ZM19.1425 33.5145C22.7289 39.4918 27.3444 42.6667 33 42.6667V40.6667C28.2556 40.6667 24.2045 38.0638 20.8575 32.4855L19.1425 33.5145ZM33 23.3334C27.3444 23.3334 22.7289 26.5083 19.1425 32.4855L20.8575 33.5145C24.2045 27.9362 28.2556 25.3334 33 25.3334V23.3334ZM46.8575 32.4855C43.2711 26.5083 38.6556 23.3334 33 23.3334V25.3334C37.7444 25.3334 41.7955 27.9362 45.1425 33.5145L46.8575 32.4855ZM31.6643 34.3357C31.3101 33.9814 31.111 33.501 31.111 33H29.111C29.111 34.0314 29.5208 35.0206 30.2501 35.7499L31.6643 34.3357ZM32.9999 34.8889C32.499 34.8889 32.0185 34.6899 31.6643 34.3357L30.2501 35.7499C30.9794 36.4792 31.9685 36.8889 32.9999 36.8889V34.8889ZM34.3356 34.3357C33.9813 34.6899 33.5009 34.8889 32.9999 34.8889V36.8889C34.0313 36.8889 35.0205 36.4792 35.7498 35.7499L34.3356 34.3357ZM34.8888 33C34.8888 33.501 34.6898 33.9814 34.3356 34.3357L35.7498 35.7499C36.4791 35.0206 36.8888 34.0314 36.8888 33H34.8888ZM34.3356 31.6644C34.6898 32.0186 34.8888 32.4991 34.8888 33H36.8888C36.8888 31.9686 36.4791 30.9795 35.7498 30.2502L34.3356 31.6644ZM32.9999 31.1111C33.5009 31.1111 33.9813 31.3102 34.3356 31.6644L35.7498 30.2502C35.0205 29.5209 34.0313 29.1111 32.9999 29.1111V31.1111ZM31.6643 31.6644C32.0185 31.3102 32.499 31.1111 32.9999 31.1111V29.1111C31.9685 29.1111 30.9794 29.5209 30.2501 30.2502L31.6643 31.6644ZM31.111 33C31.111 32.4991 31.3101 32.0186 31.6643 31.6644L30.2501 30.2502C29.5208 30.9795 29.111 31.9686 29.111 33H31.111Z" fill="black" mask="url(#path-1-inside-1_92_753)"/>
</svg>
