<svg width="66" height="66" viewBox="0 0 66 66" fill="none" xmlns="http://www.w3.org/2000/svg">
<path fill-rule="evenodd" clip-rule="evenodd" d="M5 0C2.23859 0 0 2.23859 0 5V61C0 63.7614 2.23859 66 5 66H61C63.7614 66 66 63.7614 66 61V5C66 2.23859 63.7614 0 61 0H5ZM38.456 43.0774C39.5988 41.9346 40.2408 40.3847 40.2408 38.7686C40.2408 37.1525 39.5988 35.6025 38.456 34.4598C37.8119 33.8157 37.0384 33.3306 36.1966 33.03V23.0406C36.1966 21.9087 35.2791 20.9911 34.1472 20.9911H29.8577C28.7259 20.9911 27.8083 21.9087 27.8083 23.0406C27.8083 24.1724 28.7259 25.09 29.8577 25.09H32.0978V26.7104H29.8577C28.7259 26.7104 27.8083 27.628 27.8083 28.7598C27.8083 29.8917 28.7259 30.8093 29.8577 30.8093H32.0978V33.03C31.256 33.3306 30.4825 33.8157 29.8384 34.4598C28.6957 35.6025 28.0536 37.1525 28.0536 38.7686C28.0536 40.3847 28.6957 41.9346 29.8384 43.0774C30.9812 44.2202 32.5311 44.8621 34.1472 44.8621C35.7633 44.8621 37.3132 44.2202 38.456 43.0774ZM36.142 38.7686C36.142 39.2976 35.9318 39.805 35.5577 40.1791C35.1837 40.5532 34.6763 40.7634 34.1472 40.7634C33.6182 40.7634 33.1108 40.5532 32.7367 40.1791C32.3626 39.805 32.1525 39.2976 32.1525 38.7686C32.1525 38.2396 32.3626 37.7322 32.7367 37.3581C33.1108 36.984 33.6182 36.7739 34.1472 36.7739C34.6763 36.7739 35.1837 36.984 35.5577 37.3581C35.9318 37.7322 36.142 38.2396 36.142 38.7686Z" fill="black"/>
</svg>
