<svg width="66" height="66" viewBox="0 0 66 66" fill="none" xmlns="http://www.w3.org/2000/svg">
<mask id="path-1-inside-1_92_768" fill="white">
<path fill-rule="evenodd" clip-rule="evenodd" d="M5 0C2.23858 0 0 2.23858 0 5V61C0 63.7614 2.23858 66 5 66H61C63.7614 66 66 63.7614 66 61V5C66 2.23858 63.7614 0 61 0H5ZM33 21.0417C26.3111 21.0417 21.0417 26.105 21.0417 32.1667C21.0417 34.9618 22.1489 37.524 24.001 39.4907C24.2412 39.7458 24.375 40.0829 24.375 40.4333V44.6667C24.375 44.744 24.4057 44.8182 24.4604 44.8729C24.5151 44.9276 24.5893 44.9584 24.6667 44.9584H41.3333C41.4107 44.9584 41.4849 44.9276 41.5396 44.8729C41.5943 44.8182 41.625 44.744 41.625 44.6667V40.4333C41.625 40.0831 41.7587 39.7461 41.9987 39.491C43.8512 37.5224 44.9583 34.9599 44.9583 32.1667C44.9583 26.105 39.6889 21.0417 33 21.0417Z"/>
</mask>
<path fill-rule="evenodd" clip-rule="evenodd" d="M5 0C2.23858 0 0 2.23858 0 5V61C0 63.7614 2.23858 66 5 66H61C63.7614 66 66 63.7614 66 61V5C66 2.23858 63.7614 0 61 0H5ZM33 21.0417C26.3111 21.0417 21.0417 26.105 21.0417 32.1667C21.0417 34.9618 22.1489 37.524 24.001 39.4907C24.2412 39.7458 24.375 40.0829 24.375 40.4333V44.6667C24.375 44.744 24.4057 44.8182 24.4604 44.8729C24.5151 44.9276 24.5893 44.9584 24.6667 44.9584H41.3333C41.4107 44.9584 41.4849 44.9276 41.5396 44.8729C41.5943 44.8182 41.625 44.744 41.625 44.6667V40.4333C41.625 40.0831 41.7587 39.7461 41.9987 39.491C43.8512 37.5224 44.9583 34.9599 44.9583 32.1667C44.9583 26.105 39.6889 21.0417 33 21.0417Z" fill="black"/>
<path d="M24.001 39.4907L23.273 40.1763L23.273 40.1763L24.001 39.4907ZM24.4604 44.8729L25.1676 44.1658L25.1675 44.1658L24.4604 44.8729ZM41.9987 39.491L42.7269 40.1764L42.7269 40.1764L41.9987 39.491ZM1 5C1 2.79086 2.79086 1 5 1V-1C1.68629 -1 -1 1.68629 -1 5H1ZM1 61V5H-1V61H1ZM5 65C2.79086 65 1 63.2091 1 61H-1C-1 64.3137 1.68629 67 5 67V65ZM61 65H5V67H61V65ZM65 61C65 63.2091 63.2091 65 61 65V67C64.3137 67 67 64.3137 67 61H65ZM65 5V61H67V5H65ZM61 1C63.2091 1 65 2.79086 65 5H67C67 1.68629 64.3137 -1 61 -1V1ZM5 1H61V-1H5V1ZM22.0417 32.1667C22.0417 26.715 26.8039 22.0417 33 22.0417V20.0417C25.8184 20.0417 20.0417 25.495 20.0417 32.1667H22.0417ZM24.729 38.8051C23.0391 37.0107 22.0417 34.6892 22.0417 32.1667H20.0417C20.0417 35.2343 21.2587 38.0374 23.273 40.1763L24.729 38.8051ZM25.375 40.4333C25.375 39.8281 25.1439 39.2457 24.729 38.8051L23.273 40.1763C23.3385 40.2458 23.375 40.3378 23.375 40.4333H25.375ZM25.375 44.6667V40.4333H23.375V44.6667H25.375ZM25.1675 44.1658C25.3004 44.2987 25.375 44.4788 25.375 44.6667H23.375C23.375 45.0092 23.5111 45.3378 23.7533 45.58L25.1675 44.1658ZM24.6667 43.9584C24.8545 43.9584 25.0347 44.033 25.1676 44.1658L23.7533 45.58C23.9956 45.8223 24.3241 45.9584 24.6667 45.9584V43.9584ZM41.3333 43.9584H24.6667V45.9584H41.3333V43.9584ZM40.8325 44.1658C40.9653 44.033 41.1455 43.9584 41.3333 43.9584V45.9584C41.6759 45.9584 42.0044 45.8223 42.2467 45.58L40.8325 44.1658ZM40.625 44.6667C40.625 44.4788 40.6996 44.2987 40.8325 44.1658L42.2467 45.58C42.4889 45.3378 42.625 45.0093 42.625 44.6667H40.625ZM40.625 40.4333V44.6667H42.625V40.4333H40.625ZM41.2704 38.8057C40.8558 39.2463 40.625 39.8284 40.625 40.4333H42.625C42.625 40.3378 42.6615 40.2459 42.7269 40.1764L41.2704 38.8057ZM43.9583 32.1667C43.9583 34.6873 42.9611 37.0091 41.2704 38.8057L42.7269 40.1764C44.7413 38.0357 45.9583 35.2326 45.9583 32.1667H43.9583ZM33 22.0417C39.1962 22.0417 43.9583 26.715 43.9583 32.1667H45.9583C45.9583 25.495 40.1817 20.0417 33 20.0417V22.0417Z" fill="black" mask="url(#path-1-inside-1_92_768)"/>
<path d="M29.6667 41.3333V46.3333" stroke="black" stroke-width="2.75" stroke-linecap="round" stroke-linejoin="round"/>
<path d="M36.3333 41.3333V46.3333" stroke="black" stroke-width="2.75" stroke-linecap="round" stroke-linejoin="round"/>
<path d="M26.3333 31.3334C26.3333 31.7754 26.5089 32.1993 26.8215 32.5119C27.134 32.8244 27.558 33 28 33C28.442 33 28.8659 32.8244 29.1785 32.5119C29.4911 32.1993 29.6667 31.7754 29.6667 31.3334C29.6667 30.8913 29.4911 30.4674 29.1785 30.1548C28.8659 29.8423 28.442 29.6667 28 29.6667C27.558 29.6667 27.134 29.8423 26.8215 30.1548C26.5089 30.4674 26.3333 30.8913 26.3333 31.3334Z" fill="black"/>
<path d="M36.3333 31.3334C36.3333 31.7754 36.5089 32.1993 36.8215 32.5119C37.134 32.8244 37.558 33 38 33C38.442 33 38.8659 32.8244 39.1785 32.5119C39.4911 32.1993 39.6667 31.7754 39.6667 31.3334C39.6667 30.8913 39.4911 30.4674 39.1785 30.1548C38.8659 29.8423 38.442 29.6667 38 29.6667C37.558 29.6667 37.134 29.8423 36.8215 30.1548C36.5089 30.4674 36.3333 30.8913 36.3333 31.3334Z" fill="black"/>
</svg>
