<svg width="66" height="66" viewBox="0 0 66 66" fill="none" xmlns="http://www.w3.org/2000/svg">
<path fill-rule="evenodd" clip-rule="evenodd" d="M5 0C2.23859 0 0 2.23859 0 5V61C0 63.7614 2.23859 66 5 66H61C63.7614 66 66 63.7614 66 61V5C66 2.23859 63.7614 0 61 0H5ZM39 28C39 30.5229 37.4429 32.6821 35.2372 33.569C35.2465 33.6108 35.2543 33.6531 35.2609 33.6959L36.6455 42.6959C36.8319 43.9074 35.8945 45 34.6688 45H31.3312C30.1055 45 29.1681 43.9074 29.3545 42.6959L30.7391 33.6959C30.7431 33.6697 30.7476 33.6438 30.7526 33.6181C30.7558 33.6017 30.7592 33.5853 30.7628 33.569C28.5571 32.6821 27 30.5229 27 28C27 24.6863 29.6863 22 33 22C36.3137 22 39 24.6863 39 28Z" fill="black"/>
</svg>
