<svg width="28" height="25" viewBox="0 0 28 25" fill="none" xmlns="http://www.w3.org/2000/svg">
<path d="M6.86376 0.117208C8.08072 -0.0901441 9.3287 -0.0217436 10.5157 0.317368C11.7027 0.656479 12.7985 1.25766 13.7223 2.07658L13.7731 2.12196L13.8199 2.08071C14.7015 1.30699 15.738 0.730177 16.8602 0.388747C17.9825 0.0473166 19.1646 -0.0508797 20.3278 0.100709L20.666 0.150209C22.1322 0.403359 23.5026 1.0483 24.6321 2.01673C25.7617 2.98516 26.6083 4.24103 27.0824 5.65136C27.5564 7.06168 27.6403 8.57395 27.325 10.028C27.0097 11.4821 26.3071 12.8239 25.2915 13.9112L25.044 14.1656L24.978 14.222L14.7343 24.3681C14.4979 24.6021 14.1847 24.7424 13.8527 24.7631C13.5208 24.7839 13.1925 24.6836 12.9289 24.4808L12.7996 24.3681L2.49676 14.1628C1.40531 13.1009 0.629093 11.7575 0.254074 10.2816C-0.120944 8.80563 -0.0801309 7.25469 0.371995 5.80052C0.82412 4.34634 1.66991 3.04568 2.8157 2.04258C3.96149 1.03948 5.36257 0.373091 6.86376 0.117208Z" fill="black"/>
</svg>
