<svg width="28" height="25" viewBox="0 0 28 25" fill="none" xmlns="http://www.w3.org/2000/svg">
<path fill-rule="evenodd" clip-rule="evenodd" d="M13.7731 2.12196L13.7223 2.07658C12.7985 1.25766 11.7027 0.656479 10.5157 0.317368C9.3287 -0.0217436 8.08072 -0.0901441 6.86376 0.117208C5.36257 0.373091 3.96149 1.03948 2.8157 2.04258C1.66991 3.04568 0.82412 4.34634 0.371995 5.80052C-0.0801309 7.25469 -0.120944 8.80563 0.254074 10.2816C0.629093 11.7575 1.40531 13.1009 2.49676 14.1628L12.7996 24.3681L12.9289 24.4808C13.1926 24.6836 13.5208 24.7839 13.8527 24.7631C14.1847 24.7424 14.4979 24.6021 14.7343 24.3681L24.978 14.222L25.044 14.1656L25.2915 13.9112C26.3071 12.8239 27.0097 11.4821 27.325 10.028C27.6403 8.57395 27.5564 7.06168 27.0824 5.65136C26.6083 4.24103 25.7617 2.98516 24.6321 2.01673C23.5026 1.0483 22.1322 0.403359 20.666 0.150209L20.3278 0.100709C19.1646 -0.0508797 17.9825 0.0473166 16.8603 0.388747C15.738 0.730177 14.7015 1.30699 13.8199 2.08071L13.7731 2.12196ZM15.141 3.58223C15.1404 3.5828 15.1397 3.58337 15.1391 3.58394L15.0964 3.62164C14.3373 4.29143 13.1974 4.28838 12.4419 3.61454L12.3955 3.57317C12.3948 3.57256 12.3941 3.57194 12.3934 3.57133C11.6941 2.95187 10.8647 2.49708 9.96632 2.24043C9.06711 1.98354 8.12171 1.93171 7.19982 2.08877M15.141 3.58223C15.8085 2.99694 16.5931 2.56056 17.4424 2.30215C18.2879 2.04491 19.1783 1.96992 20.0548 2.08206L20.3492 2.12516C21.4511 2.31974 22.4807 2.8066 23.3304 3.53508C24.1861 4.26874 24.8275 5.22016 25.1866 6.28858C25.5457 7.35701 25.6092 8.50267 25.3704 9.60424C25.1329 10.6996 24.6052 11.7109 23.8428 12.5322L23.6748 12.7048C23.639 12.7356 23.6042 12.7677 23.5706 12.801L13.767 22.5112L3.90422 12.7419L3.89148 12.7294C3.06463 11.9249 2.47659 10.9072 2.19248 9.78905C1.90838 8.67091 1.9393 7.49596 2.28181 6.39431C2.62433 5.29266 3.26509 4.30731 4.13311 3.54739C5.0011 2.78749 6.06247 2.28266 7.19969 2.08879" fill="black"/>
</svg>
