<svg width="546" height="53" viewBox="0 0 546 53" fill="none" xmlns="http://www.w3.org/2000/svg">
<path d="M513.346 52V1.09094H545.264V7.70316H521.028V23.2145H543.599V29.8019H521.028V45.3878H545.562V52H513.346Z" fill="white"/>
<path d="M456.696 52V1.09094H475.339C478.952 1.09094 481.943 1.68753 484.313 2.88071C486.683 4.05732 488.456 5.65652 489.633 7.6783C490.809 9.68351 491.397 11.9456 491.397 14.4645C491.397 16.5857 491.008 18.3755 490.229 19.8338C489.45 21.2756 488.406 22.4356 487.097 23.314C485.804 24.1757 484.379 24.8054 482.822 25.2032V25.7003C484.512 25.7832 486.161 26.3301 487.768 27.3409C489.392 28.3353 490.735 29.7522 491.795 31.5917C492.856 33.4311 493.386 35.6684 493.386 38.3033C493.386 40.9051 492.773 43.2417 491.547 45.3132C490.337 47.3682 488.464 49.0005 485.929 50.2103C483.393 51.4034 480.153 52 476.209 52H456.696ZM464.377 45.4127H475.464C479.143 45.4127 481.777 44.7001 483.368 43.2749C484.959 41.8497 485.755 40.0682 485.755 37.9304C485.755 36.323 485.349 34.848 484.537 33.5057C483.725 32.1634 482.565 31.0945 481.057 30.299C479.565 29.5036 477.792 29.1059 475.737 29.1059H464.377V45.4127ZM464.377 23.1151H474.668C476.392 23.1151 477.941 22.7837 479.317 22.1208C480.709 21.4579 481.811 20.5299 482.623 19.3367C483.451 18.1269 483.866 16.7017 483.866 15.0611C483.866 12.9565 483.128 11.1916 481.653 9.76637C480.178 8.34118 477.916 7.62858 474.867 7.62858H464.377V23.1151Z" fill="white"/>
<path d="M426.972 1.09094H434.678V34.5746C434.678 38.1376 433.841 41.2945 432.168 44.0455C430.494 46.7799 428.141 48.9342 425.108 50.5086C422.075 52.0663 418.521 52.8452 414.444 52.8452C410.384 52.8452 406.837 52.0663 403.805 50.5086C400.772 48.9342 398.419 46.7799 396.745 44.0455C395.071 41.2945 394.234 38.1376 394.234 34.5746V1.09094H401.915V33.9532C401.915 36.2567 402.421 38.3033 403.432 40.0931C404.459 41.8828 405.909 43.2915 407.782 44.3189C409.655 45.3298 411.875 45.8353 414.444 45.8353C417.029 45.8353 419.258 45.3298 421.131 44.3189C423.02 43.2915 424.462 41.8828 425.456 40.0931C426.467 38.3033 426.972 36.2567 426.972 33.9532V1.09094Z" fill="white"/>
<path d="M374.193 17.6463H366.437C366.139 15.9891 365.584 14.5308 364.772 13.2713C363.96 12.0118 362.966 10.943 361.789 10.0646C360.612 9.18633 359.295 8.52345 357.837 8.07601C356.395 7.62856 354.862 7.40484 353.238 7.40484C350.305 7.40484 347.678 8.1423 345.358 9.6172C343.054 11.0921 341.231 13.2547 339.889 16.1051C338.563 18.9555 337.9 22.4356 337.9 26.5455C337.9 30.6885 338.563 34.1851 339.889 37.0355C341.231 39.8859 343.063 42.0403 345.383 43.4986C347.703 44.9569 350.313 45.6861 353.213 45.6861C354.82 45.6861 356.345 45.4707 357.787 45.0398C359.245 44.5923 360.563 43.9377 361.739 43.076C362.916 42.2143 363.91 41.1619 364.722 39.919C365.551 38.6596 366.122 37.2178 366.437 35.5938L374.193 35.6186C373.779 38.121 372.975 40.4245 371.782 42.5291C370.605 44.6172 369.089 46.4235 367.233 47.9482C365.393 49.4562 363.289 50.6245 360.919 51.4531C358.549 52.2817 355.964 52.696 353.163 52.696C348.755 52.696 344.828 51.652 341.381 49.5639C337.934 47.4593 335.216 44.4515 333.227 40.5405C331.255 36.6295 330.269 31.9645 330.269 26.5455C330.269 21.1099 331.263 16.4449 333.252 12.5504C335.241 8.63945 337.958 5.63993 341.405 3.55186C344.852 1.44722 348.772 0.394897 353.163 0.394897C355.864 0.394897 358.383 0.784341 360.72 1.56322C363.073 2.32553 365.186 3.45243 367.059 4.9439C368.931 6.41881 370.481 8.22516 371.707 10.3629C372.934 12.4842 373.762 14.9119 374.193 17.6463Z" fill="white"/>
<path d="M247.53 52V1.09094H263.961C267.574 1.09094 270.59 1.74554 273.01 3.05472C275.446 4.34733 277.277 6.14539 278.503 8.4489C279.746 10.7358 280.368 13.3625 280.368 16.3289C280.368 19.2953 279.746 21.9136 278.503 24.184C277.277 26.4543 275.454 28.2275 273.035 29.5036C270.615 30.7796 267.616 31.4176 264.036 31.4176H250.041V27.1669H263.912C266.563 27.1669 268.767 26.7278 270.524 25.8495C272.297 24.9711 273.615 23.72 274.476 22.0959C275.355 20.4719 275.794 18.5495 275.794 16.3289C275.794 14.1082 275.355 12.1693 274.476 10.5121C273.598 8.83834 272.272 7.54573 270.499 6.63426C268.742 5.72281 266.522 5.26708 263.837 5.26708H252.179V52H247.53ZM269.977 29.0313L282.505 52H277.136L264.732 29.0313H269.977Z" fill="white"/>
<path d="M195.118 52V1.09094H224.649V5.26708H199.766V24.4326H223.083V28.6087H199.766V47.8239H225.146V52H195.118Z" fill="white"/>
<path d="M128.039 52L114.094 1.09094H118.817L130.351 44.8658H130.749L142.283 1.09094H147.652L159.186 44.8658H159.584L171.118 1.09094H175.866L161.92 52H156.949L145.141 8.82177H144.818L133.011 52H128.039Z" fill="white"/>
<path d="M97.0977 26.5455C97.0977 31.8485 96.1531 36.4638 94.2639 40.3913C92.3746 44.3023 89.7728 47.335 86.4585 49.4894C83.1606 51.6271 79.3657 52.696 75.0735 52.696C70.7814 52.696 66.9781 51.6271 63.6637 49.4894C60.3659 47.335 57.7724 44.3023 55.8832 40.3913C54.0105 36.4638 53.0742 31.8485 53.0742 26.5455C53.0742 21.2424 54.0105 16.6354 55.8832 12.7244C57.7724 8.79689 60.3742 5.76422 63.6886 3.62643C67.003 1.47208 70.7979 0.394897 75.0735 0.394897C79.3657 0.394897 83.1606 1.47208 86.4585 3.62643C89.7728 5.76422 92.3746 8.79689 94.2639 12.7244C96.1531 16.6354 97.0977 21.2424 97.0977 26.5455ZM92.5735 26.5455C92.5735 21.9882 91.8112 18.0855 90.2866 14.8374C88.762 11.5727 86.6822 9.07861 84.0472 7.35513C81.4123 5.63164 78.4211 4.7699 75.0735 4.7699C71.7425 4.7699 68.7596 5.63164 66.1246 7.35513C63.4897 9.07861 61.4016 11.5644 59.8604 14.8125C58.3358 18.0606 57.5735 21.9716 57.5735 26.5455C57.5735 31.1028 58.3358 35.0055 59.8604 38.2536C61.3851 41.5017 63.4648 43.9958 66.0998 45.7358C68.7347 47.4593 71.726 48.321 75.0735 48.321C78.4211 48.321 81.4123 47.4593 84.0472 45.7358C86.6987 44.0123 88.7868 41.5265 90.3114 38.2784C91.8361 35.0137 92.5901 31.1028 92.5735 26.5455Z" fill="white"/>
<path d="M0.76123 52V1.09094H17.1923C20.805 1.09094 23.8211 1.78696 26.2406 3.17901C28.6767 4.55448 30.5079 6.42712 31.7342 8.79691C32.9771 11.1667 33.5986 13.8348 33.5986 16.8012C33.5986 19.7676 32.9854 22.4439 31.7591 24.8303C30.5328 27.2001 28.7099 29.081 26.2904 30.473C23.8708 31.8485 20.863 32.5363 17.2669 32.5363H4.34078V28.3601H17.1426C19.8107 28.3601 22.0231 27.863 23.7797 26.8686C25.5363 25.8578 26.8455 24.4823 27.7073 22.7422C28.5856 21.0022 29.0247 19.0218 29.0247 16.8012C29.0247 14.5805 28.5856 12.6002 27.7073 10.8601C26.8455 9.12006 25.528 7.75288 23.7548 6.75856C21.9982 5.76424 19.7693 5.26708 17.068 5.26708H5.40967V52H0.76123Z" fill="white"/>
</svg>
