<svg width="390" height="844" viewBox="0 0 390 844" fill="none" xmlns="http://www.w3.org/2000/svg">
<rect width="390" height="844" fill="#F3F2EE"/>
<rect x="19.5" y="408.5" width="62" height="26" stroke="black"/>
<rect x="91.5" y="408.5" width="62" height="26" stroke="black"/>
<rect x="308.5" y="408.5" width="62" height="26" stroke="black"/>
<rect x="163" y="408" width="64" height="27" fill="black"/>
<rect x="236" y="408" width="63" height="27" fill="black"/>
<rect x="91.5" y="215.5" width="62" height="26" stroke="black"/>
<rect x="163.5" y="215.5" width="62" height="26" stroke="black"/>
<rect x="236.5" y="215.5" width="62" height="26" stroke="black"/>
<rect x="308.5" y="215.5" width="62" height="26" stroke="black"/>
<rect x="18" y="215" width="64" height="27" fill="black"/>
<path d="M315.67 492.185C315.67 482.967 308.242 475.5 299.085 475.5C289.928 475.5 282.5 482.967 282.5 492.185C282.5 501.402 289.928 508.87 299.085 508.87C308.242 508.87 315.67 501.402 315.67 492.185Z" stroke="black"/>
<mask id="path-12-inside-1_77_732" fill="white">
<path fill-rule="evenodd" clip-rule="evenodd" d="M299.085 475.476C308.255 475.476 315.694 482.954 315.694 492.185C315.694 501.415 308.255 508.893 299.085 508.894C289.915 508.894 282.476 501.415 282.476 492.185C282.476 482.954 289.915 475.476 299.085 475.476ZM299.085 475C308.521 475 316.17 482.694 316.17 492.185C316.17 501.676 308.521 509.37 299.085 509.37C289.649 509.37 282 501.676 282 492.185C282 482.694 289.649 475 299.085 475Z"/>
</mask>
<path d="M314.694 492.185C314.694 483.501 307.697 476.476 299.085 476.476L299.085 474.476C308.813 474.476 316.694 482.407 316.694 492.185L314.694 492.185ZM299.085 507.894C307.697 507.893 314.694 500.869 314.694 492.185L316.694 492.185C316.694 501.962 308.813 509.893 299.085 509.894L299.085 507.894ZM283.476 492.185C283.476 500.869 290.472 507.894 299.085 507.894L299.085 509.894C289.357 509.894 281.476 501.962 281.476 492.185L283.476 492.185ZM299.085 476.476C290.472 476.476 283.476 483.501 283.476 492.185L281.476 492.185C281.476 482.407 289.357 474.476 299.085 474.476L299.085 476.476ZM315.17 492.185C315.17 483.241 307.963 476 299.085 476L299.085 474C309.078 474 317.17 482.147 317.17 492.185L315.17 492.185ZM299.085 508.37C307.963 508.37 315.17 501.129 315.17 492.185L317.17 492.185C317.17 502.223 309.078 510.37 299.085 510.37L299.085 508.37ZM283 492.185C283 501.129 290.207 508.37 299.085 508.37L299.085 510.37C289.091 510.37 281 502.223 281 492.185L283 492.185ZM299.085 476C290.207 476 283 483.241 283 492.185L281 492.185C281 482.147 289.091 474 299.085 474L299.085 476Z" fill="black" mask="url(#path-12-inside-1_77_732)"/>
<g opacity="0.1">
<path d="M324.67 509.185C324.67 499.967 317.242 492.5 308.085 492.5C298.928 492.5 291.5 499.967 291.5 509.185C291.5 518.402 298.928 525.87 308.085 525.87C317.242 525.87 324.67 518.402 324.67 509.185Z" stroke="black"/>
<mask id="path-15-inside-2_77_732" fill="white">
<path fill-rule="evenodd" clip-rule="evenodd" d="M308.085 492.476C317.255 492.476 324.694 499.954 324.694 509.185C324.694 518.415 317.255 525.893 308.085 525.894C298.915 525.894 291.476 518.415 291.476 509.185C291.476 499.954 298.915 492.476 308.085 492.476ZM308.085 492C317.521 492 325.17 499.694 325.17 509.185C325.17 518.676 317.521 526.37 308.085 526.37C298.649 526.37 291 518.676 291 509.185C291 499.694 298.649 492 308.085 492Z"/>
</mask>
<path d="M323.694 509.185C323.694 500.501 316.697 493.476 308.085 493.476L308.085 491.476C317.813 491.476 325.694 499.407 325.694 509.185L323.694 509.185ZM308.085 524.894C316.697 524.893 323.694 517.869 323.694 509.185L325.694 509.185C325.694 518.962 317.813 526.893 308.085 526.894L308.085 524.894ZM292.476 509.185C292.476 517.869 299.472 524.894 308.085 524.894L308.085 526.894C298.357 526.894 290.476 518.962 290.476 509.185L292.476 509.185ZM308.085 493.476C299.472 493.476 292.476 500.501 292.476 509.185L290.476 509.185C290.476 499.407 298.357 491.476 308.085 491.476L308.085 493.476ZM324.17 509.185C324.17 500.241 316.963 493 308.085 493L308.085 491C318.078 491 326.17 499.147 326.17 509.185L324.17 509.185ZM308.085 525.37C316.963 525.37 324.17 518.129 324.17 509.185L326.17 509.185C326.17 519.223 318.078 527.37 308.085 527.37L308.085 525.37ZM292 509.185C292 518.129 299.207 525.37 308.085 525.37L308.085 527.37C298.091 527.37 290 519.223 290 509.185L292 509.185ZM308.085 493C299.207 493 292 500.241 292 509.185L290 509.185C290 499.147 298.091 491 308.085 491L308.085 493Z" fill="black" mask="url(#path-15-inside-2_77_732)"/>
</g>
<g opacity="0.05">
<path d="M329.67 526.185C329.67 516.967 322.242 509.5 313.085 509.5C303.928 509.5 296.5 516.967 296.5 526.185C296.5 535.402 303.928 542.87 313.085 542.87C322.242 542.87 329.67 535.402 329.67 526.185Z" stroke="black"/>
<mask id="path-18-inside-3_77_732" fill="white">
<path fill-rule="evenodd" clip-rule="evenodd" d="M313.085 509.476C322.255 509.476 329.694 516.954 329.694 526.185C329.694 535.415 322.255 542.893 313.085 542.894C303.915 542.894 296.476 535.415 296.476 526.185C296.476 516.954 303.915 509.476 313.085 509.476ZM313.085 509C322.521 509 330.17 516.694 330.17 526.185C330.17 535.676 322.521 543.37 313.085 543.37C303.649 543.37 296 535.676 296 526.185C296 516.694 303.649 509 313.085 509Z"/>
</mask>
<path d="M328.694 526.185C328.694 517.501 321.697 510.476 313.085 510.476L313.085 508.476C322.813 508.476 330.694 516.407 330.694 526.185L328.694 526.185ZM313.085 541.894C321.697 541.893 328.694 534.869 328.694 526.185L330.694 526.185C330.694 535.962 322.813 543.893 313.085 543.894L313.085 541.894ZM297.476 526.185C297.476 534.869 304.472 541.894 313.085 541.894L313.085 543.894C303.357 543.894 295.476 535.962 295.476 526.185L297.476 526.185ZM313.085 510.476C304.472 510.476 297.476 517.501 297.476 526.185L295.476 526.185C295.476 516.407 303.357 508.476 313.085 508.476L313.085 510.476ZM329.17 526.185C329.17 517.241 321.963 510 313.085 510L313.085 508C323.078 508 331.17 516.147 331.17 526.185L329.17 526.185ZM313.085 542.37C321.963 542.37 329.17 535.129 329.17 526.185L331.17 526.185C331.17 536.223 323.078 544.37 313.085 544.37L313.085 542.37ZM297 526.185C297 535.129 304.207 542.37 313.085 542.37L313.085 544.37C303.091 544.37 295 536.223 295 526.185L297 526.185ZM313.085 510C304.207 510 297 517.241 297 526.185L295 526.185C295 516.147 303.091 508 313.085 508L313.085 510Z" fill="black" mask="url(#path-18-inside-3_77_732)"/>
</g>
<g opacity="0.02">
<path d="M332.67 546.185C332.67 536.967 325.242 529.5 316.085 529.5C306.928 529.5 299.5 536.967 299.5 546.185C299.5 555.402 306.928 562.87 316.085 562.87C325.242 562.87 332.67 555.402 332.67 546.185Z" stroke="black"/>
<mask id="path-21-inside-4_77_732" fill="white">
<path fill-rule="evenodd" clip-rule="evenodd" d="M316.085 529.476C325.255 529.476 332.694 536.954 332.694 546.185C332.694 555.415 325.255 562.893 316.085 562.894C306.915 562.894 299.476 555.415 299.476 546.185C299.476 536.954 306.915 529.476 316.085 529.476ZM316.085 529C325.521 529 333.17 536.694 333.17 546.185C333.17 555.676 325.521 563.37 316.085 563.37C306.649 563.37 299 555.676 299 546.185C299 536.694 306.649 529 316.085 529Z"/>
</mask>
<path d="M331.694 546.185C331.694 537.501 324.697 530.476 316.085 530.476L316.085 528.476C325.813 528.476 333.694 536.407 333.694 546.185L331.694 546.185ZM316.085 561.894C324.697 561.893 331.694 554.869 331.694 546.185L333.694 546.185C333.694 555.962 325.813 563.893 316.085 563.894L316.085 561.894ZM300.476 546.185C300.476 554.869 307.472 561.894 316.085 561.894L316.085 563.894C306.357 563.894 298.476 555.962 298.476 546.185L300.476 546.185ZM316.085 530.476C307.472 530.476 300.476 537.501 300.476 546.185L298.476 546.185C298.476 536.407 306.357 528.476 316.085 528.476L316.085 530.476ZM332.17 546.185C332.17 537.241 324.963 530 316.085 530L316.085 528C326.078 528 334.17 536.147 334.17 546.185L332.17 546.185ZM316.085 562.37C324.963 562.37 332.17 555.129 332.17 546.185L334.17 546.185C334.17 556.223 326.078 564.37 316.085 564.37L316.085 562.37ZM300 546.185C300 555.129 307.207 562.37 316.085 562.37L316.085 564.37C306.091 564.37 298 556.223 298 546.185L300 546.185ZM316.085 530C307.207 530 300 537.241 300 546.185L298 546.185C298 536.147 306.091 528 316.085 528L316.085 530Z" fill="black" mask="url(#path-21-inside-4_77_732)"/>
</g>
<path d="M188.356 67C188.156 67 187.986 66.94 187.846 66.82C187.726 66.68 187.666 66.51 187.666 66.31V65.35C187.666 64.89 187.916 64.45 188.416 64.03L194.776 57.67C196.316 56.39 197.376 55.35 197.956 54.55C198.536 53.73 198.826 52.87 198.826 51.97C198.826 50.81 198.496 49.9 197.836 49.24C197.196 48.58 196.256 48.25 195.016 48.25C193.856 48.25 192.926 48.6 192.226 49.3C191.526 49.98 191.096 50.89 190.936 52.03C190.896 52.27 190.796 52.45 190.636 52.57C190.496 52.67 190.336 52.72 190.156 52.72H188.596C188.416 52.72 188.266 52.67 188.146 52.57C188.026 52.45 187.966 52.31 187.966 52.15C188.006 51.07 188.296 50.04 188.836 49.06C189.376 48.06 190.166 47.25 191.206 46.63C192.266 45.99 193.536 45.67 195.016 45.67C197.276 45.67 198.976 46.26 200.116 47.44C201.276 48.6 201.856 50.08 201.856 51.88C201.856 53.14 201.536 54.28 200.896 55.3C200.276 56.3 199.306 57.38 197.986 58.54L192.226 64.39H201.586C201.806 64.39 201.976 64.46 202.096 64.6C202.236 64.72 202.306 64.88 202.306 65.08V66.31C202.306 66.51 202.236 66.68 202.096 66.82C201.956 66.94 201.786 67 201.586 67H188.356Z" fill="black"/>
</svg>
