<svg width="390" height="844" viewBox="0 0 390 844" fill="none" xmlns="http://www.w3.org/2000/svg">
<rect width="390" height="844" fill="#F3F2EE"/>
<rect x="19" y="408" width="63" height="27" fill="black"/>
<rect x="91" y="408" width="63" height="27" fill="black"/>
<rect x="308" y="408" width="63" height="27" fill="black"/>
<rect x="163.5" y="408.5" width="63" height="26" stroke="black"/>
<rect x="236.5" y="408.5" width="62" height="26" stroke="black"/>
<rect x="91" y="215" width="63" height="27" fill="black"/>
<rect x="163" y="215" width="63" height="27" fill="black"/>
<rect x="236" y="215" width="63" height="27" fill="black"/>
<rect x="308" y="215" width="63" height="27" fill="black"/>
<rect x="18.5" y="215.5" width="63" height="26" stroke="black"/>
<path d="M108.17 607.185C108.17 597.694 100.521 590 91.0849 590C81.6492 590 74 597.694 74 607.185C74 616.676 81.6492 624.37 91.0849 624.37C100.521 624.37 108.17 616.676 108.17 607.185Z" fill="black"/>
<path fill-rule="evenodd" clip-rule="evenodd" d="M91.0849 590.476C100.255 590.476 107.694 597.954 107.694 607.185C107.694 616.415 100.255 623.893 91.0849 623.894C81.9148 623.894 74.4761 616.415 74.4761 607.185C74.4761 597.954 81.9148 590.476 91.0849 590.476ZM91.0849 590C100.521 590 108.17 597.694 108.17 607.185C108.17 616.676 100.521 624.37 91.0849 624.37C81.6492 624.37 74 616.676 74 607.185C74 597.694 81.6492 590 91.0849 590Z" fill="black"/>
<g opacity="0.1">
<path d="M99.1698 618.185C99.1698 608.694 91.5206 601 82.0849 601C72.6492 601 65 608.694 65 618.185C65 627.676 72.6492 635.37 82.0849 635.37C91.5206 635.37 99.1698 627.676 99.1698 618.185Z" fill="black"/>
<path fill-rule="evenodd" clip-rule="evenodd" d="M82.0849 601.476C91.2551 601.476 98.6937 608.954 98.6937 618.185C98.6937 627.415 91.2551 634.893 82.0849 634.894C72.9148 634.894 65.4761 627.415 65.4761 618.185C65.4761 608.954 72.9148 601.476 82.0849 601.476ZM82.0849 601C91.5206 601 99.1698 608.694 99.1698 618.185C99.1698 627.676 91.5206 635.37 82.0849 635.37C72.6492 635.37 65 627.676 65 618.185C65 608.694 72.6492 601 82.0849 601Z" fill="black"/>
</g>
<path opacity="0.06" d="M91.1698 635.185C91.1698 625.694 83.5207 618 74.0849 618C64.6492 618 57 625.694 57 635.185C57 644.676 64.6492 652.37 74.0849 652.37C83.5207 652.37 91.1698 644.676 91.1698 635.185Z" fill="black"/>
<path opacity="0.03" d="M88.1698 652.185C88.1698 642.694 80.5206 635 71.0849 635C61.6492 635 54 642.694 54 652.185C54 661.676 61.6492 669.37 71.0849 669.37C80.5206 669.37 88.1698 661.676 88.1698 652.185Z" fill="black"/>
<path d="M188.356 67C188.156 67 187.986 66.94 187.846 66.82C187.726 66.68 187.666 66.51 187.666 66.31V65.35C187.666 64.89 187.916 64.45 188.416 64.03L194.776 57.67C196.316 56.39 197.376 55.35 197.956 54.55C198.536 53.73 198.826 52.87 198.826 51.97C198.826 50.81 198.496 49.9 197.836 49.24C197.196 48.58 196.256 48.25 195.016 48.25C193.856 48.25 192.926 48.6 192.226 49.3C191.526 49.98 191.096 50.89 190.936 52.03C190.896 52.27 190.796 52.45 190.636 52.57C190.496 52.67 190.336 52.72 190.156 52.72H188.596C188.416 52.72 188.266 52.67 188.146 52.57C188.026 52.45 187.966 52.31 187.966 52.15C188.006 51.07 188.296 50.04 188.836 49.06C189.376 48.06 190.166 47.25 191.206 46.63C192.266 45.99 193.536 45.67 195.016 45.67C197.276 45.67 198.976 46.26 200.116 47.44C201.276 48.6 201.856 50.08 201.856 51.88C201.856 53.14 201.536 54.28 200.896 55.3C200.276 56.3 199.306 57.38 197.986 58.54L192.226 64.39H201.586C201.806 64.39 201.976 64.46 202.096 64.6C202.236 64.72 202.306 64.88 202.306 65.08V66.31C202.306 66.51 202.236 66.68 202.096 66.82C201.956 66.94 201.786 67 201.586 67H188.356Z" fill="black"/>
</svg>
