<svg width="390" height="844" viewBox="0 0 390 844" fill="none" xmlns="http://www.w3.org/2000/svg">
<g clip-path="url(#clip0_77_733)">
<rect width="390" height="844" fill="#F3F2EE"/>
<rect x="19.5" y="759.5" width="62" height="26" stroke="black"/>
<rect x="91.5" y="759.5" width="62" height="26" stroke="black"/>
<rect x="308.5" y="759.5" width="62" height="26" stroke="black"/>
<rect x="163" y="759" width="64" height="27" fill="black"/>
<rect x="236" y="759" width="63" height="27" fill="black"/>
<rect x="10" y="373" width="63" height="27" fill="black"/>
<rect x="82" y="373" width="63" height="27" fill="black"/>
<rect x="299" y="373" width="63" height="27" fill="black"/>
<rect x="154" y="373" width="64" height="27" fill="black"/>
<rect x="227" y="373" width="63" height="27" fill="black"/>
<rect x="10.5" y="180.5" width="62" height="26" stroke="black"/>
<rect x="82" y="180" width="64" height="27" fill="black"/>
<rect x="155" y="180" width="63" height="27" fill="black"/>
<rect x="227" y="180" width="63" height="27" fill="black"/>
<rect x="299.5" y="180.5" width="62" height="26" stroke="black"/>
<path d="M331.041 186L333.564 189.929L338.081 191.115L335.124 194.73L335.392 199.392L331.041 197.697L326.689 199.392L326.957 194.73L324 191.115L328.517 189.929L331.041 186Z" fill="black"/>
<rect x="91.5" y="566.5" width="62" height="26" stroke="black"/>
<rect x="163.5" y="566.5" width="62" height="26" stroke="black"/>
<rect x="236.5" y="566.5" width="62" height="26" stroke="black"/>
<rect x="308.5" y="566.5" width="62" height="26" stroke="black"/>
<rect x="18" y="566" width="64" height="27" fill="black"/>
<path d="M198.214 67C198.014 67 197.844 66.94 197.704 66.82C197.584 66.68 197.524 66.51 197.524 66.31V61.99H187.804C187.604 61.99 187.434 61.93 187.294 61.81C187.174 61.67 187.114 61.5 187.114 61.3V60.1C187.114 59.8 187.224 59.5 187.444 59.2L196.444 46.51C196.544 46.35 196.694 46.23 196.894 46.15C197.094 46.05 197.314 46 197.554 46H199.714C199.914 46 200.074 46.07 200.194 46.21C200.334 46.33 200.404 46.49 200.404 46.69V59.38H203.104C203.304 59.38 203.474 59.45 203.614 59.59C203.754 59.71 203.824 59.87 203.824 60.07V61.3C203.824 61.5 203.754 61.67 203.614 61.81C203.494 61.93 203.334 61.99 203.134 61.99H200.404V66.31C200.404 66.51 200.334 66.68 200.194 66.82C200.074 66.94 199.914 67 199.714 67H198.214ZM197.554 59.44V49.15L190.324 59.44H197.554Z" fill="black"/>
<path d="M384.67 483.185C384.67 473.967 377.242 466.5 368.085 466.5C358.928 466.5 351.5 473.967 351.5 483.185C351.5 492.402 358.928 499.87 368.085 499.87C377.242 499.87 384.67 492.402 384.67 483.185Z" stroke="black"/>
<mask id="path-24-inside-1_77_733" fill="white">
<path fill-rule="evenodd" clip-rule="evenodd" d="M368.085 466.476C377.255 466.476 384.694 473.954 384.694 483.185C384.694 492.415 377.255 499.893 368.085 499.894C358.915 499.894 351.476 492.415 351.476 483.185C351.476 473.954 358.915 466.476 368.085 466.476ZM368.085 466C377.521 466 385.17 473.694 385.17 483.185C385.17 492.676 377.521 500.37 368.085 500.37C358.649 500.37 351 492.676 351 483.185C351 473.694 358.649 466 368.085 466Z"/>
</mask>
<path d="M383.694 483.185C383.694 474.501 376.697 467.476 368.085 467.476L368.085 465.476C377.813 465.476 385.694 473.407 385.694 483.185L383.694 483.185ZM368.085 498.894C376.697 498.893 383.694 491.869 383.694 483.185L385.694 483.185C385.694 492.962 377.813 500.893 368.085 500.894L368.085 498.894ZM352.476 483.185C352.476 491.869 359.472 498.894 368.085 498.894L368.085 500.894C358.357 500.894 350.476 492.962 350.476 483.185L352.476 483.185ZM368.085 467.476C359.472 467.476 352.476 474.501 352.476 483.185L350.476 483.185C350.476 473.407 358.357 465.476 368.085 465.476L368.085 467.476ZM384.17 483.185C384.17 474.241 376.963 467 368.085 467L368.085 465C378.078 465 386.17 473.147 386.17 483.185L384.17 483.185ZM368.085 499.37C376.963 499.37 384.17 492.129 384.17 483.185L386.17 483.185C386.17 493.223 378.078 501.37 368.085 501.37L368.085 499.37ZM352 483.185C352 492.129 359.207 499.37 368.085 499.37L368.085 501.37C358.091 501.37 350 493.223 350 483.185L352 483.185ZM368.085 467C359.207 467 352 474.241 352 483.185L350 483.185C350 473.147 358.091 465 368.085 465L368.085 467Z" fill="black" mask="url(#path-24-inside-1_77_733)"/>
<path d="M29.6698 290.185C29.6698 280.967 22.2418 273.5 13.0849 273.5C3.92806 273.5 -3.5 280.967 -3.5 290.185C-3.5 299.402 3.92806 306.87 13.0849 306.87C22.2418 306.87 29.6698 299.402 29.6698 290.185Z" stroke="black"/>
<mask id="path-27-inside-2_77_733" fill="white">
<path fill-rule="evenodd" clip-rule="evenodd" d="M13.0849 273.476C22.2551 273.476 29.6937 280.954 29.6937 290.185C29.6937 299.415 22.2551 306.893 13.0849 306.894C3.91475 306.894 -3.52386 299.415 -3.52386 290.185C-3.52386 280.954 3.91475 273.476 13.0849 273.476ZM13.0849 273C22.5206 273 30.1698 280.694 30.1698 290.185C30.1698 299.676 22.5206 307.37 13.0849 307.37C3.64917 307.37 -4 299.676 -4 290.185C-4 280.694 3.64917 273 13.0849 273Z"/>
</mask>
<path d="M28.6937 290.185C28.6937 281.501 21.6973 274.476 13.0849 274.476L13.0849 272.476C22.8128 272.476 30.6937 280.407 30.6937 290.185L28.6937 290.185ZM13.0849 305.894C21.6973 305.893 28.6937 298.869 28.6937 290.185L30.6937 290.185C30.6937 299.962 22.8128 307.893 13.0849 307.894L13.0849 305.894ZM-2.52386 290.185C-2.52386 298.869 4.47248 305.894 13.0849 305.894L13.0849 307.894C3.35703 307.894 -4.52386 299.962 -4.52386 290.185L-2.52386 290.185ZM13.0849 274.476C4.47248 274.476 -2.52386 281.501 -2.52386 290.185L-4.52386 290.185C-4.52386 280.407 3.35703 272.476 13.0849 272.476L13.0849 274.476ZM29.1698 290.185C29.1698 281.241 21.9629 274 13.0849 274L13.0849 272C23.0784 272 31.1698 280.147 31.1698 290.185L29.1698 290.185ZM13.0849 306.37C21.9629 306.37 29.1698 299.129 29.1698 290.185L31.1698 290.185C31.1698 300.223 23.0784 308.37 13.0849 308.37L13.0849 306.37ZM-3 290.185C-3 299.129 4.20695 306.37 13.0849 306.37L13.0849 308.37C3.0914 308.37 -5 300.223 -5 290.185L-3 290.185ZM13.0849 274C4.20695 274 -3 281.241 -3 290.185L-5 290.185C-5 280.147 3.0914 272 13.0849 272L13.0849 274Z" fill="black" mask="url(#path-27-inside-2_77_733)"/>
<g opacity="0.1">
<path d="M363.367 499.173C369.471 492.266 368.85 481.752 361.988 475.688C355.127 469.625 344.616 470.301 338.512 477.208C332.408 484.115 333.029 494.629 339.891 500.693C346.752 506.757 357.263 506.08 363.367 499.173Z" stroke="black"/>
<mask id="path-30-inside-3_77_733" fill="white">
<path fill-rule="evenodd" clip-rule="evenodd" d="M362.004 475.67C368.875 481.743 369.497 492.272 363.385 499.189C357.272 506.106 346.746 506.783 339.875 500.711C333.003 494.638 332.382 484.109 338.494 477.192C344.607 470.276 355.132 469.598 362.004 475.67ZM362.319 475.314C369.39 481.562 370.026 492.393 363.742 499.504C357.457 506.616 346.63 507.316 339.56 501.068C332.489 494.819 331.852 483.989 338.137 476.877C344.422 469.765 355.249 469.065 362.319 475.314Z"/>
</mask>
<path d="M362.635 498.527C368.386 492.02 367.795 482.123 361.342 476.42L362.666 474.921C369.955 481.363 370.609 492.525 364.134 499.851L362.635 498.527ZM340.537 499.962C346.991 505.665 356.885 505.034 362.635 498.527L364.134 499.851C357.66 507.178 346.502 507.902 339.213 501.46L340.537 499.962ZM339.243 477.855C333.493 484.361 334.084 494.258 340.537 499.962L339.213 501.46C331.923 495.018 331.27 483.857 337.745 476.53L339.243 477.855ZM361.342 476.42C354.888 470.717 344.994 471.348 339.243 477.855L337.745 476.53C344.219 469.204 355.377 468.479 362.666 474.921L361.342 476.42ZM362.992 498.842C368.915 492.14 368.31 481.942 361.657 476.063L362.981 474.564C370.47 481.182 371.138 492.645 364.491 500.167L362.992 498.842ZM340.222 500.318C346.874 506.197 357.069 505.544 362.992 498.842L364.491 500.167C357.844 507.688 346.386 508.435 338.897 501.817L340.222 500.318ZM338.887 477.539C332.964 484.241 333.569 494.439 340.222 500.318L338.897 501.817C331.409 495.199 330.741 483.736 337.388 476.215L338.887 477.539ZM361.657 476.063C355.005 470.184 344.809 470.837 338.887 477.539L337.388 476.215C344.035 468.693 355.493 467.947 362.981 474.564L361.657 476.063Z" fill="black" mask="url(#path-30-inside-3_77_733)"/>
</g>
<path opacity="0.06" d="M346.115 506.614C352.219 499.707 351.598 489.193 344.736 483.129C337.875 477.066 327.364 477.742 321.26 484.649C315.156 491.556 315.777 502.07 322.639 508.134C329.5 514.198 340.011 513.521 346.115 506.614Z" stroke="black"/>
<path opacity="0.03" d="M332.609 517.366C338.713 510.459 338.092 499.945 331.231 493.881C324.369 487.818 313.858 488.494 307.754 495.401C301.651 502.308 302.272 512.822 309.133 518.886C315.995 524.95 326.506 524.273 332.609 517.366Z" stroke="black"/>
<rect x="370" y="438" width="20" height="80" fill="#F3F2EE"/>
<rect y="247" width="13" height="80" fill="#F3F2EE"/>
<ellipse cx="367.5" cy="481" rx="5.5" ry="43" fill="black"/>
<ellipse cx="12.5" cy="290" rx="5.5" ry="43" fill="black"/>
</g>
<defs>
<clipPath id="clip0_77_733">
<rect width="390" height="844" fill="white"/>
</clipPath>
</defs>
</svg>
