<svg width="1080" height="1920" viewBox="0 0 1080 1920" fill="none" xmlns="http://www.w3.org/2000/svg">
<rect width="1080" height="1920" fill="#232729"/>
<path fill-rule="evenodd" clip-rule="evenodd" d="M975.933 1833H1030.11V1886H975.933V1833ZM989.922 1875.97C989.615 1875.97 989.353 1875.88 989.138 1875.7C988.953 1875.48 988.861 1875.22 988.861 1874.91V1844.78C988.861 1844.44 988.953 1844.18 989.138 1844C989.353 1843.78 989.615 1843.67 989.922 1843.67H992.23C992.722 1843.67 993.122 1843.92 993.429 1844.41L1003.16 1863.05L1012.99 1844.41C1013.05 1844.23 1013.18 1844.06 1013.36 1843.9C1013.58 1843.75 1013.84 1843.67 1014.15 1843.67H1016.41C1016.75 1843.67 1017.01 1843.78 1017.19 1844C1017.41 1844.18 1017.51 1844.44 1017.51 1844.78V1874.91C1017.51 1875.22 1017.41 1875.48 1017.19 1875.7C1016.98 1875.88 1016.72 1875.97 1016.41 1875.97H1014.15C1013.84 1875.97 1013.58 1875.88 1013.36 1875.7C1013.18 1875.48 1013.09 1875.22 1013.09 1874.91V1852.21L1005.38 1867.25C1005.07 1867.9 1004.58 1868.22 1003.9 1868.22H1002.47C1001.8 1868.22 1001.3 1867.9 1001 1867.25L993.245 1852.21V1874.91C993.245 1875.22 993.137 1875.48 992.922 1875.7C992.737 1875.88 992.491 1875.97 992.183 1875.97H989.922ZM936.598 1873.47C938.659 1874.42 941.135 1874.9 944.027 1874.9C946.888 1874.9 949.379 1874.4 951.502 1873.42C953.655 1872.4 955.301 1870.96 956.439 1869.08C957.608 1867.21 958.192 1864.94 958.192 1862.3V1857.27C958.192 1856.93 958.085 1856.65 957.869 1856.44C957.654 1856.22 957.377 1856.12 957.039 1856.12H945.734C945.427 1856.12 945.165 1856.22 944.95 1856.44C944.734 1856.65 944.627 1856.93 944.627 1857.27V1860.22C944.627 1860.53 944.734 1860.81 944.95 1861.05C945.165 1861.27 945.427 1861.38 945.734 1861.38H950.764V1862.53C950.764 1864.01 950.471 1865.22 949.887 1866.17C949.302 1867.13 948.503 1867.84 947.488 1868.3C946.503 1868.73 945.38 1868.94 944.119 1868.94C942.181 1868.94 940.628 1868.42 939.459 1867.37C938.321 1866.33 937.706 1864.61 937.613 1862.21C937.521 1859.47 937.521 1856.78 937.613 1854.13C937.706 1851.83 938.305 1850.16 939.413 1849.15C940.551 1848.13 942.089 1847.63 944.027 1847.63C945.319 1847.63 946.365 1847.83 947.165 1848.23C947.964 1848.63 948.595 1849.12 949.056 1849.7C949.549 1850.26 949.902 1850.81 950.118 1851.36C950.241 1851.61 950.379 1851.79 950.533 1851.92C950.717 1852.04 950.963 1852.1 951.271 1852.1H956.993C957.3 1852.1 957.546 1852.01 957.731 1851.83C957.915 1851.61 958.008 1851.36 958.008 1851.09C957.977 1850.07 957.654 1849.01 957.039 1847.9C956.424 1846.8 955.531 1845.78 954.363 1844.86C953.194 1843.9 951.748 1843.14 950.025 1842.55C948.303 1841.97 946.303 1841.67 944.027 1841.67C941.197 1841.67 938.736 1842.17 936.644 1843.15C934.583 1844.1 932.984 1845.49 931.846 1847.3C930.738 1849.12 930.138 1851.32 930.046 1853.9C930.015 1855.25 930 1856.69 930 1858.19C930 1859.7 930.015 1861.11 930.046 1862.44C930.138 1865.08 930.738 1867.34 931.846 1869.22C932.984 1871.07 934.568 1872.48 936.598 1873.47Z" fill="#F3F2EE"/>
<path d="M251.426 861.487V854.381H260.895C265.878 854.381 269.865 853.716 272.856 852.386C275.846 851.056 278.005 849.352 279.334 847.274C280.663 845.113 281.328 842.869 281.328 840.542C281.328 837.467 280.289 834.558 278.213 831.815C276.136 829.072 273.478 827.368 270.239 826.703L253.544 828.698L230.869 819.223C233.61 819.057 236.475 818.932 239.466 818.849C242.539 818.766 245.653 818.683 248.81 818.6C251.966 818.434 255.039 818.35 258.029 818.35C261.103 818.267 263.968 818.226 266.626 818.226C273.852 818.226 279.708 819.265 284.193 821.343C288.761 823.337 292.084 825.914 294.16 829.072C296.32 832.231 297.4 835.597 297.4 839.171C297.4 841.997 296.694 844.781 295.282 847.524C293.953 850.266 291.835 852.594 288.928 854.505C286.104 856.334 282.449 857.373 277.964 857.622L261.642 860.49L251.426 861.487ZM229.748 900.759L229 896.769C230.91 895.689 232.904 894.733 234.98 893.902C237.057 893.07 239.175 892.322 241.334 891.657L241.459 900.759H229.748ZM239.59 900.759V819.348H254.79V900.759H239.59ZM251.924 900.759L252.298 890.909L266.128 892.156C270.364 892.489 273.852 892.032 276.593 890.785C279.417 889.538 281.494 887.793 282.823 885.549C284.152 883.221 284.816 880.769 284.816 878.193C284.816 875.616 284.11 873.081 282.698 870.588C281.286 868.011 279.168 865.934 276.344 864.354C273.603 862.692 270.198 861.861 266.128 861.861H252.298L254.416 859.118L270.862 857.123C277.59 856.542 283.196 857.206 287.682 859.118C292.25 861.03 295.697 863.689 298.023 867.097C300.348 870.505 301.511 874.203 301.511 878.193C301.511 882.099 300.348 885.798 298.023 889.289C295.697 892.696 292.042 895.481 287.059 897.642C282.075 899.72 275.68 900.759 267.872 900.759H251.924ZM243.826 826.703L230.744 825.457L230.869 819.223H243.702L243.826 826.703Z" fill="#F3F2EE"/>
<path d="M314.005 900.759V814.361L323.1 809L328.582 813.987V900.759H314.005ZM305.035 900.759L304.536 896.52C306.364 895.605 308.565 894.691 311.14 893.777C313.797 892.863 316.04 892.198 317.867 891.782L316.248 900.759H305.035ZM322.726 900.759L323.848 890.909C326.173 891.242 328.624 891.741 331.198 892.406C333.773 892.987 335.891 893.777 337.553 894.774L337.054 900.759H322.726ZM304.661 819.098L303.54 813.114C306.364 811.951 309.52 811.036 313.008 810.371C316.497 809.623 319.861 809.166 323.1 809L324.097 814.112L317.244 819.472L304.661 819.098Z" fill="#F3F2EE"/>
<path d="M350.993 900.759V845.03L360.088 839.794L365.57 844.781V900.759H350.993ZM342.022 900.759L341.524 896.52C343.351 895.605 345.552 894.691 348.127 893.777C350.785 892.863 353.028 892.198 354.855 891.782L353.235 900.759H342.022ZM359.714 900.759L360.835 890.909C363.161 891.242 365.611 891.741 368.186 892.406C370.761 892.987 372.879 893.777 374.54 894.774L374.042 900.759H359.714ZM341.648 849.892L340.527 843.908C343.351 842.661 346.507 841.706 349.996 841.041C353.484 840.293 356.848 839.877 360.088 839.794L361.084 844.781L354.232 850.142L341.648 849.892ZM359.091 830.194C357.097 829.363 355.021 828.116 352.861 826.454C350.702 824.792 348.999 823.129 347.753 821.467C348.833 819.14 350.204 816.979 351.865 814.984C353.526 812.906 355.187 811.286 356.848 810.122C359.008 811.036 361.084 812.408 363.078 814.236C365.071 815.982 366.649 817.685 367.812 819.348C366.982 821.343 365.736 823.379 364.074 825.457C362.496 827.451 360.835 829.031 359.091 830.194Z" fill="#F3F2EE"/>
<path d="M388.832 900.759V845.03L397.927 839.794L403.409 845.03V900.759H388.832ZM427.081 900.759V864.354C427.081 859.7 426.292 856.375 424.714 854.381C423.219 852.386 421.267 851.43 418.858 851.513C417.197 851.513 415.245 852.012 413.002 853.009C410.76 853.923 408.475 855.087 406.15 856.5C403.824 857.913 401.665 859.367 399.671 860.864L397.927 856.375C401.665 853.383 405.361 850.724 409.015 848.396C412.67 845.986 416.034 844.074 419.107 842.661C422.18 841.165 424.714 840.251 426.707 839.919C428.285 840.085 429.905 840.584 431.566 841.415C433.31 842.163 434.93 843.16 436.425 844.407C437.92 845.57 439.083 846.942 439.913 848.521C440.329 849.269 440.661 850.225 440.91 851.388C441.159 852.552 441.326 854.09 441.409 856.001C441.575 857.913 441.658 860.406 441.658 863.482V900.759H427.081ZM379.488 849.892L378.366 843.908C381.19 842.661 384.347 841.706 387.835 841.041C391.324 840.293 394.688 839.877 397.927 839.794L398.924 844.781L392.071 850.142L379.488 849.892ZM380.36 900.759L379.861 896.52C381.689 895.605 383.89 894.691 386.465 893.777C389.123 892.863 391.365 892.198 393.192 891.782L391.573 900.759H380.36ZM396.93 900.759L398.051 890.909C400.294 891.242 402.62 891.741 405.028 892.406C407.437 892.987 409.514 893.777 411.258 894.774L410.635 900.759H396.93ZM420.353 900.759L419.855 896.52C421.682 895.605 423.883 894.691 426.458 893.777C429.116 892.863 431.358 892.198 433.186 891.782L431.566 900.759H420.353ZM435.179 900.759L436.3 890.909C438.626 891.242 441.118 891.741 443.776 892.406C446.517 892.987 448.718 893.777 450.379 894.774L449.756 900.759H435.179Z" fill="#F3F2EE"/>
<path d="M481.243 902.629C475.595 902.712 470.653 901.34 466.417 898.514C462.181 895.689 458.859 891.907 456.45 887.169C454.124 882.432 452.961 877.279 452.961 871.71C452.961 867.056 453.75 862.775 455.329 858.869C456.99 854.879 459.274 851.43 462.181 848.521C465.088 845.612 468.493 843.368 472.397 841.789C476.301 840.21 480.496 839.42 484.981 839.42C489.466 839.42 493.453 840.21 496.941 841.789C500.43 843.368 503.129 845.28 505.04 847.524L500.305 858.744C498.893 856.583 496.941 854.671 494.45 853.009C492.041 851.347 489.258 850.142 486.102 849.394C483.029 848.563 479.831 848.438 476.509 849.02C473.851 851.43 471.816 854.547 470.404 858.37C468.992 862.11 468.286 865.975 468.286 869.965C468.286 873.871 468.867 877.362 470.03 880.437C471.276 883.512 473.062 886.006 475.387 887.917C477.713 889.746 480.454 890.66 483.61 890.66C486.019 890.66 488.76 890.037 491.833 888.79C494.99 887.46 498.312 885.382 501.8 882.556L501.302 888.665L481.243 902.629ZM505.414 902.629C504.251 902.629 502.922 902.13 501.427 901.133C500.015 900.135 498.686 898.847 497.44 897.268C496.277 895.689 495.405 893.985 494.823 892.156L494.2 890.785V814.361L503.171 809L508.777 814.112V888.541C508.777 889.455 509.068 890.12 509.65 890.535C510.231 890.951 510.979 891.159 511.892 891.159C512.889 891.159 513.886 891.076 514.882 890.909C515.879 890.743 516.876 890.535 517.872 890.286L519.368 895.772L505.414 902.629ZM484.856 819.098L483.61 813.114C486.517 811.951 489.715 811.036 493.204 810.371C496.692 809.623 500.015 809.166 503.171 809L504.292 814.112L497.44 819.472L484.856 819.098Z" fill="#F3F2EE"/>
<path d="M590.79 904C584.312 904 578.415 902.836 573.099 900.509C567.783 898.182 563.547 894.941 560.391 890.785C557.317 886.629 555.781 881.767 555.781 876.198C555.781 872.292 556.57 868.801 558.148 865.726C559.809 862.567 562.052 859.991 564.876 857.996C567.7 855.918 570.898 854.505 574.469 853.757L574.718 850.89L590.915 855.627L589.545 862.858C585.309 862.775 581.778 863.482 578.954 864.978C576.13 866.474 573.971 868.469 572.476 870.962C570.981 873.455 570.233 876.157 570.233 879.066C570.233 882.556 571.188 885.507 573.099 887.917C575.009 890.245 577.459 891.99 580.449 893.154C583.523 894.317 586.845 894.899 590.417 894.899C592.161 894.899 594.154 894.733 596.397 894.4C598.64 893.985 600.882 893.278 603.125 892.281C606.198 890.203 608.399 887.585 609.728 884.427C611.057 881.268 611.721 877.944 611.721 874.453C611.721 870.713 611.016 867.014 609.603 863.357C608.275 859.617 606.323 856.334 603.748 853.508L616.331 848.396C619.321 852.303 621.523 856.417 622.935 860.739C624.347 864.978 625.053 869.092 625.053 873.081C625.053 878.733 623.682 883.928 620.941 888.665C618.283 893.32 614.379 897.06 609.23 899.886C604.163 902.629 598.017 904 590.79 904ZM580.449 858.495C575.549 857.996 571.438 856.749 568.115 854.755C564.876 852.677 562.426 850.183 560.764 847.274C559.186 844.365 558.397 841.373 558.397 838.298C558.397 834.89 559.394 831.607 561.387 828.449C563.381 825.207 566.412 822.589 570.482 820.594C574.552 818.517 579.577 817.478 585.558 817.478C588.963 817.478 592.701 817.893 596.771 818.724C600.924 819.472 605.16 820.719 609.479 822.465L604.869 835.306L581.197 826.953C578.456 828.199 576.338 830.07 574.843 832.563C573.348 834.973 572.6 837.591 572.6 840.417C572.6 843.16 573.389 845.861 574.968 848.521C576.546 851.098 578.83 853.051 581.82 854.381L580.449 858.495ZM599.138 863.357L595.276 856.375C601.422 852.718 606.821 849.851 611.472 847.773C616.124 845.695 620.194 844.324 623.682 843.659C627.171 842.911 630.285 842.911 633.026 843.659C635.767 844.324 638.425 845.612 641 847.524L637.262 860.365C635.02 859.035 632.736 857.83 630.41 856.749C628.167 855.669 625.592 855.045 622.685 854.879C619.861 854.713 616.539 855.253 612.718 856.5C608.981 857.664 604.454 859.949 599.138 863.357Z" fill="#F3F2EE"/>
<path d="M352.687 1014.01C347.695 1014.01 342.828 1013.14 338.085 1011.39C333.343 1009.57 329.058 1006.92 325.231 1003.44C321.487 999.872 318.491 995.437 316.245 990.132C314.082 984.743 313 978.485 313 971.355C313 962.568 314.706 954.9 318.117 948.351C321.528 941.802 326.146 936.745 331.97 933.181C337.877 929.533 344.492 927.71 351.814 927.71C357.055 927.71 362.047 928.663 366.79 930.569C371.616 932.476 375.859 935.336 379.52 939.149C383.264 942.88 386.217 947.522 388.381 953.076C390.544 958.548 391.625 964.806 391.625 971.853C391.625 978.982 390.544 985.199 388.381 990.505C386.217 995.81 383.264 1000.2 379.52 1003.69C375.859 1007.08 371.699 1009.65 367.039 1011.39C362.463 1013.14 357.679 1014.01 352.687 1014.01ZM354.934 1004.06C356.348 1004.06 357.721 1003.98 359.052 1003.81C360.466 1003.56 361.881 1003.27 363.295 1002.94C366.873 1000.45 369.743 996.473 371.907 991.002C374.07 985.531 375.152 979.355 375.152 972.474C375.152 967.998 374.652 963.687 373.654 959.542C372.656 955.397 371.116 951.667 369.036 948.351C367.039 945.035 364.46 942.382 361.299 940.393C358.22 938.403 354.518 937.409 350.191 937.409C348.61 937.409 346.905 937.574 345.074 937.906C343.327 938.238 341.538 938.735 339.708 939.398C337.711 941.056 335.922 943.377 334.341 946.362C332.76 949.346 331.512 952.828 330.597 956.807C329.765 960.786 329.349 964.972 329.349 969.366C329.349 973.925 329.848 978.319 330.847 982.547C331.928 986.691 333.509 990.38 335.589 993.613C337.669 996.846 340.29 999.416 343.452 1001.32C346.697 1003.15 350.524 1004.06 354.934 1004.06Z" fill="#F3F2EE"/>
<path d="M403.423 1011.52V955.936L412.534 950.714L418.025 955.936V1011.52H403.423ZM441.738 1011.52V975.21C441.738 970.568 440.947 967.252 439.366 965.262C437.869 963.273 435.913 962.319 433.501 962.402C431.837 962.402 429.881 962.9 427.635 963.894C425.388 964.806 423.1 965.967 420.771 967.376C418.441 968.785 416.278 970.236 414.281 971.728L412.534 967.252C416.278 964.268 419.98 961.615 423.641 959.294C427.302 956.89 430.672 954.983 433.75 953.574C436.829 952.082 439.366 951.17 441.363 950.838C442.944 951.004 444.566 951.501 446.23 952.33C447.978 953.076 449.6 954.071 451.098 955.315C452.595 956.475 453.76 957.843 454.592 959.418C455.008 960.164 455.341 961.117 455.591 962.278C455.84 963.439 456.007 964.972 456.09 966.879C456.256 968.785 456.339 971.272 456.339 974.34V1011.52H441.738ZM394.063 960.786L392.94 954.817C395.769 953.574 398.93 952.62 402.425 951.957C405.919 951.211 409.289 950.797 412.534 950.714L413.532 955.688L406.668 961.034L394.063 960.786ZM394.937 1011.52L394.437 1007.29C396.268 1006.38 398.473 1005.47 401.052 1004.56C403.714 1003.64 405.961 1002.98 407.791 1002.57L406.169 1011.52H394.937ZM411.535 1011.52L412.659 1001.7C414.905 1002.03 417.235 1002.52 419.648 1003.19C422.06 1003.77 424.14 1004.56 425.888 1005.55L425.264 1011.52H411.535ZM434.998 1011.52L434.499 1007.29C436.329 1006.38 438.534 1005.47 441.114 1004.56C443.776 1003.64 446.022 1002.98 447.853 1002.57L446.23 1011.52H434.998ZM449.85 1011.52L450.973 1001.7C453.303 1002.03 455.799 1002.52 458.461 1003.19C461.207 1003.77 463.412 1004.56 465.076 1005.55L464.452 1011.52H449.85Z" fill="#F3F2EE"/>
<path d="M500.735 1013.26C495.66 1013.51 491.084 1012.89 487.007 1011.39C482.93 1009.9 479.435 1007.79 476.523 1005.05C473.611 1002.23 471.406 998.96 469.909 995.23C468.411 991.499 467.662 987.437 467.662 983.044C467.662 978.65 468.411 974.505 469.909 970.609C471.406 966.63 473.486 963.148 476.149 960.164C478.811 957.097 481.931 954.693 485.509 952.952C489.17 951.211 493.122 950.341 497.365 950.341C500.527 950.341 503.564 950.879 506.476 951.957C509.388 952.952 511.967 954.444 514.214 956.434C516.46 958.423 518.207 960.869 519.455 963.77C520.786 966.672 521.41 969.987 521.327 973.718L507.724 977.2C508.14 973.801 507.682 970.692 506.351 967.874C505.103 965.055 503.231 962.817 500.735 961.159C498.239 959.501 495.327 958.713 491.999 958.796C489.669 960.123 487.797 961.988 486.383 964.392C484.968 966.796 483.928 969.407 483.263 972.226C482.597 975.044 482.264 977.78 482.264 980.433C482.264 985.158 483.138 989.178 484.885 992.494C486.632 995.727 488.962 998.214 491.874 999.955C494.869 1001.61 498.239 1002.44 501.983 1002.44C504.562 1002.44 507.141 1002.07 509.721 1001.32C512.3 1000.58 515.046 999.541 517.958 998.214L520.204 1004.06L500.735 1013.26ZM514.089 980.681L479.643 980.184L479.144 972.972L516.959 970.982L521.327 973.718L514.089 980.681Z" fill="#F3F2EE"/>
<path d="M532.534 981.676L527.667 973.842L529.289 970.361H563.111L567.853 978.319L566.231 981.676H532.534Z" fill="#F3F2EE"/>
<path d="M576.67 1011.52L575.921 1007.54C577.835 1006.46 579.832 1005.51 581.912 1004.68C583.992 1003.85 586.114 1003.11 588.277 1002.44L588.402 1011.52H576.67ZM638.447 1011.52L625.842 1007.54L631.334 987.396L639.945 988.018C640.028 990.256 639.987 992.826 639.82 995.727C639.737 998.629 639.571 1001.49 639.321 1004.31C639.071 1007.04 638.78 1009.45 638.447 1011.52ZM590.523 937.657L577.544 936.414L577.669 930.196H590.399L590.523 937.657ZM628.463 952.206L625.718 934.673L638.697 930.196C638.863 931.689 638.905 933.678 638.822 936.165C638.739 938.652 638.572 941.305 638.323 944.123C638.073 946.859 637.657 949.553 637.075 952.206H628.463ZM586.53 1011.52V930.196H601.756V1011.52H586.53ZM629.586 976.329L599.634 975.086V967.003L629.586 964.641V976.329ZM636.7 941.015L598.261 938.403L588.901 930.196H638.697L636.7 941.015ZM589.151 1011.52L598.511 1002.44L636.7 1000.33L638.323 1011.52H589.151Z" fill="#F3F2EE"/>
<path d="M658.565 1039L650.578 1024.95C655.154 1023.21 659.522 1021.26 663.682 1019.1C667.842 1016.95 671.752 1014.3 675.413 1011.15C673.999 1010.73 672.543 1010.19 671.045 1009.53C669.548 1008.87 668.175 1008.16 666.927 1007.42L647.707 954.941L663.307 952.828L674.165 986.65L675.913 999.458H678.159C679.657 994.898 681.154 989.966 682.652 984.66C684.233 979.272 685.689 973.842 687.02 968.371C688.351 962.817 689.433 957.636 690.265 952.828H705.615C704.035 958.216 702.329 963.853 700.499 969.739C698.751 975.625 696.921 981.469 695.007 987.272C693.094 992.992 691.222 998.38 689.391 1003.44C687.394 1008.24 685.023 1012.76 682.277 1016.99C679.532 1021.22 676.245 1025.16 672.418 1028.8C668.591 1032.45 663.973 1035.85 658.565 1039ZM659.938 963.894L642.341 959.169L642.465 952.828H663.307L659.938 963.894ZM661.311 962.278L658.815 952.828H672.044L672.668 957.926C670.92 958.755 669.09 959.542 667.176 960.288C665.263 960.952 663.307 961.615 661.311 962.278ZM699.126 963.894L681.529 959.169L681.653 952.828H702.62L699.126 963.894ZM699.251 962.278L696.755 952.828H709.984L710.608 957.926C708.86 958.755 707.03 959.542 705.116 960.288C703.203 960.952 701.247 961.615 699.251 962.278Z" fill="#F3F2EE"/>
<path d="M742.296 1013.26C737.22 1013.51 732.644 1012.89 728.567 1011.39C724.491 1009.9 720.996 1007.79 718.084 1005.05C715.172 1002.23 712.967 998.96 711.469 995.23C709.972 991.499 709.223 987.437 709.223 983.044C709.223 978.65 709.972 974.505 711.469 970.609C712.967 966.63 715.047 963.148 717.71 960.164C720.372 957.097 723.492 954.693 727.07 952.952C730.731 951.211 734.683 950.341 738.926 950.341C742.088 950.341 745.124 950.879 748.037 951.957C750.949 952.952 753.528 954.444 755.774 956.434C758.021 958.423 759.768 960.869 761.016 963.77C762.347 966.672 762.971 969.987 762.888 973.718L749.285 977.2C749.701 973.801 749.243 970.692 747.912 967.874C746.664 965.055 744.792 962.817 742.296 961.159C739.8 959.501 736.888 958.713 733.56 958.796C731.23 960.123 729.358 961.988 727.943 964.392C726.529 966.796 725.489 969.407 724.823 972.226C724.158 975.044 723.825 977.78 723.825 980.433C723.825 985.158 724.699 989.178 726.446 992.494C728.193 995.727 730.523 998.214 733.435 999.955C736.43 1001.61 739.8 1002.44 743.544 1002.44C746.123 1002.44 748.702 1002.07 751.281 1001.32C753.861 1000.58 756.606 999.541 759.518 998.214L761.765 1004.06L742.296 1013.26ZM755.65 980.681L721.204 980.184L720.705 972.972L758.52 970.982L762.888 973.718L755.65 980.681Z" fill="#F3F2EE"/>
<path d="M795.811 1013.38C790.153 1013.47 785.202 1012.1 780.959 1009.28C776.716 1006.46 773.388 1002.69 770.975 997.966C768.645 993.24 767.48 988.101 767.48 982.547C767.48 977.904 768.271 973.635 769.852 969.739C771.516 965.76 773.804 962.319 776.716 959.418C779.628 956.517 783.039 954.278 786.95 952.703C790.86 951.128 795.062 950.341 799.555 950.341C804.047 950.341 808.041 951.128 811.536 952.703C815.03 954.278 817.734 956.185 819.648 958.423L814.905 969.614C813.491 967.459 811.536 965.552 809.04 963.894C806.627 962.237 803.839 961.034 800.678 960.288C797.599 959.459 794.396 959.335 791.068 959.915C788.406 962.319 786.367 965.428 784.953 969.241C783.538 972.972 782.831 976.827 782.831 980.806C782.831 984.702 783.413 988.184 784.578 991.251C785.826 994.318 787.615 996.805 789.945 998.712C792.274 1000.54 795.02 1001.45 798.182 1001.45C800.595 1001.45 803.34 1000.83 806.419 999.582C809.58 998.256 812.908 996.183 816.403 993.365L815.904 999.458L795.811 1013.38ZM820.022 1013.38C818.857 1013.38 817.526 1012.89 816.029 1011.89C814.614 1010.9 813.283 1009.61 812.035 1008.04C810.87 1006.46 809.996 1004.76 809.414 1002.94L808.79 1001.57V925.347L817.776 920L823.392 925.098V999.333C823.392 1000.25 823.683 1000.91 824.265 1001.32C824.848 1001.74 825.597 1001.94 826.512 1001.94C827.51 1001.94 828.509 1001.86 829.507 1001.7C830.506 1001.53 831.504 1001.32 832.502 1001.07L834 1006.55L820.022 1013.38ZM799.43 930.072L798.182 924.103C801.094 922.943 804.297 922.031 807.792 921.368C811.286 920.622 814.614 920.166 817.776 920L818.899 925.098L812.035 930.445L799.43 930.072Z" fill="#F3F2EE"/>
<path d="M688.902 860.822C697.749 862.212 703.957 867.813 708.363 871.27C710.057 872.614 711.659 874.071 713.157 875.631C724.798 887.161 740.086 887.161 740.086 887.161C740.086 887.161 755.684 887.161 767.367 875.279C768.776 873.836 770.275 872.484 771.857 871.233C776.269 867.765 782.586 862.088 791.538 860.783C796.377 860.013 796.387 853.154 791.538 852.38C782.586 851.074 776.269 845.397 771.857 841.93C770.275 840.678 768.776 839.326 767.367 837.884C755.684 826 740.086 826 740.086 826C740.091 825.995 724.388 826.037 712.763 837.926C711.326 839.392 709.796 840.764 708.183 842.033C703.773 845.516 697.445 851.12 688.571 852.388C683.692 853.243 683.823 860.251 688.902 860.822ZM710.113 854.137C713.384 852.345 716.472 850.237 719.332 847.842C725.153 842.975 732.499 840.308 740.086 840.308C747.674 840.308 755.02 842.975 760.84 847.842C763.7 850.237 766.788 852.345 770.06 854.137C770.501 854.373 770.87 854.725 771.128 855.154C771.385 855.582 771.522 856.073 771.523 856.574C771.525 857.074 771.39 857.565 771.135 857.996C770.879 858.426 770.512 858.779 770.072 859.017C766.799 860.809 763.71 862.917 760.849 865.311C755.027 870.183 747.678 872.852 740.086 872.852C732.495 872.852 725.145 870.183 719.323 865.311C716.462 862.917 713.373 860.809 710.1 859.017C709.66 858.779 709.293 858.426 709.038 857.996C708.782 857.565 708.648 857.074 708.649 856.574C708.65 856.073 708.787 855.582 709.045 855.153C709.302 854.725 709.671 854.373 710.113 854.137Z" fill="#F3F2EE"/>
<path d="M740.086 866.344C742.667 866.331 745.138 865.297 746.959 863.467C748.779 861.637 749.801 859.161 749.801 856.58C749.801 853.999 748.779 851.523 746.959 849.693C745.138 847.864 742.667 846.829 740.086 846.816C727.165 847.261 727.161 865.897 740.086 866.344Z" fill="#F3F2EE"/>
<path d="M440.311 1130C440.111 1130 439.931 1129.93 439.771 1129.79C439.631 1129.63 439.561 1129.45 439.561 1129.25V1109.75C439.561 1109.53 439.631 1109.35 439.771 1109.21C439.931 1109.07 440.111 1109 440.311 1109H448.711C451.271 1109 453.281 1109.59 454.741 1110.77C456.221 1111.95 456.961 1113.67 456.961 1115.93C456.961 1118.17 456.231 1119.86 454.771 1121C453.311 1122.12 451.291 1122.68 448.711 1122.68H445.141V1129.25C445.141 1129.47 445.061 1129.65 444.901 1129.79C444.761 1129.93 444.581 1130 444.361 1130H440.311ZM448.561 1118.54C449.441 1118.54 450.131 1118.32 450.631 1117.88C451.131 1117.42 451.381 1116.75 451.381 1115.87C451.381 1115.05 451.141 1114.4 450.661 1113.92C450.201 1113.42 449.501 1113.17 448.561 1113.17H445.051V1118.54H448.561ZM460.254 1130C460.034 1130 459.854 1129.93 459.714 1129.79C459.574 1129.65 459.504 1129.47 459.504 1129.25V1115.15C459.504 1114.93 459.574 1114.75 459.714 1114.61C459.854 1114.47 460.034 1114.4 460.254 1114.4H463.704C463.924 1114.4 464.104 1114.48 464.244 1114.64C464.404 1114.78 464.484 1114.95 464.484 1115.15V1116.35C465.584 1115.05 467.064 1114.4 468.924 1114.4H470.244C470.464 1114.4 470.644 1114.47 470.784 1114.61C470.924 1114.75 470.994 1114.93 470.994 1115.15V1118.24C470.994 1118.44 470.924 1118.62 470.784 1118.78C470.644 1118.92 470.464 1118.99 470.244 1118.99H467.334C466.514 1118.99 465.874 1119.22 465.414 1119.68C464.974 1120.12 464.754 1120.75 464.754 1121.57V1129.25C464.754 1129.47 464.674 1129.65 464.514 1129.79C464.374 1129.93 464.194 1130 463.974 1130H460.254ZM480.181 1130.3C477.781 1130.3 475.891 1129.65 474.511 1128.35C473.131 1127.05 472.411 1125.16 472.351 1122.68V1121.63C472.431 1119.27 473.161 1117.43 474.541 1116.11C475.941 1114.77 477.811 1114.1 480.151 1114.1C481.851 1114.1 483.281 1114.45 484.441 1115.15C485.621 1115.83 486.501 1116.77 487.081 1117.97C487.681 1119.17 487.981 1120.55 487.981 1122.11V1122.83C487.981 1123.03 487.911 1123.21 487.771 1123.37C487.631 1123.51 487.451 1123.58 487.231 1123.58H477.631V1123.79C477.671 1124.73 477.901 1125.49 478.321 1126.07C478.741 1126.65 479.351 1126.94 480.151 1126.94C480.651 1126.94 481.061 1126.84 481.381 1126.64C481.701 1126.42 481.991 1126.16 482.251 1125.86C482.431 1125.64 482.571 1125.51 482.671 1125.47C482.791 1125.41 482.971 1125.38 483.211 1125.38H486.931C487.111 1125.38 487.261 1125.44 487.381 1125.56C487.521 1125.66 487.591 1125.8 487.591 1125.98C487.591 1126.5 487.291 1127.1 486.691 1127.78C486.111 1128.46 485.261 1129.05 484.141 1129.55C483.021 1130.05 481.701 1130.3 480.181 1130.3ZM482.701 1120.61V1120.55C482.701 1119.57 482.471 1118.8 482.011 1118.24C481.571 1117.66 480.951 1117.37 480.151 1117.37C479.371 1117.37 478.751 1117.66 478.291 1118.24C477.851 1118.8 477.631 1119.57 477.631 1120.55V1120.61H482.701ZM497.213 1130.3C495.593 1130.3 494.233 1130.07 493.133 1129.61C492.053 1129.15 491.253 1128.6 490.733 1127.96C490.213 1127.32 489.953 1126.75 489.953 1126.25C489.953 1126.05 490.023 1125.89 490.163 1125.77C490.323 1125.63 490.493 1125.56 490.673 1125.56H494.093C494.213 1125.56 494.323 1125.61 494.423 1125.71C494.663 1125.87 494.843 1126 494.963 1126.1C495.403 1126.42 495.783 1126.66 496.103 1126.82C496.443 1126.96 496.853 1127.03 497.333 1127.03C497.913 1127.03 498.383 1126.92 498.743 1126.7C499.123 1126.46 499.313 1126.13 499.313 1125.71C499.313 1125.37 499.213 1125.1 499.013 1124.9C498.833 1124.7 498.473 1124.51 497.933 1124.33C497.393 1124.13 496.573 1123.92 495.473 1123.7C493.813 1123.36 492.533 1122.81 491.633 1122.05C490.753 1121.27 490.313 1120.23 490.313 1118.93C490.313 1118.11 490.573 1117.33 491.093 1116.59C491.613 1115.85 492.383 1115.25 493.403 1114.79C494.443 1114.33 495.673 1114.1 497.093 1114.1C498.513 1114.1 499.753 1114.32 500.813 1114.76C501.873 1115.2 502.673 1115.74 503.213 1116.38C503.773 1117 504.053 1117.57 504.053 1118.09C504.053 1118.27 503.983 1118.43 503.843 1118.57C503.723 1118.71 503.573 1118.78 503.393 1118.78H500.273C500.113 1118.78 499.963 1118.73 499.823 1118.63C499.563 1118.49 499.333 1118.34 499.133 1118.18C498.793 1117.92 498.473 1117.72 498.173 1117.58C497.873 1117.44 497.503 1117.37 497.063 1117.37C496.543 1117.37 496.123 1117.49 495.803 1117.73C495.503 1117.97 495.353 1118.28 495.353 1118.66C495.353 1118.96 495.433 1119.21 495.593 1119.41C495.773 1119.61 496.133 1119.81 496.673 1120.01C497.233 1120.19 498.053 1120.38 499.133 1120.58C501.073 1120.92 502.483 1121.52 503.363 1122.38C504.263 1123.24 504.713 1124.25 504.713 1125.41C504.713 1126.89 504.053 1128.08 502.733 1128.98C501.413 1129.86 499.573 1130.3 497.213 1130.3ZM513.795 1130.3C512.175 1130.3 510.815 1130.07 509.715 1129.61C508.635 1129.15 507.835 1128.6 507.315 1127.96C506.795 1127.32 506.535 1126.75 506.535 1126.25C506.535 1126.05 506.605 1125.89 506.745 1125.77C506.905 1125.63 507.075 1125.56 507.255 1125.56H510.675C510.795 1125.56 510.905 1125.61 511.005 1125.71C511.245 1125.87 511.425 1126 511.545 1126.1C511.985 1126.42 512.365 1126.66 512.685 1126.82C513.025 1126.96 513.435 1127.03 513.915 1127.03C514.495 1127.03 514.965 1126.92 515.325 1126.7C515.705 1126.46 515.895 1126.13 515.895 1125.71C515.895 1125.37 515.795 1125.1 515.595 1124.9C515.415 1124.7 515.055 1124.51 514.515 1124.33C513.975 1124.13 513.155 1123.92 512.055 1123.7C510.395 1123.36 509.115 1122.81 508.215 1122.05C507.335 1121.27 506.895 1120.23 506.895 1118.93C506.895 1118.11 507.155 1117.33 507.675 1116.59C508.195 1115.85 508.965 1115.25 509.985 1114.79C511.025 1114.33 512.255 1114.1 513.675 1114.1C515.095 1114.1 516.335 1114.32 517.395 1114.76C518.455 1115.2 519.255 1115.74 519.795 1116.38C520.355 1117 520.635 1117.57 520.635 1118.09C520.635 1118.27 520.565 1118.43 520.425 1118.57C520.305 1118.71 520.155 1118.78 519.975 1118.78H516.855C516.695 1118.78 516.545 1118.73 516.405 1118.63C516.145 1118.49 515.915 1118.34 515.715 1118.18C515.375 1117.92 515.055 1117.72 514.755 1117.58C514.455 1117.44 514.085 1117.37 513.645 1117.37C513.125 1117.37 512.705 1117.49 512.385 1117.73C512.085 1117.97 511.935 1118.28 511.935 1118.66C511.935 1118.96 512.015 1119.21 512.175 1119.41C512.355 1119.61 512.715 1119.81 513.255 1120.01C513.815 1120.19 514.635 1120.38 515.715 1120.58C517.655 1120.92 519.065 1121.52 519.945 1122.38C520.845 1123.24 521.295 1124.25 521.295 1125.41C521.295 1126.89 520.635 1128.08 519.315 1128.98C517.995 1129.86 516.155 1130.3 513.795 1130.3ZM537.738 1130C533.598 1130 531.528 1128.03 531.528 1124.09V1118.33H529.188C528.968 1118.33 528.778 1118.26 528.618 1118.12C528.478 1117.98 528.408 1117.8 528.408 1117.58V1115.15C528.408 1114.93 528.478 1114.75 528.618 1114.61C528.778 1114.47 528.968 1114.4 529.188 1114.4H531.528V1109.45C531.528 1109.23 531.598 1109.05 531.738 1108.91C531.898 1108.77 532.078 1108.7 532.278 1108.7H535.758C535.978 1108.7 536.158 1108.77 536.298 1108.91C536.438 1109.05 536.508 1109.23 536.508 1109.45V1114.4H540.258C540.478 1114.4 540.658 1114.47 540.798 1114.61C540.958 1114.75 541.038 1114.93 541.038 1115.15V1117.58C541.038 1117.8 540.958 1117.98 540.798 1118.12C540.658 1118.26 540.478 1118.33 540.258 1118.33H536.508V1123.67C536.508 1125.15 537.078 1125.89 538.218 1125.89H540.528C540.748 1125.89 540.928 1125.96 541.068 1126.1C541.208 1126.24 541.278 1126.42 541.278 1126.64V1129.25C541.278 1129.45 541.208 1129.63 541.068 1129.79C540.928 1129.93 540.748 1130 540.528 1130H537.738ZM551.142 1130.3C548.662 1130.3 546.752 1129.71 545.412 1128.53C544.072 1127.35 543.342 1125.69 543.222 1123.55C543.202 1123.29 543.192 1122.84 543.192 1122.2C543.192 1121.56 543.202 1121.11 543.222 1120.85C543.342 1118.73 544.092 1117.08 545.472 1115.9C546.852 1114.7 548.742 1114.1 551.142 1114.1C553.562 1114.1 555.462 1114.7 556.842 1115.9C558.222 1117.08 558.972 1118.73 559.092 1120.85C559.112 1121.11 559.122 1121.56 559.122 1122.2C559.122 1122.84 559.112 1123.29 559.092 1123.55C558.972 1125.69 558.242 1127.35 556.902 1128.53C555.562 1129.71 553.642 1130.3 551.142 1130.3ZM551.142 1126.64C552.022 1126.64 552.672 1126.38 553.092 1125.86C553.512 1125.32 553.752 1124.5 553.812 1123.4C553.832 1123.2 553.842 1122.8 553.842 1122.2C553.842 1121.6 553.832 1121.2 553.812 1121C553.752 1119.92 553.502 1119.11 553.062 1118.57C552.642 1118.03 552.002 1117.76 551.142 1117.76C549.482 1117.76 548.602 1118.84 548.502 1121L548.472 1122.2L548.502 1123.4C548.542 1124.5 548.772 1125.32 549.192 1125.86C549.632 1126.38 550.282 1126.64 551.142 1126.64ZM574.909 1130.3C573.289 1130.3 571.929 1130.07 570.829 1129.61C569.749 1129.15 568.949 1128.6 568.429 1127.96C567.909 1127.32 567.649 1126.75 567.649 1126.25C567.649 1126.05 567.719 1125.89 567.859 1125.77C568.019 1125.63 568.189 1125.56 568.369 1125.56H571.789C571.909 1125.56 572.019 1125.61 572.119 1125.71C572.359 1125.87 572.539 1126 572.659 1126.1C573.099 1126.42 573.479 1126.66 573.799 1126.82C574.139 1126.96 574.549 1127.03 575.029 1127.03C575.609 1127.03 576.079 1126.92 576.439 1126.7C576.819 1126.46 577.009 1126.13 577.009 1125.71C577.009 1125.37 576.909 1125.1 576.709 1124.9C576.529 1124.7 576.169 1124.51 575.629 1124.33C575.089 1124.13 574.269 1123.92 573.169 1123.7C571.509 1123.36 570.229 1122.81 569.329 1122.05C568.449 1121.27 568.009 1120.23 568.009 1118.93C568.009 1118.11 568.269 1117.33 568.789 1116.59C569.309 1115.85 570.079 1115.25 571.099 1114.79C572.139 1114.33 573.369 1114.1 574.789 1114.1C576.209 1114.1 577.449 1114.32 578.509 1114.76C579.569 1115.2 580.369 1115.74 580.909 1116.38C581.469 1117 581.749 1117.57 581.749 1118.09C581.749 1118.27 581.679 1118.43 581.539 1118.57C581.419 1118.71 581.269 1118.78 581.089 1118.78H577.969C577.809 1118.78 577.659 1118.73 577.519 1118.63C577.259 1118.49 577.029 1118.34 576.829 1118.18C576.489 1117.92 576.169 1117.72 575.869 1117.58C575.569 1117.44 575.199 1117.37 574.759 1117.37C574.239 1117.37 573.819 1117.49 573.499 1117.73C573.199 1117.97 573.049 1118.28 573.049 1118.66C573.049 1118.96 573.129 1119.21 573.289 1119.41C573.469 1119.61 573.829 1119.81 574.369 1120.01C574.929 1120.19 575.749 1120.38 576.829 1120.58C578.769 1120.92 580.179 1121.52 581.059 1122.38C581.959 1123.24 582.409 1124.25 582.409 1125.41C582.409 1126.89 581.749 1128.08 580.429 1128.98C579.109 1129.86 577.269 1130.3 574.909 1130.3ZM592.963 1130C588.823 1130 586.753 1128.03 586.753 1124.09V1118.33H584.413C584.193 1118.33 584.003 1118.26 583.843 1118.12C583.703 1117.98 583.633 1117.8 583.633 1117.58V1115.15C583.633 1114.93 583.703 1114.75 583.843 1114.61C584.003 1114.47 584.193 1114.4 584.413 1114.4H586.753V1109.45C586.753 1109.23 586.823 1109.05 586.963 1108.91C587.123 1108.77 587.303 1108.7 587.503 1108.7H590.983C591.203 1108.7 591.383 1108.77 591.523 1108.91C591.663 1109.05 591.733 1109.23 591.733 1109.45V1114.4H595.483C595.703 1114.4 595.883 1114.47 596.023 1114.61C596.183 1114.75 596.263 1114.93 596.263 1115.15V1117.58C596.263 1117.8 596.183 1117.98 596.023 1118.12C595.883 1118.26 595.703 1118.33 595.483 1118.33H591.733V1123.67C591.733 1125.15 592.303 1125.89 593.443 1125.89H595.753C595.973 1125.89 596.153 1125.96 596.293 1126.1C596.433 1126.24 596.503 1126.42 596.503 1126.64V1129.25C596.503 1129.45 596.433 1129.63 596.293 1129.79C596.153 1129.93 595.973 1130 595.753 1130H592.963ZM603.667 1130.3C602.607 1130.3 601.637 1130.1 600.757 1129.7C599.897 1129.28 599.217 1128.72 598.717 1128.02C598.237 1127.3 597.997 1126.51 597.997 1125.65C597.997 1124.27 598.557 1123.16 599.677 1122.32C600.817 1121.48 602.377 1120.9 604.357 1120.58L608.107 1120.01V1119.59C608.107 1118.83 607.947 1118.27 607.627 1117.91C607.307 1117.55 606.767 1117.37 606.007 1117.37C605.547 1117.37 605.167 1117.45 604.867 1117.61C604.567 1117.77 604.257 1117.99 603.937 1118.27C603.657 1118.51 603.447 1118.67 603.307 1118.75C603.247 1118.91 603.137 1118.99 602.977 1118.99H599.707C599.507 1118.99 599.337 1118.93 599.197 1118.81C599.077 1118.67 599.027 1118.51 599.047 1118.33C599.067 1117.79 599.327 1117.19 599.827 1116.53C600.347 1115.87 601.127 1115.3 602.167 1114.82C603.227 1114.34 604.527 1114.1 606.067 1114.1C608.527 1114.1 610.347 1114.65 611.527 1115.75C612.707 1116.83 613.297 1118.29 613.297 1120.13V1129.25C613.297 1129.45 613.227 1129.63 613.087 1129.79C612.947 1129.93 612.767 1130 612.547 1130H609.067C608.867 1130 608.687 1129.93 608.527 1129.79C608.387 1129.63 608.317 1129.45 608.317 1129.25V1128.2C607.877 1128.82 607.257 1129.33 606.457 1129.73C605.677 1130.11 604.747 1130.3 603.667 1130.3ZM605.077 1126.88C605.997 1126.88 606.737 1126.58 607.297 1125.98C607.877 1125.38 608.167 1124.5 608.167 1123.34V1122.92L605.617 1123.37C603.817 1123.69 602.917 1124.32 602.917 1125.26C602.917 1125.76 603.127 1126.16 603.547 1126.46C603.967 1126.74 604.477 1126.88 605.077 1126.88ZM617.432 1130C617.212 1130 617.032 1129.93 616.892 1129.79C616.752 1129.65 616.682 1129.47 616.682 1129.25V1115.15C616.682 1114.93 616.752 1114.75 616.892 1114.61C617.032 1114.47 617.212 1114.4 617.432 1114.4H620.882C621.102 1114.4 621.282 1114.48 621.422 1114.64C621.582 1114.78 621.662 1114.95 621.662 1115.15V1116.35C622.762 1115.05 624.242 1114.4 626.102 1114.4H627.422C627.642 1114.4 627.822 1114.47 627.962 1114.61C628.102 1114.75 628.172 1114.93 628.172 1115.15V1118.24C628.172 1118.44 628.102 1118.62 627.962 1118.78C627.822 1118.92 627.642 1118.99 627.422 1118.99H624.512C623.692 1118.99 623.052 1119.22 622.592 1119.68C622.152 1120.12 621.932 1120.75 621.932 1121.57V1129.25C621.932 1129.47 621.852 1129.65 621.692 1129.79C621.552 1129.93 621.372 1130 621.152 1130H617.432ZM638.285 1130C634.145 1130 632.075 1128.03 632.075 1124.09V1118.33H629.735C629.515 1118.33 629.325 1118.26 629.165 1118.12C629.025 1117.98 628.955 1117.8 628.955 1117.58V1115.15C628.955 1114.93 629.025 1114.75 629.165 1114.61C629.325 1114.47 629.515 1114.4 629.735 1114.4H632.075V1109.45C632.075 1109.23 632.145 1109.05 632.285 1108.91C632.445 1108.77 632.625 1108.7 632.825 1108.7H636.305C636.525 1108.7 636.705 1108.77 636.845 1108.91C636.985 1109.05 637.055 1109.23 637.055 1109.45V1114.4H640.805C641.025 1114.4 641.205 1114.47 641.345 1114.61C641.505 1114.75 641.585 1114.93 641.585 1115.15V1117.58C641.585 1117.8 641.505 1117.98 641.345 1118.12C641.205 1118.26 641.025 1118.33 640.805 1118.33H637.055V1123.67C637.055 1125.15 637.625 1125.89 638.765 1125.89H641.075C641.295 1125.89 641.475 1125.96 641.615 1126.1C641.755 1126.24 641.825 1126.42 641.825 1126.64V1129.25C641.825 1129.45 641.755 1129.63 641.615 1129.79C641.475 1129.93 641.295 1130 641.075 1130H638.285Z" fill="white"/>
<path d="M521.497 1878C521.364 1878 521.244 1877.95 521.137 1877.86C521.044 1877.75 520.997 1877.63 520.997 1877.5V1867.98L518.257 1870.08C518.164 1870.16 518.064 1870.2 517.957 1870.2C517.81 1870.2 517.677 1870.12 517.557 1869.96L516.377 1868.42C516.31 1868.31 516.277 1868.21 516.277 1868.12C516.277 1867.93 516.357 1867.79 516.517 1867.7L521.117 1864.14C521.264 1864.05 521.424 1864 521.597 1864H524.097C524.244 1864 524.364 1864.05 524.457 1864.14C524.55 1864.23 524.597 1864.35 524.597 1864.5V1877.5C524.597 1877.63 524.55 1877.75 524.457 1877.86C524.364 1877.95 524.244 1878 524.097 1878H521.497ZM527.478 1878C527.345 1878 527.225 1877.95 527.118 1877.86C527.025 1877.75 526.978 1877.63 526.978 1877.5V1874.96C526.978 1874.81 527.025 1874.69 527.118 1874.6C527.225 1874.51 527.345 1874.46 527.478 1874.46H530.018C530.165 1874.46 530.285 1874.51 530.378 1874.6C530.472 1874.69 530.518 1874.81 530.518 1874.96V1877.5C530.518 1877.63 530.472 1877.75 530.378 1877.86C530.285 1877.95 530.165 1878 530.018 1878H527.478ZM538.225 1878.2C536.385 1878.19 534.992 1877.7 534.045 1876.74C533.099 1875.77 532.585 1874.49 532.505 1872.92C532.479 1872.2 532.465 1871.56 532.465 1871C532.465 1870.43 532.479 1869.77 532.505 1869.02C532.559 1868.02 532.799 1867.13 533.225 1866.36C533.665 1865.57 534.305 1864.95 535.145 1864.5C535.985 1864.03 537.012 1863.8 538.225 1863.8C540.025 1863.81 541.412 1864.3 542.385 1865.26C543.359 1866.22 543.885 1867.47 543.965 1869.02C543.992 1869.77 544.005 1870.43 544.005 1871C544.005 1871.56 543.992 1872.2 543.965 1872.92C543.872 1874.49 543.352 1875.77 542.405 1876.74C541.459 1877.7 540.065 1878.19 538.225 1878.2ZM538.225 1875.3C538.879 1875.3 539.365 1875.09 539.685 1874.66C540.019 1874.22 540.199 1873.61 540.225 1872.82C540.252 1872.43 540.265 1871.81 540.265 1870.96C540.265 1870.11 540.252 1869.5 540.225 1869.14C540.199 1868.38 540.025 1867.78 539.705 1867.34C539.385 1866.9 538.892 1866.67 538.225 1866.66C537.572 1866.67 537.079 1866.9 536.745 1867.34C536.425 1867.78 536.252 1868.38 536.225 1869.14C536.212 1869.5 536.205 1870.11 536.205 1870.96C536.205 1871.81 536.212 1872.43 536.225 1872.82C536.292 1874.47 536.959 1875.3 538.225 1875.3ZM546.482 1878C546.349 1878 546.229 1877.95 546.122 1877.86C546.029 1877.75 545.982 1877.63 545.982 1877.5V1874.96C545.982 1874.81 546.029 1874.69 546.122 1874.6C546.229 1874.51 546.349 1874.46 546.482 1874.46H549.022C549.169 1874.46 549.289 1874.51 549.382 1874.6C549.476 1874.69 549.522 1874.81 549.522 1874.96V1877.5C549.522 1877.63 549.476 1877.75 549.382 1877.86C549.289 1877.95 549.169 1878 549.022 1878H546.482ZM557.229 1878.2C555.389 1878.19 553.996 1877.7 553.049 1876.74C552.103 1875.77 551.589 1874.49 551.509 1872.92C551.483 1872.2 551.469 1871.56 551.469 1871C551.469 1870.43 551.483 1869.77 551.509 1869.02C551.563 1868.02 551.803 1867.13 552.229 1866.36C552.669 1865.57 553.309 1864.95 554.149 1864.5C554.989 1864.03 556.016 1863.8 557.229 1863.8C559.029 1863.81 560.416 1864.3 561.389 1865.26C562.363 1866.22 562.889 1867.47 562.969 1869.02C562.996 1869.77 563.009 1870.43 563.009 1871C563.009 1871.56 562.996 1872.2 562.969 1872.92C562.876 1874.49 562.356 1875.77 561.409 1876.74C560.463 1877.7 559.069 1878.19 557.229 1878.2ZM557.229 1875.3C557.883 1875.3 558.369 1875.09 558.689 1874.66C559.023 1874.22 559.203 1873.61 559.229 1872.82C559.256 1872.43 559.269 1871.81 559.269 1870.96C559.269 1870.11 559.256 1869.5 559.229 1869.14C559.203 1868.38 559.029 1867.78 558.709 1867.34C558.389 1866.9 557.896 1866.67 557.229 1866.66C556.576 1866.67 556.083 1866.9 555.749 1867.34C555.429 1867.78 555.256 1868.38 555.229 1869.14C555.216 1869.5 555.209 1870.11 555.209 1870.96C555.209 1871.81 555.216 1872.43 555.229 1872.82C555.296 1874.47 555.963 1875.3 557.229 1875.3Z" fill="white"/>
</svg>
