<svg width="277" height="106" viewBox="0 0 277 106" fill="none" xmlns="http://www.w3.org/2000/svg">
<path d="M10.2678 24.0312V20.7776H14.6031C16.8849 20.7776 18.7103 20.4731 20.0793 19.8643C21.4483 19.2554 22.4371 18.4753 23.0456 17.5239C23.654 16.5345 23.9583 15.5071 23.9583 14.4415C23.9583 13.0335 23.4829 11.7016 22.5322 10.4459C21.5814 9.19007 20.3645 8.40996 18.8814 8.10553L11.2376 9.01883L0.855652 4.68066C2.11061 4.60455 3.42261 4.54747 4.79165 4.50942C6.19872 4.47136 7.62481 4.43331 9.06991 4.39525C10.515 4.31914 11.9221 4.28109 13.2911 4.28109C14.6982 4.24304 16.0102 4.22401 17.2271 4.22401C20.5356 4.22401 23.2167 4.69969 25.2703 5.65104C27.3618 6.56434 28.883 7.74402 29.8337 9.19007C30.8225 10.6361 31.3169 12.1773 31.3169 13.8136C31.3169 15.1075 30.9936 16.3823 30.3471 17.6381C29.7387 18.8939 28.7689 19.9594 27.4379 20.8346C26.1449 21.6718 24.4716 22.1475 22.4181 22.2617L14.9454 23.5745L10.2678 24.0312ZM0.342261 42.0118L0 40.1852C0.874666 39.6905 1.78736 39.2528 2.73809 38.8723C3.68881 38.4918 4.65855 38.1493 5.6473 37.8448L5.70435 42.0118H0.342261ZM4.84869 42.0118V4.73774H11.808V42.0118H4.84869ZM10.496 42.0118L10.6671 37.5023L16.999 38.0732C18.9384 38.2254 20.5356 38.0161 21.7906 37.4453C23.0836 36.8745 24.0343 36.0753 24.6428 35.0478C25.2512 33.9823 25.5555 32.8597 25.5555 31.6801C25.5555 30.5004 25.2322 29.3397 24.5857 28.1981C23.9392 27.0184 22.9695 26.0671 21.6765 25.344C20.4216 24.583 18.8624 24.2024 16.999 24.2024H10.6671L11.6369 22.9466L19.1666 22.0333C22.247 21.767 24.8139 22.0714 26.8675 22.9466C28.9591 23.8219 30.5373 25.0396 31.6021 26.5998C32.6669 28.1601 33.1993 29.8535 33.1993 31.6801C33.1993 33.4686 32.6669 35.162 31.6021 36.7603C30.5373 38.3205 28.864 39.5953 26.5823 40.5847C24.3005 41.5361 21.3723 42.0118 17.7976 42.0118H10.496ZM6.78817 8.10553L0.798609 7.53472L0.855652 4.68066H6.73113L6.78817 8.10553Z" fill="#232729"/>
<path d="M38.9197 42.0118V2.45449L43.0839 0L45.5938 2.28325V42.0118H38.9197ZM34.8126 42.0118L34.5844 40.071C35.421 39.6524 36.4288 39.2338 37.6077 38.8152C38.8246 38.3966 39.8514 38.0922 40.688 37.9019L39.9465 42.0118H34.8126ZM42.9127 42.0118L43.4261 37.5023C44.4909 37.6546 45.6128 37.8829 46.7917 38.1873C47.9706 38.4537 48.9403 38.8152 49.7009 39.2719L49.4727 42.0118H42.9127ZM34.6414 4.62358L34.128 1.88368C35.421 1.35092 36.8661 0.932329 38.4633 0.627895C40.0606 0.285408 41.6007 0.0761095 43.0839 0L43.5402 2.34033L40.4028 4.79482L34.6414 4.62358Z" fill="#232729"/>
<path d="M55.8545 42.0118V16.4965L60.0186 14.0991L62.5285 16.3823V42.0118H55.8545ZM51.7473 42.0118L51.5192 40.071C52.3558 39.6524 53.3636 39.2338 54.5425 38.8152C55.7594 38.3966 56.7862 38.0922 57.6228 37.9019L56.8812 42.0118H51.7473ZM59.8475 42.0118L60.3609 37.5023C61.4257 37.6546 62.5476 37.8829 63.7265 38.1873C64.9054 38.4537 65.8751 38.8152 66.6357 39.2719L66.4075 42.0118H59.8475ZM51.5762 18.7226L51.0628 15.9827C52.3558 15.4119 53.8009 14.9743 55.3981 14.6699C56.9953 14.3274 58.5355 14.1371 60.0186 14.0991L60.475 16.3823L57.3376 18.8368L51.5762 18.7226ZM59.5623 9.7038C58.6496 9.32326 57.6989 8.75245 56.7101 7.99137C55.7214 7.23028 54.9418 6.4692 54.3713 5.70812C54.8657 4.64261 55.4932 3.6532 56.2538 2.7399C57.0143 1.78854 57.7749 1.04649 58.5355 0.51373C59.5243 0.932327 60.475 1.56022 61.3877 2.39741C62.3004 3.19655 63.0229 3.97666 63.5553 4.73774C63.175 5.65104 62.6046 6.58337 61.844 7.53472C61.1215 8.44802 60.3609 9.17104 59.5623 9.7038Z" fill="#232729"/>
<path d="M73.1792 42.0118V16.4965L77.3434 14.0991L79.8533 16.4965V42.0118H73.1792ZM90.6915 42.0118V25.344C90.6915 23.213 90.3303 21.6909 89.6077 20.7776C88.9232 19.8643 88.0295 19.4266 86.9267 19.4647C86.1661 19.4647 85.2724 19.693 84.2456 20.1497C83.2188 20.5683 82.173 21.101 81.1082 21.7479C80.0434 22.3949 79.0547 23.0608 78.142 23.7458L77.3434 21.6909C79.0547 20.3209 80.7469 19.1032 82.4202 18.0377C84.0935 16.9341 85.6337 16.0588 87.0407 15.4119C88.4478 14.7269 89.6077 14.3084 90.5204 14.1561C91.243 14.2322 91.9845 14.4606 92.7451 14.8411C93.5437 15.1836 94.2853 15.6402 94.9698 16.2111C95.6543 16.7438 96.1867 17.3717 96.567 18.0947C96.7571 18.4372 96.9093 18.8748 97.0234 19.4076C97.1374 19.9404 97.2135 20.6444 97.2515 21.5196C97.3276 22.3949 97.3656 23.5365 97.3656 24.9445V42.0118H90.6915ZM68.9009 18.7226L68.3875 15.9827C69.6805 15.4119 71.1256 14.9743 72.7228 14.6699C74.3201 14.3274 75.8602 14.1371 77.3434 14.0991L77.7997 16.3823L74.6623 18.8368L68.9009 18.7226ZM69.3002 42.0118L69.0721 40.071C69.9087 39.6524 70.9165 39.2338 72.0954 38.8152C73.3123 38.3966 74.3391 38.0922 75.1757 37.9019L74.4341 42.0118H69.3002ZM76.887 42.0118L77.4004 37.5023C78.4272 37.6546 79.492 37.8829 80.5948 38.1873C81.6977 38.4537 82.6484 38.8152 83.447 39.2719L83.1618 42.0118H76.887ZM87.6112 42.0118L87.383 40.071C88.2196 39.6524 89.2274 39.2338 90.4063 38.8152C91.6232 38.3966 92.65 38.0922 93.4867 37.9019L92.7451 42.0118H87.6112ZM94.3993 42.0118L94.9127 37.5023C95.9776 37.6546 97.1184 37.8829 98.3354 38.1873C99.5903 38.4537 100.598 38.8152 101.359 39.2719L101.073 42.0118H94.3993Z" fill="#232729"/>
<path d="M115.49 42.868C112.904 42.906 110.641 42.2781 108.702 40.9843C106.762 39.6905 105.241 37.959 104.138 35.7899C103.073 33.6208 102.541 31.2615 102.541 28.7118C102.541 26.5808 102.902 24.621 103.625 22.8325C104.385 21.0059 105.431 19.4266 106.762 18.0947C108.093 16.7628 109.652 15.7354 111.44 15.0124C113.227 14.2893 115.148 13.9278 117.201 13.9278C119.255 13.9278 121.08 14.2893 122.677 15.0124C124.275 15.7354 125.51 16.6106 126.385 17.6381L124.217 22.7754C123.571 21.786 122.677 20.9107 121.536 20.1497C120.434 19.3886 119.16 18.8368 117.715 18.4943C116.307 18.1138 114.843 18.0567 113.322 18.3231C112.105 19.4266 111.174 20.8537 110.527 22.6042C109.881 24.3166 109.557 26.0861 109.557 27.9127C109.557 29.7012 109.824 31.2995 110.356 32.7075C110.926 34.1155 111.744 35.2571 112.809 36.1324C113.874 36.9696 115.129 37.3882 116.574 37.3882C117.677 37.3882 118.931 37.1028 120.339 36.532C121.784 35.9231 123.305 34.9717 124.902 33.6779L124.674 36.4749L115.49 42.868ZM126.556 42.868C126.024 42.868 125.415 42.6397 124.731 42.183C124.084 41.7264 123.476 41.1365 122.905 40.4135C122.373 39.6905 121.974 38.9103 121.708 38.0732L121.422 37.4453V2.45449L125.529 0L128.096 2.34033V36.4178C128.096 36.8364 128.23 37.1408 128.496 37.3311C128.762 37.5214 129.104 37.6165 129.523 37.6165C129.979 37.6165 130.435 37.5785 130.892 37.5023C131.348 37.4262 131.804 37.3311 132.261 37.2169L132.945 39.7285L126.556 42.868ZM117.144 4.62358L116.574 1.88368C117.905 1.35092 119.369 0.932329 120.966 0.627895C122.563 0.285408 124.084 0.0761095 125.529 0L126.043 2.34033L122.905 4.79482L117.144 4.62358Z" fill="#232729"/>
<path d="M165.646 43.4959C162.68 43.4959 159.98 42.9631 157.546 41.8976C155.112 40.8321 153.173 39.348 151.728 37.4453C150.321 35.5426 149.617 33.3164 149.617 30.7668C149.617 28.9782 149.978 27.3799 150.701 25.9719C151.461 24.5259 152.488 23.3462 153.781 22.4329C155.074 21.4816 156.538 20.8346 158.174 20.4921L158.288 19.1793L165.703 21.3484L165.076 24.6591C163.136 24.621 161.52 24.9445 160.227 25.6295C158.934 26.3144 157.945 27.2277 157.261 28.3694C156.576 29.511 156.234 30.7477 156.234 32.0796C156.234 33.6779 156.671 35.0288 157.546 36.1324C158.421 37.1979 159.543 37.997 160.912 38.5298C162.319 39.0626 163.84 39.3289 165.475 39.3289C166.274 39.3289 167.186 39.2528 168.213 39.1006C169.24 38.9103 170.267 38.5869 171.294 38.1302C172.701 37.1789 173.708 35.9802 174.317 34.5341C174.925 33.0881 175.23 31.5659 175.23 29.9676C175.23 28.2552 174.906 26.5618 174.26 24.8874C173.651 23.175 172.758 21.6718 171.579 20.378L177.34 18.0377C178.709 19.8262 179.717 21.7099 180.363 23.6887C181.01 25.6295 181.333 27.5131 181.333 29.3397C181.333 31.9274 180.706 34.3058 179.451 36.4749C178.234 38.6059 176.446 40.3184 174.089 41.6122C171.769 42.868 168.955 43.4959 165.646 43.4959ZM160.912 22.6612C158.668 22.4329 156.785 21.8621 155.264 20.9488C153.781 19.9974 152.659 18.8558 151.899 17.5239C151.176 16.192 150.815 14.8221 150.815 13.4141C150.815 11.8539 151.271 10.3507 152.184 8.90467C153.097 7.42056 154.485 6.22185 156.348 5.30855C158.212 4.3572 160.512 3.88152 163.25 3.88152C164.81 3.88152 166.521 4.07179 168.384 4.45233C170.286 4.79482 172.225 5.36563 174.203 6.16477L172.092 12.0441L161.254 8.21969C159.999 8.79051 159.029 9.64672 158.345 10.7883C157.66 11.8919 157.318 13.0906 157.318 14.3845C157.318 15.6402 157.679 16.877 158.402 18.0947C159.124 19.2744 160.17 20.1687 161.539 20.7776L160.912 22.6612ZM169.468 24.8874L167.7 21.6909C170.514 20.0165 172.986 18.7036 175.115 17.7523C177.245 16.8009 179.108 16.173 180.706 15.8686C182.303 15.5261 183.729 15.5261 184.984 15.8686C186.239 16.173 187.456 16.7628 188.635 17.6381L186.923 23.5175C185.897 22.9086 184.851 22.3568 183.786 21.8621C182.759 21.3674 181.58 21.082 180.249 21.0059C178.956 20.9298 177.435 21.1771 175.686 21.7479C173.975 22.2807 171.902 23.3272 169.468 24.8874Z" fill="#232729"/>
<path d="M56.6303 93.8622C54.3446 93.8622 52.1161 93.4637 49.9448 92.6666C47.7734 91.8316 45.8116 90.617 44.0593 89.0229C42.3451 87.3909 40.9737 85.3603 39.9451 82.9312C38.9547 80.4641 38.4595 77.5985 38.4595 74.3344C38.4595 70.3111 39.2404 66.8003 40.8022 63.8019C42.3641 60.8034 44.4783 58.4882 47.1449 56.8561C49.8496 55.1861 52.878 54.3511 56.2303 54.3511C58.6302 54.3511 60.9159 54.7876 63.0872 55.6605C65.2967 56.5335 67.2394 57.843 68.9156 59.5889C70.6298 61.2969 71.9821 63.4223 72.9726 65.9653C73.963 68.4703 74.4582 71.3359 74.4582 74.5621C74.4582 77.8262 73.963 80.6728 72.9726 83.102C71.9821 85.5311 70.6298 87.5427 68.9156 89.1368C67.2394 90.6929 65.3347 91.8695 63.2015 92.6666C61.1063 93.4637 58.9159 93.8622 56.6303 93.8622ZM57.6588 89.3076C58.3064 89.3076 58.935 89.2696 59.5445 89.1937C60.1921 89.0799 60.8397 88.947 61.4873 88.7952C63.1253 87.6565 64.4395 85.8347 65.43 83.3297C66.4204 80.8247 66.9156 77.997 66.9156 74.8468C66.9156 72.7972 66.6871 70.8235 66.23 68.9258C65.7728 67.028 65.0681 65.3201 64.1157 63.8019C63.2015 62.2837 62.0206 61.0691 60.573 60.1582C59.1635 59.2473 57.4683 58.7918 55.4875 58.7918C54.7637 58.7918 53.9828 58.8677 53.1447 59.0196C52.3447 59.1714 51.5257 59.3991 50.6876 59.7027C49.7734 60.4618 48.9544 61.5246 48.2306 62.891C47.5068 64.2573 46.9354 65.8514 46.5163 67.6733C46.1354 69.4951 45.9449 71.4118 45.9449 73.4235C45.9449 75.511 46.1735 77.5226 46.6306 79.4583C47.1258 81.356 47.8496 83.045 48.802 84.5253C49.7543 86.0055 50.9543 87.1821 52.4019 88.0551C53.8875 88.8901 55.6398 89.3076 57.6588 89.3076Z" fill="#232729"/>
<path d="M79.8598 92.7235V67.2747L84.0311 64.8836L86.5453 67.2747V92.7235H79.8598ZM97.4021 92.7235V76.0993C97.4021 73.9738 97.0402 72.4556 96.3164 71.5447C95.6307 70.6338 94.7355 70.1973 93.6308 70.2352C92.8689 70.2352 91.9737 70.463 90.9452 70.9184C89.9166 71.3359 88.8691 71.8673 87.8024 72.5125C86.7358 73.1578 85.7454 73.822 84.8311 74.5052L84.0311 72.4556C85.7454 71.0892 87.4405 69.8747 89.1167 68.8119C90.7928 67.7112 92.3356 66.8383 93.7451 66.193C95.1546 65.5098 96.3164 65.0923 97.2307 64.9405C97.9545 65.0164 98.6973 65.2442 99.4592 65.6237C100.259 65.9653 101.002 66.4208 101.688 66.9901C102.373 67.5215 102.907 68.1477 103.288 68.8689C103.478 69.2105 103.63 69.6469 103.745 70.1783C103.859 70.7097 103.935 71.4118 103.973 72.2848C104.049 73.1578 104.088 74.2964 104.088 75.7007V92.7235H97.4021ZM75.5743 69.4951L75.06 66.7624C76.3552 66.193 77.8028 65.7566 79.4027 65.4529C81.0027 65.1113 82.5455 64.9215 84.0311 64.8836L84.4883 67.1609L81.3455 69.609L75.5743 69.4951ZM75.9743 92.7235L75.7457 90.7878C76.5838 90.3703 77.5933 89.9528 78.7742 89.5353C79.9932 89.1178 81.0217 88.8142 81.8598 88.6244L81.1169 92.7235H75.9743ZM83.574 92.7235L84.0883 88.2259C85.1168 88.3777 86.1834 88.6054 87.2882 88.9091C88.3929 89.1747 89.3452 89.5353 90.1452 89.9908L89.8595 92.7235H83.574ZM94.3165 92.7235L94.0879 90.7878C94.926 90.3703 95.9355 89.9528 97.1164 89.5353C98.3354 89.1178 99.3639 88.8142 100.202 88.6244L99.4592 92.7235H94.3165ZM101.116 92.7235L101.631 88.2259C102.697 88.3777 103.84 88.6054 105.059 88.9091C106.316 89.1747 107.326 89.5353 108.087 89.9908L107.802 92.7235H101.116Z" fill="#232729"/>
<path d="M124.414 93.5206C122.09 93.6344 119.995 93.3498 118.129 92.6666C116.262 91.9834 114.662 91.0156 113.329 89.7631C111.996 88.4726 110.986 86.9734 110.3 85.2654C109.615 83.5574 109.272 81.6976 109.272 79.686C109.272 77.6744 109.615 75.7767 110.3 73.9928C110.986 72.1709 111.938 70.5768 113.157 69.2105C114.376 67.8061 115.805 66.7054 117.443 65.9084C119.119 65.1113 120.929 64.7128 122.871 64.7128C124.319 64.7128 125.709 64.9595 127.043 65.4529C128.376 65.9084 129.557 66.5916 130.585 67.5025C131.614 68.4134 132.414 69.5331 132.985 70.8615C133.595 72.1899 133.88 73.7081 133.842 75.4161L127.614 77.0102C127.804 75.454 127.595 74.0307 126.985 72.7403C126.414 71.4498 125.557 70.425 124.414 69.6659C123.271 68.9068 121.938 68.5462 120.414 68.5842C119.348 69.1915 118.491 70.0455 117.843 71.1462C117.195 72.2468 116.719 73.4424 116.414 74.7329C116.11 76.0234 115.957 77.2759 115.957 78.4904C115.957 80.6539 116.357 82.4947 117.157 84.0129C117.957 85.4931 119.024 86.6318 120.357 87.4288C121.729 88.1879 123.271 88.5675 124.986 88.5675C126.166 88.5675 127.347 88.3967 128.528 88.0551C129.709 87.7135 130.966 87.239 132.3 86.6318L133.328 89.3076L124.414 93.5206ZM130.528 78.6043L114.757 78.3766L114.529 75.0745L131.842 74.1636L133.842 75.4161L130.528 78.6043Z" fill="#232729"/>
<path d="M138.973 79.0598L136.745 75.473L137.488 73.8789H152.973L155.144 77.5226L154.401 79.0598H138.973Z" fill="#232729"/>
<path d="M159.181 92.7235L158.838 90.9017C159.715 90.4083 160.629 89.9718 161.581 89.5923C162.534 89.2127 163.505 88.8711 164.495 88.5675L164.552 92.7235H159.181ZM187.466 92.7235L181.695 90.9017L184.209 81.6786L188.152 81.9633C188.19 82.9881 188.171 84.1647 188.095 85.4931C188.056 86.8215 187.98 88.131 187.866 89.4215C187.752 90.674 187.618 91.7747 187.466 92.7235ZM165.524 58.9057L159.581 58.3364L159.638 55.4897H165.467L165.524 58.9057ZM182.895 65.5668L181.638 57.5393L187.58 55.4897C187.656 56.1729 187.676 57.0839 187.637 58.2225C187.599 59.3611 187.523 60.5757 187.409 61.8662C187.295 63.1187 187.104 64.3522 186.837 65.5668H182.895ZM163.695 92.7235V55.4897H170.667V92.7235H163.695ZM183.409 76.6117L169.695 76.0423V72.3417L183.409 71.26V76.6117ZM186.666 60.4429L169.067 59.2473L164.781 55.4897H187.58L186.666 60.4429ZM164.895 92.7235L169.181 88.5675L186.666 87.5996L187.409 92.7235H164.895Z" fill="#232729"/>
<path d="M196.677 105.306L193.02 98.8722C195.115 98.0752 197.115 97.1832 199.02 96.1964C200.924 95.2096 202.715 93.995 204.391 92.5527C203.743 92.363 203.077 92.1163 202.391 91.8126C201.705 91.509 201.077 91.1864 200.505 90.8448L191.706 66.8193L198.848 65.8514L203.819 81.3371L204.619 87.2011H205.648C206.334 85.1136 207.019 82.8553 207.705 80.4261C208.429 77.9591 209.095 75.473 209.705 72.968C210.314 70.425 210.81 68.0528 211.191 65.8514H218.219C217.495 68.3185 216.714 70.8994 215.876 73.5942C215.076 76.289 214.238 78.9649 213.362 81.6217C212.486 84.2406 211.629 86.7077 210.791 89.0229C209.876 91.2243 208.791 93.2929 207.534 95.2286C206.277 97.1643 204.772 98.9671 203.019 100.637C201.267 102.307 199.153 103.863 196.677 105.306ZM197.305 70.9184L189.249 68.755L189.306 65.8514H198.848L197.305 70.9184ZM197.934 70.1783L196.791 65.8514H202.848L203.134 68.1857C202.334 68.5652 201.496 68.9258 200.62 69.2674C199.743 69.571 198.848 69.8747 197.934 70.1783ZM215.248 70.9184L207.191 68.755L207.248 65.8514H216.848L215.248 70.9184ZM215.305 70.1783L214.162 65.8514H220.219L220.505 68.1857C219.705 68.5652 218.867 68.9258 217.99 69.2674C217.114 69.571 216.219 69.8747 215.305 70.1783Z" fill="#232729"/>
<path d="M235.013 93.5206C232.689 93.6344 230.594 93.3498 228.728 92.6666C226.861 91.9834 225.261 91.0156 223.928 89.7631C222.594 88.4726 221.585 86.9734 220.899 85.2654C220.214 83.5574 219.871 81.6976 219.871 79.686C219.871 77.6744 220.214 75.7767 220.899 73.9928C221.585 72.1709 222.537 70.5768 223.756 69.2105C224.975 67.8061 226.404 66.7054 228.042 65.9084C229.718 65.1113 231.527 64.7128 233.47 64.7128C234.918 64.7128 236.308 64.9595 237.641 65.4529C238.975 65.9084 240.156 66.5916 241.184 67.5025C242.213 68.4134 243.013 69.5331 243.584 70.8615C244.194 72.1899 244.479 73.7081 244.441 75.4161L238.213 77.0102C238.403 75.454 238.194 74.0307 237.584 72.7403C237.013 71.4498 236.156 70.425 235.013 69.6659C233.87 68.9068 232.537 68.5462 231.013 68.5842C229.947 69.1915 229.089 70.0455 228.442 71.1462C227.794 72.2468 227.318 73.4424 227.013 74.7329C226.709 76.0234 226.556 77.2759 226.556 78.4904C226.556 80.6539 226.956 82.4947 227.756 84.0129C228.556 85.4931 229.623 86.6318 230.956 87.4288C232.327 88.1879 233.87 88.5675 235.584 88.5675C236.765 88.5675 237.946 88.3967 239.127 88.0551C240.308 87.7135 241.565 87.239 242.898 86.6318L243.927 89.3076L235.013 93.5206ZM241.127 78.6043L225.356 78.3766L225.128 75.0745L242.441 74.1636L244.441 75.4161L241.127 78.6043Z" fill="#232729"/>
<path d="M259.515 93.5775C256.924 93.6155 254.658 92.9892 252.715 91.6987C250.772 90.4083 249.249 88.6813 248.144 86.5179C247.077 84.3545 246.544 82.0013 246.544 79.4583C246.544 77.3328 246.906 75.3781 247.63 73.5942C248.391 71.7724 249.439 70.1973 250.772 68.8689C252.106 67.5404 253.667 66.5157 255.458 65.7945C257.248 65.0734 259.172 64.7128 261.229 64.7128C263.286 64.7128 265.115 65.0734 266.715 65.7945C268.315 66.5157 269.553 67.3886 270.429 68.4134L268.257 73.5373C267.61 72.5505 266.715 71.6775 265.572 70.9184C264.467 70.1593 263.191 69.609 261.743 69.2674C260.334 68.8878 258.867 68.8309 257.344 69.0966C256.124 70.1973 255.191 71.6206 254.544 73.3665C253.896 75.0745 253.572 76.8394 253.572 78.6612C253.572 80.4451 253.839 82.0392 254.372 83.4436C254.944 84.8479 255.763 85.9865 256.829 86.8595C257.896 87.6945 259.153 88.112 260.601 88.112C261.705 88.112 262.962 87.8273 264.372 87.258C265.819 86.6507 267.343 85.7019 268.943 84.4114L268.715 87.2011L259.515 93.5775ZM270.6 93.5775C270.067 93.5775 269.457 93.3498 268.772 92.8943C268.124 92.4389 267.515 91.8506 266.943 91.1294C266.41 90.4083 266.01 89.6302 265.743 88.7952L265.458 88.1689V53.2694L269.572 50.8213L272.143 53.1555V87.1442C272.143 87.5617 272.276 87.8653 272.543 88.0551C272.81 88.2449 273.152 88.3397 273.572 88.3397C274.029 88.3397 274.486 88.3018 274.943 88.2259C275.4 88.15 275.857 88.0551 276.314 87.9412L277 90.4462L270.6 93.5775ZM261.172 55.4328L260.601 52.7001C261.934 52.1687 263.4 51.7512 265 51.4475C266.6 51.106 268.124 50.8972 269.572 50.8213L270.086 53.1555L266.943 55.6036L261.172 55.4328Z" fill="#232729"/>
<path d="M210.567 23.727C214.617 24.3633 217.46 26.9275 219.477 28.5103C220.253 29.1259 220.986 29.793 221.672 30.5071C227.002 35.7864 234.001 35.7864 234.001 35.7864C234.001 35.7864 241.143 35.7864 246.492 30.3459C247.137 29.6853 247.823 29.0665 248.547 28.4934C250.568 26.9058 253.46 24.3067 257.559 23.7089C259.774 23.3565 259.779 20.2159 257.559 19.8615C253.46 19.2635 250.568 16.6645 248.547 15.0769C247.823 14.5038 247.137 13.8851 246.492 13.2244C241.143 7.78375 234.001 7.78364 234.001 7.78364C234.004 7.78141 226.814 7.80035 221.491 13.2438C220.834 13.9153 220.133 14.5435 219.394 15.1245C217.375 16.7192 214.478 19.2846 210.415 19.8653C208.181 20.2568 208.241 23.4654 210.567 23.727ZM220.278 20.6663C221.776 19.8456 223.19 18.8803 224.499 17.7841C227.164 15.5556 230.527 14.3347 234.001 14.3347C237.475 14.3347 240.839 15.5556 243.504 17.7841C244.813 18.8803 246.227 19.8456 247.725 20.6663C247.927 20.7744 248.096 20.9351 248.214 21.1315C248.332 21.3279 248.394 21.5526 248.395 21.7817C248.395 22.0108 248.334 22.2358 248.217 22.4328C248.1 22.6297 247.932 22.7914 247.73 22.9004C246.232 23.7207 244.818 24.6859 243.508 25.7821C240.842 28.0127 237.477 29.235 234.001 29.235C230.526 29.235 227.16 28.0127 224.495 25.7821C223.185 24.6859 221.771 23.7207 220.272 22.9004C220.071 22.7913 219.903 22.6297 219.786 22.4328C219.669 22.2358 219.607 22.0108 219.608 21.7817C219.608 21.5526 219.671 21.3279 219.789 21.1315C219.907 20.9351 220.076 20.7743 220.278 20.6663Z" fill="#232729"/>
<path d="M234.001 26.255C235.183 26.2491 236.314 25.7755 237.148 24.9378C237.982 24.1001 238.449 22.9664 238.449 21.7847C238.449 20.6029 237.982 19.4692 237.148 18.6315C236.314 17.7938 235.183 17.3202 234.001 17.3143C228.085 17.518 228.084 26.0506 234.001 26.255Z" fill="#232729"/>
</svg>
