<svg width="160" height="206" viewBox="0 0 160 206" fill="none" xmlns="http://www.w3.org/2000/svg">
<g opacity="0.1">
<path d="M147.367 174.173C153.471 167.266 152.85 156.752 145.988 150.688C139.127 144.625 128.616 145.301 122.512 152.208C116.408 159.115 117.029 169.629 123.891 175.693C130.752 181.757 141.263 181.08 147.367 174.173Z" stroke="black"/>
<mask id="path-2-inside-1_77_730" fill="white">
<path fill-rule="evenodd" clip-rule="evenodd" d="M146.004 150.67C152.875 156.743 153.497 167.272 147.385 174.189C141.272 181.106 130.746 181.783 123.875 175.711C117.003 169.638 116.382 159.109 122.494 152.192C128.607 145.276 139.132 144.598 146.004 150.67ZM146.319 150.314C153.39 156.562 154.026 167.393 147.742 174.504C141.457 181.616 130.63 182.316 123.56 176.068C116.489 169.819 115.852 158.989 122.137 151.877C128.422 144.765 139.249 144.065 146.319 150.314Z"/>
</mask>
<path d="M146.635 173.527C152.386 167.02 151.795 157.123 145.342 151.42L146.666 149.921C153.955 156.363 154.609 167.525 148.134 174.851L146.635 173.527ZM124.537 174.962C130.991 180.665 140.885 180.034 146.635 173.527L148.134 174.851C141.66 182.178 130.502 182.902 123.213 176.46L124.537 174.962ZM123.243 152.855C117.493 159.362 118.084 169.258 124.537 174.962L123.213 176.46C115.923 170.018 115.27 158.857 121.745 151.53L123.243 152.855ZM145.342 151.42C138.888 145.717 128.994 146.348 123.243 152.855L121.745 151.53C128.219 144.204 139.377 143.479 146.666 149.921L145.342 151.42ZM146.992 173.842C152.915 167.14 152.31 156.942 145.657 151.063L146.981 149.564C154.47 156.182 155.138 167.645 148.491 175.167L146.992 173.842ZM124.222 175.318C130.874 181.197 141.069 180.544 146.992 173.842L148.491 175.167C141.844 182.688 130.386 183.435 122.897 176.817L124.222 175.318ZM122.887 152.539C116.964 159.241 117.569 169.439 124.222 175.318L122.897 176.817C115.409 170.199 114.741 158.736 121.388 151.215L122.887 152.539ZM145.657 151.063C139.005 145.184 128.809 145.837 122.887 152.539L121.388 151.215C128.035 143.693 139.493 142.947 146.981 149.564L145.657 151.063Z" fill="black" mask="url(#path-2-inside-1_77_730)"/>
</g>
<path opacity="0.06" d="M130.115 181.614C136.219 174.707 135.598 164.193 128.736 158.129C121.875 152.066 111.364 152.742 105.26 159.649C99.1561 166.556 99.7773 177.07 106.639 183.134C113.5 189.198 124.011 188.521 130.115 181.614Z" stroke="black"/>
<path opacity="0.03" d="M116.609 192.366C122.713 185.459 122.092 174.945 115.231 168.881C108.369 162.817 97.8583 163.494 91.7545 170.401C85.6506 177.308 86.2718 187.822 93.1333 193.886C99.9947 199.95 110.506 199.273 116.609 192.366Z" stroke="black"/>
<path fill-rule="evenodd" clip-rule="evenodd" d="M2 59.3843C3.30692 59.7168 4.67545 59.8935 6.0849 59.8935C15.2551 59.8935 22.6937 52.4154 22.6937 43.1848C22.6937 33.9542 15.2551 26.4761 6.0849 26.4761C4.67545 26.4761 3.30692 26.6527 2 26.9852V27.5266C3.3046 27.1829 4.67361 27 6.0849 27C14.9629 27 22.1698 34.2407 22.1698 43.1848C22.1698 52.1289 14.9629 59.3696 6.0849 59.3696C4.67361 59.3696 3.3046 59.1866 2 58.843V59.3843Z" fill="black"/>
<ellipse cx="151.5" cy="156" rx="5.5" ry="43" fill="black"/>
<ellipse cx="5.5" cy="43" rx="5.5" ry="43" fill="black"/>
<path fill-rule="evenodd" clip-rule="evenodd" d="M155 141.733C154.054 141.564 153.079 141.476 152.085 141.476C142.915 141.476 135.476 148.954 135.476 158.185C135.476 167.415 142.915 174.893 152.085 174.893C153.079 174.893 154.054 174.806 155 174.637V174.104C154.055 174.279 153.08 174.37 152.085 174.37C143.207 174.37 136 167.129 136 158.185C136 149.241 143.207 142 152.085 142C153.08 142 154.055 142.091 155 142.265V141.733Z" fill="black"/>
<rect x="28" y="86" width="104" height="27" fill="black"/>
<path d="M80 29L85.0184 36.9219L94 39.3131L88.12 46.6003L88.6525 56L80 52.5819L71.3475 56L71.88 46.6003L66 39.3131L74.9816 36.9219L80 29Z" fill="black"/>
</svg>
