<svg width="47" height="152" viewBox="0 0 47 152" fill="none" xmlns="http://www.w3.org/2000/svg">
<path d="M18.8639 112.5C20.7884 109.167 25.5996 109.167 27.5241 112.5L45.7107 144C47.6352 147.333 45.2295 151.5 41.3805 151.5H5.00746C1.15846 151.5 -1.24717 147.333 0.677333 144L18.8639 112.5Z" fill="black"/>
<path fill-rule="evenodd" clip-rule="evenodd" d="M44.8446 89.5L26.6581 58C25.1185 55.3333 21.2695 55.3333 19.7299 58L1.54336 89.5C0.003757 92.1667 1.92826 95.5 5.00746 95.5H41.3805C44.4597 95.5 46.3842 92.1667 44.8446 89.5ZM27.5241 57.5C25.5996 54.1667 20.7884 54.1667 18.8639 57.5L0.677332 89C-1.24717 92.3333 1.15846 96.5 5.00746 96.5H41.3805C45.2295 96.5 47.6352 92.3333 45.7107 89L27.5241 57.5Z" fill="black"/>
<path opacity="0.2" fill-rule="evenodd" clip-rule="evenodd" d="M44.8446 74.5L26.6581 43C25.1185 40.3333 21.2695 40.3333 19.7299 43L1.54336 74.5C0.003757 77.1667 1.92826 80.5 5.00746 80.5H41.3805C44.4597 80.5 46.3842 77.1667 44.8446 74.5ZM27.5241 42.5C25.5996 39.1667 20.7884 39.1667 18.8639 42.5L0.677332 74C-1.24717 77.3333 1.15846 81.5 5.00746 81.5H41.3805C45.2295 81.5 47.6352 77.3333 45.7107 74L27.5241 42.5Z" fill="black"/>
<path opacity="0.1" fill-rule="evenodd" clip-rule="evenodd" d="M44.8446 54.5L26.6581 23C25.1185 20.3333 21.2695 20.3333 19.7299 23L1.54336 54.5C0.003757 57.1667 1.92826 60.5 5.00746 60.5L41.3805 60.5C44.4597 60.5 46.3842 57.1667 44.8446 54.5ZM27.5241 22.5C25.5996 19.1667 20.7884 19.1667 18.8639 22.5L0.677332 54C-1.24717 57.3333 1.15846 61.5 5.00746 61.5L41.3805 61.5C45.2295 61.5 47.6352 57.3333 45.7107 54L27.5241 22.5Z" fill="black"/>
<path opacity="0.05" fill-rule="evenodd" clip-rule="evenodd" d="M44.8446 34.5L26.6581 3C25.1185 0.333333 21.2695 0.333333 19.7299 3L1.54336 34.5C0.003757 37.1667 1.92826 40.5 5.00746 40.5L41.3805 40.5C44.4597 40.5 46.3842 37.1667 44.8446 34.5ZM27.5241 2.5C25.5996 -0.833333 20.7884 -0.833334 18.8639 2.5L0.677332 34C-1.24717 37.3333 1.15846 41.5 5.00746 41.5L41.3805 41.5C45.2295 41.5 47.6352 37.3333 45.7107 34L27.5241 2.5Z" fill="black"/>
</svg>
