<svg width="276" height="208" viewBox="0 0 276 208" fill="none" xmlns="http://www.w3.org/2000/svg">
<path d="M0 76C0 73.2386 2.23858 71 5 71H61C63.7614 71 66 73.2386 66 76V132C66 134.761 63.7614 137 61 137H5C2.23858 137 0 134.761 0 132V76Z" fill="black"/>
<path d="M70 76C70 73.2386 72.2386 71 75 71H131C133.761 71 136 73.2386 136 76V132C136 134.761 133.761 137 131 137H75C72.2386 137 70 134.761 70 132V76Z" fill="black"/>
<path fill-rule="evenodd" clip-rule="evenodd" d="M201 72H145C142.791 72 141 73.7909 141 76V132C141 134.209 142.791 136 145 136H201C203.209 136 205 134.209 205 132V76C205 73.7909 203.209 72 201 72ZM145 71C142.239 71 140 73.2386 140 76V132C140 134.761 142.239 137 145 137H201C203.761 137 206 134.761 206 132V76C206 73.2386 203.761 71 201 71H145Z" fill="black"/>
<path d="M210 76C210 73.2386 212.239 71 215 71H271C273.761 71 276 73.2386 276 76V132C276 134.761 273.761 137 271 137H215C212.239 137 210 134.761 210 132V76Z" fill="black"/>
<path fill-rule="evenodd" clip-rule="evenodd" d="M271 72H215C212.791 72 211 73.7909 211 76V132C211 134.209 212.791 136 215 136H271C273.209 136 275 134.209 275 132V76C275 73.7909 273.209 72 271 72ZM215 71C212.239 71 210 73.2386 210 76V132C210 134.761 212.239 137 215 137H271C273.761 137 276 134.761 276 132V76C276 73.2386 273.761 71 271 71H215Z" fill="black"/>
<path fill-rule="evenodd" clip-rule="evenodd" d="M131 1H75C72.7909 1 71 2.79086 71 5V61C71 63.2091 72.7909 65 75 65H131C133.209 65 135 63.2091 135 61V5C135 2.79086 133.209 1 131 1ZM75 0C72.2386 0 70 2.23858 70 5V61C70 63.7614 72.2386 66 75 66H131C133.761 66 136 63.7614 136 61V5C136 2.23858 133.761 0 131 0H75Z" fill="black"/>
<path fill-rule="evenodd" clip-rule="evenodd" d="M201 1H145C142.791 1 141 2.79086 141 5V61C141 63.2091 142.791 65 145 65H201C203.209 65 205 63.2091 205 61V5C205 2.79086 203.209 1 201 1ZM145 0C142.239 0 140 2.23858 140 5V61C140 63.7614 142.239 66 145 66H201C203.761 66 206 63.7614 206 61V5C206 2.23858 203.761 0 201 0H145Z" fill="black"/>
<path fill-rule="evenodd" clip-rule="evenodd" d="M131 143H75C72.7909 143 71 144.791 71 147V203C71 205.209 72.7909 207 75 207H131C133.209 207 135 205.209 135 203V147C135 144.791 133.209 143 131 143ZM75 142C72.2386 142 70 144.239 70 147V203C70 205.761 72.2386 208 75 208H131C133.761 208 136 205.761 136 203V147C136 144.239 133.761 142 131 142H75Z" fill="black"/>
<path d="M42 104C42 108.971 37.9706 113 33 113C28.0294 113 24 108.971 24 104C24 99.0294 28.0294 95 33 95C37.9706 95 42 99.0294 42 104Z" fill="#F3F2EE"/>
<path d="M112 104C112 108.971 107.971 113 103 113C98.0294 113 94 108.971 94 104C94 99.0294 98.0294 95 103 95C107.971 95 112 99.0294 112 104Z" fill="#F3F2EE"/>
<path d="M140 147C140 144.239 142.239 142 145 142H201C203.761 142 206 144.239 206 147V203C206 205.761 203.761 208 201 208H145C142.239 208 140 205.761 140 203V147Z" fill="black"/>
<path fill-rule="evenodd" clip-rule="evenodd" d="M201 143H145C142.791 143 141 144.791 141 147V203C141 205.209 142.791 207 145 207H201C203.209 207 205 205.209 205 203V147C205 144.791 203.209 143 201 143ZM145 142C142.239 142 140 144.239 140 147V203C140 205.761 142.239 208 145 208H201C203.761 208 206 205.761 206 203V147C206 144.239 203.761 142 201 142H145Z" fill="black"/>
<path d="M173 161.667C180.363 161.667 186.333 167.263 186.333 174.167C186.333 177.335 185.075 180.228 183 182.433V186.667C183 187.109 182.824 187.533 182.512 187.845C182.199 188.158 181.775 188.333 181.333 188.333H164.667C164.225 188.333 163.801 188.158 163.488 187.845C163.176 187.533 163 187.109 163 186.667V182.433C160.925 180.23 159.667 177.337 159.667 174.167C159.667 167.263 165.637 161.667 173 161.667Z" fill="#F3F2EE"/>
<path fill-rule="evenodd" clip-rule="evenodd" d="M173 163.042C166.311 163.042 161.042 168.105 161.042 174.167C161.042 176.962 162.149 179.524 164.001 181.491C164.241 181.746 164.375 182.083 164.375 182.433V186.667C164.375 186.744 164.406 186.818 164.46 186.873C164.515 186.928 164.589 186.958 164.667 186.958H181.333C181.411 186.958 181.485 186.928 181.54 186.873C181.594 186.818 181.625 186.744 181.625 186.667V182.433C181.625 182.083 181.759 181.746 181.999 181.491C183.851 179.522 184.958 176.96 184.958 174.167C184.958 168.105 179.689 163.042 173 163.042ZM158.292 174.167C158.292 166.422 164.962 160.292 173 160.292C181.038 160.292 187.708 166.422 187.708 174.167C187.708 177.514 186.451 180.576 184.375 182.963V186.667C184.375 187.473 184.055 188.247 183.484 188.817C182.914 189.388 182.14 189.708 181.333 189.708H164.667C163.86 189.708 163.086 189.388 162.516 188.817C161.945 188.247 161.625 187.473 161.625 186.667V182.963C159.549 180.577 158.292 177.515 158.292 174.167Z" fill="black"/>
<path fill-rule="evenodd" clip-rule="evenodd" d="M169.667 181.958C170.426 181.958 171.042 182.574 171.042 183.333V188.333C171.042 189.093 170.426 189.708 169.667 189.708C168.907 189.708 168.292 189.093 168.292 188.333V183.333C168.292 182.574 168.907 181.958 169.667 181.958Z" fill="black"/>
<path fill-rule="evenodd" clip-rule="evenodd" d="M176.333 181.958C177.093 181.958 177.708 182.574 177.708 183.333V188.333C177.708 189.093 177.093 189.708 176.333 189.708C175.574 189.708 174.958 189.093 174.958 188.333V183.333C174.958 182.574 175.574 181.958 176.333 181.958Z" fill="black"/>
<path d="M166.333 173.333C166.333 173.775 166.509 174.199 166.822 174.512C167.134 174.824 167.558 175 168 175C168.442 175 168.866 174.824 169.179 174.512C169.491 174.199 169.667 173.775 169.667 173.333C169.667 172.891 169.491 172.467 169.179 172.155C168.866 171.842 168.442 171.667 168 171.667C167.558 171.667 167.134 171.842 166.822 172.155C166.509 172.467 166.333 172.891 166.333 173.333Z" fill="black"/>
<path d="M176.333 173.333C176.333 173.775 176.509 174.199 176.822 174.512C177.134 174.824 177.558 175 178 175C178.442 175 178.866 174.824 179.179 174.512C179.491 174.199 179.667 173.775 179.667 173.333C179.667 172.891 179.491 172.467 179.179 172.155C178.866 171.842 178.442 171.667 178 171.667C177.558 171.667 177.134 171.842 176.822 172.155C176.509 172.467 176.333 172.891 176.333 173.333Z" fill="black"/>
<path d="M256 104C252.533 109.778 248.2 112.667 243 112.667C237.8 112.667 233.467 109.778 230 104C233.467 98.2223 237.8 95.3334 243 95.3334C248.2 95.3334 252.533 98.2223 256 104Z" fill="#F3F2EE"/>
<path d="M240.111 104C240.111 104.766 240.415 105.501 240.957 106.043C241.499 106.584 242.234 106.889 243 106.889C243.766 106.889 244.501 106.584 245.043 106.043C245.584 105.501 245.889 104.766 245.889 104C245.889 103.234 245.584 102.499 245.043 101.957C244.501 101.415 243.766 101.111 243 101.111C242.234 101.111 241.499 101.415 240.957 101.957C240.415 102.499 240.111 103.234 240.111 104Z" fill="black"/>
<path d="M173 22.3334C178.72 22.3334 183.484 25.572 187.22 31.872L187.513 32.3774L187.573 32.5107L187.613 32.6214L187.632 32.6947L187.651 32.804L187.665 32.9374V33.084L187.647 33.232C187.638 33.2815 187.626 33.3305 187.612 33.3787L187.56 33.5227L187.512 33.6227L187.491 33.6627C183.805 40.1107 179.091 43.5027 173.417 43.6614L173 43.6667C167.139 43.6667 162.284 40.268 158.509 33.6614C158.394 33.46 158.334 33.232 158.334 33C158.334 32.7681 158.394 32.5401 158.509 32.3387C162.284 25.732 167.139 22.3334 173 22.3334ZM173 29C171.939 29 170.922 29.4215 170.172 30.1716C169.421 30.9218 169 31.9392 169 33C169 34.0609 169.421 35.0783 170.172 35.8285C170.922 36.5786 171.939 37 173 37C174.061 37 175.078 36.5786 175.828 35.8285C176.579 35.0783 177 34.0609 177 33C177 31.9392 176.579 30.9218 175.828 30.1716C175.078 29.4215 174.061 29 173 29Z" fill="black"/>
</svg>
