<svg width="167" height="25" viewBox="0 0 167 25" fill="none" xmlns="http://www.w3.org/2000/svg">
<path fill-rule="evenodd" clip-rule="evenodd" d="M92.232 0H167V24.5588H92.232V0ZM154.462 18.3373C152.999 18.3373 151.886 17.9443 151.122 17.1585C150.369 16.3726 149.965 15.2865 149.91 13.9003C149.899 13.6056 149.894 13.1253 149.894 12.4595C149.894 11.7828 149.899 11.2916 149.91 10.986C149.965 9.61071 150.374 8.53012 151.138 7.74424C151.902 6.94744 153.01 6.54904 154.462 6.54904C155.433 6.54904 156.257 6.72368 156.934 7.07296C157.611 7.41133 158.124 7.85885 158.473 8.41551C158.822 8.97218 159.013 9.56705 159.046 10.2001V10.2329C159.046 10.3202 159.008 10.3966 158.931 10.4621C158.866 10.5167 158.789 10.5439 158.702 10.5439H157.802C157.583 10.5439 157.447 10.4184 157.392 10.1674C157.207 9.34875 156.874 8.77571 156.394 8.44826C155.913 8.10989 155.269 7.94071 154.462 7.94071C152.584 7.94071 151.613 8.98309 151.547 11.0679C151.536 11.3626 151.531 11.8155 151.531 12.4268C151.531 13.038 151.536 13.5019 151.547 13.8185C151.613 15.9032 152.584 16.9456 154.462 16.9456C155.269 16.9456 155.913 16.7819 156.394 16.4544C156.885 16.1161 157.218 15.5376 157.392 14.7189C157.425 14.577 157.474 14.4788 157.54 14.4242C157.605 14.3697 157.693 14.3424 157.802 14.3424H158.702C158.8 14.3424 158.882 14.3751 158.948 14.4406C159.024 14.4952 159.057 14.5716 159.046 14.6698C159.013 15.3138 158.822 15.9141 158.473 16.4708C158.124 17.0275 157.611 17.4804 156.934 17.8297C156.257 18.1681 155.433 18.3373 154.462 18.3373ZM99.9708 18.0753C100.047 18.1408 100.14 18.1735 100.249 18.1735H101.051C101.161 18.1735 101.248 18.1408 101.313 18.0753C101.39 17.9989 101.428 17.9061 101.428 17.797V9.74169L104.179 15.0791C104.288 15.3084 104.462 15.423 104.702 15.423H105.21C105.45 15.423 105.625 15.3084 105.734 15.0791L108.468 9.74169V17.797C108.468 17.9061 108.501 17.9989 108.566 18.0753C108.643 18.1408 108.736 18.1735 108.845 18.1735H109.647C109.756 18.1735 109.849 18.1408 109.925 18.0753C110.002 17.9989 110.04 17.9061 110.04 17.797V7.10571C110.04 6.98564 110.002 6.89287 109.925 6.82738C109.86 6.75097 109.767 6.71277 109.647 6.71277H108.845C108.736 6.71277 108.643 6.74005 108.566 6.79463C108.501 6.84921 108.457 6.90924 108.435 6.97473L104.948 13.5892L101.493 6.97473C101.384 6.80009 101.242 6.71277 101.068 6.71277H100.249C100.14 6.71277 100.047 6.75097 99.9708 6.82738C99.9053 6.89287 99.8725 6.98564 99.8725 7.10571V17.797C99.8725 17.9061 99.9053 17.9989 99.9708 18.0753ZM115.311 18.0753C115.376 18.1408 115.453 18.1735 115.54 18.1735H116.375C116.484 18.1735 116.572 18.1463 116.637 18.0917C116.714 18.0262 116.763 17.9607 116.784 17.8952L117.685 15.5703H123.055L123.956 17.8952C123.977 17.9607 124.021 18.0262 124.087 18.0917C124.152 18.1463 124.245 18.1735 124.365 18.1735H125.2C125.287 18.1735 125.364 18.1408 125.429 18.0753C125.495 18.0098 125.527 17.9334 125.527 17.8461L125.495 17.666L121.451 7.07296C121.363 6.83283 121.189 6.71277 120.927 6.71277H119.813C119.551 6.71277 119.377 6.83283 119.289 7.07296L115.229 17.666C115.218 17.6987 115.213 17.7588 115.213 17.8461C115.213 17.9334 115.245 18.0098 115.311 18.0753ZM120.37 8.35002L122.58 14.1623H118.16L120.37 8.35002ZM132.383 18.1735C132.273 18.1735 132.181 18.1408 132.104 18.0753C132.039 17.9989 132.006 17.9061 132.006 17.797V8.16992H128.863C128.753 8.16992 128.661 8.13718 128.584 8.07169C128.519 7.99528 128.486 7.90251 128.486 7.79336V7.10571C128.486 6.99656 128.519 6.90378 128.584 6.82738C128.661 6.75097 128.753 6.71277 128.863 6.71277H136.754C136.874 6.71277 136.967 6.75097 137.032 6.82738C137.109 6.89287 137.147 6.98564 137.147 7.10571V7.79336C137.147 7.90251 137.109 7.99528 137.032 8.07169C136.956 8.13718 136.863 8.16992 136.754 8.16992H133.627V17.797C133.627 17.9061 133.589 17.9989 133.512 18.0753C133.436 18.1408 133.343 18.1735 133.234 18.1735H132.383ZM142.519 18.0753C142.595 18.1408 142.688 18.1735 142.797 18.1735H143.665C143.774 18.1735 143.861 18.1408 143.927 18.0753C144.003 17.9989 144.042 17.9061 144.042 17.797V7.08934C144.042 6.98019 144.003 6.89287 143.927 6.82738C143.861 6.75097 143.774 6.71277 143.665 6.71277H142.797C142.688 6.71277 142.595 6.75097 142.519 6.82738C142.453 6.89287 142.421 6.98019 142.421 7.08934V17.797C142.421 17.9061 142.453 17.9989 142.519 18.0753ZM2.34127 17.284C3.07258 17.6223 3.95124 17.7915 4.97725 17.7915C5.99235 17.7915 6.87647 17.6169 7.62961 17.2676C8.39366 16.9074 8.97761 16.3944 9.38147 15.7286C9.79624 15.0628 10.0036 14.2605 10.0036 13.3218V11.5372C10.0036 11.4171 9.96542 11.3189 9.88902 11.2425C9.81261 11.1661 9.71438 11.1279 9.59431 11.1279H5.58304C5.47389 11.1279 5.38111 11.1661 5.3047 11.2425C5.2283 11.3189 5.1901 11.4171 5.1901 11.5372V12.585C5.1901 12.6942 5.2283 12.7924 5.3047 12.8798C5.38111 12.9562 5.47389 12.9944 5.58304 12.9944H7.36765V13.4037C7.36765 13.9276 7.26395 14.3587 7.05657 14.6971C6.84918 15.0355 6.56539 15.2865 6.20519 15.4502C5.85591 15.6031 5.45752 15.6795 5.01 15.6795C4.32235 15.6795 3.77114 15.4939 3.35637 15.1228C2.95252 14.7517 2.73421 14.1404 2.70147 13.2891C2.66872 12.3176 2.66872 11.3626 2.70147 10.4239C2.73421 9.60524 2.94706 9.01583 3.34 8.65564C3.74386 8.29544 4.28961 8.11534 4.97725 8.11534C5.43568 8.11534 5.8068 8.18629 6.09059 8.32819C6.37438 8.47008 6.59814 8.64472 6.76186 8.85211C6.9365 9.04858 7.06202 9.24505 7.13843 9.44152C7.18209 9.52884 7.23121 9.59433 7.28578 9.63799C7.35127 9.68165 7.43859 9.70348 7.54774 9.70348H9.57794C9.68709 9.70348 9.77441 9.67073 9.8399 9.60524C9.90539 9.52884 9.93813 9.44152 9.93813 9.34328C9.92722 8.98309 9.81261 8.60652 9.59431 8.21358C9.37601 7.82064 9.05947 7.46044 8.6447 7.13299C8.22993 6.79462 7.71693 6.52175 7.10568 6.31436C6.49444 6.10698 5.78497 6.00328 4.97725 6.00328C3.97307 6.00328 3.09987 6.17792 2.35765 6.52721C1.62634 6.86557 1.05876 7.35675 0.654902 8.00073C0.261961 8.64472 0.0491176 9.42515 0.0163725 10.342C0.00545752 10.8223 0 11.3298 0 11.8647C0 12.3995 0.00545752 12.9016 0.0163725 13.3709C0.0491176 14.3096 0.261961 15.1119 0.654902 15.7777C1.05876 16.4326 1.62088 16.9347 2.34127 17.284ZM15.5533 17.5132C15.6297 17.5896 15.7279 17.6278 15.848 17.6278H17.6326C17.7527 17.6278 17.8509 17.5896 17.9273 17.5132C18.0037 17.4368 18.0419 17.3385 18.0419 17.2185V13.4364H20.023L22.0204 17.1857C22.0641 17.2731 22.135 17.3713 22.2333 17.4804C22.3315 17.5787 22.4789 17.6278 22.6753 17.6278H24.4927C24.5909 17.6278 24.6728 17.595 24.7383 17.5296C24.8038 17.4531 24.8365 17.3713 24.8365 17.284C24.8365 17.2294 24.8201 17.1694 24.7874 17.1039L22.4789 13.0107C23.1228 12.7488 23.6359 12.3504 24.0179 11.8155C24.3999 11.2807 24.5909 10.6149 24.5909 9.81809C24.5909 8.63926 24.198 7.73877 23.4121 7.11662C22.6262 6.48355 21.5511 6.16701 20.1867 6.16701H15.848C15.7279 6.16701 15.6297 6.20521 15.5533 6.28162C15.4769 6.35802 15.4387 6.45626 15.4387 6.57632V17.2185C15.4387 17.3385 15.4769 17.4368 15.5533 17.5132ZM20.1376 11.3571H18.0419V8.21358H20.1376C20.7488 8.21358 21.1963 8.35547 21.4801 8.63926C21.7639 8.92305 21.9058 9.31054 21.9058 9.80171C21.9058 10.2929 21.7585 10.6749 21.4638 10.9478C21.18 11.2207 20.7379 11.3571 20.1376 11.3571ZM34.5407 17.7915C33.5474 17.7915 32.6906 17.6278 31.9702 17.3003C31.2498 16.9729 30.6877 16.4817 30.2838 15.8268C29.88 15.161 29.6617 14.326 29.6289 13.3218C29.618 12.8525 29.6126 12.3886 29.6126 11.9301C29.6126 11.4608 29.618 10.986 29.6289 10.5057C29.6617 9.52338 29.88 8.6993 30.2838 8.03348C30.6986 7.35675 31.2662 6.8492 31.9866 6.51083C32.7179 6.17247 33.5693 6.00328 34.5407 6.00328C35.5012 6.00328 36.3417 6.17247 37.0621 6.51083C37.7934 6.8492 38.3664 7.35675 38.7812 8.03348C39.196 8.6993 39.4143 9.52338 39.4361 10.5057C39.4579 10.986 39.4688 11.4608 39.4688 11.9301C39.4688 12.3886 39.4579 12.8525 39.4361 13.3218C39.4033 14.326 39.185 15.161 38.7812 15.8268C38.3773 16.4817 37.8152 16.9729 37.0948 17.3003C36.3744 17.6278 35.523 17.7915 34.5407 17.7915ZM34.5407 15.6795C35.1738 15.6795 35.6922 15.4884 36.0961 15.1064C36.5109 14.7135 36.7292 14.0913 36.751 13.2399C36.7728 12.7597 36.7837 12.3122 36.7837 11.8974C36.7837 11.4717 36.7728 11.0242 36.751 10.5549C36.7401 9.98727 36.6364 9.52338 36.4399 9.16319C36.2434 8.80299 35.9815 8.54103 35.654 8.3773C35.3375 8.20266 34.9664 8.11534 34.5407 8.11534C34.115 8.11534 33.7384 8.20266 33.411 8.3773C33.0835 8.54103 32.8216 8.80299 32.6251 9.16319C32.4396 9.52338 32.3359 9.98727 32.314 10.5549C32.3031 11.0242 32.2977 11.4717 32.2977 11.8974C32.2977 12.3122 32.3031 12.7597 32.314 13.2399C32.3468 14.0913 32.5651 14.7135 32.9689 15.1064C33.3728 15.4884 33.8967 15.6795 34.5407 15.6795ZM46.9204 17.3003C47.6408 17.6278 48.4976 17.7915 49.4909 17.7915C50.4732 17.7915 51.3246 17.6278 52.045 17.3003C52.7654 16.9729 53.3275 16.4817 53.7314 15.8268C54.1352 15.161 54.3535 14.326 54.3863 13.3218C54.4081 12.8525 54.419 12.3886 54.419 11.9301C54.419 11.4608 54.4081 10.986 54.3863 10.5057C54.3644 9.52338 54.1461 8.6993 53.7314 8.03348C53.3166 7.35675 52.7436 6.8492 52.0122 6.51083C51.2919 6.17247 50.4514 6.00328 49.4909 6.00328C48.5194 6.00328 47.6681 6.17247 46.9368 6.51083C46.2164 6.8492 45.6488 7.35675 45.234 8.03348C44.8302 8.6993 44.6119 9.52338 44.5791 10.5057C44.5682 10.986 44.5627 11.4608 44.5627 11.9301C44.5627 12.3886 44.5682 12.8525 44.5791 13.3218C44.6119 14.326 44.8302 15.161 45.234 15.8268C45.6379 16.4817 46.2 16.9729 46.9204 17.3003ZM51.0463 15.1064C50.6424 15.4884 50.1239 15.6795 49.4909 15.6795C48.8469 15.6795 48.323 15.4884 47.9191 15.1064C47.5153 14.7135 47.297 14.0913 47.2642 13.2399C47.2533 12.7597 47.2478 12.3122 47.2478 11.8974C47.2478 11.4717 47.2533 11.0242 47.2642 10.5549C47.286 9.98727 47.3897 9.52338 47.5753 9.16319C47.7718 8.80299 48.0337 8.54103 48.3612 8.3773C48.6886 8.20266 49.0652 8.11534 49.4909 8.11534C49.9166 8.11534 50.2877 8.20266 50.6042 8.3773C50.9317 8.54103 51.1936 8.80299 51.3901 9.16319C51.5866 9.52338 51.6903 9.98727 51.7012 10.5549C51.723 11.0242 51.7339 11.4717 51.7339 11.8974C51.7339 12.3122 51.723 12.7597 51.7012 13.2399C51.6793 14.0913 51.461 14.7135 51.0463 15.1064ZM62.861 17.6278C62.6863 17.6278 62.5444 17.5841 62.4353 17.4968C62.3371 17.3986 62.2661 17.284 62.2224 17.153L58.7842 6.65819C58.7733 6.60361 58.7678 6.55449 58.7678 6.51083C58.7678 6.42351 58.8006 6.34711 58.8661 6.28162C58.9316 6.20521 59.0134 6.16701 59.1117 6.16701H60.8308C60.9945 6.16701 61.12 6.21613 61.2073 6.31436C61.3056 6.40168 61.3656 6.48355 61.3874 6.55995L63.9416 14.5661L66.4793 6.55995C66.5121 6.48355 66.5721 6.40168 66.6594 6.31436C66.7467 6.21613 66.8722 6.16701 67.036 6.16701H68.7551C68.8533 6.16701 68.9352 6.20521 69.0007 6.28162C69.0662 6.34711 69.0989 6.42351 69.0989 6.51083C69.0989 6.55449 69.0935 6.60361 69.0825 6.65819L65.6443 17.153C65.6116 17.284 65.5406 17.3986 65.4315 17.4968C65.3332 17.5841 65.1913 17.6278 65.0058 17.6278H62.861ZM74.2827 17.5132C74.3591 17.5896 74.4574 17.6278 74.5774 17.6278H82.1252C82.2453 17.6278 82.3435 17.5896 82.4199 17.5132C82.4963 17.4368 82.5345 17.3385 82.5345 17.2185V15.925C82.5345 15.805 82.4963 15.7067 82.4199 15.6303C82.3435 15.5539 82.2453 15.5157 82.1252 15.5157H76.6895V12.8634H81.634C81.7541 12.8634 81.8523 12.8252 81.9287 12.7488C82.0051 12.6724 82.0433 12.5796 82.0433 12.4704V11.2589C82.0433 11.1388 82.0051 11.0406 81.9287 10.9642C81.8523 10.8878 81.7541 10.8496 81.634 10.8496H76.6895V8.27907H81.9942C82.1143 8.27907 82.2125 8.24086 82.2889 8.16446C82.3653 8.08805 82.4035 7.99528 82.4035 7.88613V6.57632C82.4035 6.45626 82.3653 6.35802 82.2889 6.28162C82.2125 6.20521 82.1143 6.16701 81.9942 6.16701H74.5774C74.4574 6.16701 74.3591 6.20521 74.2827 6.28162C74.2063 6.35802 74.1681 6.45626 74.1681 6.57632V17.2185C74.1681 17.3385 74.2063 17.4368 74.2827 17.5132Z" fill="#F3F2EE"/>
</svg>
