<svg width="44" height="69" viewBox="0 0 44 69" fill="none" xmlns="http://www.w3.org/2000/svg">
<rect x="0.5" y="0.5" width="43" height="33" stroke="black"/>
<path d="M39.1698 51.1848C39.1698 41.6939 31.5206 34 22.0849 34C12.6492 34 5 41.6939 5 51.1848C5 60.6757 12.6492 68.3696 22.0849 68.3696C31.5206 68.3696 39.1698 60.6757 39.1698 51.1848Z" fill="black"/>
<path fill-rule="evenodd" clip-rule="evenodd" d="M22.0849 34.4761C31.2551 34.4761 38.6937 41.9542 38.6937 51.1848C38.6937 60.4154 31.2551 67.8935 22.0849 67.8935C12.9148 67.8935 5.47614 60.4154 5.47614 51.1848C5.47614 41.9542 12.9148 34.4761 22.0849 34.4761ZM22.0849 34C31.5206 34 39.1698 41.6939 39.1698 51.1848C39.1698 60.6757 31.5206 68.3696 22.0849 68.3696C12.6492 68.3696 5 60.6757 5 51.1848C5 41.6939 12.6492 34 22.0849 34Z" fill="black"/>
</svg>
