<svg width="47" height="69" viewBox="0 0 47 69" fill="none" xmlns="http://www.w3.org/2000/svg">
<rect x="0.5" y="0.5" width="46" height="68" rx="4.5" fill="black" stroke="black"/>
<g clip-path="url(#clip0_31_27)">
<path d="M23.5001 20.5607C31.1981 20.5607 37.4395 26.4117 37.4395 33.6288C37.4395 36.9412 36.1239 39.966 33.9546 42.2713V46.697C33.9546 47.1592 33.771 47.6023 33.4443 47.9291C33.1175 48.2559 32.6743 48.4395 32.2122 48.4395H14.7879C14.3258 48.4395 13.8826 48.2559 13.5559 47.9291C13.2291 47.6023 13.0455 47.1592 13.0455 46.697V42.2713C10.8762 39.9678 9.56067 36.9429 9.56067 33.6288C9.56067 26.4117 15.802 20.5607 23.5001 20.5607Z" fill="#F3F2EE" stroke="black" stroke-width="2.75" stroke-linecap="round" stroke-linejoin="round"/>
<path d="M20.0152 43.2122V48.4394" stroke="black" stroke-width="2.75" stroke-linecap="round" stroke-linejoin="round"/>
<path d="M26.9849 43.2122V48.4394" stroke="black" stroke-width="2.75" stroke-linecap="round" stroke-linejoin="round"/>
<path d="M16.5303 32.7576C16.5303 33.2197 16.7139 33.6629 17.0407 33.9896C17.3674 34.3164 17.8106 34.5 18.2728 34.5C18.7349 34.5 19.1781 34.3164 19.5048 33.9896C19.8316 33.6629 20.0152 33.2197 20.0152 32.7576C20.0152 32.2954 19.8316 31.8522 19.5048 31.5255C19.1781 31.1987 18.7349 31.0151 18.2728 31.0151C17.8106 31.0151 17.3674 31.1987 17.0407 31.5255C16.7139 31.8522 16.5303 32.2954 16.5303 32.7576Z" fill="black"/>
<path d="M26.9849 32.7576C26.9849 33.2197 27.1684 33.6629 27.4952 33.9896C27.822 34.3164 28.2652 34.5 28.7273 34.5C29.1894 34.5 29.6326 34.3164 29.9594 33.9896C30.2861 33.6629 30.4697 33.2197 30.4697 32.7576C30.4697 32.2954 30.2861 31.8522 29.9594 31.5255C29.6326 31.1987 29.1894 31.0151 28.7273 31.0151C28.2652 31.0151 27.822 31.1987 27.4952 31.5255C27.1684 31.8522 26.9849 32.2954 26.9849 32.7576Z" fill="black"/>
</g>
<defs>
<clipPath id="clip0_31_27">
<rect width="41.8182" height="41.8182" fill="white" transform="translate(2.59094 13.5909)"/>
</clipPath>
</defs>
</svg>
