<svg width="44" height="69" viewBox="0 0 44 69" fill="none" xmlns="http://www.w3.org/2000/svg">
<path fill-rule="evenodd" clip-rule="evenodd" d="M44 7.47042e-07L44 24L42 24L42 8.34465e-07L44 7.47042e-07Z" fill="black"/>
<path fill-rule="evenodd" clip-rule="evenodd" d="M-1.72696e-06 29L0 68.5082L43.8182 68.5082L43.8182 29L-1.72696e-06 29ZM13.5703 55.5782C13.3747 55.5782 13.2235 55.5257 13.1167 55.4207C12.9922 55.3157 12.93 55.167 12.93 54.9745L12.93 48.3079C12.93 47.013 13.1434 45.8932 13.5703 44.9483C13.9972 43.9859 14.6375 43.2423 15.4913 42.7173C16.3273 42.1924 17.3768 41.9299 18.6397 41.9299C19.9026 41.9299 20.952 42.1924 21.788 42.7173C22.624 43.2423 23.2555 43.9859 23.6824 44.9483C24.1093 45.8932 24.3227 47.013 24.3227 48.3079L24.3227 52.9535L30.9929 52.9535C31.1708 52.9535 31.322 53.0148 31.4465 53.1373C31.5532 53.2423 31.6066 53.391 31.6066 53.5835L31.6066 54.9745C31.6066 55.167 31.5532 55.3157 31.4465 55.4207C31.322 55.5257 31.1708 55.5782 30.9929 55.5782L13.5703 55.5782ZM20.3026 43.4718C19.8457 43.3255 19.2976 43.2423 18.6397 43.2423C19.2223 43.2423 19.7821 43.3145 20.3026 43.4718ZM17.0206 43.4581C17.5291 43.3106 18.0734 43.2423 18.6397 43.2423C18.0027 43.2423 17.4686 43.3203 17.0206 43.4581ZM21.201 45.5257C21.788 46.1731 22.0815 47.1443 22.0815 48.4391L22.0815 52.9798L15.1712 52.9798L15.1712 48.4391C15.1712 47.1093 15.4735 46.1294 16.0783 45.4995C16.6831 44.8696 17.5369 44.5546 18.6397 44.5546C19.7603 44.5546 20.6141 44.8783 21.201 45.5257Z" fill="black"/>
</svg>
