<svg width="338" height="338" viewBox="0 0 338 338" fill="none" xmlns="http://www.w3.org/2000/svg">
<path fill-rule="evenodd" clip-rule="evenodd" d="M169.002 310.559C247.582 310.559 311.281 247.018 311.281 168.641C311.281 90.263 247.582 26.7222 169.002 26.7222C90.4213 26.7222 26.7222 90.263 26.7222 168.641C26.7222 247.018 90.4213 310.559 169.002 310.559ZM169.002 311.281C247.98 311.281 312.004 247.419 312.004 168.641C312.004 89.8624 247.98 26 169.002 26C90.0241 26 26 89.8624 26 168.641C26 247.419 90.0241 311.281 169.002 311.281Z" fill="#F3F2EE"/>
<path d="M233.279 168.64C233.279 204.339 204.339 233.279 168.64 233.279C132.94 233.279 104 204.339 104 168.64C104 132.94 132.94 104 168.64 104C204.339 104 233.279 132.94 233.279 168.64Z" fill="#F3F2EE"/>
<path d="M194.83 26.0666C194.83 11.6704 183.228 -3.02197e-05 168.915 -2.89685e-05C154.603 -2.77172e-05 143 11.6704 143 26.0666C143 40.4628 154.603 52.1333 168.915 52.1333C183.228 52.1333 194.83 40.4628 194.83 26.0666Z" fill="#F3F2EE"/>
<path fill-rule="evenodd" clip-rule="evenodd" d="M168.915 0.722204C182.825 0.722203 194.108 12.0653 194.108 26.0666C194.108 40.0679 182.825 51.411 168.915 51.411C155.005 51.411 143.722 40.0679 143.722 26.0666C143.722 12.0653 155.005 0.722205 168.915 0.722204ZM168.915 -2.89685e-05C183.228 -3.02197e-05 194.83 11.6704 194.83 26.0666C194.83 40.4628 183.228 52.1333 168.915 52.1333C154.603 52.1333 143 40.4628 143 26.0666C143 11.6704 154.603 -2.77172e-05 168.915 -2.89685e-05Z" fill="#F3F2EE"/>
</svg>
