<svg width="792" height="862" viewBox="0 0 792 862" fill="none" xmlns="http://www.w3.org/2000/svg">
<path fill-rule="evenodd" clip-rule="evenodd" d="M396 860C613.605 860 790 684.043 790 467C790 249.957 613.605 74 396 74C178.395 74 2 249.957 2 467C2 684.043 178.395 860 396 860ZM396 862C614.705 862 792 685.152 792 467C792 248.848 614.705 72 396 72C177.295 72 0 248.848 0 467C0 685.152 177.295 862 396 862Z" fill="black"/>
<path opacity="0.2" fill-rule="evenodd" clip-rule="evenodd" d="M396 769C562.79 769 698 633.79 698 467C698 300.21 562.79 165 396 165C229.21 165 94 300.21 94 467C94 633.79 229.21 769 396 769ZM396 771C563.895 771 700 634.895 700 467C700 299.105 563.895 163 396 163C228.105 163 92 299.105 92 467C92 634.895 228.105 771 396 771Z" fill="black"/>
<path d="M575 467C575 565.859 494.859 646 396 646C297.141 646 217 565.859 217 467C217 368.141 297.141 288 396 288C494.859 288 575 368.141 575 467Z" fill="black"/>
<path d="M467.318 72.1836C467.318 32.3177 435.189 -2.49975e-05 395.554 -2.15326e-05C355.92 -1.80677e-05 323.791 32.3177 323.791 72.1836C323.791 112.049 355.92 144.367 395.554 144.367C435.189 144.367 467.318 112.049 467.318 72.1836Z" fill="black"/>
<path fill-rule="evenodd" clip-rule="evenodd" d="M395.554 1.99998C434.073 1.99998 465.318 33.4112 465.318 72.1836C465.318 110.956 434.073 142.367 395.554 142.367C357.036 142.367 325.791 110.956 325.791 72.1836C325.791 33.4112 357.036 1.99998 395.554 1.99998ZM395.554 -2.15326e-05C435.189 -2.49975e-05 467.318 32.3177 467.318 72.1836C467.318 112.049 435.189 144.367 395.554 144.367C355.92 144.367 323.791 112.049 323.791 72.1836C323.791 32.3177 355.92 -1.80677e-05 395.554 -2.15326e-05Z" fill="black"/>
<path d="M411.895 72.1835C411.895 81.2609 404.579 88.6195 395.554 88.6195C386.53 88.6195 379.214 81.2609 379.214 72.1835C379.214 63.1062 386.53 55.7476 395.554 55.7476C404.579 55.7476 411.895 63.1062 411.895 72.1835Z" fill="black"/>
<path fill-rule="evenodd" clip-rule="evenodd" d="M395.554 86.6195C403.463 86.6195 409.895 80.1673 409.895 72.1835C409.895 64.1997 403.463 57.7476 395.554 57.7476C387.645 57.7476 381.214 64.1997 381.214 72.1835C381.214 80.1673 387.645 86.6195 395.554 86.6195ZM395.554 88.6195C404.579 88.6195 411.895 81.2609 411.895 72.1835C411.895 63.1062 404.579 55.7476 395.554 55.7476C386.53 55.7476 379.214 63.1062 379.214 72.1835C379.214 81.2609 386.53 88.6195 395.554 88.6195Z" fill="black"/>
</svg>
