<svg width="291" height="210" viewBox="0 0 291 210" fill="none" xmlns="http://www.w3.org/2000/svg">
<rect x="150.5" y="71.5" width="65" height="65" rx="4.5" stroke="black"/>
<rect opacity="0.5" x="225.5" y="71.5" width="65" height="65" rx="4.5" stroke="black"/>
<rect opacity="0.5" x="150.5" y="0.5" width="65" height="65" rx="4.5" stroke="black"/>
<rect opacity="0.5" x="150.5" y="143.5" width="65" height="65" rx="4.5" stroke="black"/>
<rect opacity="0.1" x="225.5" y="144.5" width="65" height="65" rx="4.5" stroke="black"/>
<rect x="75" y="71" width="66" height="66" rx="5" fill="black"/>
<circle cx="108" cy="104" r="9" fill="#F3F2EE"/>
<rect x="0.5" y="71.5" width="65" height="65" rx="4.5" fill="black" stroke="black"/>
<g clip-path="url(#clip0_77_508)">
<path d="M33 90.6666C40.3633 90.6666 46.3333 96.2633 46.3333 103.167C46.3333 106.335 45.075 109.228 43 111.433V115.667C43 116.109 42.8244 116.533 42.5119 116.845C42.1993 117.158 41.7754 117.333 41.3333 117.333H24.6667C24.2246 117.333 23.8007 117.158 23.4882 116.845C23.1756 116.533 23 116.109 23 115.667V111.433C20.925 109.23 19.6667 106.337 19.6667 103.167C19.6667 96.2633 25.6367 90.6666 33 90.6666Z" fill="#F3F2EE" stroke="black" stroke-width="2.75" stroke-linecap="round" stroke-linejoin="round"/>
<path d="M29.6667 112.333V117.333" stroke="black" stroke-width="2.75" stroke-linecap="round" stroke-linejoin="round"/>
<path d="M36.3333 112.333V117.333" stroke="black" stroke-width="2.75" stroke-linecap="round" stroke-linejoin="round"/>
<path d="M26.3333 102.333C26.3333 102.775 26.5089 103.199 26.8215 103.512C27.134 103.824 27.558 104 28 104C28.442 104 28.8659 103.824 29.1785 103.512C29.4911 103.199 29.6667 102.775 29.6667 102.333C29.6667 101.891 29.4911 101.467 29.1785 101.155C28.8659 100.842 28.442 100.667 28 100.667C27.558 100.667 27.134 100.842 26.8215 101.155C26.5089 101.467 26.3333 101.891 26.3333 102.333Z" fill="black"/>
<path d="M36.3333 102.333C36.3333 102.775 36.5089 103.199 36.8215 103.512C37.134 103.824 37.558 104 38 104C38.442 104 38.8659 103.824 39.1785 103.512C39.4911 103.199 39.6667 102.775 39.6667 102.333C39.6667 101.891 39.4911 101.467 39.1785 101.155C38.8659 100.842 38.442 100.667 38 100.667C37.558 100.667 37.134 100.842 36.8215 101.155C36.5089 101.467 36.3333 101.891 36.3333 102.333Z" fill="black"/>
</g>
<defs>
<clipPath id="clip0_77_508">
<rect width="40" height="40" fill="white" transform="translate(13 84)"/>
</clipPath>
</defs>
</svg>
