<svg width="124" height="112" viewBox="0 0 124 112" fill="none" xmlns="http://www.w3.org/2000/svg">
<path fill-rule="evenodd" clip-rule="evenodd" d="M51.7409 3.93278C52.4307 3.64706 53.17 3.5 53.9167 3.5C54.6633 3.5 55.4026 3.64706 56.0924 3.93278C56.7822 4.2185 57.4089 4.63729 57.9369 5.16523C58.4648 5.69317 58.8836 6.31993 59.1693 7.00972C59.4551 7.69951 59.6021 8.43883 59.6021 9.18545C59.6021 9.93207 59.4551 10.6714 59.1693 11.3612C58.8836 12.051 58.4648 12.6777 57.9369 13.2057L38.6869 32.4557C38.5931 32.5494 38.4659 32.6021 38.3333 32.6021H31C30.7239 32.6021 30.5 32.3783 30.5 32.1021V24.7688C30.5 24.6362 30.5527 24.509 30.6464 24.4152L49.8964 5.16523C50.4244 4.63729 51.0511 4.2185 51.7409 3.93278ZM53.9167 4.5C53.3014 4.5 52.6921 4.62119 52.1236 4.85666C51.5552 5.09213 51.0386 5.43725 50.6036 5.87234L31.5 24.9759V31.6021H38.1262L57.2298 12.4986C57.6649 12.0635 58.01 11.547 58.2455 10.9785C58.4809 10.41 58.6021 9.80075 58.6021 9.18545C58.6021 8.57015 58.4809 7.96087 58.2455 7.39241C58.01 6.82394 57.6649 6.30742 57.2298 5.87234C56.7947 5.43725 56.2782 5.09213 55.7097 4.85666C55.1412 4.62119 54.532 4.5 53.9167 4.5Z" fill="black"/>
<path fill-rule="evenodd" clip-rule="evenodd" d="M48.0631 6.99856C48.2584 6.8033 48.575 6.8033 48.7702 6.99856L56.1036 14.3319C56.2988 14.5272 56.2988 14.8437 56.1036 15.039C55.9083 15.2343 55.5917 15.2343 55.3965 15.039L48.0631 7.70567C47.8679 7.5104 47.8679 7.19382 48.0631 6.99856Z" fill="black"/>
<path fill-rule="evenodd" clip-rule="evenodd" d="M8 36.5C8 33.4624 10.4624 31 13.5 31H31V32H13.5C11.0147 32 9 34.0147 9 36.5V51.5C9 53.9853 11.0147 56 13.5 56H14V57H13.5C10.4624 57 8 54.5376 8 51.5V36.5Z" fill="black"/>
<path d="M18 9C18 13.9706 13.9706 18 9 18C4.02944 18 0 13.9706 0 9C0 4.02944 4.02944 0 9 0C13.9706 0 18 4.02944 18 9Z" fill="black"/>
<path d="M124 107C124 109.761 121.761 112 119 112C116.239 112 114 109.761 114 107C114 104.239 116.239 102 119 102C121.761 102 124 104.239 124 107Z" fill="black"/>
<path fill-rule="evenodd" clip-rule="evenodd" d="M74.6765 37H119V51.5588H74.6765V37ZM111.567 47.8706C110.7 47.8706 110.04 47.6376 109.587 47.1718C109.141 46.7059 108.901 46.0621 108.869 45.2403C108.862 45.0656 108.859 44.7809 108.859 44.3862C108.859 43.985 108.862 43.6938 108.869 43.5126C108.901 42.6973 109.144 42.0568 109.597 41.5909C110.05 41.1185 110.706 40.8823 111.567 40.8823C112.143 40.8823 112.631 40.9859 113.033 41.1929C113.434 41.3935 113.738 41.6588 113.945 41.9888C114.152 42.3188 114.265 42.6715 114.285 43.0468V43.0662C114.285 43.1179 114.262 43.1632 114.217 43.2021C114.178 43.2344 114.133 43.2506 114.081 43.2506H113.547C113.418 43.2506 113.337 43.1762 113.304 43.0273C113.194 42.5421 112.997 42.2023 112.712 42.0082C112.428 41.8076 112.046 41.7073 111.567 41.7073C110.454 41.7073 109.878 42.3253 109.839 43.5612C109.833 43.7359 109.83 44.0044 109.83 44.3668C109.83 44.7291 109.833 45.0041 109.839 45.1918C109.878 46.4276 110.454 47.0456 111.567 47.0456C112.046 47.0456 112.428 46.9485 112.712 46.7544C113.004 46.5538 113.201 46.2109 113.304 45.7256C113.324 45.6415 113.353 45.5832 113.392 45.5509C113.431 45.5185 113.482 45.5023 113.547 45.5023H114.081C114.139 45.5023 114.188 45.5218 114.226 45.5606C114.272 45.5929 114.291 45.6382 114.285 45.6965C114.265 46.0782 114.152 46.4341 113.945 46.7641C113.738 47.0941 113.434 47.3626 113.033 47.5697C112.631 47.7703 112.143 47.8706 111.567 47.8706ZM79.2641 47.7153C79.3094 47.7541 79.3644 47.7735 79.4291 47.7735H79.9047C79.9694 47.7735 80.0212 47.7541 80.06 47.7153C80.1053 47.67 80.1279 47.615 80.1279 47.5503V42.775L81.7585 45.9391C81.8232 46.075 81.9267 46.1429 82.0691 46.1429H82.37C82.5123 46.1429 82.6159 46.075 82.6806 45.9391L84.3014 42.775V47.5503C84.3014 47.615 84.3209 47.67 84.3597 47.7153C84.405 47.7541 84.46 47.7735 84.5247 47.7735H85.0003C85.065 47.7735 85.12 47.7541 85.1653 47.7153C85.2106 47.67 85.2332 47.615 85.2332 47.5503V41.2123C85.2332 41.1412 85.2106 41.0862 85.1653 41.0473C85.1264 41.0021 85.0714 40.9794 85.0003 40.9794H84.5247C84.46 40.9794 84.405 40.9956 84.3597 41.0279C84.3209 41.0603 84.295 41.0959 84.282 41.1347L82.2147 45.0559L80.1667 41.1347C80.102 41.0312 80.0179 40.9794 79.9144 40.9794H79.4291C79.3644 40.9794 79.3094 41.0021 79.2641 41.0473C79.2253 41.0862 79.2059 41.1412 79.2059 41.2123V47.5503C79.2059 47.615 79.2253 47.67 79.2641 47.7153ZM88.358 47.7153C88.3968 47.7541 88.4421 47.7735 88.4939 47.7735H88.9889C89.0536 47.7735 89.1053 47.7573 89.1441 47.725C89.1894 47.6862 89.2186 47.6473 89.2315 47.6085L89.7653 46.2303H92.9489L93.4827 47.6085C93.4956 47.6473 93.5215 47.6862 93.5603 47.725C93.5992 47.7573 93.6541 47.7735 93.7253 47.7735H94.2203C94.2721 47.7735 94.3174 47.7541 94.3562 47.7153C94.395 47.6765 94.4144 47.6312 94.4144 47.5794L94.395 47.4726L91.9977 41.1929C91.9459 41.0506 91.8424 40.9794 91.6871 40.9794H91.0271C90.8718 40.9794 90.7683 41.0506 90.7165 41.1929L88.3094 47.4726C88.303 47.4921 88.2997 47.5276 88.2997 47.5794C88.2997 47.6312 88.3192 47.6765 88.358 47.7153ZM91.3571 41.95L92.6674 45.3956H90.0468L91.3571 41.95ZM98.4783 47.7735C98.4136 47.7735 98.3586 47.7541 98.3133 47.7153C98.2745 47.67 98.2551 47.615 98.2551 47.5503V41.8432H96.3916C96.3269 41.8432 96.2719 41.8238 96.2266 41.785C96.1877 41.7397 96.1683 41.6847 96.1683 41.62V41.2123C96.1683 41.1476 96.1877 41.0926 96.2266 41.0473C96.2719 41.0021 96.3269 40.9794 96.3916 40.9794H101.07C101.141 40.9794 101.196 41.0021 101.235 41.0473C101.28 41.0862 101.303 41.1412 101.303 41.2123V41.62C101.303 41.6847 101.28 41.7397 101.235 41.785C101.189 41.8238 101.134 41.8432 101.07 41.8432H99.216V47.5503C99.216 47.615 99.1933 47.67 99.148 47.7153C99.1027 47.7541 99.0477 47.7735 98.983 47.7735H98.4783ZM104.487 47.7153C104.533 47.7541 104.588 47.7735 104.652 47.7735H105.167C105.231 47.7735 105.283 47.7541 105.322 47.7153C105.367 47.67 105.39 47.615 105.39 47.5503V41.2026C105.39 41.1379 105.367 41.0862 105.322 41.0473C105.283 41.0021 105.231 40.9794 105.167 40.9794H104.652C104.588 40.9794 104.533 41.0021 104.487 41.0473C104.448 41.0862 104.429 41.1379 104.429 41.2026V47.5503C104.429 47.615 104.448 47.67 104.487 47.7153ZM21.3879 47.2462C21.8215 47.4468 22.3424 47.5471 22.9506 47.5471C23.5524 47.5471 24.0765 47.4435 24.5229 47.2365C24.9759 47.023 25.3221 46.7188 25.5615 46.3241C25.8074 45.9294 25.9303 45.4538 25.9303 44.8974V43.8394C25.9303 43.7683 25.9076 43.71 25.8624 43.6647C25.8171 43.6194 25.7588 43.5968 25.6876 43.5968H23.3097C23.245 43.5968 23.19 43.6194 23.1447 43.6647C23.0994 43.71 23.0768 43.7683 23.0768 43.8394V44.4606C23.0768 44.5253 23.0994 44.5835 23.1447 44.6353C23.19 44.6806 23.245 44.7033 23.3097 44.7033H24.3676V44.9459C24.3676 45.2565 24.3062 45.5121 24.1832 45.7127C24.0603 45.9132 23.8921 46.0621 23.6785 46.1591C23.4715 46.2497 23.2353 46.295 22.97 46.295C22.5624 46.295 22.2356 46.185 21.9897 45.965C21.7503 45.745 21.6209 45.3827 21.6015 44.878C21.5821 44.3021 21.5821 43.7359 21.6015 43.1794C21.6209 42.6941 21.7471 42.3447 21.98 42.1312C22.2194 41.9177 22.5429 41.8109 22.9506 41.8109C23.2224 41.8109 23.4424 41.853 23.6106 41.9371C23.7788 42.0212 23.9115 42.1247 24.0085 42.2477C24.1121 42.3641 24.1865 42.4806 24.2318 42.5971C24.2576 42.6488 24.2868 42.6877 24.3191 42.7135C24.3579 42.7394 24.4097 42.7524 24.4744 42.7524H25.6779C25.7426 42.7524 25.7944 42.733 25.8332 42.6941C25.8721 42.6488 25.8915 42.5971 25.8915 42.5388C25.885 42.3253 25.8171 42.1021 25.6876 41.8691C25.5582 41.6362 25.3706 41.4227 25.1247 41.2285C24.8788 41.028 24.5747 40.8662 24.2124 40.7433C23.85 40.6203 23.4294 40.5588 22.9506 40.5588C22.3553 40.5588 21.8376 40.6624 21.3976 40.8694C20.9641 41.07 20.6276 41.3612 20.3882 41.743C20.1553 42.1247 20.0291 42.5874 20.0097 43.1309C20.0032 43.4156 20 43.7165 20 44.0335C20 44.3506 20.0032 44.6483 20.0097 44.9265C20.0291 45.483 20.1553 45.9585 20.3882 46.3533C20.6276 46.7415 20.9609 47.0391 21.3879 47.2462ZM29.2202 47.3821C29.2655 47.4274 29.3237 47.45 29.3949 47.45H30.4529C30.524 47.45 30.5823 47.4274 30.6276 47.3821C30.6729 47.3368 30.6955 47.2785 30.6955 47.2074V44.9653H31.8699L33.054 47.188C33.0799 47.2397 33.122 47.298 33.1802 47.3627C33.2384 47.4209 33.3258 47.45 33.4423 47.45H34.5196C34.5779 47.45 34.6264 47.4306 34.6652 47.3918C34.704 47.3465 34.7234 47.298 34.7234 47.2462C34.7234 47.2138 34.7137 47.1782 34.6943 47.1394L33.3258 44.713C33.7076 44.5577 34.0117 44.3215 34.2381 44.0044C34.4646 43.6874 34.5779 43.2927 34.5779 42.8203C34.5779 42.1215 34.3449 41.5877 33.879 41.2188C33.4131 40.8435 32.7758 40.6559 31.967 40.6559H29.3949C29.3237 40.6559 29.2655 40.6785 29.2202 40.7238C29.1749 40.7691 29.1523 40.8274 29.1523 40.8985V47.2074C29.1523 47.2785 29.1749 47.3368 29.2202 47.3821ZM31.9379 43.7327H30.6955V41.8691H31.9379C32.3002 41.8691 32.5655 41.9533 32.7337 42.1215C32.902 42.2897 32.9861 42.5194 32.9861 42.8106C32.9861 43.1018 32.8987 43.3283 32.724 43.49C32.5558 43.6518 32.2937 43.7327 31.9379 43.7327ZM40.4762 47.5471C39.8874 47.5471 39.3795 47.45 38.9524 47.2559C38.5253 47.0618 38.1921 46.7706 37.9527 46.3824C37.7133 45.9877 37.5839 45.4927 37.5645 44.8974C37.558 44.6191 37.5548 44.3441 37.5548 44.0724C37.5548 43.7941 37.558 43.5127 37.5645 43.228C37.5839 42.6456 37.7133 42.1571 37.9527 41.7624C38.1986 41.3612 38.535 41.0603 38.9621 40.8597C39.3956 40.6591 39.9003 40.5588 40.4762 40.5588C41.0456 40.5588 41.5439 40.6591 41.9709 40.8597C42.4045 41.0603 42.7442 41.3612 42.99 41.7624C43.2359 42.1571 43.3653 42.6456 43.3783 43.228C43.3912 43.5127 43.3977 43.7941 43.3977 44.0724C43.3977 44.3441 43.3912 44.6191 43.3783 44.8974C43.3589 45.4927 43.2295 45.9877 42.99 46.3824C42.7506 46.7706 42.4174 47.0618 41.9903 47.2559C41.5633 47.45 41.0586 47.5471 40.4762 47.5471ZM40.4762 46.295C40.8515 46.295 41.1589 46.1818 41.3983 45.9553C41.6442 45.7224 41.7736 45.3535 41.7865 44.8488C41.7995 44.5641 41.8059 44.2988 41.8059 44.053C41.8059 43.8006 41.7995 43.5353 41.7865 43.2571C41.78 42.9206 41.7186 42.6456 41.6021 42.4321C41.4856 42.2185 41.3303 42.0633 41.1362 41.9662C40.9486 41.8627 40.7286 41.8109 40.4762 41.8109C40.2239 41.8109 40.0006 41.8627 39.8065 41.9662C39.6124 42.0633 39.4571 42.2185 39.3406 42.4321C39.2306 42.6456 39.1692 42.9206 39.1562 43.2571C39.1497 43.5353 39.1465 43.8006 39.1465 44.053C39.1465 44.2988 39.1497 44.5641 39.1562 44.8488C39.1756 45.3535 39.305 45.7224 39.5445 45.9553C39.7839 46.1818 40.0945 46.295 40.4762 46.295ZM47.8151 47.2559C48.2421 47.45 48.7501 47.5471 49.3389 47.5471C49.9213 47.5471 50.426 47.45 50.853 47.2559C51.2801 47.0618 51.6133 46.7706 51.8527 46.3824C52.0921 45.9877 52.2215 45.4927 52.241 44.8974C52.2539 44.6191 52.2604 44.3441 52.2604 44.0724C52.2604 43.7941 52.2539 43.5127 52.241 43.228C52.228 42.6456 52.0986 42.1571 51.8527 41.7624C51.6068 41.3612 51.2671 41.0603 50.8336 40.8597C50.4065 40.6591 49.9083 40.5588 49.3389 40.5588C48.763 40.5588 48.2583 40.6591 47.8248 40.8597C47.3977 41.0603 47.0613 41.3612 46.8154 41.7624C46.576 42.1571 46.4465 42.6456 46.4271 43.228C46.4207 43.5127 46.4174 43.7941 46.4174 44.0724C46.4174 44.3441 46.4207 44.6191 46.4271 44.8974C46.4465 45.4927 46.576 45.9877 46.8154 46.3824C47.0548 46.7706 47.388 47.0618 47.8151 47.2559ZM50.261 45.9553C50.0215 46.1818 49.7142 46.295 49.3389 46.295C48.9571 46.295 48.6465 46.1818 48.4071 45.9553C48.1677 45.7224 48.0383 45.3535 48.0189 44.8488C48.0124 44.5641 48.0092 44.2988 48.0092 44.053C48.0092 43.8006 48.0124 43.5353 48.0189 43.2571C48.0318 42.9206 48.0933 42.6456 48.2033 42.4321C48.3198 42.2185 48.4751 42.0633 48.6692 41.9662C48.8633 41.8627 49.0865 41.8109 49.3389 41.8109C49.5913 41.8109 49.8113 41.8627 49.9989 41.9662C50.193 42.0633 50.3483 42.2185 50.4648 42.4321C50.5813 42.6456 50.6427 42.9206 50.6492 43.2571C50.6621 43.5353 50.6686 43.8006 50.6686 44.053C50.6686 44.2988 50.6621 44.5641 50.6492 44.8488C50.6363 45.3535 50.5068 45.7224 50.261 45.9553ZM57.2649 47.45C57.1614 47.45 57.0772 47.4241 57.0125 47.3724C56.9543 47.3141 56.9122 47.2462 56.8864 47.1685L54.8481 40.9471C54.8417 40.9147 54.8384 40.8856 54.8384 40.8597C54.8384 40.808 54.8578 40.7627 54.8967 40.7238C54.9355 40.6785 54.984 40.6559 55.0422 40.6559H56.0614C56.1584 40.6559 56.2328 40.685 56.2846 40.7433C56.3428 40.795 56.3784 40.8435 56.3914 40.8888L57.9055 45.635L59.4099 40.8888C59.4293 40.8435 59.4649 40.795 59.5167 40.7433C59.5684 40.685 59.6428 40.6559 59.7399 40.6559H60.759C60.8172 40.6559 60.8658 40.6785 60.9046 40.7238C60.9434 40.7627 60.9628 40.808 60.9628 40.8597C60.9628 40.8856 60.9596 40.9147 60.9531 40.9471L58.9149 47.1685C58.8955 47.2462 58.8534 47.3141 58.7887 47.3724C58.7305 47.4241 58.6464 47.45 58.5364 47.45H57.2649ZM64.0359 47.3821C64.0812 47.4274 64.1394 47.45 64.2106 47.45H68.685C68.7562 47.45 68.8144 47.4274 68.8597 47.3821C68.905 47.3368 68.9276 47.2785 68.9276 47.2074V46.4406C68.9276 46.3694 68.905 46.3112 68.8597 46.2659C68.8144 46.2206 68.7562 46.198 68.685 46.198H65.4626V44.6256H68.3938C68.465 44.6256 68.5232 44.603 68.5685 44.5577C68.6138 44.5124 68.6365 44.4574 68.6365 44.3927V43.6744C68.6365 43.6033 68.6138 43.545 68.5685 43.4997C68.5232 43.4544 68.465 43.4318 68.3938 43.4318H65.4626V41.908H68.6073C68.6785 41.908 68.7368 41.8853 68.7821 41.84C68.8273 41.7947 68.85 41.7397 68.85 41.675V40.8985C68.85 40.8274 68.8273 40.7691 68.7821 40.7238C68.7368 40.6785 68.6785 40.6559 68.6073 40.6559H64.2106C64.1394 40.6559 64.0812 40.6785 64.0359 40.7238C63.9906 40.7691 63.9679 40.8274 63.9679 40.8985V47.2074C63.9679 47.2785 63.9906 47.3368 64.0359 47.3821Z" fill="black"/>
<path d="M95.9804 88C95.9204 88 95.8694 87.979 95.8274 87.937C95.7854 87.895 95.7644 87.844 95.7644 87.784V81.925C95.7644 81.859 95.7854 81.805 95.8274 81.763C95.8694 81.721 95.9204 81.7 95.9804 81.7H99.9404C100.006 81.7 100.06 81.721 100.102 81.763C100.144 81.805 100.165 81.859 100.165 81.925V82.519C100.165 82.579 100.144 82.63 100.102 82.672C100.06 82.714 100.006 82.735 99.9404 82.735H96.9794V84.328H99.7424C99.8084 84.328 99.8624 84.349 99.9044 84.391C99.9464 84.427 99.9674 84.478 99.9674 84.544V85.102C99.9674 85.168 99.9464 85.222 99.9044 85.264C99.8624 85.3 99.8084 85.318 99.7424 85.318H96.9794V86.965H100.012C100.078 86.965 100.132 86.986 100.174 87.028C100.216 87.07 100.237 87.124 100.237 87.19V87.784C100.237 87.844 100.216 87.895 100.174 87.937C100.132 87.979 100.078 88 100.012 88H95.9804Z" fill="black"/>
<path d="M87.6595 88C87.5935 88 87.5394 87.979 87.4974 87.937C87.4554 87.895 87.4344 87.844 87.4344 87.784V81.925C87.4344 81.859 87.4554 81.805 87.4974 81.763C87.5394 81.721 87.5935 81.7 87.6595 81.7H88.3704C88.4544 81.7 88.5174 81.724 88.5594 81.772C88.6014 81.814 88.6284 81.847 88.6404 81.871L90.3774 85.111L92.1325 81.871C92.1445 81.847 92.1714 81.814 92.2134 81.772C92.2554 81.724 92.3185 81.7 92.4025 81.7H93.1045C93.1705 81.7 93.2244 81.721 93.2664 81.763C93.3084 81.805 93.3294 81.859 93.3294 81.925V87.784C93.3294 87.844 93.3084 87.895 93.2664 87.937C93.2244 87.979 93.1705 88 93.1045 88H92.3484C92.2824 88 92.2284 87.979 92.1864 87.937C92.1504 87.895 92.1325 87.844 92.1325 87.784V83.887L90.8724 86.29C90.8424 86.344 90.8034 86.392 90.7554 86.434C90.7074 86.47 90.6444 86.488 90.5664 86.488H90.1974C90.1134 86.488 90.0474 86.47 89.9994 86.434C89.9574 86.392 89.9214 86.344 89.8914 86.29L88.6314 83.887V87.784C88.6314 87.844 88.6104 87.895 88.5684 87.937C88.5264 87.979 88.4754 88 88.4154 88H87.6595Z" fill="black"/>
<path d="M79.7722 88C79.7242 88 79.6792 87.982 79.6372 87.946C79.6012 87.91 79.5832 87.865 79.5832 87.811C79.5832 87.787 79.5892 87.76 79.6012 87.73L81.7702 81.925C81.7882 81.865 81.8212 81.814 81.8692 81.772C81.9232 81.724 81.9952 81.7 82.0852 81.7H83.0662C83.1562 81.7 83.2252 81.724 83.2732 81.772C83.3212 81.814 83.3572 81.865 83.3812 81.925L85.5502 87.73C85.5562 87.76 85.5592 87.787 85.5592 87.811C85.5592 87.865 85.5412 87.91 85.5052 87.946C85.4692 87.982 85.4272 88 85.3792 88H84.5962C84.5122 88 84.4492 87.982 84.4072 87.946C84.3712 87.904 84.3472 87.865 84.3352 87.829L83.9122 86.731H81.2392L80.8162 87.829C80.8042 87.865 80.7772 87.904 80.7352 87.946C80.6992 87.982 80.6392 88 80.5552 88H79.7722ZM81.5542 85.696H83.5972L82.5712 82.915L81.5542 85.696Z" fill="black"/>
<path d="M72.9769 88C72.9169 88 72.8659 87.979 72.8239 87.937C72.7819 87.895 72.7609 87.844 72.7609 87.784V81.925C72.7609 81.859 72.7819 81.805 72.8239 81.763C72.8659 81.721 72.9169 81.7 72.9769 81.7H73.6699C73.7539 81.7 73.8139 81.721 73.8499 81.763C73.8919 81.799 73.9189 81.826 73.9309 81.844L76.5229 85.876V81.925C76.5229 81.859 76.5409 81.805 76.5769 81.763C76.6189 81.721 76.6729 81.7 76.7389 81.7H77.4949C77.5609 81.7 77.6149 81.721 77.6569 81.763C77.6989 81.805 77.7199 81.859 77.7199 81.925V87.775C77.7199 87.841 77.6989 87.895 77.6569 87.937C77.6149 87.979 77.5639 88 77.5039 88H76.8019C76.7179 88 76.6579 87.979 76.6219 87.937C76.5859 87.895 76.5589 87.868 76.5409 87.856L73.9579 83.914V87.784C73.9579 87.844 73.9369 87.895 73.8949 87.937C73.8529 87.979 73.7989 88 73.7329 88H72.9769Z" fill="black"/>
<path d="M62.361 88C62.301 88 62.247 87.979 62.199 87.937C62.151 87.889 62.127 87.832 62.127 87.766V81.934C62.127 81.868 62.151 81.814 62.199 81.772C62.247 81.724 62.301 81.7 62.361 81.7H64.926C65.742 81.7 66.381 81.886 66.843 82.258C67.311 82.63 67.545 83.149 67.545 83.815C67.545 84.235 67.449 84.592 67.257 84.886C67.065 85.18 66.813 85.411 66.501 85.579L67.671 87.703C67.689 87.739 67.698 87.772 67.698 87.802C67.698 87.856 67.68 87.904 67.644 87.946C67.608 87.982 67.563 88 67.509 88H65.988C65.874 88 65.787 87.973 65.727 87.919C65.667 87.859 65.628 87.805 65.61 87.757L64.71 85.903H64.062V87.766C64.062 87.832 64.038 87.889 63.99 87.937C63.948 87.979 63.894 88 63.828 88H62.361ZM64.062 84.418H64.917C65.127 84.418 65.283 84.361 65.385 84.247C65.487 84.127 65.538 83.98 65.538 83.806C65.538 83.626 65.487 83.473 65.385 83.347C65.289 83.221 65.133 83.158 64.917 83.158H64.062V84.418Z" fill="black"/>
<path d="M57.228 88.09C56.67 88.09 56.178 88.003 55.752 87.829C55.332 87.655 55.002 87.385 54.762 87.019C54.528 86.647 54.411 86.179 54.411 85.615V81.934C54.411 81.868 54.435 81.814 54.483 81.772C54.531 81.724 54.585 81.7 54.645 81.7H56.112C56.178 81.7 56.232 81.724 56.274 81.772C56.322 81.814 56.346 81.868 56.346 81.934V85.588C56.346 85.894 56.421 86.125 56.571 86.281C56.721 86.437 56.937 86.515 57.219 86.515C57.501 86.515 57.714 86.437 57.858 86.281C58.008 86.125 58.083 85.894 58.083 85.588V81.934C58.083 81.868 58.107 81.814 58.155 81.772C58.203 81.724 58.26 81.7 58.326 81.7H59.784C59.85 81.7 59.904 81.724 59.946 81.772C59.994 81.814 60.018 81.868 60.018 81.934V85.615C60.018 86.179 59.901 86.647 59.667 87.019C59.433 87.385 59.106 87.655 58.686 87.829C58.266 88.003 57.78 88.09 57.228 88.09Z" fill="black"/>
<path d="M49.609 88.09C49.033 88.09 48.532 88 48.106 87.82C47.686 87.64 47.353 87.37 47.107 87.01C46.867 86.644 46.738 86.191 46.72 85.651C46.714 85.399 46.711 85.141 46.711 84.877C46.711 84.607 46.714 84.34 46.72 84.076C46.738 83.542 46.867 83.092 47.107 82.726C47.353 82.36 47.689 82.084 48.115 81.898C48.541 81.706 49.039 81.61 49.609 81.61C50.173 81.61 50.668 81.706 51.094 81.898C51.52 82.084 51.856 82.36 52.102 82.726C52.348 83.092 52.477 83.542 52.489 84.076C52.501 84.34 52.507 84.607 52.507 84.877C52.507 85.141 52.501 85.399 52.489 85.651C52.471 86.191 52.339 86.644 52.093 87.01C51.853 87.37 51.52 87.64 51.094 87.82C50.674 88 50.179 88.09 49.609 88.09ZM49.609 86.56C49.861 86.56 50.068 86.485 50.23 86.335C50.392 86.179 50.476 85.933 50.482 85.597C50.494 85.339 50.5 85.09 50.5 84.85C50.5 84.604 50.494 84.355 50.482 84.103C50.476 83.881 50.434 83.698 50.356 83.554C50.284 83.41 50.182 83.305 50.05 83.239C49.924 83.173 49.777 83.14 49.609 83.14C49.441 83.14 49.291 83.173 49.159 83.239C49.027 83.305 48.922 83.41 48.844 83.554C48.772 83.698 48.733 83.881 48.727 84.103C48.721 84.355 48.718 84.604 48.718 84.85C48.718 85.09 48.721 85.339 48.727 85.597C48.739 85.933 48.823 86.179 48.979 86.335C49.141 86.485 49.351 86.56 49.609 86.56Z" fill="black"/>
<path d="M41.733 88C41.667 88 41.61 87.979 41.562 87.937C41.52 87.889 41.499 87.832 41.499 87.766V85.912L39.447 81.979C39.441 81.967 39.435 81.955 39.429 81.943C39.423 81.925 39.42 81.91 39.42 81.898C39.42 81.844 39.438 81.799 39.474 81.763C39.516 81.721 39.564 81.7 39.618 81.7H41.022C41.13 81.7 41.211 81.727 41.265 81.781C41.319 81.835 41.355 81.877 41.373 81.907L42.471 83.977L43.569 81.907C43.581 81.877 43.614 81.835 43.668 81.781C43.722 81.727 43.803 81.7 43.911 81.7H45.324C45.372 81.7 45.414 81.721 45.45 81.763C45.492 81.799 45.513 81.844 45.513 81.898C45.513 81.91 45.51 81.925 45.504 81.943C45.504 81.955 45.501 81.967 45.495 81.979L43.434 85.912V87.766C43.434 87.832 43.41 87.889 43.362 87.937C43.32 87.979 43.266 88 43.2 88H41.733Z" fill="black"/>
<path d="M68.2752 69.11C67.7399 69.11 67.2706 69.022 66.8672 68.846C66.4639 68.6627 66.1522 68.406 65.9322 68.076C65.7122 67.7387 65.6022 67.3463 65.6022 66.899C65.6022 66.5763 65.6682 66.2903 65.8002 66.041C65.9322 65.7843 66.1119 65.557 66.3392 65.359C66.5739 65.1537 66.8342 64.9667 67.1202 64.798C66.8049 64.468 66.5812 64.1673 66.4492 63.896C66.3172 63.6247 66.2512 63.3497 66.2512 63.071C66.2512 62.7337 66.3392 62.4257 66.5152 62.147C66.6912 61.861 66.9442 61.63 67.2742 61.454C67.6042 61.278 68.0076 61.19 68.4842 61.19C68.9316 61.19 69.3129 61.2743 69.6282 61.443C69.9509 61.6117 70.2002 61.839 70.3762 62.125C70.5522 62.4037 70.6402 62.7117 70.6402 63.049C70.6402 63.357 70.5669 63.632 70.4202 63.874C70.2809 64.1087 70.0902 64.3213 69.8482 64.512C69.6062 64.7027 69.3349 64.8823 69.0342 65.051L70.6182 66.624C70.7062 66.4773 70.8052 66.2867 70.9152 66.052C71.0252 65.81 71.1206 65.513 71.2012 65.161C71.2232 65.0363 71.3002 64.974 71.4322 64.974H72.2352C72.3012 64.974 72.3526 64.996 72.3892 65.04C72.4332 65.0767 72.4552 65.128 72.4552 65.194C72.4479 65.348 72.4149 65.5167 72.3562 65.7C72.3049 65.8833 72.2316 66.0777 72.1362 66.283C72.0482 66.4883 71.9456 66.69 71.8282 66.888C71.7109 67.086 71.5862 67.273 71.4542 67.449L72.6202 68.637C72.6789 68.6883 72.7082 68.7433 72.7082 68.802C72.7082 68.8607 72.6899 68.9083 72.6532 68.945C72.6166 68.9817 72.5652 69 72.4992 69H71.4432C71.3699 69 71.3112 68.989 71.2672 68.967C71.2232 68.945 71.1829 68.9193 71.1462 68.89L70.5412 68.296C70.2479 68.5527 69.9142 68.7543 69.5402 68.901C69.1736 69.0403 68.7519 69.11 68.2752 69.11ZM68.2752 67.977C68.5319 67.977 68.7812 67.9293 69.0232 67.834C69.2652 67.7387 69.4889 67.5957 69.6942 67.405L67.9342 65.667C67.6776 65.8063 67.4539 65.9713 67.2632 66.162C67.0799 66.3527 66.9882 66.5837 66.9882 66.855C66.9882 67.0897 67.0469 67.2913 67.1642 67.46C67.2889 67.6213 67.4502 67.7497 67.6482 67.845C67.8462 67.933 68.0552 67.977 68.2752 67.977ZM68.2642 64.237C68.4622 64.127 68.6456 64.017 68.8142 63.907C68.9829 63.797 69.1149 63.676 69.2102 63.544C69.3129 63.4047 69.3642 63.2507 69.3642 63.082C69.3642 62.8327 69.2799 62.6347 69.1112 62.488C68.9426 62.3413 68.7299 62.268 68.4732 62.268C68.2386 62.268 68.0296 62.3413 67.8462 62.488C67.6702 62.6273 67.5822 62.8253 67.5822 63.082C67.5822 63.192 67.6006 63.302 67.6372 63.412C67.6812 63.522 67.7509 63.643 67.8462 63.775C67.9489 63.8997 68.0882 64.0537 68.2642 64.237Z" fill="black"/>
</svg>
