<svg width="390" height="844" viewBox="0 0 390 844" fill="none" xmlns="http://www.w3.org/2000/svg">
<rect width="390" height="844" fill="#F3F2EE"/>
<path opacity="0.5" d="M176.742 164.1L175.928 164.681L175.976 164.749L176.035 164.807L176.742 164.1ZM176.592 159.75L175.78 159.167L175.77 159.181L175.76 159.195L176.592 159.75ZM199.542 127.8L200.354 128.383L201.945 126.168L199.299 126.83L199.542 127.8ZM191.442 128.7L191.428 129.7H191.442V128.7ZM172.542 123.75L172.032 124.61L172.039 124.614L172.542 123.75ZM159.942 76.95L159.057 76.4836L159.054 76.4897L159.942 76.95ZM172.842 63.6L172.33 62.7412L172.33 62.7412L172.842 63.6ZM214.242 63.45L213.741 64.3154L213.747 64.3192L214.242 63.45ZM227.292 76.5L228.173 76.0269L228.173 76.0269L227.292 76.5ZM228.792 108.15L229.699 108.57L229.703 108.562L228.792 108.15ZM220.842 121.65L221.655 122.233L221.659 122.227L221.664 122.22L220.842 121.65ZM191.892 162L192.681 162.614L192.693 162.599L192.705 162.583L191.892 162ZM189.792 164.25L190.432 165.018L190.443 165.009L189.792 164.25ZM205.092 113.85L205.549 114.739L205.559 114.734L205.092 113.85ZM213.642 105.9L214.493 106.426L214.499 106.414L213.642 105.9ZM213.642 82.05L212.784 82.5645L212.791 82.5755L213.642 82.05ZM205.092 74.1L204.615 74.9789L204.63 74.9869L204.645 74.9944L205.092 74.1ZM181.992 74.1L182.449 74.9893L182.459 74.9842L182.469 74.9789L181.992 74.1ZM173.592 82.05L172.734 81.5355L172.73 81.543L173.592 82.05ZM173.592 105.9L172.724 106.396L172.732 106.411L172.741 106.425L173.592 105.9ZM181.992 113.85L181.515 114.729L181.525 114.734L181.535 114.739L181.992 113.85ZM178.992 164C178.339 164 177.849 163.793 177.449 163.393L176.035 164.807C176.835 165.607 177.845 166 178.992 166V164ZM177.556 163.519C177.183 162.997 176.992 162.402 176.992 161.7H174.992C174.992 162.798 175.301 163.803 175.928 164.681L177.556 163.519ZM176.992 161.7C176.992 161.204 177.13 160.746 177.424 160.305L175.76 159.195C175.254 159.954 174.992 160.796 174.992 161.7H176.992ZM177.404 160.333L200.354 128.383L198.73 127.217L175.78 159.167L177.404 160.333ZM199.299 126.83C196.993 127.406 194.377 127.7 191.442 127.7V129.7C194.507 129.7 197.291 129.394 199.785 128.77L199.299 126.83ZM191.456 127.7C184.508 127.602 178.38 125.99 173.045 122.886L172.039 124.614C177.704 127.91 184.176 129.598 191.428 129.7L191.456 127.7ZM173.052 122.89C167.8 119.777 163.78 115.656 160.969 110.52L159.215 111.48C162.204 116.944 166.484 121.323 172.032 124.61L173.052 122.89ZM160.969 110.52C158.149 105.366 156.742 99.881 156.742 94.05H154.742C154.742 100.219 156.235 106.034 159.215 111.48L160.969 110.52ZM156.742 94.05C156.742 88.2125 158.102 82.6701 160.83 77.4103L159.054 76.4897C156.182 82.0299 154.742 87.8875 154.742 94.05H156.742ZM160.827 77.4164C163.635 72.09 167.801 67.7713 173.354 64.4588L172.33 62.7412C166.483 66.2287 162.049 70.81 159.057 76.4836L160.827 77.4164ZM173.354 64.4588C178.868 61.1696 185.583 59.5 193.542 59.5V57.5C185.301 57.5 178.215 59.2304 172.33 62.7412L173.354 64.4588ZM193.542 59.5C201.506 59.5 208.225 61.1217 213.741 64.3154L214.743 62.5846C208.859 59.1783 201.778 57.5 193.542 57.5V59.5ZM213.747 64.3192C219.399 67.5347 223.608 71.7535 226.411 76.9731L228.173 76.0269C225.176 70.4465 220.685 65.9653 214.737 62.5808L213.747 64.3192ZM226.411 76.9731C229.233 82.2284 230.642 87.8159 230.642 93.75H232.642C232.642 87.4841 231.151 81.5716 228.173 76.0269L226.411 76.9731ZM230.642 93.75C230.642 99.032 229.713 103.688 227.881 107.738L229.703 108.562C231.671 104.212 232.642 99.268 232.642 93.75H230.642ZM227.885 107.73C226.015 111.764 223.397 116.213 220.02 121.08L221.664 122.22C225.087 117.287 227.769 112.736 229.699 108.57L227.885 107.73ZM220.029 121.067L191.079 161.417L192.705 162.583L221.655 122.233L220.029 121.067ZM191.103 161.386C190.435 162.245 189.78 162.943 189.141 163.491L190.443 165.009C191.204 164.357 191.949 163.555 192.681 162.614L191.103 161.386ZM189.152 163.482C188.806 163.77 188.178 164 187.092 164V166C188.406 166 189.578 165.73 190.432 165.018L189.152 163.482ZM187.092 164H178.992V166H187.092V164ZM193.542 117.55C197.89 117.55 201.898 116.617 205.549 114.739L204.635 112.961C201.286 114.683 197.594 115.55 193.542 115.55V117.55ZM205.559 114.734C209.313 112.753 212.297 109.98 214.493 106.425L212.791 105.375C210.787 108.62 208.071 111.147 204.625 112.966L205.559 114.734ZM214.499 106.414C216.702 102.743 217.792 98.5621 217.792 93.9H215.792C215.792 98.2379 214.782 102.057 212.785 105.386L214.499 106.414ZM217.792 93.9C217.792 89.2384 216.702 85.1017 214.493 81.5245L212.791 82.5755C214.782 85.7983 215.792 89.5616 215.792 93.9H217.792ZM214.499 81.5355C212.303 77.8749 209.312 75.0919 205.539 73.2056L204.645 74.9944C208.072 76.7081 210.781 79.2251 212.785 82.5645L214.499 81.5355ZM205.569 73.2211C201.915 71.2373 197.899 70.25 193.542 70.25V72.25C197.585 72.25 201.269 73.1627 204.615 74.9789L205.569 73.2211ZM193.542 70.25C189.185 70.25 185.169 71.2373 181.515 73.2211L182.469 74.9789C185.815 73.1627 189.499 72.25 193.542 72.25V70.25ZM181.535 73.2107C177.863 75.0992 174.927 77.882 172.735 81.5355L174.449 82.5645C176.457 79.218 179.121 76.7008 182.449 74.9893L181.535 73.2107ZM172.73 81.543C170.628 85.1173 169.592 89.2473 169.592 93.9H171.592C171.592 89.5527 172.556 85.7827 174.454 82.557L172.73 81.543ZM169.592 93.9C169.592 98.5533 170.628 102.728 172.724 106.396L174.46 105.404C172.556 102.072 171.592 98.2467 171.592 93.9H169.592ZM172.741 106.425C174.932 109.973 177.861 112.745 181.515 114.729L182.469 112.971C179.123 111.155 176.451 108.627 174.443 105.375L172.741 106.425ZM181.535 114.739C185.186 116.617 189.194 117.55 193.542 117.55V115.55C189.49 115.55 185.798 114.683 182.449 112.961L181.535 114.739Z" fill="black"/>
<g clip-path="url(#clip0_77_475)">
<path d="M155.596 794.227C156.813 794.019 158.061 794.088 159.248 794.427C160.435 794.766 161.531 795.367 162.455 796.186L162.505 796.231L162.552 796.19C163.434 795.417 164.47 794.84 165.593 794.498C166.715 794.157 167.897 794.059 169.06 794.21L169.398 794.26C170.865 794.513 172.235 795.158 173.365 796.126C174.494 797.095 175.341 798.351 175.815 799.761C176.289 801.171 176.373 802.683 176.057 804.138C175.742 805.592 175.039 806.933 174.024 808.021L173.776 808.275L173.71 808.331L163.467 818.478C163.23 818.712 162.917 818.852 162.585 818.873C162.253 818.893 161.925 818.793 161.661 818.59L161.532 818.478L151.229 808.272C150.138 807.21 149.361 805.867 148.986 804.391C148.611 802.915 148.652 801.364 149.104 799.91C149.556 798.456 150.402 797.155 151.548 796.152C152.694 795.149 154.095 794.483 155.596 794.227Z" stroke="black" stroke-width="2" stroke-linecap="round" stroke-linejoin="round"/>
</g>
<g clip-path="url(#clip1_77_475)">
<path d="M188.596 794.227C189.813 794.019 191.061 794.088 192.248 794.427C193.435 794.766 194.531 795.367 195.455 796.186L195.505 796.231L195.552 796.19C196.434 795.417 197.47 794.84 198.593 794.498C199.715 794.157 200.897 794.059 202.06 794.21L202.398 794.26C203.865 794.513 205.235 795.158 206.365 796.126C207.494 797.095 208.341 798.351 208.815 799.761C209.289 801.171 209.373 802.683 209.057 804.138C208.742 805.592 208.039 806.933 207.024 808.021L206.776 808.275L206.71 808.331L196.467 818.478C196.23 818.712 195.917 818.852 195.585 818.873C195.253 818.893 194.925 818.793 194.661 818.59L194.532 818.478L184.229 808.272C183.138 807.21 182.361 805.867 181.986 804.391C181.611 802.915 181.652 801.364 182.104 799.91C182.556 798.456 183.402 797.155 184.548 796.152C185.694 795.149 187.095 794.483 188.596 794.227Z" stroke="black" stroke-width="2" stroke-linecap="round" stroke-linejoin="round"/>
</g>
<g clip-path="url(#clip2_77_475)">
<path d="M221.596 794.227C222.813 794.019 224.061 794.088 225.248 794.427C226.435 794.766 227.531 795.367 228.455 796.186L228.505 796.231L228.552 796.19C229.434 795.417 230.47 794.84 231.593 794.498C232.715 794.157 233.897 794.059 235.06 794.21L235.398 794.26C236.865 794.513 238.235 795.158 239.365 796.126C240.494 797.095 241.341 798.351 241.815 799.761C242.289 801.171 242.373 802.683 242.057 804.138C241.742 805.592 241.039 806.933 240.024 808.021L239.776 808.275L239.71 808.331L229.467 818.478C229.23 818.712 228.917 818.852 228.585 818.873C228.253 818.893 227.925 818.793 227.661 818.59L227.532 818.478L217.229 808.272C216.138 807.21 215.361 805.867 214.986 804.391C214.611 802.915 214.652 801.364 215.104 799.91C215.556 798.456 216.402 797.155 217.548 796.152C218.694 795.149 220.095 794.483 221.596 794.227Z" stroke="black" stroke-width="2" stroke-linecap="round" stroke-linejoin="round"/>
</g>
<g opacity="0.1">
<rect x="57.5" y="247.5" width="65" height="65" rx="4.5" fill="black" stroke="black"/>
<g clip-path="url(#clip3_77_475)">
<path d="M90 266.667C97.3634 266.667 103.333 272.263 103.333 279.167C103.333 282.335 102.075 285.228 100 287.433V291.667C100 292.109 99.8244 292.533 99.5119 292.845C99.1993 293.158 98.7754 293.333 98.3334 293.333H81.6667C81.2247 293.333 80.8007 293.158 80.4882 292.845C80.1756 292.533 80 292.109 80 291.667V287.433C77.925 285.23 76.6667 282.337 76.6667 279.167C76.6667 272.263 82.6367 266.667 90 266.667Z" fill="#F3F2EE" stroke="black" stroke-width="2.75" stroke-linecap="round" stroke-linejoin="round"/>
<path d="M86.6667 288.333V293.333" stroke="black" stroke-width="2.75" stroke-linecap="round" stroke-linejoin="round"/>
<path d="M93.3333 288.333V293.333" stroke="black" stroke-width="2.75" stroke-linecap="round" stroke-linejoin="round"/>
<path d="M83.3333 278.333C83.3333 278.775 83.5089 279.199 83.8215 279.512C84.134 279.824 84.558 280 85 280C85.442 280 85.8659 279.824 86.1785 279.512C86.4911 279.199 86.6666 278.775 86.6666 278.333C86.6666 277.891 86.4911 277.467 86.1785 277.155C85.8659 276.842 85.442 276.667 85 276.667C84.558 276.667 84.134 276.842 83.8215 277.155C83.5089 277.467 83.3333 277.891 83.3333 278.333Z" fill="black"/>
<path d="M93.3333 278.333C93.3333 278.775 93.5089 279.199 93.8215 279.512C94.134 279.824 94.558 280 95 280C95.442 280 95.8659 279.824 96.1785 279.512C96.4911 279.199 96.6666 278.775 96.6666 278.333C96.6666 277.891 96.4911 277.467 96.1785 277.155C95.8659 276.842 95.442 276.667 95 276.667C94.558 276.667 94.134 276.842 93.8215 277.155C93.5089 277.467 93.3333 277.891 93.3333 278.333Z" fill="black"/>
</g>
<rect x="127" y="247" width="66" height="66" rx="5" fill="black"/>
<circle cx="160" cy="280" r="9" fill="#F3F2EE"/>
<rect x="197" y="247" width="66" height="66" rx="5" fill="black"/>
<circle cx="230" cy="280" r="9" fill="#F3F2EE"/>
<rect x="267" y="247" width="66" height="66" rx="5" fill="black"/>
<circle cx="300" cy="280" r="9" fill="#F3F2EE"/>
<rect x="57" y="318" width="66" height="66" rx="5" fill="black"/>
<circle cx="90" cy="351" r="9" fill="#F3F2EE"/>
<rect x="127" y="318" width="66" height="66" rx="5" fill="black"/>
<circle cx="160" cy="351" r="9" fill="#F3F2EE"/>
<rect x="197.5" y="318.5" width="65" height="65" rx="4.5" stroke="black"/>
<rect x="267.5" y="318.5" width="65" height="65" rx="4.5" stroke="black"/>
<rect x="57.5" y="389.5" width="65" height="65" rx="4.5" stroke="black"/>
<rect x="127" y="389" width="66" height="66" rx="5" fill="black"/>
<circle cx="160" cy="422" r="9" fill="#F3F2EE"/>
<rect x="197.5" y="389.5" width="65" height="65" rx="4.5" stroke="black"/>
<rect x="267.5" y="389.5" width="65" height="65" rx="4.5" fill="black" stroke="black"/>
<path d="M293.486 410.114C294.637 409.913 295.816 409.979 296.938 410.308C298.059 410.636 299.095 411.219 299.968 412.012L300.016 412.056L300.06 412.016C300.893 411.267 301.873 410.708 302.933 410.377C303.994 410.046 305.111 409.951 306.21 410.098L306.53 410.146C307.916 410.391 309.211 411.016 310.278 411.954C311.346 412.893 312.146 414.11 312.594 415.477C313.042 416.843 313.121 418.309 312.823 419.718C312.525 421.127 311.861 422.427 310.901 423.481L310.667 423.728L310.605 423.782L300.924 433.615C300.701 433.841 300.405 433.977 300.091 433.997C299.778 434.017 299.467 433.92 299.218 433.724L299.096 433.615L289.36 423.725C288.328 422.696 287.595 421.394 287.24 419.964C286.886 418.533 286.924 417.03 287.352 415.621C287.779 414.212 288.578 412.952 289.661 411.979C290.744 411.007 292.068 410.362 293.486 410.114Z" fill="#F3F2EE"/>
<rect x="57.5" y="460.5" width="65" height="65" rx="4.5" stroke="black"/>
<g clip-path="url(#clip4_77_475)">
<path d="M90 482.333C95.72 482.333 100.484 485.572 104.22 491.872L104.513 492.377L104.573 492.511L104.613 492.621L104.632 492.695L104.651 492.804L104.665 492.937V493.084L104.647 493.232C104.638 493.282 104.626 493.33 104.612 493.379L104.56 493.523L104.512 493.623L104.491 493.663C100.805 500.111 96.0906 503.503 90.4173 503.661L90 503.667C84.1386 503.667 79.284 500.268 75.5093 493.661C75.3943 493.46 75.3337 493.232 75.3337 493C75.3337 492.768 75.3943 492.54 75.5093 492.339C79.284 485.732 84.1386 482.333 90 482.333ZM90 489C88.9391 489 87.9217 489.421 87.1715 490.172C86.4214 490.922 86 491.939 86 493C86 494.061 86.4214 495.078 87.1715 495.828C87.9217 496.579 88.9391 497 90 497C91.0608 497 92.0783 496.579 92.8284 495.828C93.5786 495.078 94 494.061 94 493C94 491.939 93.5786 490.922 92.8284 490.172C92.0783 489.421 91.0608 489 90 489Z" fill="black"/>
</g>
<rect x="127.5" y="460.5" width="65" height="65" rx="4.5" stroke="black"/>
<g clip-path="url(#clip5_77_475)">
<path d="M160 482.333C165.72 482.333 170.484 485.572 174.22 491.872L174.513 492.377L174.573 492.511L174.613 492.621L174.632 492.695L174.651 492.804L174.665 492.937V493.084L174.647 493.232C174.638 493.282 174.626 493.33 174.612 493.379L174.56 493.523L174.512 493.623L174.491 493.663C170.805 500.111 166.091 503.503 160.417 503.661L160 503.667C154.139 503.667 149.284 500.268 145.509 493.661C145.394 493.46 145.334 493.232 145.334 493C145.334 492.768 145.394 492.54 145.509 492.339C149.284 485.732 154.139 482.333 160 482.333ZM160 489C158.939 489 157.922 489.421 157.172 490.172C156.421 490.922 156 491.939 156 493C156 494.061 156.421 495.078 157.172 495.828C157.922 496.579 158.939 497 160 497C161.061 497 162.078 496.579 162.828 495.828C163.579 495.078 164 494.061 164 493C164 491.939 163.579 490.922 162.828 490.172C162.078 489.421 161.061 489 160 489Z" fill="black"/>
</g>
<rect x="197.5" y="460.5" width="65" height="65" rx="4.5" stroke="black"/>
<rect x="267.5" y="460.5" width="65" height="65" rx="4.5" stroke="black"/>
<rect x="57.5" y="531.5" width="65" height="65" rx="4.5" stroke="black"/>
<rect x="127.5" y="531.5" width="65" height="65" rx="4.5" stroke="black"/>
<rect x="197.5" y="531.5" width="65" height="65" rx="4.5" stroke="black"/>
<rect x="267.5" y="531.5" width="65" height="65" rx="4.5" fill="black" stroke="black"/>
<path d="M313 564C309.533 569.778 305.2 572.667 300 572.667C294.8 572.667 290.467 569.778 287 564C290.467 558.222 294.8 555.333 300 555.333C305.2 555.333 309.533 558.222 313 564Z" fill="#F3F2EE"/>
<path d="M297.111 564C297.111 564.766 297.415 565.501 297.957 566.043C298.499 566.585 299.234 566.889 300 566.889C300.766 566.889 301.501 566.585 302.043 566.043C302.584 565.501 302.889 564.766 302.889 564C302.889 563.234 302.584 562.499 302.043 561.957C301.501 561.415 300.766 561.111 300 561.111C299.234 561.111 298.499 561.415 297.957 561.957C297.415 562.499 297.111 563.234 297.111 564Z" fill="black"/>
</g>
<g clip-path="url(#clip6_77_475)">
<path d="M41 797.25C41 797.979 41.281 798.679 41.781 799.195C42.2811 799.71 42.9594 800 43.6667 800C44.3739 800 45.0522 799.71 45.5523 799.195C46.0524 798.679 46.3333 797.979 46.3333 797.25C46.3333 796.521 46.0524 795.821 45.5523 795.305C45.0522 794.79 44.3739 794.5 43.6667 794.5C42.9594 794.5 42.2811 794.79 41.781 795.305C41.281 795.821 41 796.521 41 797.25Z" stroke="black" stroke-width="1.75" stroke-linecap="round" stroke-linejoin="round"/>
<path d="M30.3333 797.25H41" stroke="black" stroke-width="1.75" stroke-linecap="round" stroke-linejoin="round"/>
<path d="M46.3333 797.25H51.6666" stroke="black" stroke-width="1.75" stroke-linecap="round" stroke-linejoin="round"/>
<path d="M33 805.5C33 806.229 33.281 806.929 33.781 807.445C34.2811 807.96 34.9594 808.25 35.6667 808.25C36.3739 808.25 37.0522 807.96 37.5523 807.445C38.0524 806.929 38.3333 806.229 38.3333 805.5C38.3333 804.771 38.0524 804.071 37.5523 803.555C37.0522 803.04 36.3739 802.75 35.6667 802.75C34.9594 802.75 34.2811 803.04 33.781 803.555C33.281 804.071 33 804.771 33 805.5Z" stroke="black" stroke-width="1.75" stroke-linecap="round" stroke-linejoin="round"/>
<path d="M30.3333 805.5H33" stroke="black" stroke-width="1.75" stroke-linecap="round" stroke-linejoin="round"/>
<path d="M38.3333 805.5H51.6666" stroke="black" stroke-width="1.75" stroke-linecap="round" stroke-linejoin="round"/>
<path d="M45 813.75C45 814.479 45.281 815.179 45.781 815.695C46.2811 816.21 46.9594 816.5 47.6667 816.5C48.3739 816.5 49.0522 816.21 49.5523 815.695C50.0524 815.179 50.3333 814.479 50.3333 813.75C50.3333 813.021 50.0524 812.321 49.5523 811.805C49.0522 811.29 48.3739 811 47.6667 811C46.9594 811 46.2811 811.29 45.781 811.805C45.281 812.321 45 813.021 45 813.75Z" stroke="black" stroke-width="1.75" stroke-linecap="round" stroke-linejoin="round"/>
<path d="M30.3333 813.75H45" stroke="black" stroke-width="1.75" stroke-linecap="round" stroke-linejoin="round"/>
<path d="M50.3333 813.75H51.6666" stroke="black" stroke-width="1.75" stroke-linecap="round" stroke-linejoin="round"/>
</g>
<g clip-path="url(#clip7_77_475)">
<path d="M345 795.333H353C353.707 795.333 354.386 795.614 354.886 796.114C355.386 796.614 355.667 797.293 355.667 798V816.667L349 812.667L342.333 816.667V798C342.333 797.293 342.614 796.614 343.114 796.114C343.614 795.614 344.293 795.333 345 795.333Z" stroke="black" stroke-width="1.75" stroke-linecap="round" stroke-linejoin="round"/>
</g>
<rect x="43" y="247" width="306" height="356" fill="url(#paint0_linear_77_475)"/>
<path d="M171.537 496.2C169.817 496.2 168.557 495.7 167.757 494.7C166.957 493.7 166.531 492.387 166.477 490.76C166.464 490.4 166.457 489.82 166.457 489.02C166.457 488.193 166.464 487.593 166.477 487.22C166.517 485.62 166.944 484.32 167.757 483.32C168.571 482.307 169.831 481.8 171.537 481.8C173.257 481.8 174.524 482.307 175.337 483.32C176.151 484.32 176.577 485.62 176.617 487.22C176.644 487.967 176.657 488.567 176.657 489.02C176.657 489.46 176.644 490.04 176.617 490.76C176.564 492.387 176.137 493.7 175.337 494.7C174.537 495.7 173.271 496.2 171.537 496.2ZM171.537 494.48C172.537 494.48 173.291 494.147 173.797 493.48C174.317 492.813 174.591 491.873 174.617 490.66C174.644 489.887 174.657 489.327 174.657 488.98C174.657 488.607 174.644 488.06 174.617 487.34C174.591 486.14 174.324 485.2 173.817 484.52C173.311 483.84 172.551 483.5 171.537 483.5C170.537 483.5 169.777 483.84 169.257 484.52C168.751 485.2 168.484 486.14 168.457 487.34L168.437 488.98L168.457 490.66C168.484 491.873 168.751 492.813 169.257 493.48C169.777 494.147 170.537 494.48 171.537 494.48ZM183.413 496C183.279 496 183.166 495.96 183.073 495.88C182.993 495.787 182.953 495.673 182.953 495.54V484.34L179.633 486.9C179.539 486.98 179.439 487.02 179.333 487.02C179.213 487.02 179.099 486.953 178.993 486.82L178.473 486.16C178.406 486.067 178.373 485.973 178.373 485.88C178.373 485.72 178.439 485.593 178.573 485.5L182.933 482.14C183.079 482.047 183.253 482 183.453 482H184.473C184.606 482 184.713 482.047 184.793 482.14C184.886 482.22 184.933 482.327 184.933 482.46V495.54C184.933 495.673 184.886 495.787 184.793 495.88C184.713 495.96 184.606 496 184.473 496H183.413ZM193.19 489C193.056 489 192.943 488.96 192.85 488.88C192.77 488.787 192.73 488.673 192.73 488.54V487.14C192.73 487.007 192.77 486.9 192.85 486.82C192.943 486.727 193.056 486.68 193.19 486.68H194.63C194.763 486.68 194.87 486.727 194.95 486.82C195.043 486.9 195.09 487.007 195.09 487.14V488.54C195.09 488.673 195.043 488.787 194.95 488.88C194.87 488.96 194.763 489 194.63 489H193.19ZM193.19 496C193.056 496 192.943 495.96 192.85 495.88C192.77 495.787 192.73 495.673 192.73 495.54V494.14C192.73 494.007 192.77 493.9 192.85 493.82C192.943 493.727 193.056 493.68 193.19 493.68H194.63C194.763 493.68 194.87 493.727 194.95 493.82C195.043 493.9 195.09 494.007 195.09 494.14V495.54C195.09 495.673 195.043 495.787 194.95 495.88C194.87 495.96 194.763 496 194.63 496H193.19ZM207.329 496.2C206.276 496.2 205.362 496.033 204.589 495.7C203.829 495.353 203.249 494.907 202.849 494.36C202.462 493.813 202.256 493.24 202.229 492.64C202.229 492.52 202.269 492.427 202.349 492.36C202.429 492.28 202.529 492.24 202.649 492.24H203.629C203.909 492.24 204.096 492.387 204.189 492.68C204.362 493.347 204.736 493.82 205.309 494.1C205.882 494.367 206.556 494.5 207.329 494.5C208.276 494.5 209.029 494.28 209.589 493.84C210.149 493.387 210.429 492.74 210.429 491.9C210.429 490.287 209.449 489.48 207.489 489.48H205.589C205.456 489.48 205.342 489.44 205.249 489.36C205.169 489.267 205.129 489.153 205.129 489.02V488.48C205.129 488.293 205.202 488.113 205.349 487.94L209.229 483.7H203.329C203.196 483.7 203.082 483.66 202.989 483.58C202.909 483.487 202.869 483.373 202.869 483.24V482.48C202.869 482.347 202.909 482.233 202.989 482.14C203.082 482.047 203.196 482 203.329 482H211.309C211.456 482 211.569 482.047 211.649 482.14C211.742 482.22 211.789 482.333 211.789 482.48V483.2C211.789 483.36 211.716 483.513 211.569 483.66L207.709 487.96L208.029 487.98C209.389 488.02 210.462 488.373 211.249 489.04C212.036 489.707 212.429 490.68 212.429 491.96C212.429 492.827 212.209 493.58 211.769 494.22C211.329 494.86 210.722 495.353 209.949 495.7C209.176 496.033 208.302 496.2 207.329 496.2ZM221.401 496C221.268 496 221.154 495.96 221.061 495.88C220.981 495.787 220.941 495.673 220.941 495.54V492.66H214.461C214.328 492.66 214.214 492.62 214.121 492.54C214.041 492.447 214.001 492.333 214.001 492.2V491.4C214.001 491.2 214.074 491 214.221 490.8L220.221 482.34C220.288 482.233 220.388 482.153 220.521 482.1C220.654 482.033 220.801 482 220.961 482H222.401C222.534 482 222.641 482.047 222.721 482.14C222.814 482.22 222.861 482.327 222.861 482.46V490.92H224.661C224.794 490.92 224.908 490.967 225.001 491.06C225.094 491.14 225.141 491.247 225.141 491.38V492.2C225.141 492.333 225.094 492.447 225.001 492.54C224.921 492.62 224.814 492.66 224.681 492.66H222.861V495.54C222.861 495.673 222.814 495.787 222.721 495.88C222.641 495.96 222.534 496 222.401 496H221.401ZM220.961 490.96V484.1L216.141 490.96H220.961Z" fill="black"/>
<path d="M162.662 545C162.552 545 162.462 544.965 162.392 544.895C162.322 544.825 162.287 544.735 162.287 544.625V534.875C162.287 534.765 162.322 534.675 162.392 534.605C162.462 534.535 162.552 534.5 162.662 534.5H167.117C167.947 534.5 168.627 534.62 169.157 534.86C169.687 535.1 170.077 535.44 170.327 535.88C170.587 536.32 170.717 536.835 170.717 537.425C170.717 537.795 170.647 538.12 170.507 538.4C170.377 538.68 170.212 538.91 170.012 539.09C169.822 539.27 169.637 539.405 169.457 539.495C169.847 539.675 170.187 539.975 170.477 540.395C170.777 540.805 170.927 541.295 170.927 541.865C170.927 542.495 170.787 543.045 170.507 543.515C170.227 543.985 169.812 544.35 169.262 544.61C168.712 544.87 168.042 545 167.252 545H162.662ZM164.672 543.245H166.967C167.457 543.245 167.827 543.11 168.077 542.84C168.327 542.56 168.452 542.23 168.452 541.85C168.452 541.46 168.322 541.135 168.062 540.875C167.812 540.605 167.447 540.47 166.967 540.47H164.672V543.245ZM164.672 538.745H166.832C167.302 538.745 167.652 538.63 167.882 538.4C168.122 538.16 168.242 537.855 168.242 537.485C168.242 537.115 168.122 536.82 167.882 536.6C167.652 536.37 167.302 536.255 166.832 536.255H164.672V538.745ZM177.006 545.15C176.126 545.15 175.356 545.005 174.696 544.715C174.036 544.415 173.526 543.96 173.166 543.35C172.806 542.73 172.626 541.945 172.626 540.995V534.875C172.626 534.765 172.661 534.675 172.731 534.605C172.801 534.535 172.891 534.5 173.001 534.5H174.636C174.746 534.5 174.836 534.535 174.906 534.605C174.976 534.675 175.011 534.765 175.011 534.875V540.98C175.011 541.72 175.186 542.27 175.536 542.63C175.886 542.99 176.376 543.17 177.006 543.17C177.626 543.17 178.111 542.99 178.461 542.63C178.811 542.27 178.986 541.72 178.986 540.98V534.875C178.986 534.765 179.021 534.675 179.091 534.605C179.171 534.535 179.261 534.5 179.361 534.5H181.011C181.111 534.5 181.196 534.535 181.266 534.605C181.336 534.675 181.371 534.765 181.371 534.875V540.995C181.371 541.945 181.191 542.73 180.831 543.35C180.471 543.96 179.966 544.415 179.316 544.715C178.666 545.005 177.896 545.15 177.006 545.15ZM186.603 545C186.493 545 186.403 544.965 186.333 544.895C186.263 544.825 186.228 544.735 186.228 544.625V541.325L182.718 534.98C182.708 534.95 182.698 534.925 182.688 534.905C182.678 534.875 182.673 534.845 182.673 534.815C182.673 534.735 182.703 534.665 182.763 534.605C182.833 534.535 182.908 534.5 182.988 534.5H184.578C184.718 534.5 184.828 534.535 184.908 534.605C184.988 534.675 185.043 534.74 185.073 534.8L187.428 538.925L189.783 534.8C189.813 534.74 189.868 534.675 189.948 534.605C190.028 534.535 190.138 534.5 190.278 534.5H191.868C191.948 534.5 192.018 534.535 192.078 534.605C192.148 534.665 192.183 534.735 192.183 534.815C192.183 534.845 192.178 534.875 192.168 534.905C192.158 534.925 192.148 534.95 192.138 534.98L188.628 541.325V544.625C188.628 544.735 188.593 544.825 188.523 544.895C188.453 544.965 188.363 545 188.253 545H186.603ZM196.837 545C196.727 545 196.637 544.965 196.567 544.895C196.497 544.825 196.462 544.735 196.462 544.625V534.875C196.462 534.765 196.497 534.675 196.567 534.605C196.637 534.535 196.727 534.5 196.837 534.5H198.202C198.352 534.5 198.462 534.535 198.532 534.605C198.602 534.675 198.647 534.73 198.667 534.77L202.672 541.025V534.875C202.672 534.765 202.707 534.675 202.777 534.605C202.847 534.535 202.932 534.5 203.032 534.5H204.562C204.672 534.5 204.762 534.535 204.832 534.605C204.902 534.675 204.937 534.765 204.937 534.875V544.625C204.937 544.725 204.902 544.815 204.832 544.895C204.762 544.965 204.672 545 204.562 545H203.182C203.032 545 202.922 544.965 202.852 544.895C202.792 544.815 202.747 544.76 202.717 544.73L198.727 538.67V544.625C198.727 544.735 198.692 544.825 198.622 544.895C198.552 544.965 198.462 545 198.352 545H196.837ZM211.325 545.15C210.415 545.15 209.63 545 208.97 544.7C208.31 544.4 207.795 543.95 207.425 543.35C207.055 542.74 206.855 541.975 206.825 541.055C206.815 540.625 206.81 540.2 206.81 539.78C206.81 539.35 206.815 538.915 206.825 538.475C206.855 537.575 207.055 536.82 207.425 536.21C207.805 535.59 208.325 535.125 208.985 534.815C209.655 534.505 210.435 534.35 211.325 534.35C212.205 534.35 212.975 534.505 213.635 534.815C214.305 535.125 214.83 535.59 215.21 536.21C215.59 536.82 215.79 537.575 215.81 538.475C215.83 538.915 215.84 539.35 215.84 539.78C215.84 540.2 215.83 540.625 215.81 541.055C215.78 541.975 215.58 542.74 215.21 543.35C214.84 543.95 214.325 544.4 213.665 544.7C213.005 545 212.225 545.15 211.325 545.15ZM211.325 543.215C211.905 543.215 212.38 543.04 212.75 542.69C213.13 542.33 213.33 541.76 213.35 540.98C213.37 540.54 213.38 540.13 213.38 539.75C213.38 539.36 213.37 538.95 213.35 538.52C213.34 538 213.245 537.575 213.065 537.245C212.885 536.915 212.645 536.675 212.345 536.525C212.055 536.365 211.715 536.285 211.325 536.285C210.935 536.285 210.59 536.365 210.29 536.525C209.99 536.675 209.75 536.915 209.57 537.245C209.4 537.575 209.305 538 209.285 538.52C209.275 538.95 209.27 539.36 209.27 539.75C209.27 540.13 209.275 540.54 209.285 540.98C209.315 541.76 209.515 542.33 209.885 542.69C210.255 543.04 210.735 543.215 211.325 543.215ZM219.295 545C219.135 545 219.005 544.955 218.905 544.865C218.815 544.775 218.76 544.665 218.74 544.535L217.03 534.92C217.02 534.9 217.015 534.88 217.015 534.86C217.015 534.84 217.015 534.825 217.015 534.815C217.015 534.735 217.045 534.665 217.105 534.605C217.165 534.535 217.24 534.5 217.33 534.5H218.905C219.165 534.5 219.31 534.605 219.34 534.815L220.465 541.16L221.68 537.215C221.71 537.135 221.76 537.05 221.83 536.96C221.9 536.87 222.015 536.825 222.175 536.825H223.12C223.28 536.825 223.395 536.87 223.465 536.96C223.535 537.05 223.58 537.135 223.6 537.215L224.83 541.145L225.94 534.815C225.97 534.605 226.12 534.5 226.39 534.5H227.965C228.055 534.5 228.13 534.535 228.19 534.605C228.25 534.665 228.28 534.735 228.28 534.815C228.28 534.825 228.28 534.84 228.28 534.86C228.28 534.88 228.275 534.9 228.265 534.92L226.555 544.535C226.535 544.665 226.475 544.775 226.375 544.865C226.285 544.955 226.16 545 226 545H224.785C224.625 545 224.5 544.96 224.41 544.88C224.33 544.79 224.275 544.7 224.245 544.61L222.64 539.96L221.05 544.61C221.02 544.7 220.96 544.79 220.87 544.88C220.79 544.96 220.665 545 220.495 545H219.295Z" fill="black"/>
<g clip-path="url(#clip8_77_475)">
<path d="M226.438 423.859L195.5 454.5L164.563 423.859C162.522 421.874 160.915 419.487 159.842 416.85C158.769 414.212 158.254 411.381 158.329 408.535C158.404 405.689 159.067 402.889 160.277 400.311C161.488 397.734 163.218 395.435 165.361 393.56C167.503 391.684 170.01 390.272 172.725 389.414C175.44 388.555 178.303 388.267 181.134 388.569C183.965 388.871 186.703 389.756 189.176 391.168C191.648 392.581 193.802 394.49 195.5 396.775C197.206 394.506 199.362 392.614 201.832 391.217C204.303 389.82 207.036 388.947 209.859 388.655C212.682 388.362 215.535 388.656 218.24 389.516C220.945 390.377 223.443 391.787 225.578 393.658C227.712 395.528 229.438 397.82 230.647 400.388C231.855 402.956 232.521 405.746 232.602 408.583C232.682 411.421 232.176 414.244 231.116 416.877C230.055 419.51 228.463 421.895 226.438 423.884" fill="black"/>
<path d="M226.438 423.859L195.5 454.5L164.563 423.859C162.522 421.874 160.915 419.487 159.842 416.85C158.769 414.212 158.254 411.381 158.329 408.535C158.404 405.689 159.067 402.889 160.277 400.311C161.488 397.734 163.218 395.435 165.361 393.56C167.503 391.684 170.01 390.272 172.725 389.414C175.44 388.555 178.303 388.267 181.134 388.569C183.965 388.871 186.703 389.756 189.176 391.168C191.648 392.581 193.802 394.49 195.5 396.775C197.206 394.506 199.362 392.614 201.832 391.217C204.303 389.82 207.036 388.947 209.859 388.655C212.682 388.362 215.535 388.656 218.24 389.516C220.945 390.377 223.443 391.787 225.578 393.658C227.712 395.528 229.438 397.82 230.647 400.388C231.855 402.956 232.521 405.746 232.602 408.583C232.682 411.421 232.176 414.244 231.116 416.877C230.055 419.51 228.463 421.895 226.438 423.884" stroke="black" stroke-width="2.75" stroke-linecap="round" stroke-linejoin="round"/>
</g>
<g clip-path="url(#clip9_77_475)">
<path d="M195 412C193.22 412 191.48 412.528 190 413.517C188.52 414.506 187.366 415.911 186.685 417.556C186.004 419.2 185.826 421.01 186.173 422.756C186.52 424.502 187.377 426.105 188.636 427.364C189.895 428.623 191.498 429.48 193.244 429.827C194.99 430.174 196.8 429.996 198.444 429.315C200.089 428.634 201.494 427.48 202.483 426C203.472 424.52 204 422.78 204 421" stroke="#F3F2EE" stroke-width="2" stroke-linecap="round" stroke-linejoin="round"/>
</g>
<defs>
<linearGradient id="paint0_linear_77_475" x1="196" y1="247" x2="196" y2="603" gradientUnits="userSpaceOnUse">
<stop stop-color="#F3F2EE" stop-opacity="0.63"/>
<stop offset="0.739583" stop-color="#F3F2EE"/>
</linearGradient>
<clipPath id="clip0_77_475">
<rect width="33" height="33" fill="white" transform="translate(146 790)"/>
</clipPath>
<clipPath id="clip1_77_475">
<rect width="33" height="33" fill="white" transform="translate(179 790)"/>
</clipPath>
<clipPath id="clip2_77_475">
<rect width="33" height="33" fill="white" transform="translate(212 790)"/>
</clipPath>
<clipPath id="clip3_77_475">
<rect width="40" height="40" fill="white" transform="translate(70 260)"/>
</clipPath>
<clipPath id="clip4_77_475">
<rect width="32" height="32" fill="white" transform="translate(74 477)"/>
</clipPath>
<clipPath id="clip5_77_475">
<rect width="32" height="32" fill="white" transform="translate(144 477)"/>
</clipPath>
<clipPath id="clip6_77_475">
<rect width="32" height="33" fill="white" transform="translate(25 789)"/>
</clipPath>
<clipPath id="clip7_77_475">
<rect width="32" height="32" fill="white" transform="translate(333 790)"/>
</clipPath>
<clipPath id="clip8_77_475">
<rect width="99" height="99" fill="white" transform="translate(146 372)"/>
</clipPath>
<clipPath id="clip9_77_475">
<rect width="24" height="24" fill="white" transform="translate(183 409)"/>
</clipPath>
</defs>
</svg>
