<svg width="390" height="844" viewBox="0 0 390 844" fill="none" xmlns="http://www.w3.org/2000/svg">
<rect width="390" height="844" fill="#F3F2EE"/>
<path opacity="0.5" d="M173.169 162.45L172.708 163.338L172.718 163.343L172.728 163.348L173.169 162.45ZM160.719 151.65L159.875 152.187L159.879 152.194L159.884 152.2L160.719 151.65ZM156.219 137.7L157.218 137.659L157.216 137.624L157.213 137.59L156.219 137.7ZM156.969 135.6L156.329 134.832L156.329 134.832L156.969 135.6ZM169.719 135.45L170.215 134.582L170.215 134.582L169.719 135.45ZM171.369 138L172.334 137.739L172.33 137.722L172.325 137.706L171.369 138ZM176.169 147.15L175.432 147.826L175.446 147.842L175.462 147.857L176.169 147.15ZM183.969 152.25L183.614 153.185L183.633 153.192L183.653 153.199L183.969 152.25ZM204.969 151.2L205.406 152.1L205.416 152.094L204.969 151.2ZM213.519 143.4L214.37 143.926L214.376 143.914L213.519 143.4ZM213.519 119.25L212.664 119.768L212.673 119.784L212.683 119.799L213.519 119.25ZM205.119 111.75L204.661 112.639L204.676 112.647L204.692 112.654L205.119 111.75ZM185.169 110.25L185.525 111.184L185.525 111.184L185.169 110.25ZM179.769 113.1L179.177 112.294L179.164 112.303L179.151 112.314L179.769 113.1ZM175.869 115.95L175.314 115.118L175.297 115.129L175.281 115.141L175.869 115.95ZM161.919 116.25L161.212 116.957L161.239 116.984L161.268 117.009L161.919 116.25ZM161.019 113.85L162.013 113.96L162.013 113.953L162.014 113.945L161.019 113.85ZM165.819 63.75L166.814 63.8454L166.815 63.833L165.819 63.75ZM166.869 61.05L167.576 61.7571L167.576 61.7571L166.869 61.05ZM224.319 61.05L223.559 61.7008L223.61 61.7592L223.668 61.8093L224.319 61.05ZM224.319 71.85L223.668 71.0907L223.639 71.1157L223.612 71.1429L224.319 71.85ZM178.719 72.75V71.75H177.811L177.723 72.654L178.719 72.75ZM175.869 102.3L174.873 102.204L174.675 104.256L176.41 103.141L175.869 102.3ZM182.619 99.15L182.98 100.083L182.993 100.078L183.005 100.072L182.619 99.15ZM209.169 99.45L208.839 100.394L208.846 100.397L209.169 99.45ZM220.869 106.05L220.22 106.811L220.22 106.811L220.869 106.05ZM228.819 116.7L227.908 117.112L227.911 117.12L228.819 116.7ZM226.569 150.3L225.727 149.76L225.72 149.771L226.569 150.3ZM212.919 162.45L213.347 163.354L213.354 163.351L212.919 162.45ZM193.269 165.5C185.479 165.5 178.939 164.168 173.609 161.552L172.728 163.348C178.399 166.132 185.259 167.5 193.269 167.5V165.5ZM173.629 161.562C168.357 158.829 164.346 155.336 161.554 151.1L159.884 152.2C162.891 156.764 167.18 160.471 172.708 163.338L173.629 161.562ZM161.562 151.113C158.851 146.852 157.41 142.372 157.218 137.659L155.22 137.741C155.427 142.828 156.987 147.648 159.875 152.187L161.562 151.113ZM157.213 137.59C157.143 136.961 157.311 136.616 157.609 136.368L156.329 134.832C155.426 135.584 155.095 136.639 155.225 137.81L157.213 137.59ZM157.609 136.368C158.002 136.04 158.515 135.85 159.219 135.85V133.85C158.122 133.85 157.135 134.16 156.329 134.832L157.609 136.368ZM159.219 135.85H167.319V133.85H159.219V135.85ZM167.319 135.85C168.065 135.85 168.691 136.014 169.223 136.318L170.215 134.582C169.347 134.086 168.372 133.85 167.319 133.85V135.85ZM169.223 136.318C169.593 136.53 170.04 137.081 170.413 138.294L172.325 137.706C171.898 136.319 171.245 135.17 170.215 134.582L169.223 136.318ZM170.403 138.261C171.438 142.088 173.106 145.288 175.432 147.826L176.906 146.474C174.832 144.212 173.3 141.312 172.334 137.739L170.403 138.261ZM175.462 147.857C177.857 150.252 180.575 152.032 183.614 153.185L184.323 151.315C181.562 150.268 179.081 148.648 176.876 146.443L175.462 147.857ZM183.653 153.199C186.756 154.233 189.963 154.75 193.269 154.75V152.75C190.175 152.75 187.182 152.267 184.285 151.301L183.653 153.199ZM193.269 154.75C197.704 154.75 201.756 153.872 205.406 152.1L204.532 150.3C201.182 151.928 197.433 152.75 193.269 152.75V154.75ZM205.416 152.094C209.181 150.212 212.171 147.485 214.37 143.925L212.668 142.875C210.666 146.115 207.957 148.588 204.522 150.306L205.416 152.094ZM214.376 143.914C216.587 140.231 217.669 135.845 217.669 130.8H215.669C215.669 135.555 214.651 139.569 212.661 142.886L214.376 143.914ZM217.669 130.8C217.669 126.14 216.579 122.091 214.355 118.701L212.683 119.799C214.658 122.809 215.669 126.46 215.669 130.8H217.669ZM214.374 118.732C212.269 115.258 209.317 112.627 205.546 110.846L204.692 112.654C208.12 114.273 210.769 116.642 212.664 119.768L214.374 118.732ZM205.576 110.861C201.919 108.98 197.809 108.05 193.269 108.05V110.05C197.529 110.05 201.319 110.92 204.661 112.639L205.576 110.861ZM193.269 108.05C189.899 108.05 187.066 108.457 184.813 109.316L185.525 111.184C187.471 110.443 190.039 110.05 193.269 110.05V108.05ZM184.813 109.316C182.646 110.141 180.763 111.131 179.177 112.294L180.36 113.906C181.775 112.869 183.492 111.959 185.525 111.184L184.813 109.316ZM179.151 112.314C177.767 113.401 176.488 114.335 175.314 115.118L176.423 116.782C177.649 115.965 178.971 114.999 180.387 113.886L179.151 112.314ZM175.281 115.141C174.357 115.813 173.314 116.15 172.119 116.15V118.15C173.723 118.15 175.181 117.687 176.457 116.759L175.281 115.141ZM172.119 116.15H164.319V118.15H172.119V116.15ZM164.319 116.15C163.664 116.15 163.093 115.94 162.57 115.491L161.268 117.009C162.144 117.76 163.174 118.15 164.319 118.15V116.15ZM162.626 115.543C162.118 115.035 161.95 114.528 162.013 113.96L160.025 113.74C159.888 114.972 160.32 116.065 161.212 116.957L162.626 115.543ZM162.014 113.945L166.814 63.8454L164.823 63.6546L160.023 113.755L162.014 113.945ZM166.815 63.833C166.904 62.7714 167.201 62.1318 167.576 61.7571L166.162 60.3429C165.336 61.1682 164.934 62.3286 164.822 63.667L166.815 63.833ZM167.576 61.7571C168.067 61.2663 168.702 61 169.569 61V59C168.236 59 167.071 59.4337 166.162 60.3429L167.576 61.7571ZM169.569 61H221.919V59H169.569V61ZM221.919 61C222.655 61 223.167 61.2428 223.559 61.7008L225.078 60.3992C224.271 59.4572 223.183 59 221.919 59V61ZM223.668 61.8093C224.126 62.2018 224.369 62.714 224.369 63.45H226.369C226.369 62.186 225.912 61.0982 224.97 60.2907L223.668 61.8093ZM224.369 63.45V69.3H226.369V63.45H224.369ZM224.369 69.3C224.369 70.1701 224.103 70.7177 223.668 71.0907L224.97 72.6093C225.934 71.7823 226.369 70.6299 226.369 69.3H224.369ZM223.612 71.1429C223.232 71.5222 222.704 71.75 221.919 71.75V73.75C223.133 73.75 224.205 73.3778 225.026 72.5571L223.612 71.1429ZM221.919 71.75H178.719V73.75H221.919V71.75ZM177.723 72.654L174.873 102.204L176.864 102.396L179.714 72.846L177.723 72.654ZM176.41 103.141C177.721 102.298 179.893 101.277 182.98 100.083L182.258 98.2174C179.144 99.4227 176.816 100.502 175.328 101.459L176.41 103.141ZM183.005 100.072C185.931 98.8453 190.031 98.2 195.369 98.2V96.2C189.907 96.2 185.506 96.8547 182.232 98.2278L183.005 100.072ZM195.369 98.2C200.165 98.2 204.653 98.9338 208.839 100.394L209.498 98.5058C205.084 96.9662 200.372 96.2 195.369 96.2V98.2ZM208.846 100.397C213.131 101.857 216.92 103.996 220.22 106.811L221.518 105.289C218.018 102.304 214.006 100.043 209.491 98.5035L208.846 100.397ZM220.22 106.811C223.504 109.612 226.066 113.042 227.908 117.112L229.73 116.288C227.771 111.958 225.033 108.288 221.518 105.289L220.22 106.811ZM227.911 117.12C229.74 121.066 230.669 125.667 230.669 130.95H232.669C232.669 125.433 231.698 120.534 229.726 116.28L227.911 117.12ZM230.669 130.95C230.669 138.399 229.004 144.652 225.727 149.76L227.41 150.84C230.933 145.348 232.669 138.701 232.669 130.95H230.669ZM225.72 149.771C222.523 154.905 218.119 158.829 212.484 161.549L213.354 163.351C219.318 160.471 224.014 156.295 227.418 150.829L225.72 149.771ZM212.491 161.546C206.946 164.173 200.546 165.5 193.269 165.5V167.5C200.791 167.5 207.492 166.127 213.347 163.354L212.491 161.546Z" fill="black"/>
<rect x="57" y="389" width="66" height="66" rx="5" fill="black"/>
<rect x="127" y="389" width="66" height="66" rx="5" fill="black"/>
<rect x="197.5" y="389.5" width="65" height="65" rx="4.5" stroke="black"/>
<rect x="267.5" y="389.5" width="65" height="65" rx="4.5" fill="black" stroke="black"/>
<rect x="127.5" y="318.5" width="65" height="65" rx="4.5" stroke="black"/>
<rect x="197.5" y="318.5" width="65" height="65" rx="4.5" stroke="black"/>
<rect x="127.5" y="460.5" width="65" height="65" rx="4.5" stroke="black"/>
<circle cx="90" cy="422" r="9" fill="#F3F2EE"/>
<circle cx="160" cy="422" r="9" fill="#F3F2EE"/>
<rect x="197.5" y="460.5" width="65" height="65" rx="4.5" fill="black" stroke="black"/>
<g clip-path="url(#clip0_77_473)">
<path d="M230 479.667C237.363 479.667 243.333 485.263 243.333 492.167C243.333 495.335 242.075 498.228 240 500.433V504.667C240 505.109 239.824 505.533 239.512 505.845C239.199 506.158 238.775 506.333 238.333 506.333H221.667C221.225 506.333 220.801 506.158 220.488 505.845C220.176 505.533 220 505.109 220 504.667V500.433C217.925 498.23 216.667 495.337 216.667 492.167C216.667 485.263 222.637 479.667 230 479.667Z" fill="#F3F2EE" stroke="black" stroke-width="2.75" stroke-linecap="round" stroke-linejoin="round"/>
<path d="M226.667 501.333V506.333" stroke="black" stroke-width="2.75" stroke-linecap="round" stroke-linejoin="round"/>
<path d="M233.333 501.333V506.333" stroke="black" stroke-width="2.75" stroke-linecap="round" stroke-linejoin="round"/>
<path d="M223.333 491.333C223.333 491.775 223.509 492.199 223.821 492.512C224.134 492.824 224.558 493 225 493C225.442 493 225.866 492.824 226.179 492.512C226.491 492.199 226.667 491.775 226.667 491.333C226.667 490.891 226.491 490.467 226.179 490.155C225.866 489.842 225.442 489.667 225 489.667C224.558 489.667 224.134 489.842 223.821 490.155C223.509 490.467 223.333 490.891 223.333 491.333Z" fill="black"/>
<path d="M233.333 491.333C233.333 491.775 233.509 492.199 233.821 492.512C234.134 492.824 234.558 493 235 493C235.442 493 235.866 492.824 236.179 492.512C236.491 492.199 236.667 491.775 236.667 491.333C236.667 490.891 236.491 490.467 236.179 490.155C235.866 489.842 235.442 489.667 235 489.667C234.558 489.667 234.134 489.842 233.821 490.155C233.509 490.467 233.333 490.891 233.333 491.333Z" fill="black"/>
</g>
<path d="M313 422C309.533 427.778 305.2 430.667 300 430.667C294.8 430.667 290.467 427.778 287 422C290.467 416.222 294.8 413.333 300 413.333C305.2 413.333 309.533 416.222 313 422Z" fill="#F3F2EE"/>
<path d="M297.111 422C297.111 422.766 297.415 423.501 297.957 424.043C298.499 424.585 299.234 424.889 300 424.889C300.766 424.889 301.501 424.585 302.043 424.043C302.584 423.501 302.889 422.766 302.889 422C302.889 421.234 302.584 420.499 302.043 419.957C301.501 419.415 300.766 419.111 300 419.111C299.234 419.111 298.499 419.415 297.957 419.957C297.415 420.499 297.111 421.234 297.111 422Z" fill="black"/>
<g clip-path="url(#clip1_77_473)">
<path d="M230 340.333C235.72 340.333 240.484 343.572 244.22 349.872L244.513 350.377L244.573 350.511L244.613 350.621L244.632 350.695L244.651 350.804L244.665 350.937V351.084L244.647 351.232C244.638 351.282 244.626 351.33 244.612 351.379L244.56 351.523L244.512 351.623L244.491 351.663C240.805 358.111 236.091 361.503 230.417 361.661L230 361.667C224.139 361.667 219.284 358.268 215.509 351.661C215.394 351.46 215.334 351.232 215.334 351C215.334 350.768 215.394 350.54 215.509 350.339C219.284 343.732 224.139 340.333 230 340.333ZM230 347C228.939 347 227.922 347.421 227.172 348.172C226.421 348.922 226 349.939 226 351C226 352.061 226.421 353.078 227.172 353.828C227.922 354.579 228.939 355 230 355C231.061 355 232.078 354.579 232.828 353.828C233.579 353.078 234 352.061 234 351C234 349.939 233.579 348.922 232.828 348.172C232.078 347.421 231.061 347 230 347Z" fill="black"/>
</g>
<g clip-path="url(#clip2_77_473)">
<path d="M155.596 794.227C156.813 794.019 158.061 794.088 159.248 794.427C160.435 794.766 161.531 795.367 162.455 796.186L162.505 796.231L162.552 796.19C163.434 795.417 164.47 794.84 165.593 794.498C166.715 794.157 167.897 794.059 169.06 794.21L169.398 794.26C170.865 794.513 172.235 795.158 173.365 796.126C174.494 797.095 175.341 798.351 175.815 799.761C176.289 801.171 176.373 802.683 176.057 804.138C175.742 805.592 175.039 806.933 174.024 808.021L173.776 808.275L173.71 808.331L163.467 818.478C163.23 818.712 162.917 818.852 162.585 818.873C162.253 818.893 161.925 818.793 161.661 818.59L161.532 818.478L151.229 808.272C150.138 807.21 149.361 805.867 148.986 804.391C148.611 802.915 148.652 801.364 149.104 799.91C149.556 798.456 150.402 797.155 151.548 796.152C152.694 795.149 154.095 794.483 155.596 794.227Z" fill="black"/>
</g>
<g clip-path="url(#clip3_77_473)">
<path d="M188.596 794.227C189.813 794.019 191.061 794.088 192.248 794.427C193.435 794.766 194.531 795.367 195.455 796.186L195.505 796.231L195.552 796.19C196.434 795.417 197.47 794.84 198.593 794.498C199.715 794.157 200.897 794.059 202.06 794.21L202.398 794.26C203.865 794.513 205.235 795.158 206.365 796.126C207.494 797.095 208.341 798.351 208.815 799.761C209.289 801.171 209.373 802.683 209.057 804.138C208.742 805.592 208.039 806.933 207.024 808.021L206.776 808.275L206.71 808.331L196.467 818.478C196.23 818.712 195.917 818.852 195.585 818.873C195.253 818.893 194.925 818.793 194.661 818.59L194.532 818.478L184.229 808.272C183.138 807.21 182.361 805.867 181.986 804.391C181.611 802.915 181.652 801.364 182.104 799.91C182.556 798.456 183.402 797.155 184.548 796.152C185.694 795.149 187.095 794.483 188.596 794.227Z" fill="black"/>
</g>
<g clip-path="url(#clip4_77_473)">
<path d="M221.596 794.227C222.813 794.019 224.061 794.088 225.248 794.427C226.435 794.766 227.531 795.367 228.455 796.186L228.505 796.231L228.552 796.19C229.434 795.417 230.47 794.84 231.593 794.498C232.715 794.157 233.897 794.059 235.06 794.21L235.398 794.26C236.865 794.513 238.235 795.158 239.365 796.126C240.494 797.095 241.341 798.351 241.815 799.761C242.289 801.171 242.373 802.683 242.057 804.138C241.742 805.592 241.039 806.933 240.024 808.021L239.776 808.275L239.71 808.331L229.467 818.478C229.23 818.712 228.917 818.852 228.585 818.873C228.253 818.893 227.925 818.793 227.661 818.59L227.532 818.478L217.229 808.272C216.138 807.21 215.361 805.867 214.986 804.391C214.611 802.915 214.652 801.364 215.104 799.91C215.556 798.456 216.402 797.155 217.548 796.152C218.694 795.149 220.095 794.483 221.596 794.227Z" stroke="black" stroke-width="2" stroke-linecap="round" stroke-linejoin="round"/>
</g>
<g clip-path="url(#clip5_77_473)">
<path d="M41 797.25C41 797.979 41.281 798.679 41.781 799.195C42.2811 799.71 42.9594 800 43.6667 800C44.3739 800 45.0522 799.71 45.5523 799.195C46.0524 798.679 46.3333 797.979 46.3333 797.25C46.3333 796.521 46.0524 795.821 45.5523 795.305C45.0522 794.79 44.3739 794.5 43.6667 794.5C42.9594 794.5 42.2811 794.79 41.781 795.305C41.281 795.821 41 796.521 41 797.25Z" stroke="black" stroke-width="1.75" stroke-linecap="round" stroke-linejoin="round"/>
<path d="M30.3333 797.25H41" stroke="black" stroke-width="1.75" stroke-linecap="round" stroke-linejoin="round"/>
<path d="M46.3333 797.25H51.6667" stroke="black" stroke-width="1.75" stroke-linecap="round" stroke-linejoin="round"/>
<path d="M33 805.5C33 806.229 33.281 806.929 33.781 807.445C34.2811 807.96 34.9594 808.25 35.6667 808.25C36.3739 808.25 37.0522 807.96 37.5523 807.445C38.0524 806.929 38.3333 806.229 38.3333 805.5C38.3333 804.771 38.0524 804.071 37.5523 803.555C37.0522 803.04 36.3739 802.75 35.6667 802.75C34.9594 802.75 34.2811 803.04 33.781 803.555C33.281 804.071 33 804.771 33 805.5Z" stroke="black" stroke-width="1.75" stroke-linecap="round" stroke-linejoin="round"/>
<path d="M30.3333 805.5H33" stroke="black" stroke-width="1.75" stroke-linecap="round" stroke-linejoin="round"/>
<path d="M38.3333 805.5H51.6667" stroke="black" stroke-width="1.75" stroke-linecap="round" stroke-linejoin="round"/>
<path d="M45 813.75C45 814.479 45.281 815.179 45.781 815.695C46.2811 816.21 46.9594 816.5 47.6667 816.5C48.3739 816.5 49.0522 816.21 49.5523 815.695C50.0524 815.179 50.3333 814.479 50.3333 813.75C50.3333 813.021 50.0524 812.321 49.5523 811.805C49.0522 811.29 48.3739 811 47.6667 811C46.9594 811 46.2811 811.29 45.781 811.805C45.281 812.321 45 813.021 45 813.75Z" stroke="black" stroke-width="1.75" stroke-linecap="round" stroke-linejoin="round"/>
<path d="M30.3333 813.75H45" stroke="black" stroke-width="1.75" stroke-linecap="round" stroke-linejoin="round"/>
<path d="M50.3333 813.75H51.6667" stroke="black" stroke-width="1.75" stroke-linecap="round" stroke-linejoin="round"/>
</g>
<g clip-path="url(#clip6_77_473)">
<path d="M345 795.333H353C353.707 795.333 354.386 795.614 354.886 796.114C355.386 796.614 355.667 797.293 355.667 798V816.667L349 812.667L342.333 816.667V798C342.333 797.293 342.614 796.614 343.114 796.114C343.614 795.614 344.293 795.333 345 795.333Z" stroke="black" stroke-width="1.75" stroke-linecap="round" stroke-linejoin="round"/>
</g>
<defs>
<clipPath id="clip0_77_473">
<rect width="40" height="40" fill="white" transform="translate(210 473)"/>
</clipPath>
<clipPath id="clip1_77_473">
<rect width="32" height="32" fill="white" transform="translate(214 335)"/>
</clipPath>
<clipPath id="clip2_77_473">
<rect width="33" height="33" fill="white" transform="translate(146 790)"/>
</clipPath>
<clipPath id="clip3_77_473">
<rect width="33" height="33" fill="white" transform="translate(179 790)"/>
</clipPath>
<clipPath id="clip4_77_473">
<rect width="33" height="33" fill="white" transform="translate(212 790)"/>
</clipPath>
<clipPath id="clip5_77_473">
<rect width="32" height="33" fill="white" transform="translate(25 789)"/>
</clipPath>
<clipPath id="clip6_77_473">
<rect width="32" height="32" fill="white" transform="translate(333 790)"/>
</clipPath>
</defs>
</svg>
