<svg width="390" height="844" viewBox="0 0 390 844" fill="none" xmlns="http://www.w3.org/2000/svg">
<g clip-path="url(#clip0_77_476)">
<rect width="390" height="844" fill="#F3F2EE"/>
<path opacity="0.5" d="M113.7 164.1L112.941 164.751L112.991 164.809L113.049 164.859L113.7 164.1ZM116.55 150.15L117.193 150.916L117.227 150.888L117.257 150.857L116.55 150.15ZM148.35 118.35L147.711 117.581L147.676 117.61L147.643 117.643L148.35 118.35ZM164.25 102.75L165.06 103.337L165.067 103.327L164.25 102.75ZM163.65 76.2L162.932 76.8961L162.938 76.9017L162.943 76.9071L163.65 76.2ZM135.6 76.5L136.297 77.2173L136.302 77.2122L136.307 77.2071L135.6 76.5ZM129.15 90.15L130.137 90.3144L130.139 90.3017L130.14 90.289L129.15 90.15ZM127.65 92.85L128.231 93.6637L128.241 93.657L128.25 93.65L127.65 92.85ZM115.2 92.85L114.493 93.5571L114.525 93.5892L114.56 93.6182L115.2 92.85ZM114.3 90.75L113.301 90.713L113.3 90.7315V90.75H114.3ZM118.65 75.3L119.526 75.7826L119.53 75.7751L118.65 75.3ZM130.5 63.15L131.012 64.009L131.017 64.0061L130.5 63.15ZM175.05 67.2L174.331 67.8948L174.337 67.901L174.343 67.9071L175.05 67.2ZM178.95 106.5L178.103 105.968L178.1 105.973L178.95 106.5ZM164.4 122.7L163.74 121.949L163.713 121.973L163.688 121.998L164.4 122.7ZM135.6 151.95L134.888 151.248L133.212 152.95H135.6V151.95ZM184.95 153L184.191 153.651L184.241 153.709L184.299 153.759L184.95 153ZM184.95 164.1L185.601 164.859L185.63 164.834L185.657 164.807L184.95 164.1ZM116.25 164C115.467 164 114.854 163.772 114.351 163.341L113.049 164.859C113.947 165.628 115.033 166 116.25 166V164ZM114.459 163.449C114.028 162.946 113.8 162.333 113.8 161.55H111.8C111.8 162.767 112.172 163.854 112.941 164.751L114.459 163.449ZM113.8 161.55V156.75H111.8V161.55H113.8ZM113.8 156.75C113.8 154.854 114.821 152.908 117.193 150.916L115.907 149.384C113.279 151.592 111.8 154.046 111.8 156.75H113.8ZM117.257 150.857L149.057 119.057L147.643 117.643L115.843 149.443L117.257 150.857ZM148.989 119.119C156.702 112.708 162.083 107.443 165.06 103.337L163.441 102.163C160.617 106.057 155.398 111.192 147.711 117.581L148.989 119.119ZM165.067 103.327C168.072 99.079 169.6 94.5805 169.6 89.85H167.6C167.6 94.1194 166.229 98.221 163.434 102.173L165.067 103.327ZM169.6 89.85C169.6 83.8529 167.888 79.0237 164.357 75.4929L162.943 76.9071C166.012 79.9763 167.6 84.2471 167.6 89.85H169.6ZM164.368 75.5039C160.921 71.9493 155.923 70.25 149.55 70.25V72.25C155.577 72.25 159.979 73.8507 162.932 76.8961L164.368 75.5039ZM149.55 70.25C143.534 70.25 138.613 72.0733 134.893 75.7929L136.307 77.2071C139.588 73.9267 143.966 72.25 149.55 72.25V70.25ZM134.903 75.7827C131.217 79.3641 128.985 84.132 128.16 90.011L130.14 90.289C130.915 84.768 132.984 80.4359 136.297 77.2173L134.903 75.7827ZM128.164 89.9856C127.996 90.9901 127.602 91.6364 127.05 92.05L128.25 93.65C129.299 92.8636 129.904 91.7099 130.137 90.3144L128.164 89.9856ZM127.069 92.0363C126.547 92.4093 125.952 92.6 125.25 92.6V94.6C126.348 94.6 127.354 94.2907 128.231 93.6637L127.069 92.0363ZM125.25 92.6H117.45V94.6H125.25V92.6ZM117.45 92.6C116.747 92.6 116.234 92.4096 115.84 92.0818L114.56 93.6182C115.367 94.2904 116.354 94.6 117.45 94.6V92.6ZM115.907 92.1429C115.482 91.7178 115.3 91.2674 115.3 90.75H113.3C113.3 91.8325 113.718 92.7822 114.493 93.5571L115.907 92.1429ZM115.3 90.787C115.494 85.5487 116.899 80.5507 119.526 75.7826L117.774 74.8174C115.002 79.8492 113.507 85.1512 113.301 90.713L115.3 90.787ZM119.53 75.7751C122.139 70.9444 125.957 67.0228 131.012 64.0089L129.988 62.2911C124.644 65.4772 120.562 69.6556 117.77 74.8248L119.53 75.7751ZM131.017 64.0061C136.133 60.9172 142.297 59.35 149.55 59.35V57.35C142.004 57.35 135.467 58.9828 129.983 62.2939L131.017 64.0061ZM149.55 59.35C160.684 59.35 168.882 62.2543 174.331 67.8948L175.769 66.5052C169.819 60.3457 161.016 57.35 149.55 57.35V59.35ZM174.343 67.9071C179.936 73.5004 182.75 80.6369 182.75 89.4H184.75C184.75 80.1631 181.764 72.4996 175.757 66.4929L174.343 67.9071ZM182.75 89.4C182.75 95.5211 181.198 101.035 178.103 105.969L179.797 107.031C183.102 101.765 184.75 95.8789 184.75 89.4H182.75ZM178.1 105.973C175.071 110.859 170.299 116.185 163.74 121.949L165.06 123.451C171.702 117.615 176.629 112.141 179.8 107.027L178.1 105.973ZM163.688 121.998L134.888 151.248L136.313 152.652L165.113 123.402L163.688 121.998ZM135.6 152.95H182.4V150.95H135.6V152.95ZM182.4 152.95C183.27 152.95 183.818 153.216 184.191 153.651L185.709 152.349C184.883 151.384 183.73 150.95 182.4 150.95V152.95ZM184.299 153.759C184.757 154.152 185 154.664 185 155.4H187C187 154.136 186.543 153.048 185.601 152.241L184.299 153.759ZM185 155.4V161.55H187V155.4H185ZM185 161.55C185 162.288 184.753 162.883 184.243 163.393L185.657 164.807C186.547 163.917 187 162.812 187 161.55H185ZM184.299 163.341C183.797 163.772 183.183 164 182.4 164V166C183.617 166 184.704 165.628 185.601 164.859L184.299 163.341ZM182.4 164H116.25V166H182.4V164ZM217.637 162.45L218.078 161.552L218.078 161.552L217.637 162.45ZM204.887 151.8L204.052 152.35L204.057 152.357L204.061 152.363L204.887 151.8ZM200.237 137.7H199.237V137.72L199.238 137.74L200.237 137.7ZM201.137 135.45L200.497 134.682L200.497 134.682L201.137 135.45ZM215.387 138L216.354 137.745L216.352 137.737L215.387 138ZM223.487 149.85L222.942 150.688L222.942 150.688L223.487 149.85ZM253.937 147.75L254.61 148.49L254.611 148.489L253.937 147.75ZM253.937 115.05L253.265 115.79L253.273 115.797L253.937 115.05ZM228.587 110.55L228.966 111.476L228.984 111.468L229.001 111.46L228.587 110.55ZM221.987 114.45L222.587 115.25L222.593 115.246L222.599 115.241L221.987 114.45ZM218.837 116.55L219.285 117.444L219.304 117.435L219.323 117.424L218.837 116.55ZM205.937 116.25L205.23 116.957L205.257 116.984L205.287 117.009L205.937 116.25ZM205.037 113.85L206.031 113.96L206.032 113.953L206.033 113.945L205.037 113.85ZM209.837 63.75L210.833 63.8454L210.834 63.833L209.837 63.75ZM210.887 61.05L211.594 61.7571L211.594 61.7571L210.887 61.05ZM268.337 61.05L267.578 61.7008L267.628 61.7592L267.687 61.8093L268.337 61.05ZM268.337 71.85L267.63 71.1429L267.63 71.1429L268.337 71.85ZM222.737 72.75V71.75H221.829L221.742 72.654L222.737 72.75ZM219.887 102.3L218.892 102.204L218.696 104.232L220.42 103.146L219.887 102.3ZM257.537 101.25L257.097 102.148L257.103 102.151L257.537 101.25ZM270.737 112.95L269.89 113.482L269.898 113.493L270.737 112.95ZM270.737 150.15L269.884 149.629L269.881 149.633L270.737 150.15ZM257.237 162.3L257.672 163.201L257.672 163.201L257.237 162.3ZM237.287 165.5C229.804 165.5 223.412 164.171 218.078 161.552L217.197 163.348C222.863 166.129 229.57 167.5 237.287 167.5V165.5ZM218.078 161.552C212.71 158.917 208.602 155.473 205.714 151.237L204.061 152.363C207.172 156.927 211.565 160.583 217.197 163.348L218.078 161.552ZM205.722 151.25C202.917 146.993 201.429 142.468 201.237 137.66L199.238 137.74C199.446 142.932 201.058 147.807 204.052 152.35L205.722 151.25ZM201.237 137.7V137.4H199.237V137.7H201.237ZM201.237 137.4C201.237 136.888 201.412 136.523 201.777 136.218L200.497 134.682C199.663 135.377 199.237 136.312 199.237 137.4H201.237ZM201.777 136.218C202.193 135.872 202.665 135.7 203.237 135.7V133.7C202.21 133.7 201.282 134.028 200.497 134.682L201.777 136.218ZM203.237 135.7H211.337V133.7H203.237V135.7ZM211.337 135.7C212.206 135.7 212.831 135.924 213.293 136.3C213.763 136.683 214.161 137.302 214.423 138.263L216.352 137.737C216.014 136.498 215.437 135.467 214.556 134.75C213.668 134.026 212.568 133.7 211.337 133.7V135.7ZM214.42 138.255C215.874 143.757 218.703 147.933 222.942 150.688L224.032 149.012C220.271 146.567 217.701 142.843 216.354 137.745L214.42 138.255ZM222.942 150.688C227.119 153.403 231.912 154.75 237.287 154.75V152.75C232.263 152.75 227.856 151.497 224.032 149.012L222.942 150.688ZM237.287 154.75C244.202 154.75 250.002 152.679 254.61 148.49L253.265 147.01C249.072 150.821 243.772 152.75 237.287 152.75V154.75ZM254.611 148.489C259.357 144.165 261.687 138.225 261.687 130.8H259.687C259.687 137.775 257.518 143.135 253.264 147.011L254.611 148.489ZM261.687 130.8C261.687 124.04 259.334 118.509 254.602 114.303L253.273 115.797C257.541 119.591 259.687 124.56 259.687 130.8H261.687ZM254.61 114.31C250.002 110.121 244.202 108.05 237.287 108.05V110.05C243.772 110.05 249.072 111.979 253.265 115.79L254.61 114.31ZM237.287 108.05C233.608 108.05 230.551 108.559 228.174 109.64L229.001 111.46C231.023 110.541 233.766 110.05 237.287 110.05V108.05ZM228.209 109.624C225.913 110.564 223.635 111.913 221.376 113.659L222.599 115.241C224.739 113.587 226.862 112.336 228.966 111.476L228.209 109.624ZM221.387 113.65C220.209 114.534 219.198 115.205 218.352 115.676L219.323 117.424C220.276 116.895 221.366 116.166 222.587 115.25L221.387 113.65ZM218.39 115.656C217.745 115.978 217.001 116.15 216.137 116.15V118.15C217.274 118.15 218.33 117.922 219.285 117.444L218.39 115.656ZM216.137 116.15H208.337V118.15H216.137V116.15ZM208.337 116.15C207.682 116.15 207.112 115.94 206.588 115.491L205.287 117.009C206.163 117.76 207.192 118.15 208.337 118.15V116.15ZM206.644 115.543C206.136 115.035 205.968 114.528 206.031 113.96L204.043 113.74C203.906 114.972 204.338 116.065 205.23 116.957L206.644 115.543ZM206.033 113.945L210.833 63.8454L208.842 63.6546L204.042 113.755L206.033 113.945ZM210.834 63.833C210.922 62.7714 211.22 62.1318 211.594 61.7571L210.18 60.3429C209.355 61.1682 208.952 62.3286 208.841 63.667L210.834 63.833ZM211.594 61.7571C212.085 61.2663 212.72 61 213.587 61V59C212.254 59 211.089 59.4337 210.18 60.3429L211.594 61.7571ZM213.587 61H265.937V59H213.587V61ZM265.937 61C266.673 61 267.186 61.2428 267.578 61.7008L269.097 60.3992C268.289 59.4572 267.201 59 265.937 59V61ZM267.687 61.8093C268.144 62.2018 268.387 62.714 268.387 63.45H270.387C270.387 62.186 269.93 61.0982 268.988 60.2907L267.687 61.8093ZM268.387 63.45V69.3H270.387V63.45H268.387ZM268.387 69.3C268.387 70.0378 268.141 70.6326 267.63 71.1429L269.044 72.5571C269.934 71.6674 270.387 70.5622 270.387 69.3H268.387ZM267.63 71.1429C267.251 71.5222 266.723 71.75 265.937 71.75V73.75C267.152 73.75 268.224 73.3778 269.044 72.5571L267.63 71.1429ZM265.937 71.75H222.737V73.75H265.937V71.75ZM221.742 72.654L218.892 102.204L220.883 102.396L223.733 72.846L221.742 72.654ZM220.42 103.146C225.632 99.8645 231.939 98.2 239.387 98.2V96.2C231.635 96.2 224.942 97.9355 219.354 101.454L220.42 103.146ZM239.387 98.2C245.847 98.2 251.744 99.5201 257.097 102.148L257.978 100.352C252.33 97.5799 246.128 96.2 239.387 96.2V98.2ZM257.103 102.151C262.539 104.772 266.794 108.546 269.89 113.481L271.584 112.419C268.281 107.154 263.735 103.128 257.972 100.349L257.103 102.151ZM269.898 113.493C273.079 118.41 274.687 124.216 274.687 130.95H276.687C276.687 123.884 274.995 117.69 271.577 112.407L269.898 113.493ZM274.687 130.95C274.687 138.198 273.073 144.41 269.884 149.629L271.591 150.671C275.002 145.09 276.687 138.502 276.687 130.95H274.687ZM269.881 149.633C266.786 154.76 262.435 158.68 256.803 161.399L257.672 163.201C263.639 160.32 268.289 156.14 271.593 150.667L269.881 149.633ZM256.803 161.399C251.159 164.124 244.661 165.5 237.287 165.5V167.5C244.913 167.5 251.716 166.076 257.672 163.201L256.803 161.399Z" fill="black"/>
<rect x="57" y="246" width="66" height="66" rx="5" fill="black"/>
<circle cx="90" cy="279" r="9" fill="#F3F2EE"/>
<rect x="127.5" y="246.5" width="65" height="65" rx="4.5" stroke="black"/>
<g clip-path="url(#clip1_77_476)">
<path d="M160 268.333C165.72 268.333 170.484 271.572 174.22 277.872L174.513 278.377L174.573 278.511L174.613 278.621L174.632 278.695L174.651 278.804L174.665 278.937V279.084L174.647 279.232C174.638 279.282 174.626 279.33 174.612 279.379L174.56 279.523L174.512 279.623L174.491 279.663C170.805 286.111 166.091 289.503 160.417 289.661L160 289.667C154.139 289.667 149.284 286.268 145.509 279.661C145.394 279.46 145.334 279.232 145.334 279C145.334 278.768 145.394 278.54 145.509 278.339C149.284 271.732 154.139 268.333 160 268.333ZM160 275C158.939 275 157.922 275.421 157.172 276.172C156.421 276.922 156 277.939 156 279C156 280.061 156.421 281.078 157.172 281.828C157.922 282.579 158.939 283 160 283C161.061 283 162.078 282.579 162.828 281.828C163.579 281.078 164 280.061 164 279C164 277.939 163.579 276.922 162.828 276.172C162.078 275.421 161.061 275 160 275Z" fill="black"/>
</g>
<rect x="197.5" y="246.5" width="65" height="65" rx="4.5" stroke="black"/>
<rect x="267.5" y="246.5" width="65" height="65" rx="4.5" stroke="black"/>
<rect x="57.5" y="317.5" width="65" height="65" rx="4.5" stroke="black"/>
<rect x="127.5" y="317.5" width="65" height="65" rx="4.5" stroke="black"/>
<rect x="197.5" y="317.5" width="65" height="65" rx="4.5" fill="black" stroke="black"/>
<g clip-path="url(#clip2_77_476)">
<path d="M229.836 335.843L229.997 335.833L230.164 335.843L230.248 335.855L230.334 335.873L230.492 335.921C230.6 335.961 230.704 336.015 230.799 336.08L230.946 336.196L231.308 336.505C234.165 338.879 237.777 340.153 241.492 340.099L241.977 340.085C242.293 340.07 242.606 340.163 242.864 340.347C243.122 340.531 243.311 340.796 243.4 341.101C244.096 343.469 244.309 345.952 244.027 348.404C243.744 350.856 242.971 353.227 241.754 355.374C240.537 357.522 238.901 359.403 236.943 360.905C234.985 362.408 232.745 363.502 230.356 364.121C230.122 364.182 229.878 364.182 229.644 364.121C227.255 363.502 225.015 362.408 223.056 360.906C221.098 359.403 219.462 357.522 218.245 355.375C217.028 353.227 216.255 350.857 215.972 348.405C215.689 345.953 215.902 343.469 216.598 341.101C216.688 340.796 216.877 340.531 217.135 340.347C217.393 340.163 217.705 340.07 218.022 340.085C221.9 340.262 225.705 338.985 228.691 336.505L229.064 336.186L229.2 336.08C229.295 336.015 229.398 335.961 229.507 335.921L229.666 335.873C229.721 335.86 229.779 335.85 229.836 335.843Z" fill="#F3F2EE"/>
</g>
<rect x="267.5" y="317.5" width="65" height="65" rx="4.5" stroke="black"/>
<rect x="57.5" y="388.5" width="65" height="65" rx="4.5" stroke="black"/>
<rect x="127.5" y="388.5" width="65" height="65" rx="4.5" stroke="black"/>
<rect x="197.5" y="388.5" width="65" height="65" rx="4.5" stroke="black"/>
<g clip-path="url(#clip3_77_476)">
<path d="M230 410.333C235.72 410.333 240.484 413.572 244.22 419.872L244.513 420.377L244.573 420.511L244.613 420.621L244.632 420.695L244.651 420.804L244.665 420.937V421.084L244.647 421.232C244.638 421.282 244.626 421.33 244.612 421.379L244.56 421.523L244.512 421.623L244.491 421.663C240.805 428.111 236.091 431.503 230.417 431.661L230 431.667C224.139 431.667 219.284 428.268 215.509 421.661C215.394 421.46 215.334 421.232 215.334 421C215.334 420.768 215.394 420.54 215.509 420.339C219.284 413.732 224.139 410.333 230 410.333ZM230 417C228.939 417 227.922 417.421 227.172 418.172C226.421 418.922 226 419.939 226 421C226 422.061 226.421 423.078 227.172 423.828C227.922 424.579 228.939 425 230 425C231.061 425 232.078 424.579 232.828 423.828C233.579 423.078 234 422.061 234 421C234 419.939 233.579 418.922 232.828 418.172C232.078 417.421 231.061 417 230 417Z" fill="black"/>
</g>
<rect x="267.5" y="388.5" width="65" height="65" rx="4.5" stroke="black"/>
<rect x="57" y="459" width="66" height="66" rx="5" fill="black"/>
<circle cx="90" cy="492" r="9" fill="#F3F2EE"/>
<rect x="127.5" y="459.5" width="65" height="65" rx="4.5" stroke="black"/>
<rect x="197.5" y="459.5" width="65" height="65" rx="4.5" stroke="black"/>
<rect x="267.5" y="459.5" width="65" height="65" rx="4.5" fill="black" stroke="black"/>
<g clip-path="url(#clip4_77_476)">
<path d="M300 478.667C307.363 478.667 313.333 484.263 313.333 491.167C313.333 494.335 312.075 497.228 310 499.433V503.667C310 504.109 309.824 504.533 309.512 504.845C309.199 505.158 308.775 505.333 308.333 505.333H291.667C291.225 505.333 290.801 505.158 290.488 504.845C290.176 504.533 290 504.109 290 503.667V499.433C287.925 497.23 286.667 494.337 286.667 491.167C286.667 484.263 292.637 478.667 300 478.667Z" fill="#F3F2EE" stroke="black" stroke-width="2.75" stroke-linecap="round" stroke-linejoin="round"/>
<path d="M296.667 500.333V505.333" stroke="black" stroke-width="2.75" stroke-linecap="round" stroke-linejoin="round"/>
<path d="M303.333 500.333V505.333" stroke="black" stroke-width="2.75" stroke-linecap="round" stroke-linejoin="round"/>
<path d="M293.333 490.333C293.333 490.775 293.509 491.199 293.822 491.512C294.134 491.824 294.558 492 295 492C295.442 492 295.866 491.824 296.179 491.512C296.491 491.199 296.667 490.775 296.667 490.333C296.667 489.891 296.491 489.467 296.179 489.155C295.866 488.842 295.442 488.667 295 488.667C294.558 488.667 294.134 488.842 293.822 489.155C293.509 489.467 293.333 489.891 293.333 490.333Z" fill="black"/>
<path d="M303.333 490.333C303.333 490.775 303.509 491.199 303.822 491.512C304.134 491.824 304.558 492 305 492C305.442 492 305.866 491.824 306.179 491.512C306.491 491.199 306.667 490.775 306.667 490.333C306.667 489.891 306.491 489.467 306.179 489.155C305.866 488.842 305.442 488.667 305 488.667C304.558 488.667 304.134 488.842 303.822 489.155C303.509 489.467 303.333 489.891 303.333 490.333Z" fill="black"/>
</g>
<rect x="57.5" y="530.5" width="65" height="65" rx="4.5" fill="black" stroke="black"/>
<path d="M83.4865 551.114C84.6365 550.913 85.8159 550.979 86.9377 551.308C88.0594 551.636 89.095 552.219 89.968 553.012L90.016 553.056L90.0602 553.016C90.8934 552.267 91.8729 551.708 92.9335 551.377C93.994 551.046 95.1111 550.951 96.2104 551.098L96.53 551.146C97.9156 551.391 99.2107 552.016 100.278 552.954C101.346 553.893 102.146 555.11 102.594 556.477C103.042 557.843 103.121 559.309 102.823 560.718C102.525 562.127 101.861 563.427 100.901 564.481L100.667 564.728L100.605 564.782L90.9243 574.615C90.7009 574.841 90.405 574.977 90.0913 574.997C89.7775 575.017 89.4674 574.92 89.2182 574.724L89.096 574.615L79.3595 564.725C78.3281 563.696 77.5945 562.394 77.2401 560.964C76.8857 559.533 76.9243 558.03 77.3515 556.621C77.7788 555.212 78.5781 553.952 79.6609 552.979C80.7437 552.007 82.0678 551.362 83.4865 551.114Z" fill="#F3F2EE"/>
<rect x="127.5" y="530.5" width="65" height="65" rx="4.5" stroke="black"/>
<rect x="197" y="530" width="66" height="66" rx="5" fill="black"/>
<circle cx="230" cy="563" r="9" fill="#F3F2EE"/>
<rect x="267.5" y="530.5" width="65" height="65" rx="4.5" stroke="black"/>
<rect x="57.5" y="601.5" width="65" height="65" rx="4.5" stroke="black"/>
<rect x="127.5" y="601.5" width="65" height="65" rx="4.5" stroke="black"/>
<rect x="197.5" y="601.5" width="65" height="65" rx="4.5" stroke="black"/>
<rect x="267.5" y="601.5" width="65" height="65" rx="4.5" stroke="black"/>
<rect x="57.5" y="672.5" width="65" height="65" rx="4.5" stroke="black"/>
<rect x="127.5" y="672.5" width="65" height="65" rx="4.5" stroke="black"/>
<rect x="197.5" y="672.5" width="65" height="65" rx="4.5" stroke="black"/>
<rect x="267.5" y="672.5" width="65" height="65" rx="4.5" stroke="black"/>
<rect x="57.5" y="743.5" width="65" height="65" rx="4.5" stroke="black"/>
<rect x="127.5" y="743.5" width="65" height="65" rx="4.5" stroke="black"/>
<rect x="197.5" y="743.5" width="65" height="65" rx="4.5" stroke="black"/>
<rect x="267.5" y="743.5" width="65" height="65" rx="4.5" stroke="black"/>
<rect x="57" y="814" width="66" height="66" rx="5" fill="black"/>
<circle cx="90" cy="847" r="9" fill="#F3F2EE"/>
<rect x="127" y="814" width="66" height="66" rx="5" fill="black"/>
<circle cx="160" cy="847" r="9" fill="#F3F2EE"/>
<rect x="197" y="814" width="66" height="66" rx="5" fill="black"/>
<circle cx="230" cy="847" r="9" fill="#F3F2EE"/>
<rect x="267.5" y="814.5" width="65" height="65" rx="4.5" fill="black" stroke="black"/>
<path d="M313 847C309.533 852.778 305.2 855.667 300 855.667C294.8 855.667 290.467 852.778 287 847C290.467 841.222 294.8 838.333 300 838.333C305.2 838.333 309.533 841.222 313 847Z" fill="#F3F2EE"/>
<rect y="729" width="390" height="115" fill="url(#paint0_linear_77_476)"/>
<g clip-path="url(#clip5_77_476)">
<path d="M155.596 794.227C156.813 794.019 158.061 794.088 159.248 794.427C160.435 794.766 161.531 795.367 162.455 796.186L162.506 796.231L162.552 796.19C163.434 795.417 164.47 794.84 165.593 794.498C166.715 794.157 167.897 794.059 169.06 794.21L169.398 794.26C170.865 794.513 172.235 795.158 173.365 796.126C174.494 797.095 175.341 798.351 175.815 799.761C176.289 801.171 176.373 802.683 176.057 804.138C175.742 805.592 175.04 806.933 174.024 808.021L173.776 808.275L173.71 808.331L163.467 818.478C163.23 818.712 162.917 818.852 162.585 818.873C162.253 818.893 161.925 818.793 161.661 818.59L161.532 818.478L151.229 808.272C150.138 807.21 149.362 805.867 148.986 804.391C148.611 802.915 148.652 801.364 149.104 799.91C149.557 798.456 150.402 797.155 151.548 796.152C152.694 795.149 154.095 794.483 155.596 794.227Z" fill="black"/>
</g>
<g clip-path="url(#clip6_77_476)">
<path d="M188.596 794.227C189.813 794.019 191.061 794.088 192.248 794.427C193.435 794.766 194.531 795.367 195.455 796.186L195.506 796.231L195.552 796.19C196.434 795.417 197.47 794.84 198.593 794.498C199.715 794.157 200.897 794.059 202.06 794.21L202.398 794.26C203.865 794.513 205.235 795.158 206.365 796.126C207.494 797.095 208.341 798.351 208.815 799.761C209.289 801.171 209.373 802.683 209.057 804.138C208.742 805.592 208.04 806.933 207.024 808.021L206.776 808.275L206.71 808.331L196.467 818.478C196.23 818.712 195.917 818.852 195.585 818.873C195.253 818.893 194.925 818.793 194.661 818.59L194.532 818.478L184.229 808.272C183.138 807.21 182.362 805.867 181.986 804.391C181.611 802.915 181.652 801.364 182.104 799.91C182.557 798.456 183.402 797.155 184.548 796.152C185.694 795.149 187.095 794.483 188.596 794.227Z" fill="black"/>
</g>
<g clip-path="url(#clip7_77_476)">
<path d="M221.596 794.227C222.813 794.019 224.061 794.088 225.248 794.427C226.435 794.766 227.531 795.367 228.455 796.186L228.506 796.231L228.552 796.19C229.434 795.417 230.47 794.84 231.593 794.498C232.715 794.157 233.897 794.059 235.06 794.21L235.398 794.26C236.865 794.513 238.235 795.158 239.365 796.126C240.494 797.095 241.341 798.351 241.815 799.761C242.289 801.171 242.373 802.683 242.057 804.138C241.742 805.592 241.04 806.933 240.024 808.021L239.776 808.275L239.71 808.331L229.467 818.478C229.23 818.712 228.917 818.852 228.585 818.873C228.253 818.893 227.925 818.793 227.661 818.59L227.532 818.478L217.229 808.272C216.138 807.21 215.362 805.867 214.986 804.391C214.611 802.915 214.652 801.364 215.104 799.91C215.557 798.456 216.402 797.155 217.548 796.152C218.694 795.149 220.095 794.483 221.596 794.227Z" fill="black"/>
</g>
<g clip-path="url(#clip8_77_476)">
<path d="M41 797.25C41 797.979 41.281 798.679 41.781 799.195C42.2811 799.71 42.9594 800 43.6667 800C44.3739 800 45.0522 799.71 45.5523 799.195C46.0524 798.679 46.3333 797.979 46.3333 797.25C46.3333 796.521 46.0524 795.821 45.5523 795.305C45.0522 794.79 44.3739 794.5 43.6667 794.5C42.9594 794.5 42.2811 794.79 41.781 795.305C41.281 795.821 41 796.521 41 797.25Z" stroke="black" stroke-width="1.75" stroke-linecap="round" stroke-linejoin="round"/>
<path d="M30.3334 797.25H41" stroke="black" stroke-width="1.75" stroke-linecap="round" stroke-linejoin="round"/>
<path d="M46.3334 797.25H51.6667" stroke="black" stroke-width="1.75" stroke-linecap="round" stroke-linejoin="round"/>
<path d="M33 805.5C33 806.229 33.281 806.929 33.781 807.445C34.2811 807.96 34.9594 808.25 35.6667 808.25C36.3739 808.25 37.0522 807.96 37.5523 807.445C38.0524 806.929 38.3333 806.229 38.3333 805.5C38.3333 804.771 38.0524 804.071 37.5523 803.555C37.0522 803.04 36.3739 802.75 35.6667 802.75C34.9594 802.75 34.2811 803.04 33.781 803.555C33.281 804.071 33 804.771 33 805.5Z" stroke="black" stroke-width="1.75" stroke-linecap="round" stroke-linejoin="round"/>
<path d="M30.3334 805.5H33" stroke="black" stroke-width="1.75" stroke-linecap="round" stroke-linejoin="round"/>
<path d="M38.3334 805.5H51.6667" stroke="black" stroke-width="1.75" stroke-linecap="round" stroke-linejoin="round"/>
<path d="M45 813.75C45 814.479 45.281 815.179 45.781 815.695C46.2811 816.21 46.9594 816.5 47.6667 816.5C48.3739 816.5 49.0522 816.21 49.5523 815.695C50.0524 815.179 50.3333 814.479 50.3333 813.75C50.3333 813.021 50.0524 812.321 49.5523 811.805C49.0522 811.29 48.3739 811 47.6667 811C46.9594 811 46.2811 811.29 45.781 811.805C45.281 812.321 45 813.021 45 813.75Z" stroke="black" stroke-width="1.75" stroke-linecap="round" stroke-linejoin="round"/>
<path d="M30.3334 813.75H45" stroke="black" stroke-width="1.75" stroke-linecap="round" stroke-linejoin="round"/>
<path d="M50.3334 813.75H51.6667" stroke="black" stroke-width="1.75" stroke-linecap="round" stroke-linejoin="round"/>
</g>
<g clip-path="url(#clip9_77_476)">
<path d="M345 795.333H353C353.707 795.333 354.386 795.614 354.886 796.114C355.386 796.614 355.667 797.293 355.667 798V816.667L349 812.667L342.333 816.667V798C342.333 797.293 342.614 796.614 343.114 796.114C343.615 795.614 344.293 795.333 345 795.333Z" stroke="black" stroke-width="1.75" stroke-linecap="round" stroke-linejoin="round"/>
</g>
<rect x="57" y="208" width="60" height="28" rx="5" fill="#DBDAD6"/>
<path d="M89.1606 227C89.0806 227 89.0056 226.97 88.9356 226.91C88.8756 226.85 88.8456 226.775 88.8456 226.685C88.8456 226.595 88.8806 226.505 88.9506 226.415L91.5606 223.01L89.1156 219.785C89.0456 219.705 89.0106 219.615 89.0106 219.515C89.0106 219.425 89.0406 219.35 89.1006 219.29C89.1606 219.23 89.2356 219.2 89.3256 219.2H90.0906C90.2406 219.2 90.3706 219.28 90.4806 219.44L92.4756 222.035L94.4706 219.455C94.5306 219.375 94.5856 219.315 94.6356 219.275C94.6956 219.225 94.7706 219.2 94.8606 219.2H95.5956C95.6856 219.2 95.7606 219.23 95.8206 219.29C95.8806 219.35 95.9106 219.425 95.9106 219.515C95.9106 219.615 95.8756 219.705 95.8056 219.785L93.3306 223.04L95.9406 226.415C96.0106 226.505 96.0456 226.595 96.0456 226.685C96.0456 226.775 96.0156 226.85 95.9556 226.91C95.8956 226.97 95.8206 227 95.7306 227H94.9356C94.7856 227 94.6556 226.925 94.5456 226.775L92.4456 224.03L90.3156 226.775C90.2556 226.845 90.1956 226.9 90.1356 226.94C90.0856 226.98 90.0156 227 89.9256 227H89.1606ZM104.313 227C104.213 227 104.128 226.97 104.058 226.91C103.998 226.84 103.968 226.755 103.968 226.655V218.255L101.478 220.175C101.408 220.235 101.333 220.265 101.253 220.265C101.163 220.265 101.078 220.215 100.998 220.115L100.608 219.62C100.558 219.55 100.533 219.48 100.533 219.41C100.533 219.29 100.583 219.195 100.683 219.125L103.953 216.605C104.063 216.535 104.193 216.5 104.343 216.5H105.108C105.208 216.5 105.288 216.535 105.348 216.605C105.418 216.665 105.453 216.745 105.453 216.845V226.655C105.453 226.755 105.418 226.84 105.348 226.91C105.288 226.97 105.208 227 105.108 227H104.313Z" fill="black"/>
<path d="M72.9075 214.006L72.9988 214L73.0933 214.006L73.1406 214.012L73.1894 214.022L73.2783 214.05C73.3397 214.072 73.3981 214.102 73.4522 214.139L73.5355 214.205L73.7397 214.379C75.3556 215.72 77.3979 216.439 79.4983 216.409L79.7722 216.401C79.9513 216.393 80.128 216.445 80.2739 216.549C80.4199 216.653 80.5267 216.803 80.5773 216.974C80.9709 218.312 81.0913 219.714 80.9314 221.099C80.7716 222.484 80.3346 223.822 79.6466 225.035C78.9585 226.247 78.0334 227.31 76.9262 228.158C75.819 229.007 74.5523 229.624 73.2014 229.974C73.0696 230.009 72.9312 230.009 72.7993 229.974C71.4483 229.624 70.1815 229.007 69.0743 228.158C67.967 227.31 67.0418 226.248 66.3537 225.035C65.6655 223.822 65.2285 222.484 65.0686 221.099C64.9087 219.714 65.0291 218.312 65.4227 216.974C65.4732 216.803 65.58 216.653 65.726 216.549C65.8719 216.445 66.0486 216.393 66.2277 216.401C68.4205 216.501 70.5717 215.78 72.2602 214.379L72.4709 214.199L72.5478 214.139C72.6018 214.102 72.6602 214.072 72.7216 214.05L72.8113 214.022C72.8427 214.015 72.8754 214.009 72.9075 214.006Z" fill="black"/>
</g>
<defs>
<linearGradient id="paint0_linear_77_476" x1="195" y1="729" x2="195" y2="844" gradientUnits="userSpaceOnUse">
<stop stop-color="#F3F2EE" stop-opacity="0.63"/>
<stop offset="0.395833" stop-color="#F3F2EE"/>
</linearGradient>
<clipPath id="clip0_77_476">
<rect width="390" height="844" fill="white"/>
</clipPath>
<clipPath id="clip1_77_476">
<rect width="32" height="32" fill="white" transform="translate(144 263)"/>
</clipPath>
<clipPath id="clip2_77_476">
<rect width="34" height="34" fill="white" transform="translate(213 333)"/>
</clipPath>
<clipPath id="clip3_77_476">
<rect width="32" height="32" fill="white" transform="translate(214 405)"/>
</clipPath>
<clipPath id="clip4_77_476">
<rect width="40" height="40" fill="white" transform="translate(280 472)"/>
</clipPath>
<clipPath id="clip5_77_476">
<rect width="33" height="33" fill="white" transform="translate(146 790)"/>
</clipPath>
<clipPath id="clip6_77_476">
<rect width="33" height="33" fill="white" transform="translate(179 790)"/>
</clipPath>
<clipPath id="clip7_77_476">
<rect width="33" height="33" fill="white" transform="translate(212 790)"/>
</clipPath>
<clipPath id="clip8_77_476">
<rect width="32" height="33" fill="white" transform="translate(25 789)"/>
</clipPath>
<clipPath id="clip9_77_476">
<rect width="32" height="32" fill="white" transform="translate(333 790)"/>
</clipPath>
</defs>
</svg>
