<svg width="390" height="844" viewBox="0 0 390 844" fill="none" xmlns="http://www.w3.org/2000/svg">
<rect width="390" height="844" fill="#F3F2EE"/>
<path opacity="0.5" d="M176.742 164.1L175.928 164.681L175.976 164.749L176.035 164.807L176.742 164.1ZM176.592 159.75L175.78 159.167L175.77 159.181L175.76 159.195L176.592 159.75ZM199.542 127.8L200.354 128.383L201.945 126.168L199.299 126.83L199.542 127.8ZM191.442 128.7L191.428 129.7H191.442V128.7ZM172.542 123.75L172.032 124.61L172.039 124.614L172.542 123.75ZM159.942 76.95L159.057 76.4836L159.054 76.4897L159.942 76.95ZM172.842 63.6L172.33 62.7412L172.33 62.7412L172.842 63.6ZM214.242 63.45L213.741 64.3154L213.747 64.3192L214.242 63.45ZM227.292 76.5L228.173 76.0269L228.173 76.0269L227.292 76.5ZM228.792 108.15L229.699 108.57L229.703 108.562L228.792 108.15ZM220.842 121.65L221.655 122.233L221.659 122.227L221.664 122.22L220.842 121.65ZM191.892 162L192.681 162.614L192.693 162.599L192.705 162.583L191.892 162ZM189.792 164.25L190.432 165.018L190.443 165.009L189.792 164.25ZM205.092 113.85L205.549 114.739L205.559 114.734L205.092 113.85ZM213.642 105.9L214.493 106.426L214.499 106.414L213.642 105.9ZM213.642 82.05L212.784 82.5645L212.791 82.5755L213.642 82.05ZM205.092 74.1L204.615 74.9789L204.63 74.9869L204.645 74.9944L205.092 74.1ZM181.992 74.1L182.449 74.9893L182.459 74.9842L182.469 74.9789L181.992 74.1ZM173.592 82.05L172.734 81.5355L172.73 81.543L173.592 82.05ZM173.592 105.9L172.724 106.396L172.732 106.411L172.741 106.425L173.592 105.9ZM181.992 113.85L181.515 114.729L181.525 114.734L181.535 114.739L181.992 113.85ZM178.992 164C178.339 164 177.849 163.793 177.449 163.393L176.035 164.807C176.835 165.607 177.845 166 178.992 166V164ZM177.556 163.519C177.183 162.997 176.992 162.402 176.992 161.7H174.992C174.992 162.798 175.301 163.803 175.928 164.681L177.556 163.519ZM176.992 161.7C176.992 161.204 177.13 160.746 177.424 160.305L175.76 159.195C175.254 159.954 174.992 160.796 174.992 161.7H176.992ZM177.404 160.333L200.354 128.383L198.73 127.217L175.78 159.167L177.404 160.333ZM199.299 126.83C196.993 127.406 194.377 127.7 191.442 127.7V129.7C194.507 129.7 197.291 129.394 199.785 128.77L199.299 126.83ZM191.456 127.7C184.508 127.602 178.38 125.99 173.045 122.886L172.039 124.614C177.704 127.91 184.176 129.598 191.428 129.7L191.456 127.7ZM173.052 122.89C167.8 119.777 163.78 115.656 160.969 110.52L159.215 111.48C162.204 116.944 166.484 121.323 172.032 124.61L173.052 122.89ZM160.969 110.52C158.149 105.366 156.742 99.881 156.742 94.05H154.742C154.742 100.219 156.235 106.034 159.215 111.48L160.969 110.52ZM156.742 94.05C156.742 88.2125 158.102 82.6701 160.83 77.4103L159.054 76.4897C156.182 82.0299 154.742 87.8875 154.742 94.05H156.742ZM160.827 77.4164C163.635 72.09 167.801 67.7713 173.354 64.4588L172.33 62.7412C166.483 66.2287 162.049 70.81 159.057 76.4836L160.827 77.4164ZM173.354 64.4588C178.868 61.1696 185.583 59.5 193.542 59.5V57.5C185.301 57.5 178.215 59.2304 172.33 62.7412L173.354 64.4588ZM193.542 59.5C201.506 59.5 208.225 61.1217 213.741 64.3154L214.743 62.5846C208.859 59.1783 201.778 57.5 193.542 57.5V59.5ZM213.747 64.3192C219.399 67.5347 223.608 71.7535 226.411 76.9731L228.173 76.0269C225.176 70.4465 220.685 65.9653 214.737 62.5808L213.747 64.3192ZM226.411 76.9731C229.233 82.2284 230.642 87.8159 230.642 93.75H232.642C232.642 87.4841 231.151 81.5716 228.173 76.0269L226.411 76.9731ZM230.642 93.75C230.642 99.032 229.713 103.688 227.881 107.738L229.703 108.562C231.671 104.212 232.642 99.268 232.642 93.75H230.642ZM227.885 107.73C226.015 111.764 223.397 116.213 220.02 121.08L221.664 122.22C225.087 117.287 227.769 112.736 229.699 108.57L227.885 107.73ZM220.029 121.067L191.079 161.417L192.705 162.583L221.655 122.233L220.029 121.067ZM191.103 161.386C190.435 162.245 189.78 162.943 189.141 163.491L190.443 165.009C191.204 164.357 191.949 163.555 192.681 162.614L191.103 161.386ZM189.152 163.482C188.806 163.77 188.178 164 187.092 164V166C188.406 166 189.578 165.73 190.432 165.018L189.152 163.482ZM187.092 164H178.992V166H187.092V164ZM193.542 117.55C197.89 117.55 201.898 116.617 205.549 114.739L204.635 112.961C201.286 114.683 197.594 115.55 193.542 115.55V117.55ZM205.559 114.734C209.313 112.753 212.297 109.98 214.493 106.425L212.791 105.375C210.787 108.62 208.071 111.147 204.625 112.966L205.559 114.734ZM214.499 106.414C216.702 102.743 217.792 98.5621 217.792 93.9H215.792C215.792 98.2379 214.782 102.057 212.785 105.386L214.499 106.414ZM217.792 93.9C217.792 89.2384 216.702 85.1017 214.493 81.5245L212.791 82.5755C214.782 85.7983 215.792 89.5616 215.792 93.9H217.792ZM214.499 81.5355C212.303 77.8749 209.312 75.0919 205.539 73.2056L204.645 74.9944C208.072 76.7081 210.781 79.2251 212.785 82.5645L214.499 81.5355ZM205.569 73.2211C201.915 71.2373 197.899 70.25 193.542 70.25V72.25C197.585 72.25 201.269 73.1627 204.615 74.9789L205.569 73.2211ZM193.542 70.25C189.185 70.25 185.169 71.2373 181.515 73.2211L182.469 74.9789C185.815 73.1627 189.499 72.25 193.542 72.25V70.25ZM181.535 73.2107C177.863 75.0992 174.927 77.882 172.735 81.5355L174.449 82.5645C176.457 79.218 179.121 76.7008 182.449 74.9893L181.535 73.2107ZM172.73 81.543C170.628 85.1173 169.592 89.2473 169.592 93.9H171.592C171.592 89.5527 172.556 85.7827 174.454 82.557L172.73 81.543ZM169.592 93.9C169.592 98.5533 170.628 102.728 172.724 106.396L174.46 105.404C172.556 102.072 171.592 98.2467 171.592 93.9H169.592ZM172.741 106.425C174.932 109.973 177.861 112.745 181.515 114.729L182.469 112.971C179.123 111.155 176.451 108.627 174.443 105.375L172.741 106.425ZM181.535 114.739C185.186 116.617 189.194 117.55 193.542 117.55V115.55C189.49 115.55 185.798 114.683 182.449 112.961L181.535 114.739Z" fill="black"/>
<g clip-path="url(#clip0_77_474)">
<path d="M155.596 794.227C156.813 794.019 158.061 794.088 159.248 794.427C160.435 794.766 161.531 795.367 162.455 796.186L162.505 796.231L162.552 796.19C163.434 795.417 164.47 794.84 165.593 794.498C166.715 794.157 167.897 794.059 169.06 794.21L169.398 794.26C170.865 794.513 172.235 795.158 173.365 796.126C174.494 797.095 175.341 798.351 175.815 799.761C176.289 801.171 176.373 802.683 176.057 804.138C175.742 805.592 175.039 806.933 174.024 808.021L173.776 808.275L173.71 808.331L163.467 818.478C163.23 818.712 162.917 818.852 162.585 818.873C162.253 818.893 161.925 818.793 161.661 818.59L161.532 818.478L151.229 808.272C150.138 807.21 149.361 805.867 148.986 804.391C148.611 802.915 148.652 801.364 149.104 799.91C149.556 798.456 150.402 797.155 151.548 796.152C152.694 795.149 154.095 794.483 155.596 794.227Z" fill="black"/>
</g>
<g clip-path="url(#clip1_77_474)">
<path d="M188.596 794.227C189.813 794.019 191.061 794.088 192.248 794.427C193.435 794.766 194.531 795.367 195.455 796.186L195.505 796.231L195.552 796.19C196.434 795.417 197.47 794.84 198.593 794.498C199.715 794.157 200.897 794.059 202.06 794.21L202.398 794.26C203.865 794.513 205.235 795.158 206.365 796.126C207.494 797.095 208.341 798.351 208.815 799.761C209.289 801.171 209.373 802.683 209.057 804.138C208.742 805.592 208.039 806.933 207.024 808.021L206.776 808.275L206.71 808.331L196.467 818.478C196.23 818.712 195.917 818.852 195.585 818.873C195.253 818.893 194.925 818.793 194.661 818.59L194.532 818.478L184.229 808.272C183.138 807.21 182.361 805.867 181.986 804.391C181.611 802.915 181.652 801.364 182.104 799.91C182.556 798.456 183.402 797.155 184.548 796.152C185.694 795.149 187.095 794.483 188.596 794.227Z" fill="black"/>
</g>
<g clip-path="url(#clip2_77_474)">
<path d="M221.596 794.227C222.813 794.019 224.061 794.088 225.248 794.427C226.435 794.766 227.531 795.367 228.455 796.186L228.505 796.231L228.552 796.19C229.434 795.417 230.47 794.84 231.593 794.498C232.715 794.157 233.897 794.059 235.06 794.21L235.398 794.26C236.865 794.513 238.235 795.158 239.365 796.126C240.494 797.095 241.341 798.351 241.815 799.761C242.289 801.171 242.373 802.683 242.057 804.138C241.742 805.592 241.039 806.933 240.024 808.021L239.776 808.275L239.71 808.331L229.467 818.478C229.23 818.712 228.917 818.852 228.585 818.873C228.253 818.893 227.925 818.793 227.661 818.59L227.532 818.478L217.229 808.272C216.138 807.21 215.361 805.867 214.986 804.391C214.611 802.915 214.652 801.364 215.104 799.91C215.556 798.456 216.402 797.155 217.548 796.152C218.694 795.149 220.095 794.483 221.596 794.227Z" fill="black"/>
</g>
<rect x="57.5" y="247.5" width="65" height="65" rx="4.5" fill="black" stroke="black"/>
<g clip-path="url(#clip3_77_474)">
<path d="M90 266.667C97.3633 266.667 103.333 272.263 103.333 279.167C103.333 282.335 102.075 285.228 100 287.433V291.667C100 292.109 99.8244 292.533 99.5118 292.845C99.1993 293.158 98.7754 293.333 98.3333 293.333H81.6667C81.2246 293.333 80.8007 293.158 80.4881 292.845C80.1756 292.533 80 292.109 80 291.667V287.433C77.925 285.23 76.6667 282.337 76.6667 279.167C76.6667 272.263 82.6367 266.667 90 266.667Z" fill="#F3F2EE" stroke="black" stroke-width="2.75" stroke-linecap="round" stroke-linejoin="round"/>
<path d="M86.6667 288.333V293.333" stroke="black" stroke-width="2.75" stroke-linecap="round" stroke-linejoin="round"/>
<path d="M93.3333 288.333V293.333" stroke="black" stroke-width="2.75" stroke-linecap="round" stroke-linejoin="round"/>
<path d="M83.3333 278.333C83.3333 278.775 83.5089 279.199 83.8215 279.512C84.1341 279.824 84.558 280 85 280C85.442 280 85.866 279.824 86.1785 279.512C86.4911 279.199 86.6667 278.775 86.6667 278.333C86.6667 277.891 86.4911 277.467 86.1785 277.155C85.866 276.842 85.442 276.667 85 276.667C84.558 276.667 84.1341 276.842 83.8215 277.155C83.5089 277.467 83.3333 277.891 83.3333 278.333Z" fill="black"/>
<path d="M93.3333 278.333C93.3333 278.775 93.5089 279.199 93.8215 279.512C94.1341 279.824 94.558 280 95 280C95.442 280 95.866 279.824 96.1785 279.512C96.4911 279.199 96.6667 278.775 96.6667 278.333C96.6667 277.891 96.4911 277.467 96.1785 277.155C95.866 276.842 95.442 276.667 95 276.667C94.558 276.667 94.1341 276.842 93.8215 277.155C93.5089 277.467 93.3333 277.891 93.3333 278.333Z" fill="black"/>
</g>
<rect x="127" y="247" width="66" height="66" rx="5" fill="black"/>
<circle cx="160" cy="280" r="9" fill="#F3F2EE"/>
<rect x="197" y="247" width="66" height="66" rx="5" fill="black"/>
<circle cx="230" cy="280" r="9" fill="#F3F2EE"/>
<rect x="267" y="247" width="66" height="66" rx="5" fill="black"/>
<circle cx="300" cy="280" r="9" fill="#F3F2EE"/>
<rect x="57" y="318" width="66" height="66" rx="5" fill="black"/>
<circle cx="90" cy="351" r="9" fill="#F3F2EE"/>
<rect x="127" y="318" width="66" height="66" rx="5" fill="black"/>
<circle cx="160" cy="351" r="9" fill="#F3F2EE"/>
<rect x="197.5" y="318.5" width="65" height="65" rx="4.5" stroke="black"/>
<rect x="267.5" y="318.5" width="65" height="65" rx="4.5" stroke="black"/>
<rect x="57.5" y="389.5" width="65" height="65" rx="4.5" stroke="black"/>
<rect x="127" y="389" width="66" height="66" rx="5" fill="black"/>
<circle cx="160" cy="422" r="9" fill="#F3F2EE"/>
<rect x="197.5" y="389.5" width="65" height="65" rx="4.5" stroke="black"/>
<rect x="267.5" y="389.5" width="65" height="65" rx="4.5" fill="black" stroke="black"/>
<path d="M293.486 410.114C294.637 409.913 295.816 409.979 296.938 410.308C298.059 410.636 299.095 411.219 299.968 412.012L300.016 412.056L300.06 412.016C300.893 411.267 301.873 410.708 302.933 410.377C303.994 410.046 305.111 409.951 306.21 410.098L306.53 410.146C307.916 410.391 309.211 411.016 310.278 411.954C311.346 412.893 312.146 414.11 312.594 415.477C313.042 416.843 313.121 418.309 312.823 419.718C312.525 421.127 311.861 422.427 310.901 423.481L310.667 423.728L310.605 423.782L300.924 433.615C300.701 433.841 300.405 433.977 300.091 433.997C299.778 434.017 299.467 433.92 299.218 433.724L299.096 433.615L289.36 423.725C288.328 422.696 287.595 421.394 287.24 419.964C286.886 418.533 286.924 417.03 287.352 415.621C287.779 414.212 288.578 412.952 289.661 411.979C290.744 411.007 292.068 410.362 293.486 410.114Z" fill="#F3F2EE"/>
<rect x="57.5" y="460.5" width="65" height="65" rx="4.5" stroke="black"/>
<g clip-path="url(#clip4_77_474)">
<path d="M90 482.333C95.72 482.333 100.484 485.572 104.22 491.872L104.513 492.377L104.573 492.511L104.613 492.621L104.632 492.695L104.651 492.804L104.665 492.937V493.084L104.647 493.232C104.638 493.282 104.626 493.33 104.612 493.379L104.56 493.523L104.512 493.623L104.491 493.663C100.805 500.111 96.0907 503.503 90.4173 503.661L90 503.667C84.1387 503.667 79.284 500.268 75.5093 493.661C75.3943 493.46 75.3338 493.232 75.3338 493C75.3338 492.768 75.3943 492.54 75.5093 492.339C79.284 485.732 84.1387 482.333 90 482.333ZM90 489C88.9391 489 87.9217 489.421 87.1716 490.172C86.4214 490.922 86 491.939 86 493C86 494.061 86.4214 495.078 87.1716 495.828C87.9217 496.579 88.9391 497 90 497C91.0609 497 92.0783 496.579 92.8284 495.828C93.5786 495.078 94 494.061 94 493C94 491.939 93.5786 490.922 92.8284 490.172C92.0783 489.421 91.0609 489 90 489Z" fill="black"/>
</g>
<rect x="127.5" y="460.5" width="65" height="65" rx="4.5" stroke="black"/>
<g clip-path="url(#clip5_77_474)">
<path d="M160 482.333C165.72 482.333 170.484 485.572 174.22 491.872L174.513 492.377L174.573 492.511L174.613 492.621L174.632 492.695L174.651 492.804L174.665 492.937V493.084L174.647 493.232C174.638 493.282 174.626 493.33 174.612 493.379L174.56 493.523L174.512 493.623L174.491 493.663C170.805 500.111 166.091 503.503 160.417 503.661L160 503.667C154.139 503.667 149.284 500.268 145.509 493.661C145.394 493.46 145.334 493.232 145.334 493C145.334 492.768 145.394 492.54 145.509 492.339C149.284 485.732 154.139 482.333 160 482.333ZM160 489C158.939 489 157.922 489.421 157.172 490.172C156.421 490.922 156 491.939 156 493C156 494.061 156.421 495.078 157.172 495.828C157.922 496.579 158.939 497 160 497C161.061 497 162.078 496.579 162.828 495.828C163.579 495.078 164 494.061 164 493C164 491.939 163.579 490.922 162.828 490.172C162.078 489.421 161.061 489 160 489Z" fill="black"/>
</g>
<rect x="197.5" y="460.5" width="65" height="65" rx="4.5" stroke="black"/>
<rect x="267.5" y="460.5" width="65" height="65" rx="4.5" stroke="black"/>
<rect x="57.5" y="531.5" width="65" height="65" rx="4.5" stroke="black"/>
<rect x="127.5" y="531.5" width="65" height="65" rx="4.5" stroke="black"/>
<rect x="197.5" y="531.5" width="65" height="65" rx="4.5" stroke="black"/>
<rect x="267.5" y="531.5" width="65" height="65" rx="4.5" fill="black" stroke="black"/>
<path d="M313 564C309.533 569.778 305.2 572.667 300 572.667C294.8 572.667 290.467 569.778 287 564C290.467 558.222 294.8 555.333 300 555.333C305.2 555.333 309.533 558.222 313 564Z" fill="#F3F2EE"/>
<path d="M297.111 564C297.111 564.766 297.415 565.501 297.957 566.043C298.499 566.585 299.234 566.889 300 566.889C300.766 566.889 301.501 566.585 302.043 566.043C302.584 565.501 302.889 564.766 302.889 564C302.889 563.234 302.584 562.499 302.043 561.957C301.501 561.415 300.766 561.111 300 561.111C299.234 561.111 298.499 561.415 297.957 561.957C297.415 562.499 297.111 563.234 297.111 564Z" fill="black"/>
<g clip-path="url(#clip6_77_474)">
<path d="M41 797.25C41 797.979 41.281 798.679 41.781 799.195C42.2811 799.71 42.9594 800 43.6667 800C44.3739 800 45.0522 799.71 45.5523 799.195C46.0524 798.679 46.3333 797.979 46.3333 797.25C46.3333 796.521 46.0524 795.821 45.5523 795.305C45.0522 794.79 44.3739 794.5 43.6667 794.5C42.9594 794.5 42.2811 794.79 41.781 795.305C41.281 795.821 41 796.521 41 797.25Z" stroke="black" stroke-width="1.75" stroke-linecap="round" stroke-linejoin="round"/>
<path d="M30.3333 797.25H41" stroke="black" stroke-width="1.75" stroke-linecap="round" stroke-linejoin="round"/>
<path d="M46.3333 797.25H51.6667" stroke="black" stroke-width="1.75" stroke-linecap="round" stroke-linejoin="round"/>
<path d="M33 805.5C33 806.229 33.281 806.929 33.781 807.445C34.2811 807.96 34.9594 808.25 35.6667 808.25C36.3739 808.25 37.0522 807.96 37.5523 807.445C38.0524 806.929 38.3333 806.229 38.3333 805.5C38.3333 804.771 38.0524 804.071 37.5523 803.555C37.0522 803.04 36.3739 802.75 35.6667 802.75C34.9594 802.75 34.2811 803.04 33.781 803.555C33.281 804.071 33 804.771 33 805.5Z" stroke="black" stroke-width="1.75" stroke-linecap="round" stroke-linejoin="round"/>
<path d="M30.3333 805.5H33" stroke="black" stroke-width="1.75" stroke-linecap="round" stroke-linejoin="round"/>
<path d="M38.3333 805.5H51.6667" stroke="black" stroke-width="1.75" stroke-linecap="round" stroke-linejoin="round"/>
<path d="M45 813.75C45 814.479 45.281 815.179 45.781 815.695C46.2811 816.21 46.9594 816.5 47.6667 816.5C48.3739 816.5 49.0522 816.21 49.5523 815.695C50.0524 815.179 50.3333 814.479 50.3333 813.75C50.3333 813.021 50.0524 812.321 49.5523 811.805C49.0522 811.29 48.3739 811 47.6667 811C46.9594 811 46.2811 811.29 45.781 811.805C45.281 812.321 45 813.021 45 813.75Z" stroke="black" stroke-width="1.75" stroke-linecap="round" stroke-linejoin="round"/>
<path d="M30.3333 813.75H45" stroke="black" stroke-width="1.75" stroke-linecap="round" stroke-linejoin="round"/>
<path d="M50.3333 813.75H51.6667" stroke="black" stroke-width="1.75" stroke-linecap="round" stroke-linejoin="round"/>
</g>
<g clip-path="url(#clip7_77_474)">
<path d="M345 795.333H353C353.707 795.333 354.386 795.614 354.886 796.114C355.386 796.614 355.667 797.293 355.667 798V816.667L349 812.667L342.333 816.667V798C342.333 797.293 342.614 796.614 343.114 796.114C343.614 795.614 344.293 795.333 345 795.333Z" stroke="black" stroke-width="1.75" stroke-linecap="round" stroke-linejoin="round"/>
</g>
<defs>
<clipPath id="clip0_77_474">
<rect width="33" height="33" fill="white" transform="translate(146 790)"/>
</clipPath>
<clipPath id="clip1_77_474">
<rect width="33" height="33" fill="white" transform="translate(179 790)"/>
</clipPath>
<clipPath id="clip2_77_474">
<rect width="33" height="33" fill="white" transform="translate(212 790)"/>
</clipPath>
<clipPath id="clip3_77_474">
<rect width="40" height="40" fill="white" transform="translate(70 260)"/>
</clipPath>
<clipPath id="clip4_77_474">
<rect width="32" height="32" fill="white" transform="translate(74 477)"/>
</clipPath>
<clipPath id="clip5_77_474">
<rect width="32" height="32" fill="white" transform="translate(144 477)"/>
</clipPath>
<clipPath id="clip6_77_474">
<rect width="32" height="33" fill="white" transform="translate(25 789)"/>
</clipPath>
<clipPath id="clip7_77_474">
<rect width="32" height="32" fill="white" transform="translate(333 790)"/>
</clipPath>
</defs>
</svg>
