<svg width="127" height="127" viewBox="0 0 127 127" fill="none" xmlns="http://www.w3.org/2000/svg">
<rect width="127" height="127" rx="10" fill="black"/>
<path fill-rule="evenodd" clip-rule="evenodd" d="M63 34.8039C79.1088 34.8039 92.1855 47.8655 92.1855 64C92.1855 80.1345 79.1088 93.1961 63 93.1961C46.8912 93.1961 33.8145 80.1345 33.8145 64C33.8145 47.8655 46.8912 34.8039 63 34.8039ZM63 33C80.1208 33 94 46.8792 94 64C94 81.1208 80.1208 95 63 95C45.8792 95 32 81.1208 32 64C32 46.8792 45.8792 33 63 33Z" fill="#F3F2EE"/>
<path fill-rule="evenodd" clip-rule="evenodd" d="M93.136 64C93.136 47.3488 79.6389 33.8589 63 33.8589C46.3611 33.8589 32.8639 47.3488 32.8639 64C32.8639 80.6512 46.3611 94.1411 63 94.1411C79.6389 94.1411 93.136 80.6512 93.136 64ZM94 64C94 46.8792 80.1208 33 63 33C45.8792 33 32 46.8792 32 64C32 81.1208 45.8792 95 63 95C80.1208 95 94 81.1208 94 64Z" fill="#F3F2EE"/>
<circle cx="63" cy="64" r="8.34615" fill="#F3F2EE"/>
</svg>
