<svg width="127" height="127" viewBox="0 0 127 127" fill="none" xmlns="http://www.w3.org/2000/svg">
<rect width="127" height="127" rx="10" fill="black"/>
<path d="M27.7382 66.4364C33.9467 67.4117 38.3032 71.3418 41.395 73.7677C42.5838 74.7112 43.7077 75.7337 44.7591 76.8283C52.9281 84.9197 63.6565 84.9197 63.6565 84.9197C63.6565 84.9197 74.6025 84.9197 82.8003 76.5812C83.7891 75.5686 84.8416 74.6202 85.9513 73.7419C89.0476 71.3085 93.4808 67.3249 99.7628 66.4086C103.158 65.8685 103.165 61.055 99.7628 60.5118C93.4808 59.5953 89.0476 55.6117 85.9513 53.1785C84.8416 52.3001 83.7892 51.3517 82.8003 50.3392C74.6025 42.0003 63.6565 42.0001 63.6565 42.0001C63.6601 41.9967 52.6407 42.0257 44.4826 50.3689C43.4744 51.398 42.4007 52.3608 41.2683 53.2514C38.1739 55.6955 33.7335 59.6276 27.5058 60.5176C24.0818 61.1176 24.174 66.0355 27.7382 66.4364ZM42.6227 61.7452C44.9183 60.4874 47.0853 59.0079 49.0926 57.3277C53.1771 53.9122 58.3321 52.0409 63.6565 52.0409C68.9809 52.0409 74.1359 53.9122 78.2205 57.3277C80.2277 59.0079 82.3947 60.4874 84.6904 61.7452C85 61.9109 85.2589 62.1573 85.4397 62.4583C85.6206 62.7594 85.7165 63.1037 85.7173 63.4549C85.7182 63.806 85.624 64.1508 85.4446 64.4527C85.2653 64.7546 85.0075 65.0023 84.6987 65.1695C82.4023 66.4268 80.2346 67.9061 78.2268 69.5862C74.1413 73.0051 68.9837 74.8785 63.6564 74.8785C58.3291 74.8785 53.1715 73.0051 49.0861 69.5862C47.0782 67.906 44.9106 66.4267 42.6141 65.1695C42.3053 65.0023 42.0476 64.7546 41.8683 64.4527C41.6889 64.1508 41.5947 63.806 41.5956 63.4548C41.5965 63.1037 41.6924 62.7593 41.8732 62.4583C42.0541 62.1573 42.313 61.9109 42.6227 61.7452Z" fill="#F3F2EE"/>
<path d="M63.6565 70.3113C65.4677 70.3022 67.2017 69.5764 68.4792 68.2924C69.7568 67.0085 70.474 65.2709 70.474 63.4596C70.474 61.6484 69.7568 59.9108 68.4792 58.6268C67.2017 57.3429 65.4677 56.617 63.6565 56.608C54.5889 56.9201 54.5865 69.9979 63.6565 70.3113Z" fill="#F3F2EE"/>
</svg>
