<svg width="127" height="127" viewBox="0 0 127 127" fill="none" xmlns="http://www.w3.org/2000/svg">
<rect width="127" height="127" rx="10" fill="black"/>
<path d="M76.5 64C76.5 49.6406 64.8594 38 50.5 38C36.1406 38 24.5 49.6406 24.5 64C24.5 78.3594 36.1406 90 50.5 90C64.8594 90 76.5 78.3594 76.5 64Z" fill="#F3F2EE"/>
<path fill-rule="evenodd" clip-rule="evenodd" d="M50.5 38.7204C64.4552 38.7204 75.7754 50.0345 75.7754 64C75.7754 77.9655 64.4552 89.2796 50.5 89.2796C36.5448 89.2796 25.2246 77.9655 25.2246 64C25.2246 50.0345 36.5448 38.7204 50.5 38.7204ZM50.5 38C64.8594 38 76.5 49.6406 76.5 64C76.5 78.3594 64.8594 90 50.5 90C36.1406 90 24.5 78.3594 24.5 64C24.5 49.6406 36.1406 38 50.5 38Z" fill="#F3F2EE"/>
<path fill-rule="evenodd" clip-rule="evenodd" d="M76.5 39.513C90.0106 39.513 100.978 50.4679 100.978 64C100.978 77.5321 90.0106 88.487 76.5 88.487C62.9894 88.487 52.0218 77.5321 52.0218 64C52.0218 50.4679 62.9894 39.513 76.5 39.513ZM76.5 38C90.8594 38 102.5 49.6406 102.5 64C102.5 78.3594 90.8594 90 76.5 90C62.1406 90 50.5 78.3594 50.5 64C50.5 49.6406 62.1406 38 76.5 38Z" fill="#F3F2EE"/>
<path fill-rule="evenodd" clip-rule="evenodd" d="M101.775 64C101.775 50.0345 90.4552 38.7204 76.5 38.7204C62.5448 38.7204 51.2246 50.0345 51.2246 64C51.2246 77.9655 62.5448 89.2796 76.5 89.2796C90.4552 89.2796 101.775 77.9655 101.775 64ZM102.5 64C102.5 49.6406 90.8594 38 76.5 38C62.1406 38 50.5 49.6406 50.5 64C50.5 78.3594 62.1406 90 76.5 90C90.8594 90 102.5 78.3594 102.5 64Z" fill="#F3F2EE"/>
</svg>
