<svg width="127" height="127" viewBox="0 0 127 127" fill="none" xmlns="http://www.w3.org/2000/svg">
<rect width="127" height="127" rx="10" fill="#55DCC3"/>
<path d="M48.4146 68.248C54.897 56.7493 58.1382 51 63 51C67.8618 51 71.103 56.7493 77.5854 68.248L80.9002 74.128C87.3826 85.6267 90.6238 91.376 88.1929 95.688C85.762 100 79.2796 100 66.3149 100H59.6851C46.7204 100 40.238 100 37.8071 95.688C35.3762 91.376 38.6174 85.6267 45.0998 74.128L48.4146 68.248Z" fill="white"/>
<path opacity="0.5" d="M48.4146 44.248C54.897 32.7493 58.1382 27 63 27C67.8618 27 71.103 32.7493 77.5854 44.248L80.9002 50.128C87.3826 61.6267 90.6238 67.376 88.1929 71.688C85.762 76 79.2796 76 66.3149 76H59.6851C46.7204 76 40.238 76 37.8071 71.688C35.3762 67.376 38.6174 61.6267 45.0998 50.128L48.4146 44.248Z" fill="white"/>
</svg>
