<svg width="129" height="129" viewBox="0 0 129 129" fill="none" xmlns="http://www.w3.org/2000/svg">
<rect width="129" height="129" rx="10" fill="black"/>
<path d="M59.5228 59.0336C61.6537 55.3426 66.9812 55.3426 69.1122 59.0336L89.2501 93.9134C91.381 97.6043 88.7173 102.218 84.4553 102.218H44.1796C39.9176 102.218 37.2539 97.6043 39.3849 93.9133L59.5228 59.0336Z" fill="#F3F2EE"/>
<path fill-rule="evenodd" clip-rule="evenodd" d="M88.0763 65.6773L67.9384 30.7975C66.2336 27.8447 61.9716 27.8447 60.2669 30.7975L40.129 65.6773C38.4242 68.63 40.5552 72.321 43.9648 72.321H84.2405C87.6501 72.321 89.7811 68.6301 88.0763 65.6773ZM68.8974 30.2438C66.7664 26.5528 61.4389 26.5528 59.3079 30.2438L39.1701 65.1236C37.0391 68.8146 39.7028 73.4283 43.9648 73.4283H84.2405C88.5025 73.4283 91.1662 68.8146 89.0352 65.1236L68.8974 30.2438Z" fill="#F3F2EE"/>
</svg>
