<svg width="127" height="127" viewBox="0 0 127 127" fill="none" xmlns="http://www.w3.org/2000/svg">
<rect width="127" height="127" rx="10" fill="url(#paint0_linear_37_237)"/>
<path d="M40.1456 37H46.8582V43.6947H40.1456V37Z" fill="url(#paint1_linear_37_237)"/>
<path d="M46.8582 43.6947L53.5709 43.6947V50.3894H46.8583L46.8582 43.6947Z" fill="url(#paint2_linear_37_237)"/>
<path d="M46.8583 50.3894H53.5709V56.8053H46.8583V50.3894Z" fill="url(#paint3_linear_37_237)"/>
<path d="M40.1456 50.3895L46.8583 50.3894V56.8053H40.1456V50.3895Z" fill="url(#paint4_linear_37_237)"/>
<path d="M53.5709 50.3894L60.2835 50.3895V56.8053H53.5709V50.3894Z" fill="url(#paint5_linear_37_237)"/>
<path d="M60.2835 50.3895H66.7164V56.8053H60.2835V50.3895Z" fill="url(#paint6_linear_37_237)"/>
<path d="M66.7164 50.3895L73.4292 50.3895V56.8052L66.7164 56.8053V50.3895Z" fill="url(#paint7_linear_37_237)"/>
<path d="M73.4292 50.3895H80.1418V56.8052H73.4292V50.3895Z" fill="url(#paint8_linear_37_237)"/>
<path d="M80.1418 50.3895H86.8544V56.8052H80.1418V50.3895Z" fill="url(#paint9_linear_37_237)"/>
<path d="M40.1456 56.8053H46.8583L46.8582 63.5H40.1456V56.8053Z" fill="url(#paint10_linear_37_237)"/>
<path d="M53.5709 56.8053H60.2835V63.5H53.5709L53.5709 56.8053Z" fill="url(#paint11_linear_37_237)"/>
<path d="M60.2835 56.8053H66.7164L66.7165 63.5L60.2835 63.5V56.8053Z" fill="url(#paint12_linear_37_237)"/>
<path d="M66.7164 56.8053L73.4292 56.8052L73.4291 63.5H66.7165L66.7164 56.8053Z" fill="url(#paint13_linear_37_237)"/>
<path d="M80.1418 56.8052H86.8544V63.5H80.1417L80.1418 56.8052Z" fill="url(#paint14_linear_37_237)"/>
<path d="M46.8582 63.5H53.5709L53.5709 70.1947H46.8583L46.8582 63.5Z" fill="url(#paint15_linear_37_237)"/>
<path d="M40.1456 63.5H46.8582L46.8583 70.1947L40.1456 70.1947V63.5Z" fill="url(#paint16_linear_37_237)"/>
<path d="M53.5709 63.5H60.2835L60.2835 70.1947L53.5709 70.1947L53.5709 63.5Z" fill="url(#paint17_linear_37_237)"/>
<path d="M60.2835 63.5L66.7165 63.5L66.7164 70.1947H60.2835L60.2835 63.5Z" fill="url(#paint18_linear_37_237)"/>
<path d="M66.7165 63.5H73.4291L73.4292 70.1947H66.7164L66.7165 63.5Z" fill="url(#paint19_linear_37_237)"/>
<path d="M73.4291 63.5L80.1417 63.5L80.1418 70.1947H73.4292L73.4291 63.5Z" fill="url(#paint20_linear_37_237)"/>
<path d="M80.1417 63.5H86.8544V70.1947H80.1418L80.1417 63.5Z" fill="url(#paint21_linear_37_237)"/>
<path d="M86.8544 56.8052L93.2873 56.8053V63.5H86.8544V56.8052Z" fill="url(#paint22_linear_37_237)"/>
<path d="M86.8544 63.5H93.2873V70.1947L86.8544 70.1947V63.5Z" fill="url(#paint23_linear_37_237)"/>
<path d="M46.8583 70.1947H53.5709V76.6105H46.8583V70.1947Z" fill="url(#paint24_linear_37_237)"/>
<path d="M40.1456 70.1947L46.8583 70.1947V76.6105L40.1456 76.6105V70.1947Z" fill="url(#paint25_linear_37_237)"/>
<path d="M53.5709 83.3053H60.2835V90H53.5709V83.3053Z" fill="url(#paint26_linear_37_237)"/>
<path d="M46.8583 83.3052L53.5709 83.3053V90L46.8583 90V83.3052Z" fill="url(#paint27_linear_37_237)"/>
<path d="M73.4291 83.3052H80.1418V90H73.4291V83.3052Z" fill="url(#paint28_linear_37_237)"/>
<path d="M66.7165 83.3052H73.4291V90H66.7165V83.3052Z" fill="url(#paint29_linear_37_237)"/>
<path d="M53.5709 70.1947L60.2835 70.1947V76.6105L53.5709 76.6105V70.1947Z" fill="url(#paint30_linear_37_237)"/>
<path d="M60.2835 70.1947H66.7164V76.6105H60.2835V70.1947Z" fill="url(#paint31_linear_37_237)"/>
<path d="M66.7164 70.1947H73.4292V76.6105H66.7164V70.1947Z" fill="url(#paint32_linear_37_237)"/>
<path d="M73.4292 70.1947H80.1418L80.1417 76.6105L73.4292 76.6105V70.1947Z" fill="url(#paint33_linear_37_237)"/>
<path d="M80.1418 70.1947H86.8544V76.6105H80.1417L80.1418 70.1947Z" fill="url(#paint34_linear_37_237)"/>
<path d="M40.1456 76.6105L46.8583 76.6105V83.3052L40.1456 83.3052V76.6105Z" fill="url(#paint35_linear_37_237)"/>
<path d="M80.1417 76.6105H86.8544V83.3053L80.1418 83.3052L80.1417 76.6105Z" fill="url(#paint36_linear_37_237)"/>
<path d="M93.2873 63.5L100 63.5V70.1947H93.2873V63.5Z" fill="url(#paint37_linear_37_237)"/>
<path d="M93.2873 70.1947H100V76.6105H93.2874L93.2873 70.1947Z" fill="url(#paint38_linear_37_237)"/>
<path d="M93.2874 76.6105H100V83.3053H93.2874V76.6105Z" fill="url(#paint39_linear_37_237)"/>
<path d="M33.7126 56.8052L40.1456 56.8053V63.5L33.7126 63.5V56.8052Z" fill="url(#paint40_linear_37_237)"/>
<path d="M27 63.5L33.7126 63.5L33.7126 70.1947H27V63.5Z" fill="url(#paint41_linear_37_237)"/>
<path d="M33.7126 63.5L40.1456 63.5V70.1947L33.7126 70.1947L33.7126 63.5Z" fill="url(#paint42_linear_37_237)"/>
<path d="M27 70.1947H33.7126L33.7127 76.6105H27L27 70.1947Z" fill="url(#paint43_linear_37_237)"/>
<path d="M27 76.6105H33.7127L33.7126 83.3053H27L27 76.6105Z" fill="url(#paint44_linear_37_237)"/>
<path d="M73.4291 43.6947H80.1417L80.1418 50.3895H73.4292L73.4291 43.6947Z" fill="url(#paint45_linear_37_237)"/>
<path d="M80.1417 37H86.8544V43.6947L80.1417 43.6947L80.1417 37Z" fill="url(#paint46_linear_37_237)"/>
<defs>
<linearGradient id="paint0_linear_37_237" x1="63.5" y1="0" x2="63.5" y2="127" gradientUnits="userSpaceOnUse">
<stop stop-color="#140D63"/>
<stop offset="1" stop-color="#410075"/>
</linearGradient>
<linearGradient id="paint1_linear_37_237" x1="63.5" y1="37" x2="63.5" y2="90" gradientUnits="userSpaceOnUse">
<stop stop-color="white"/>
<stop offset="1" stop-color="white" stop-opacity="0.5"/>
</linearGradient>
<linearGradient id="paint2_linear_37_237" x1="63.5" y1="37" x2="63.5" y2="90" gradientUnits="userSpaceOnUse">
<stop stop-color="white"/>
<stop offset="1" stop-color="white" stop-opacity="0.5"/>
</linearGradient>
<linearGradient id="paint3_linear_37_237" x1="63.5" y1="37" x2="63.5" y2="90" gradientUnits="userSpaceOnUse">
<stop stop-color="white"/>
<stop offset="1" stop-color="white" stop-opacity="0.5"/>
</linearGradient>
<linearGradient id="paint4_linear_37_237" x1="63.5" y1="37" x2="63.5" y2="90" gradientUnits="userSpaceOnUse">
<stop stop-color="white"/>
<stop offset="1" stop-color="white" stop-opacity="0.5"/>
</linearGradient>
<linearGradient id="paint5_linear_37_237" x1="63.5" y1="37" x2="63.5" y2="90" gradientUnits="userSpaceOnUse">
<stop stop-color="white"/>
<stop offset="1" stop-color="white" stop-opacity="0.5"/>
</linearGradient>
<linearGradient id="paint6_linear_37_237" x1="63.5" y1="37" x2="63.5" y2="90" gradientUnits="userSpaceOnUse">
<stop stop-color="white"/>
<stop offset="1" stop-color="white" stop-opacity="0.5"/>
</linearGradient>
<linearGradient id="paint7_linear_37_237" x1="63.5" y1="37" x2="63.5" y2="90" gradientUnits="userSpaceOnUse">
<stop stop-color="white"/>
<stop offset="1" stop-color="white" stop-opacity="0.5"/>
</linearGradient>
<linearGradient id="paint8_linear_37_237" x1="63.5" y1="37" x2="63.5" y2="90" gradientUnits="userSpaceOnUse">
<stop stop-color="white"/>
<stop offset="1" stop-color="white" stop-opacity="0.5"/>
</linearGradient>
<linearGradient id="paint9_linear_37_237" x1="63.5" y1="37" x2="63.5" y2="90" gradientUnits="userSpaceOnUse">
<stop stop-color="white"/>
<stop offset="1" stop-color="white" stop-opacity="0.5"/>
</linearGradient>
<linearGradient id="paint10_linear_37_237" x1="63.5" y1="37" x2="63.5" y2="90" gradientUnits="userSpaceOnUse">
<stop stop-color="white"/>
<stop offset="1" stop-color="white" stop-opacity="0.5"/>
</linearGradient>
<linearGradient id="paint11_linear_37_237" x1="63.5" y1="37" x2="63.5" y2="90" gradientUnits="userSpaceOnUse">
<stop stop-color="white"/>
<stop offset="1" stop-color="white" stop-opacity="0.5"/>
</linearGradient>
<linearGradient id="paint12_linear_37_237" x1="63.5" y1="37" x2="63.5" y2="90" gradientUnits="userSpaceOnUse">
<stop stop-color="white"/>
<stop offset="1" stop-color="white" stop-opacity="0.5"/>
</linearGradient>
<linearGradient id="paint13_linear_37_237" x1="63.5" y1="37" x2="63.5" y2="90" gradientUnits="userSpaceOnUse">
<stop stop-color="white"/>
<stop offset="1" stop-color="white" stop-opacity="0.5"/>
</linearGradient>
<linearGradient id="paint14_linear_37_237" x1="63.5" y1="37" x2="63.5" y2="90" gradientUnits="userSpaceOnUse">
<stop stop-color="white"/>
<stop offset="1" stop-color="white" stop-opacity="0.5"/>
</linearGradient>
<linearGradient id="paint15_linear_37_237" x1="63.5" y1="37" x2="63.5" y2="90" gradientUnits="userSpaceOnUse">
<stop stop-color="white"/>
<stop offset="1" stop-color="white" stop-opacity="0.5"/>
</linearGradient>
<linearGradient id="paint16_linear_37_237" x1="63.5" y1="37" x2="63.5" y2="90" gradientUnits="userSpaceOnUse">
<stop stop-color="white"/>
<stop offset="1" stop-color="white" stop-opacity="0.5"/>
</linearGradient>
<linearGradient id="paint17_linear_37_237" x1="63.5" y1="37" x2="63.5" y2="90" gradientUnits="userSpaceOnUse">
<stop stop-color="white"/>
<stop offset="1" stop-color="white" stop-opacity="0.5"/>
</linearGradient>
<linearGradient id="paint18_linear_37_237" x1="63.5" y1="37" x2="63.5" y2="90" gradientUnits="userSpaceOnUse">
<stop stop-color="white"/>
<stop offset="1" stop-color="white" stop-opacity="0.5"/>
</linearGradient>
<linearGradient id="paint19_linear_37_237" x1="63.5" y1="37" x2="63.5" y2="90" gradientUnits="userSpaceOnUse">
<stop stop-color="white"/>
<stop offset="1" stop-color="white" stop-opacity="0.5"/>
</linearGradient>
<linearGradient id="paint20_linear_37_237" x1="63.5" y1="37" x2="63.5" y2="90" gradientUnits="userSpaceOnUse">
<stop stop-color="white"/>
<stop offset="1" stop-color="white" stop-opacity="0.5"/>
</linearGradient>
<linearGradient id="paint21_linear_37_237" x1="63.5" y1="37" x2="63.5" y2="90" gradientUnits="userSpaceOnUse">
<stop stop-color="white"/>
<stop offset="1" stop-color="white" stop-opacity="0.5"/>
</linearGradient>
<linearGradient id="paint22_linear_37_237" x1="63.5" y1="37" x2="63.5" y2="90" gradientUnits="userSpaceOnUse">
<stop stop-color="white"/>
<stop offset="1" stop-color="white" stop-opacity="0.5"/>
</linearGradient>
<linearGradient id="paint23_linear_37_237" x1="63.5" y1="37" x2="63.5" y2="90" gradientUnits="userSpaceOnUse">
<stop stop-color="white"/>
<stop offset="1" stop-color="white" stop-opacity="0.5"/>
</linearGradient>
<linearGradient id="paint24_linear_37_237" x1="63.5" y1="37" x2="63.5" y2="90" gradientUnits="userSpaceOnUse">
<stop stop-color="white"/>
<stop offset="1" stop-color="white" stop-opacity="0.5"/>
</linearGradient>
<linearGradient id="paint25_linear_37_237" x1="63.5" y1="37" x2="63.5" y2="90" gradientUnits="userSpaceOnUse">
<stop stop-color="white"/>
<stop offset="1" stop-color="white" stop-opacity="0.5"/>
</linearGradient>
<linearGradient id="paint26_linear_37_237" x1="63.5" y1="37" x2="63.5" y2="90" gradientUnits="userSpaceOnUse">
<stop stop-color="white"/>
<stop offset="1" stop-color="white" stop-opacity="0.5"/>
</linearGradient>
<linearGradient id="paint27_linear_37_237" x1="63.5" y1="37" x2="63.5" y2="90" gradientUnits="userSpaceOnUse">
<stop stop-color="white"/>
<stop offset="1" stop-color="white" stop-opacity="0.5"/>
</linearGradient>
<linearGradient id="paint28_linear_37_237" x1="63.5" y1="37" x2="63.5" y2="90" gradientUnits="userSpaceOnUse">
<stop stop-color="white"/>
<stop offset="1" stop-color="white" stop-opacity="0.5"/>
</linearGradient>
<linearGradient id="paint29_linear_37_237" x1="63.5" y1="37" x2="63.5" y2="90" gradientUnits="userSpaceOnUse">
<stop stop-color="white"/>
<stop offset="1" stop-color="white" stop-opacity="0.5"/>
</linearGradient>
<linearGradient id="paint30_linear_37_237" x1="63.5" y1="37" x2="63.5" y2="90" gradientUnits="userSpaceOnUse">
<stop stop-color="white"/>
<stop offset="1" stop-color="white" stop-opacity="0.5"/>
</linearGradient>
<linearGradient id="paint31_linear_37_237" x1="63.5" y1="37" x2="63.5" y2="90" gradientUnits="userSpaceOnUse">
<stop stop-color="white"/>
<stop offset="1" stop-color="white" stop-opacity="0.5"/>
</linearGradient>
<linearGradient id="paint32_linear_37_237" x1="63.5" y1="37" x2="63.5" y2="90" gradientUnits="userSpaceOnUse">
<stop stop-color="white"/>
<stop offset="1" stop-color="white" stop-opacity="0.5"/>
</linearGradient>
<linearGradient id="paint33_linear_37_237" x1="63.5" y1="37" x2="63.5" y2="90" gradientUnits="userSpaceOnUse">
<stop stop-color="white"/>
<stop offset="1" stop-color="white" stop-opacity="0.5"/>
</linearGradient>
<linearGradient id="paint34_linear_37_237" x1="63.5" y1="37" x2="63.5" y2="90" gradientUnits="userSpaceOnUse">
<stop stop-color="white"/>
<stop offset="1" stop-color="white" stop-opacity="0.5"/>
</linearGradient>
<linearGradient id="paint35_linear_37_237" x1="63.5" y1="37" x2="63.5" y2="90" gradientUnits="userSpaceOnUse">
<stop stop-color="white"/>
<stop offset="1" stop-color="white" stop-opacity="0.5"/>
</linearGradient>
<linearGradient id="paint36_linear_37_237" x1="63.5" y1="37" x2="63.5" y2="90" gradientUnits="userSpaceOnUse">
<stop stop-color="white"/>
<stop offset="1" stop-color="white" stop-opacity="0.5"/>
</linearGradient>
<linearGradient id="paint37_linear_37_237" x1="63.5" y1="37" x2="63.5" y2="90" gradientUnits="userSpaceOnUse">
<stop stop-color="white"/>
<stop offset="1" stop-color="white" stop-opacity="0.5"/>
</linearGradient>
<linearGradient id="paint38_linear_37_237" x1="63.5" y1="37" x2="63.5" y2="90" gradientUnits="userSpaceOnUse">
<stop stop-color="white"/>
<stop offset="1" stop-color="white" stop-opacity="0.5"/>
</linearGradient>
<linearGradient id="paint39_linear_37_237" x1="63.5" y1="37" x2="63.5" y2="90" gradientUnits="userSpaceOnUse">
<stop stop-color="white"/>
<stop offset="1" stop-color="white" stop-opacity="0.5"/>
</linearGradient>
<linearGradient id="paint40_linear_37_237" x1="63.5" y1="37" x2="63.5" y2="90" gradientUnits="userSpaceOnUse">
<stop stop-color="white"/>
<stop offset="1" stop-color="white" stop-opacity="0.5"/>
</linearGradient>
<linearGradient id="paint41_linear_37_237" x1="63.5" y1="37" x2="63.5" y2="90" gradientUnits="userSpaceOnUse">
<stop stop-color="white"/>
<stop offset="1" stop-color="white" stop-opacity="0.5"/>
</linearGradient>
<linearGradient id="paint42_linear_37_237" x1="63.5" y1="37" x2="63.5" y2="90" gradientUnits="userSpaceOnUse">
<stop stop-color="white"/>
<stop offset="1" stop-color="white" stop-opacity="0.5"/>
</linearGradient>
<linearGradient id="paint43_linear_37_237" x1="63.5" y1="37" x2="63.5" y2="90" gradientUnits="userSpaceOnUse">
<stop stop-color="white"/>
<stop offset="1" stop-color="white" stop-opacity="0.5"/>
</linearGradient>
<linearGradient id="paint44_linear_37_237" x1="63.5" y1="37" x2="63.5" y2="90" gradientUnits="userSpaceOnUse">
<stop stop-color="white"/>
<stop offset="1" stop-color="white" stop-opacity="0.5"/>
</linearGradient>
<linearGradient id="paint45_linear_37_237" x1="63.5" y1="37" x2="63.5" y2="90" gradientUnits="userSpaceOnUse">
<stop stop-color="white"/>
<stop offset="1" stop-color="white" stop-opacity="0.5"/>
</linearGradient>
<linearGradient id="paint46_linear_37_237" x1="63.5" y1="37" x2="63.5" y2="90" gradientUnits="userSpaceOnUse">
<stop stop-color="white"/>
<stop offset="1" stop-color="white" stop-opacity="0.5"/>
</linearGradient>
</defs>
</svg>
