<svg width="127" height="127" viewBox="0 0 127 127" fill="none" xmlns="http://www.w3.org/2000/svg">
<rect width="127" height="127" rx="10" fill="black"/>
<path d="M63.0909 35.7017C78.2166 35.7017 90.4801 47.1983 90.4801 61.3791C90.4801 67.8875 87.8952 73.8309 83.6328 78.3604V87.0565C83.6328 87.9645 83.2721 88.8353 82.63 89.4774C81.988 90.1194 81.1171 90.4801 80.2091 90.4801H45.9726C45.0646 90.4801 44.1938 90.1194 43.5517 89.4774C42.9097 88.8353 42.549 87.9645 42.549 87.0565V78.3604C38.2865 73.8343 35.7017 67.8909 35.7017 61.3791C35.7017 47.1983 47.9652 35.7017 63.0909 35.7017Z" fill="#F3F2EE"/>
<path fill-rule="evenodd" clip-rule="evenodd" d="M63.0909 38.4034C49.2904 38.4034 38.4034 48.8521 38.4034 61.3791C38.4034 67.1542 40.6913 72.4471 44.5158 76.5081C44.9879 77.0094 45.2507 77.6719 45.2507 78.3604V87.0565C45.2507 87.2479 45.3268 87.4316 45.4622 87.567C45.5976 87.7023 45.7812 87.7784 45.9727 87.7784H80.2092C80.4006 87.7784 80.5843 87.7023 80.7197 87.567C80.855 87.4316 80.9311 87.2479 80.9311 87.0565V78.3604C80.9311 77.6722 81.1937 77.01 81.6653 76.5089C85.4907 72.4438 87.7784 67.1504 87.7784 61.3791C87.7784 48.8521 76.8914 38.4034 63.0909 38.4034ZM33 61.3791C33 45.5446 46.64 33 63.0909 33C79.5418 33 93.1818 45.5446 93.1818 61.3791C93.1818 68.2391 90.5982 74.5149 86.3345 79.4017V87.0565C86.3345 88.681 85.6892 90.239 84.5405 91.3878C83.3917 92.5365 81.8337 93.1818 80.2092 93.1818H45.9727C44.3481 93.1818 42.7901 92.5365 41.6414 91.3878C40.4927 90.239 39.8473 88.681 39.8473 87.0565V79.4022C35.5832 74.5178 33 68.2417 33 61.3791Z" fill="black"/>
<path fill-rule="evenodd" clip-rule="evenodd" d="M56.2436 77.5074C57.7357 77.5074 58.9453 78.717 58.9453 80.2092V90.4801C58.9453 91.9722 57.7357 93.1818 56.2436 93.1818C54.7515 93.1818 53.5419 91.9722 53.5419 90.4801V80.2092C53.5419 78.717 54.7515 77.5074 56.2436 77.5074Z" fill="black"/>
<path fill-rule="evenodd" clip-rule="evenodd" d="M69.9383 77.5074C71.4304 77.5074 72.64 78.717 72.64 80.2092V90.4801C72.64 91.9722 71.4304 93.1818 69.9383 93.1818C68.4462 93.1818 67.2366 91.9722 67.2366 90.4801V80.2092C67.2366 78.717 68.4462 77.5074 69.9383 77.5074Z" fill="black"/>
<path d="M49.3964 59.6672C49.3964 60.5753 49.7571 61.4461 50.3991 62.0881C51.0412 62.7302 51.912 63.0909 52.82 63.0909C53.728 63.0909 54.5988 62.7302 55.2409 62.0881C55.883 61.4461 56.2437 60.5753 56.2437 59.6672C56.2437 58.7592 55.883 57.8884 55.2409 57.2464C54.5988 56.6043 53.728 56.2436 52.82 56.2436C51.912 56.2436 51.0412 56.6043 50.3991 57.2464C49.7571 57.8884 49.3964 58.7592 49.3964 59.6672Z" fill="black"/>
<path d="M69.9382 59.6672C69.9382 60.5753 70.2989 61.4461 70.941 62.0881C71.5831 62.7302 72.4539 63.0909 73.3619 63.0909C74.2699 63.0909 75.1407 62.7302 75.7828 62.0881C76.4248 61.4461 76.7855 60.5753 76.7855 59.6672C76.7855 58.7592 76.4248 57.8884 75.7828 57.2464C75.1407 56.6043 74.2699 56.2436 73.3619 56.2436C72.4539 56.2436 71.5831 56.6043 70.941 57.2464C70.2989 57.8884 69.9382 58.7592 69.9382 59.6672Z" fill="black"/>
</svg>
