<svg width="127" height="127" viewBox="0 0 127 127" fill="none" xmlns="http://www.w3.org/2000/svg">
<rect width="127" height="127" rx="10" fill="#CC4D4D"/>
<path d="M72.3154 31.4025C73.9809 31.9758 75.2699 31.7415 76.5044 31.1765C76.2909 30.7539 76.157 30.2349 75.7218 30.1219C75.5335 30.3814 75.1569 30.9045 75.1569 30.9045C73.7047 30.0759 72.6669 30.8585 71.696 31.7289L72.4702 32.3608C73.0854 32.0511 73.0184 31.5824 72.3154 31.4067V31.4025Z" fill="white"/>
<path d="M65.0422 32.8169C64.5694 32.9801 64.0923 33.1433 63.6194 33.3107C63.904 33.3274 64.2095 33.4069 64.5652 33.5869C64.946 33.6455 64.9502 33.227 65.0464 32.8211L65.0422 32.8169Z" fill="white"/>
<path d="M61.9162 34.1685L61.9246 34.1602C61.7237 34.3443 61.5228 34.5326 61.3094 34.7084C61.6107 34.6791 61.912 34.7209 62.2008 34.8297C61.9455 34.6665 61.7614 34.4615 61.9204 34.1727L61.9162 34.1685Z" fill="white"/>
<path d="M58.9282 42.2661C58.5809 42.7725 58.1038 43.8689 57.9406 44.7268C57.7942 45.5972 57.903 46.1998 58.4972 45.7102C59.4137 44.9611 60.1753 44.2957 60.8993 43.6262C61.6735 42.9985 62.4225 42.3707 63.3306 41.7012C64.6781 40.3118 65.9378 38.7509 67.528 37.4662C68.0009 37.1816 68.524 37.1105 69.0429 37.0226C68.3273 37.0268 67.5908 37.0477 66.7831 37.1063C65.6406 37.0393 65.4314 39.5711 64.2429 40.5713C64.109 40.8475 63.4102 39.2782 63.1381 39.8306C62.3179 40.747 61.8743 41.9188 60.9621 42.3958C60.7361 42.9399 59.1417 41.6761 58.9324 42.2661H58.9282Z" fill="white"/>
<path d="M88.2845 64.0018C86.6148 61.8926 84.4722 60.1225 81.9906 58.9089C79.5676 57.6116 76.6801 56.9462 73.8763 56.352L73.1147 56.2139L72.4744 56.1093L71.2022 55.9168C70.3653 55.8038 69.5283 55.6908 68.683 55.5778C65.4314 55.2054 62.1254 54.8245 58.7106 54.4354C58.2671 54.3977 57.8277 54.3893 57.3924 54.4019L57.0702 54.4144C56.953 54.4186 56.84 54.427 56.8735 54.4437C56.8652 54.4772 56.8275 54.5107 56.8024 54.5525C56.6894 54.7074 56.5304 54.9166 56.3169 55.1217C55.8943 55.5443 55.2164 55.9335 54.5426 56.0046C54.1743 55.9209 54.0153 55.5652 53.9944 55.2263C53.9609 54.8789 54.0488 54.5609 53.9651 54.36C53.9233 54.2763 53.8814 54.1926 53.8354 54.1173C53.4964 53.5942 53.0152 53.0334 52.6343 52.1798C52.5925 53.0167 52.9105 53.6319 53.4043 54.2261C53.4671 54.2805 53.5257 54.36 53.5968 54.4354C53.8061 54.7115 52.7055 54.9417 51.6677 54.6655C51.1362 54.5358 50.7052 54.2721 50.4708 54.0796C50.0649 53.7951 52.1322 53.3096 51.7723 53.1381C51.8141 52.8995 51.6509 52.6568 51.4877 52.3681C51.3036 52.0751 51.086 51.732 51.0148 51.3637C50.7763 50.9745 52.4251 51.619 52.2912 51.4516C52.2828 51.0708 51.9104 50.4933 51.6635 49.8823C51.4626 49.2713 51.2994 48.8152 51.7681 48.6227C52.3581 48.2879 53.0444 48.0787 53.6136 47.8611C53.9316 47.6686 54.2413 47.4761 54.5175 47.1789C54.6179 46.9111 54.7225 46.6349 54.8272 46.3587C55.6014 44.3709 57.0577 42.3246 58.5809 40.5419C58.5474 40.5042 58.514 40.4665 58.4763 40.4247C57.4678 41.2784 56.296 41.7387 54.6054 41.7136C55.3084 41.6759 55.5135 42.1153 55.0364 42.584L54.1158 42.1865C54.4505 41.6508 54.7979 41.1068 55.2624 40.7427C55.7353 40.3912 56.3421 40.2531 57.1414 40.4833C57.1414 40.4833 57.3673 39.889 57.4803 39.5919C57.9239 39.5961 58.1792 40.069 58.4805 40.4247C58.6772 40.2573 58.8739 40.0899 59.0747 39.9183C58.6186 39.6672 57.8946 39.5543 57.2627 39.4915C56.635 39.4329 56.1077 39.4371 56.1077 39.4371C53.2579 41.3244 50.6382 43.2285 48.3617 45.4925C48.4496 45.9068 48.6379 46.2834 48.2696 46.4047C47.8762 46.4047 47.5498 46.4968 47.282 46.6265C46.9388 46.9822 46.6752 47.3965 46.3613 47.7732C46.3069 47.9322 46.2484 48.0954 46.194 48.2586V48.2753C46.2191 48.5808 46.5078 48.6185 46.8259 48.5934C46.5036 48.6771 46.2065 48.8152 45.9931 49.0453C45.947 49.2337 45.8885 49.422 45.8131 49.6061C45.8508 49.468 45.8759 49.3174 45.9052 49.1667C45.9387 49.129 45.9554 49.0788 45.9889 49.0453C46.0391 48.7692 46.1061 48.5139 46.1898 48.2586C46.1898 48.1707 46.1856 48.087 46.1814 47.995C45.8131 48.4302 45.5202 48.9156 45.2315 49.4094C44.9218 49.8907 44.6414 50.3928 44.4363 50.9285C44.3945 51.1838 44.3526 51.4223 44.3443 51.6232C44.3066 52.0207 44.407 52.4308 44.3066 52.7824C44.2271 53.1381 43.9928 53.4436 43.5994 53.7198C43.5785 53.9248 43.5617 54.134 43.5408 54.3433C43.591 54.3014 43.6412 54.2596 43.6956 54.2136C43.6412 54.3098 43.5868 54.3893 43.5324 54.4563C43.4738 54.8329 43.5031 55.2012 43.545 55.5736C43.591 55.9419 43.5868 56.3269 43.6873 56.6868L43.7835 57.0885C44.1978 58.7833 45.018 60.4196 46.1605 61.8885C47.9934 64.2612 50.7093 65.9728 53.714 66.68C54.4547 66.86 55.2498 66.9688 55.9863 67.0567L57.7858 67.2952L61.368 67.8141C63.7449 68.1907 66.1135 68.6218 68.4486 69.2035C69.0345 69.3457 69.612 69.5048 70.1937 69.668C70.7335 69.827 71.0558 69.94 71.4868 70.0948C72.2945 70.3878 73.0812 70.7058 73.7884 71.1536C75.2866 72.1914 76.0566 73.9365 75.9645 75.5392C75.8683 77.1546 74.9476 78.5899 73.6838 79.2846C73.1942 79.5692 72.7129 79.7617 72.2819 79.9374C71.7839 80.1258 71.3361 80.2848 70.9093 80.4271L70.2104 80.653L68.9341 81.1008C67.189 81.6741 65.2849 82.1428 63.2762 82.4107C59.263 82.9421 54.869 82.712 50.3787 80.8581C46.5957 79.4771 39.4648 79.9709 35.686 79.7533C34.3677 80.3434 33.4764 81.2473 32.8487 82.2851C32.38 83.3229 31.2166 84.4654 31.451 85.6078C31.4928 86.1728 31.6435 86.721 31.7899 87.2357C31.9155 87.7504 31.9196 88.2149 32.0075 88.6209C32.1456 89.4327 32.3046 89.9893 32.359 90.1023C33.6731 93.3999 35.1294 94.241 37.046 94.7641C38.8915 95.2621 41.1387 95.4923 44.361 97.2039C42.5741 96.187 43.5115 95.3249 45.3905 95.1784C47.4243 95.0194 50.5671 95.5927 52.9607 97.6433C56.4383 100.765 60.8072 100.799 65.3435 99.6854C67.6159 99.1289 69.9217 98.3212 72.2819 97.4089C73.462 96.9486 74.6463 96.5134 75.8683 96.0196C76.8768 95.6597 78.8562 94.8562 80.4757 94.1113C81.3336 93.6845 82.2082 93.2283 83.0452 92.6885C83.8319 92.0984 84.6228 91.4791 85.4179 90.8263C86.0624 90.1818 86.7027 89.508 87.3304 88.8008C87.8577 88.0308 88.5147 87.3069 89.0085 86.4573C92.3354 82.1177 93.2937 76.2883 91.8918 71.1326C91.2097 68.5423 89.9543 66.1151 88.272 64.0101L88.2845 64.0018ZM46.1354 59.6036C46.8468 60.0974 47.215 60.972 47.2276 62.1395C45.8801 61.8592 45.8048 60.6247 46.1354 59.6036Z" fill="white"/>
<path d="M95.4907 27C94.8295 27.3222 94.8965 27.8035 95.6079 27.9625C93.9173 27.4227 92.5153 27.7114 91.2181 28.3224C91.4608 28.7325 91.6282 29.243 92.0843 29.3435C92.2726 29.0798 92.6576 28.5484 92.6576 28.5484C94.1934 29.3435 95.202 28.5023 96.2649 27.6445C96.0096 27.431 95.7502 27.2134 95.4907 27Z" fill="white"/>
</svg>
