<svg width="1080" height="1920" viewBox="0 0 1080 1920" fill="none" xmlns="http://www.w3.org/2000/svg">
<g clip-path="url(#clip0_177_8)">
<rect width="1080" height="1920" rx="60" fill="#F3F2EE"/>
<path d="M935 964C935 1181.6 758.155 1358 540 1358C321.845 1358 145 1181.6 145 964C145 746.402 321.845 570 540 570C758.155 570 935 746.402 935 964Z" stroke="black" stroke-width="2"/>
<circle cx="540" cy="964" r="179" fill="black"/>
<path d="M611.318 569.184C611.318 529.318 579.189 497 539.554 497C499.92 497 467.791 529.318 467.791 569.184C467.791 609.049 499.92 641.367 539.554 641.367C579.189 641.367 611.318 609.049 611.318 569.184Z" fill="#F3F2EE"/>
<path fill-rule="evenodd" clip-rule="evenodd" d="M610.715 559.783L607.74 560.167C608.121 563.117 608.318 566.126 608.318 569.184C608.318 572.241 608.121 575.25 607.74 578.2L610.715 578.585C611.113 575.508 611.318 572.37 611.318 569.184C611.318 565.997 611.113 562.86 610.715 559.783ZM605.901 596.746L603.126 595.605C600.817 601.224 597.793 606.47 594.167 611.229L596.553 613.047C600.336 608.082 603.491 602.609 605.901 596.746ZM583.323 626.392L581.485 624.021C576.751 627.691 571.529 630.754 565.935 633.094L567.093 635.861C572.933 633.418 578.383 630.222 583.323 626.392ZM548.954 640.754L548.563 637.779C545.616 638.167 542.609 638.367 539.554 638.367C536.5 638.367 533.493 638.167 530.546 637.779L530.155 640.754C533.231 641.158 536.368 641.367 539.554 641.367C542.741 641.367 545.878 641.158 548.954 640.754ZM512.016 635.861L513.173 633.094C507.58 630.754 502.358 627.691 497.624 624.021L495.786 626.392C500.726 630.222 506.176 633.418 512.016 635.861ZM482.556 613.047L484.942 611.229C481.316 606.47 478.292 601.224 475.983 595.606L473.208 596.746C475.618 602.609 478.773 608.082 482.556 613.047ZM468.394 578.585C467.996 575.508 467.791 572.37 467.791 569.184C467.791 565.998 467.996 562.86 468.394 559.783L471.369 560.167C470.987 563.117 470.791 566.126 470.791 569.184C470.791 572.241 470.987 575.25 471.369 578.2L468.394 578.585ZM473.208 541.621L475.983 542.762C478.292 537.144 481.316 531.897 484.942 527.138L482.556 525.32C478.773 530.285 475.618 535.759 473.208 541.621ZM495.786 511.975L497.624 514.346C502.358 510.676 507.58 507.613 513.173 505.273L512.016 502.506C506.176 504.949 500.726 508.146 495.786 511.975ZM530.154 497.614L530.546 500.588C533.493 500.2 536.5 500 539.554 500C542.609 500 545.616 500.2 548.563 500.588L548.954 497.614C545.878 497.209 542.741 497 539.554 497C536.368 497 533.231 497.209 530.154 497.614ZM567.093 502.506L565.935 505.273C571.529 507.613 576.751 510.676 581.485 514.346L583.323 511.975C578.383 508.146 572.933 504.949 567.093 502.506ZM596.553 525.32L594.167 527.138C597.793 531.897 600.817 537.144 603.126 542.762L605.901 541.621C603.491 535.759 600.336 530.285 596.553 525.32Z" fill="black"/>
<path d="M540 153.497C537.325 153.497 535.046 152.769 533.164 151.313C531.282 149.845 529.844 147.721 528.849 144.939C527.855 142.145 527.358 138.772 527.358 134.818C527.358 130.888 527.855 127.532 528.849 124.751C529.856 121.957 531.3 119.826 533.182 118.359C535.076 116.879 537.348 116.139 540 116.139C542.652 116.139 544.918 116.879 546.8 118.359C548.694 119.826 550.138 121.957 551.133 124.751C552.139 127.532 552.642 130.888 552.642 134.818C552.642 138.772 552.145 142.145 551.151 144.939C550.156 147.721 548.718 149.845 546.836 151.313C544.954 152.769 542.675 153.497 540 153.497ZM540 149.591C542.652 149.591 544.711 148.312 546.179 145.756C547.647 143.199 548.381 139.553 548.381 134.818C548.381 131.67 548.043 128.988 547.369 126.775C546.706 124.561 545.747 122.875 544.492 121.714C543.249 120.554 541.752 119.974 540 119.974C537.372 119.974 535.318 121.271 533.839 123.863C532.359 126.443 531.619 130.095 531.619 134.818C531.619 137.967 531.951 140.642 532.614 142.844C533.277 145.045 534.229 146.72 535.472 147.869C536.727 149.017 538.236 149.591 540 149.591Z" fill="black"/>
<path d="M170.512 1520.36C168.829 1520.36 167.391 1519.91 166.197 1519.03C165.004 1518.15 164.092 1516.87 163.459 1515.18C162.827 1513.5 162.511 1511.47 162.511 1509.1C162.511 1506.74 162.827 1504.72 163.459 1503.04C164.099 1501.36 165.015 1500.09 166.208 1499.2C167.408 1498.32 168.843 1497.88 170.512 1497.88C172.181 1497.88 173.612 1498.33 174.805 1499.22C175.998 1500.1 176.911 1501.37 177.543 1503.05C178.182 1504.72 178.502 1506.74 178.502 1509.1C178.502 1511.48 178.186 1513.51 177.554 1515.2C176.922 1516.87 176.009 1518.15 174.816 1519.04C173.623 1519.92 172.188 1520.36 170.512 1520.36ZM170.512 1517.52C171.989 1517.52 173.143 1516.8 173.974 1515.36C174.812 1513.91 175.231 1511.83 175.231 1509.1C175.231 1507.29 175.04 1505.76 174.656 1504.51C174.28 1503.25 173.736 1502.3 173.026 1501.65C172.323 1501 171.485 1500.67 170.512 1500.67C169.042 1500.67 167.888 1501.4 167.05 1502.85C166.212 1504.3 165.789 1506.38 165.782 1509.1C165.782 1510.92 165.97 1512.46 166.347 1513.71C166.73 1514.96 167.273 1515.91 167.976 1516.56C168.68 1517.2 169.525 1517.52 170.512 1517.52Z" fill="black"/>
<path d="M97.5 1488L104.489 1498.88L116.997 1502.17L108.808 1512.17L109.55 1525.08L97.5 1520.39L85.4504 1525.08L86.1919 1512.17L78.0033 1502.17L90.5112 1498.88L97.5 1488Z" fill="black"/>
<rect x="65" y="1477" width="159" height="64" rx="7" stroke="black" stroke-width="2"/>
<path d="M354.512 1520.36C352.829 1520.36 351.391 1519.91 350.197 1519.03C349.004 1518.15 348.092 1516.87 347.459 1515.18C346.827 1513.5 346.511 1511.47 346.511 1509.1C346.511 1506.74 346.827 1504.72 347.459 1503.04C348.099 1501.36 349.015 1500.09 350.208 1499.2C351.408 1498.32 352.843 1497.88 354.512 1497.88C356.181 1497.88 357.612 1498.33 358.805 1499.22C359.998 1500.1 360.911 1501.37 361.543 1503.05C362.182 1504.72 362.502 1506.74 362.502 1509.1C362.502 1511.48 362.186 1513.51 361.554 1515.2C360.922 1516.87 360.009 1518.15 358.816 1519.04C357.623 1519.92 356.188 1520.36 354.512 1520.36ZM354.512 1517.52C355.989 1517.52 357.143 1516.8 357.974 1515.36C358.812 1513.91 359.231 1511.83 359.231 1509.1C359.231 1507.29 359.04 1505.76 358.656 1504.51C358.28 1503.25 357.736 1502.3 357.026 1501.65C356.323 1501 355.485 1500.67 354.512 1500.67C353.042 1500.67 351.888 1501.4 351.05 1502.85C350.212 1504.3 349.789 1506.38 349.782 1509.1C349.782 1510.92 349.97 1512.46 350.347 1513.71C350.73 1514.96 351.273 1515.91 351.976 1516.56C352.68 1517.2 353.525 1517.52 354.512 1517.52Z" fill="black"/>
<path d="M281.631 1525.53C291.105 1525.53 298.761 1517.9 298.761 1508.52C298.761 1499.13 291.105 1491.5 281.631 1491.5C272.156 1491.5 264.5 1499.13 264.5 1508.52C264.5 1517.9 272.156 1525.53 281.631 1525.53Z" stroke="black" stroke-width="5"/>
<path d="M283.143 1507.68C283.694 1508.64 283.362 1509.83 282.444 1510.36C281.526 1510.89 280.327 1510.58 279.776 1509.63C279.225 1508.67 279.557 1507.48 280.474 1506.95C281.392 1506.42 282.592 1506.73 283.143 1507.68Z" fill="black" stroke="black" stroke-width="5"/>
<rect x="249" y="1477" width="159" height="64" rx="7" stroke="black" stroke-width="2"/>
<path d="M538.512 1520.36C536.829 1520.36 535.391 1519.91 534.197 1519.03C533.004 1518.15 532.092 1516.87 531.459 1515.18C530.827 1513.5 530.511 1511.47 530.511 1509.1C530.511 1506.74 530.827 1504.72 531.459 1503.04C532.099 1501.36 533.015 1500.09 534.208 1499.2C535.408 1498.32 536.843 1497.88 538.512 1497.88C540.181 1497.88 541.612 1498.33 542.805 1499.22C543.998 1500.1 544.911 1501.37 545.543 1503.05C546.182 1504.72 546.502 1506.74 546.502 1509.1C546.502 1511.48 546.186 1513.51 545.554 1515.2C544.922 1516.87 544.009 1518.15 542.816 1519.04C541.623 1519.92 540.188 1520.36 538.512 1520.36ZM538.512 1517.52C539.989 1517.52 541.143 1516.8 541.974 1515.36C542.812 1513.91 543.231 1511.83 543.231 1509.1C543.231 1507.29 543.04 1505.76 542.656 1504.51C542.28 1503.25 541.736 1502.3 541.026 1501.65C540.323 1501 539.485 1500.67 538.512 1500.67C537.042 1500.67 535.888 1501.4 535.05 1502.85C534.212 1504.3 533.789 1506.38 533.782 1509.1C533.782 1510.92 533.97 1512.46 534.347 1513.71C534.73 1514.96 535.273 1515.91 535.976 1516.56C536.68 1517.2 537.525 1517.52 538.512 1517.52Z" fill="black"/>
<mask id="path-15-inside-1_177_8" fill="white">
<path d="M485 1508.5C485 1512.36 483.856 1516.13 481.714 1519.33C479.571 1522.54 476.525 1525.04 472.962 1526.52C469.399 1527.99 465.478 1528.38 461.696 1527.63C457.913 1526.87 454.439 1525.02 451.711 1522.29C448.984 1519.56 447.127 1516.09 446.375 1512.3C445.622 1508.52 446.008 1504.6 447.484 1501.04C448.96 1497.47 451.46 1494.43 454.666 1492.29C457.873 1490.14 461.643 1489 465.5 1489V1493.77C462.587 1493.77 459.74 1494.64 457.318 1496.26C454.897 1497.87 453.009 1500.17 451.895 1502.86C450.78 1505.56 450.488 1508.52 451.056 1511.37C451.625 1514.23 453.027 1516.85 455.087 1518.91C457.146 1520.97 459.77 1522.38 462.627 1522.94C465.484 1523.51 468.445 1523.22 471.136 1522.11C473.826 1520.99 476.126 1519.1 477.745 1516.68C479.363 1514.26 480.226 1511.41 480.226 1508.5H485Z"/>
</mask>
<path d="M485 1508.5C485 1512.36 483.856 1516.13 481.714 1519.33C479.571 1522.54 476.525 1525.04 472.962 1526.52C469.399 1527.99 465.478 1528.38 461.696 1527.63C457.913 1526.87 454.439 1525.02 451.711 1522.29C448.984 1519.56 447.127 1516.09 446.375 1512.3C445.622 1508.52 446.008 1504.6 447.484 1501.04C448.96 1497.47 451.46 1494.43 454.666 1492.29C457.873 1490.14 461.643 1489 465.5 1489V1493.77C462.587 1493.77 459.74 1494.64 457.318 1496.26C454.897 1497.87 453.009 1500.17 451.895 1502.86C450.78 1505.56 450.488 1508.52 451.056 1511.37C451.625 1514.23 453.027 1516.85 455.087 1518.91C457.146 1520.97 459.77 1522.38 462.627 1522.94C465.484 1523.51 468.445 1523.22 471.136 1522.11C473.826 1520.99 476.126 1519.1 477.745 1516.68C479.363 1514.26 480.226 1511.41 480.226 1508.5H485Z" stroke="black" stroke-width="8" mask="url(#path-15-inside-1_177_8)"/>
<rect x="433" y="1477" width="159" height="64" rx="7" stroke="black" stroke-width="2"/>
<rect x="1" y="1563" width="1080" height="357" fill="black"/>
<path d="M109.202 1636V1617.82H115.345C116.772 1617.82 117.938 1618.08 118.843 1618.59C119.754 1619.1 120.429 1619.79 120.867 1620.66C121.305 1621.53 121.524 1622.5 121.524 1623.57C121.524 1624.64 121.305 1625.62 120.867 1626.49C120.435 1627.37 119.766 1628.07 118.861 1628.59C117.955 1629.1 116.795 1629.36 115.381 1629.36H110.977V1627.41H115.31C116.286 1627.41 117.07 1627.24 117.662 1626.9C118.254 1626.56 118.683 1626.11 118.95 1625.53C119.222 1624.95 119.358 1624.3 119.358 1623.57C119.358 1622.84 119.222 1622.19 118.95 1621.62C118.683 1621.04 118.251 1620.59 117.653 1620.27C117.056 1619.94 116.263 1619.77 115.274 1619.77H111.403V1636H109.202ZM125.071 1636V1617.82H127.273V1634.05H135.724V1636H125.071ZM141.027 1636H138.718L145.394 1617.82H147.667L154.343 1636H152.035L146.602 1620.69H146.46L141.027 1636ZM141.879 1628.9H151.183V1630.85H141.879V1628.9ZM171.593 1617.82V1636H169.462L159.555 1621.72H159.377V1636H157.175V1617.82H159.306L169.249 1632.13H169.427V1617.82H171.593ZM175.999 1636V1617.82H186.972V1619.77H178.2V1625.91H186.403V1627.87H178.2V1634.05H187.114V1636H175.999ZM189.946 1619.77V1617.82H203.582V1619.77H197.865V1636H195.663V1619.77H189.946ZM216.923 1622.36C216.817 1621.46 216.385 1620.77 215.627 1620.27C214.869 1619.77 213.94 1619.52 212.839 1619.52C212.034 1619.52 211.33 1619.65 210.726 1619.91C210.129 1620.17 209.661 1620.53 209.324 1620.99C208.992 1621.44 208.827 1621.96 208.827 1622.54C208.827 1623.03 208.942 1623.44 209.173 1623.79C209.41 1624.14 209.711 1624.42 210.078 1624.65C210.445 1624.88 210.83 1625.07 211.233 1625.21C211.635 1625.36 212.005 1625.47 212.342 1625.56L214.189 1626.06C214.662 1626.18 215.189 1626.35 215.769 1626.57C216.355 1626.79 216.914 1627.09 217.447 1627.47C217.986 1627.84 218.429 1628.32 218.779 1628.91C219.128 1629.49 219.302 1630.21 219.302 1631.06C219.302 1632.05 219.045 1632.93 218.53 1633.73C218.021 1634.52 217.275 1635.15 216.293 1635.62C215.316 1636.09 214.13 1636.32 212.733 1636.32C211.431 1636.32 210.303 1636.11 209.35 1635.69C208.403 1635.27 207.658 1634.68 207.113 1633.93C206.575 1633.18 206.27 1632.31 206.199 1631.31H208.472C208.531 1632 208.762 1632.57 209.164 1633.02C209.572 1633.46 210.087 1633.79 210.709 1634.01C211.336 1634.22 212.011 1634.33 212.733 1634.33C213.573 1634.33 214.328 1634.19 214.997 1633.92C215.666 1633.64 216.195 1633.26 216.586 1632.77C216.976 1632.27 217.172 1631.69 217.172 1631.03C217.172 1630.42 217.003 1629.93 216.666 1629.55C216.328 1629.18 215.884 1628.87 215.334 1628.63C214.784 1628.39 214.189 1628.19 213.55 1628.01L211.312 1627.37C209.892 1626.96 208.767 1626.38 207.939 1625.62C207.11 1624.86 206.696 1623.87 206.696 1622.65C206.696 1621.63 206.971 1620.74 207.522 1619.98C208.078 1619.22 208.824 1618.63 209.759 1618.21C210.7 1617.78 211.75 1617.57 212.91 1617.57C214.082 1617.57 215.124 1617.78 216.035 1618.2C216.947 1618.61 217.669 1619.18 218.202 1619.9C218.74 1620.63 219.024 1621.45 219.054 1622.36H216.923Z" fill="#F3F2EE"/>
<path d="M76 1615L64 1627L76 1639" stroke="#F3F2EE" stroke-width="4"/>
<rect x="61" y="1809" width="302" height="68" rx="7" fill="#F3F2EE" stroke="#F3F2EE" stroke-width="2"/>
<rect x="60" y="1678" width="303" height="199" rx="7" stroke="#F3F2EE" stroke-width="2"/>
<path d="M60 1685C60 1680.58 63.5817 1677 68 1677H356C360.418 1677 364 1680.58 364 1685V1736H60V1685Z" fill="#F3F2EE"/>
<path d="M146.781 1716.63V1698.45H158.606V1701.21H150.075V1706.15H157.994V1708.91H150.075V1713.87H158.677V1716.63H146.781ZM171.848 1703.45C171.765 1702.68 171.416 1702.07 170.8 1701.64C170.19 1701.21 169.397 1700.99 168.421 1700.99C167.734 1700.99 167.145 1701.1 166.654 1701.3C166.163 1701.51 165.787 1701.79 165.527 1702.15C165.266 1702.5 165.133 1702.91 165.127 1703.36C165.127 1703.74 165.213 1704.07 165.385 1704.35C165.562 1704.63 165.802 1704.86 166.104 1705.06C166.406 1705.25 166.74 1705.41 167.107 1705.54C167.474 1705.67 167.844 1705.78 168.217 1705.87L169.921 1706.29C170.608 1706.45 171.268 1706.67 171.901 1706.94C172.54 1707.21 173.111 1707.56 173.614 1707.97C174.123 1708.38 174.526 1708.88 174.822 1709.47C175.118 1710.06 175.266 1710.74 175.266 1711.53C175.266 1712.6 174.993 1713.53 174.449 1714.34C173.904 1715.15 173.117 1715.78 172.087 1716.24C171.063 1716.69 169.824 1716.91 168.368 1716.91C166.953 1716.91 165.725 1716.69 164.683 1716.25C163.648 1715.82 162.837 1715.18 162.251 1714.34C161.671 1713.49 161.357 1712.47 161.31 1711.26H164.55C164.597 1711.9 164.793 1712.42 165.136 1712.84C165.479 1713.26 165.926 1713.58 166.477 1713.78C167.033 1713.99 167.654 1714.1 168.341 1714.1C169.057 1714.1 169.684 1713.99 170.223 1713.78C170.768 1713.56 171.194 1713.26 171.501 1712.87C171.809 1712.48 171.966 1712.02 171.972 1711.5C171.966 1711.03 171.827 1710.64 171.555 1710.33C171.282 1710.02 170.901 1709.76 170.409 1709.55C169.924 1709.34 169.356 1709.15 168.705 1708.98L166.636 1708.45C165.139 1708.06 163.955 1707.48 163.085 1706.7C162.221 1705.91 161.789 1704.87 161.789 1703.57C161.789 1702.5 162.079 1701.56 162.659 1700.75C163.245 1699.95 164.041 1699.32 165.047 1698.88C166.053 1698.43 167.193 1698.2 168.465 1698.2C169.755 1698.2 170.886 1698.43 171.857 1698.88C172.833 1699.32 173.6 1699.94 174.156 1700.73C174.712 1701.52 174.999 1702.43 175.017 1703.45H171.848ZM177.403 1701.21V1698.45H191.909V1701.21H186.29V1716.63H183.023V1701.21H177.403ZM194.706 1716.63V1698.45H206.531V1701.21H198V1706.15H205.919V1708.91H198V1713.87H206.602V1716.63H194.706ZM209.891 1716.63V1698.45H216.71C218.106 1698.45 219.278 1698.7 220.225 1699.18C221.178 1699.67 221.897 1700.35 222.383 1701.22C222.874 1702.09 223.119 1703.11 223.119 1704.27C223.119 1705.43 222.871 1706.45 222.374 1707.3C221.882 1708.16 221.157 1708.82 220.199 1709.28C219.24 1709.75 218.062 1709.98 216.665 1709.98H211.809V1707.24H216.221C217.038 1707.24 217.707 1707.13 218.228 1706.9C218.749 1706.67 219.133 1706.34 219.382 1705.9C219.636 1705.46 219.764 1704.91 219.764 1704.27C219.764 1703.62 219.636 1703.07 219.382 1702.62C219.127 1702.16 218.74 1701.81 218.219 1701.57C217.698 1701.33 217.026 1701.21 216.204 1701.21H213.185V1716.63H209.891ZM219.284 1708.4L223.785 1716.63H220.11L215.689 1708.4H219.284ZM242.398 1707.54C242.398 1709.5 242.031 1711.18 241.297 1712.58C240.569 1713.97 239.574 1715.03 238.314 1715.77C237.059 1716.51 235.636 1716.88 234.044 1716.88C232.452 1716.88 231.025 1716.51 229.764 1715.77C228.51 1715.03 227.515 1713.96 226.782 1712.57C226.054 1711.17 225.69 1709.5 225.69 1707.54C225.69 1705.58 226.054 1703.91 226.782 1702.52C227.515 1701.12 228.51 1700.05 229.764 1699.31C231.025 1698.57 232.452 1698.2 234.044 1698.2C235.636 1698.2 237.059 1698.57 238.314 1699.31C239.574 1700.05 240.569 1701.12 241.297 1702.52C242.031 1703.91 242.398 1705.58 242.398 1707.54ZM239.086 1707.54C239.086 1706.16 238.87 1705 238.438 1704.05C238.012 1703.1 237.42 1702.38 236.663 1701.9C235.905 1701.41 235.032 1701.16 234.044 1701.16C233.055 1701.16 232.182 1701.41 231.425 1701.9C230.667 1702.38 230.072 1703.1 229.64 1704.05C229.214 1705 229.001 1706.16 229.001 1707.54C229.001 1708.92 229.214 1710.09 229.64 1711.04C230.072 1711.99 230.667 1712.71 231.425 1713.2C232.182 1713.68 233.055 1713.93 234.044 1713.93C235.032 1713.93 235.905 1713.68 236.663 1713.2C237.42 1712.71 238.012 1711.99 238.438 1711.04C238.87 1710.09 239.086 1708.92 239.086 1707.54ZM245.512 1716.63V1698.45H248.805V1706.81H249.027L256.121 1698.45H260.142L253.111 1706.61L260.204 1716.63H256.245L250.821 1708.84L248.805 1711.22V1716.63H245.512ZM262.431 1716.63V1698.45H265.724V1706.15H274.149V1698.45H277.452V1716.63H274.149V1708.91H265.724V1716.63H262.431Z" fill="black"/>
<path d="M196.464 1843.73C196.464 1845.28 196.18 1846.62 195.612 1847.73C195.044 1848.85 194.265 1849.7 193.275 1850.3C192.291 1850.9 191.171 1851.2 189.916 1851.2C188.657 1851.2 187.532 1850.9 186.543 1850.3C185.558 1849.7 184.781 1848.84 184.213 1847.73C183.645 1846.61 183.361 1845.28 183.361 1843.73C183.361 1842.17 183.645 1840.84 184.213 1839.73C184.781 1838.61 185.558 1837.75 186.543 1837.16C187.532 1836.56 188.657 1836.26 189.916 1836.26C191.171 1836.26 192.291 1836.56 193.275 1837.16C194.265 1837.75 195.044 1838.61 195.612 1839.73C196.18 1840.84 196.464 1842.17 196.464 1843.73ZM194.291 1843.73C194.291 1842.54 194.099 1841.55 193.716 1840.74C193.337 1839.92 192.816 1839.31 192.153 1838.89C191.495 1838.47 190.749 1838.26 189.916 1838.26C189.078 1838.26 188.33 1838.47 187.672 1838.89C187.014 1839.31 186.493 1839.92 186.109 1840.74C185.73 1841.55 185.541 1842.54 185.541 1843.73C185.541 1844.91 185.73 1845.91 186.109 1846.72C186.493 1847.53 187.014 1848.15 187.672 1848.57C188.33 1848.99 189.078 1849.2 189.916 1849.2C190.749 1849.2 191.495 1848.99 192.153 1848.57C192.816 1848.15 193.337 1847.53 193.716 1846.72C194.099 1845.91 194.291 1844.91 194.291 1843.73ZM199.201 1851V1836.45H204.385C205.512 1836.45 206.447 1836.65 207.191 1837.04C207.939 1837.43 208.497 1837.96 208.867 1838.65C209.236 1839.33 209.421 1840.12 209.421 1841.01C209.421 1841.9 209.234 1842.69 208.86 1843.37C208.49 1844.04 207.932 1844.56 207.183 1844.93C206.44 1845.31 205.505 1845.5 204.378 1845.5H200.451V1843.61H204.179C204.889 1843.61 205.467 1843.5 205.912 1843.3C206.362 1843.1 206.691 1842.8 206.899 1842.41C207.108 1842.03 207.212 1841.56 207.212 1841.01C207.212 1840.46 207.105 1839.99 206.892 1839.59C206.684 1839.18 206.355 1838.88 205.905 1838.66C205.46 1838.45 204.875 1838.34 204.151 1838.34H201.395V1851H199.201ZM206.381 1844.44L209.975 1851H207.475L203.952 1844.44H206.381ZM212.091 1851V1836.45H217.418C218.45 1836.45 219.305 1836.62 219.982 1836.97C220.659 1837.3 221.165 1837.76 221.502 1838.34C221.838 1838.91 222.006 1839.56 222.006 1840.28C222.006 1840.88 221.895 1841.39 221.672 1841.81C221.45 1842.22 221.151 1842.55 220.777 1842.8C220.408 1843.05 220.001 1843.23 219.556 1843.34V1843.49C220.039 1843.51 220.51 1843.67 220.969 1843.95C221.433 1844.24 221.817 1844.64 222.12 1845.17C222.423 1845.69 222.574 1846.33 222.574 1847.09C222.574 1847.83 222.399 1848.5 222.049 1849.09C221.703 1849.68 221.168 1850.14 220.443 1850.49C219.719 1850.83 218.793 1851 217.666 1851H212.091ZM214.286 1849.12H217.453C218.505 1849.12 219.257 1848.91 219.712 1848.51C220.166 1848.1 220.394 1847.59 220.394 1846.98C220.394 1846.52 220.278 1846.1 220.046 1845.72C219.814 1845.33 219.482 1845.03 219.051 1844.8C218.625 1844.57 218.119 1844.46 217.531 1844.46H214.286V1849.12ZM214.286 1842.75H217.226C217.719 1842.75 218.161 1842.65 218.554 1842.46C218.952 1842.27 219.267 1842.01 219.499 1841.67C219.736 1841.32 219.854 1840.91 219.854 1840.45C219.854 1839.84 219.643 1839.34 219.222 1838.93C218.8 1838.53 218.154 1838.32 217.283 1838.32H214.286V1842.75ZM227.372 1836.45V1851H225.177V1836.45H227.372ZM229.85 1838.34V1836.45H241.107V1838.34H236.569V1851H234.382V1838.34H229.85Z" fill="black"/>
<path d="M946 1494C946 1489.58 949.582 1486 954 1486H1081V1573H946V1494Z" fill="black"/>
<path fill-rule="evenodd" clip-rule="evenodd" d="M1013 1527.17L1028.41 1542.59L1025.59 1545.41L1013 1532.83L1000.41 1545.41L997.586 1542.59L1013 1527.17Z" fill="#F3F2EE"/>
<path fill-rule="evenodd" clip-rule="evenodd" d="M1013 1532.24L997.586 1516.83L1000.41 1514L1013 1526.59L1025.59 1514L1028.41 1516.83L1013 1532.24Z" fill="#F3F2EE"/>
<path d="M267 1762L267 1781" stroke="#F3F2EE" stroke-width="3"/>
<path d="M274 1762L274 1781" stroke="#F3F2EE"/>
<path d="M281 1762L281 1781" stroke="#F3F2EE"/>
<path d="M288 1762L288 1781" stroke="#F3F2EE"/>
<path d="M143.812 1780.25C142.475 1780.25 141.336 1779.88 140.395 1779.16C139.453 1778.42 138.734 1777.36 138.237 1775.97C137.74 1774.57 137.491 1772.89 137.491 1770.91C137.491 1768.94 137.74 1767.27 138.237 1765.88C138.74 1764.48 139.462 1763.41 140.403 1762.68C141.35 1761.94 142.487 1761.57 143.812 1761.57C145.138 1761.57 146.272 1761.94 147.213 1762.68C148.16 1763.41 148.882 1764.48 149.379 1765.88C149.882 1767.27 150.134 1768.94 150.134 1770.91C150.134 1772.89 149.885 1774.57 149.388 1775.97C148.891 1777.36 148.172 1778.42 147.23 1779.16C146.289 1779.88 145.15 1780.25 143.812 1780.25ZM143.812 1778.3C145.138 1778.3 146.168 1777.66 146.902 1776.38C147.636 1775.1 148.003 1773.28 148.003 1770.91C148.003 1769.33 147.834 1767.99 147.497 1766.89C147.165 1765.78 146.686 1764.94 146.059 1764.36C145.437 1763.78 144.688 1763.49 143.812 1763.49C142.499 1763.49 141.472 1764.14 140.732 1765.43C139.992 1766.72 139.622 1768.55 139.622 1770.91C139.622 1772.48 139.788 1773.82 140.119 1774.92C140.451 1776.02 140.927 1776.86 141.549 1777.43C142.176 1778.01 142.931 1778.3 143.812 1778.3ZM154.435 1780.14C153.997 1780.14 153.621 1779.99 153.307 1779.67C152.994 1779.36 152.837 1778.98 152.837 1778.54C152.837 1778.11 152.994 1777.73 153.307 1777.42C153.621 1777.1 153.997 1776.95 154.435 1776.95C154.873 1776.95 155.249 1777.1 155.562 1777.42C155.876 1777.73 156.033 1778.11 156.033 1778.54C156.033 1778.83 155.959 1779.1 155.811 1779.34C155.669 1779.59 155.477 1779.78 155.234 1779.93C154.997 1780.07 154.731 1780.14 154.435 1780.14ZM159.331 1776.27V1774.46L167.321 1761.82H168.635V1764.62H167.747L161.71 1774.18V1774.32H172.47V1776.27H159.331ZM167.889 1780V1775.72V1774.88V1761.82H169.984V1780H167.889Z" fill="#F3F2EE"/>
<path d="M210.559 1778.37C214.953 1778.37 218.5 1774.83 218.5 1770.48C218.5 1766.13 214.953 1762.59 210.559 1762.59C206.165 1762.59 202.618 1766.13 202.618 1770.48C202.618 1774.83 206.165 1778.37 210.559 1778.37Z" fill="#F3F2EE" stroke="#F3F2EE" stroke-width="3"/>
<path d="M180 1762.02H183.804L188.899 1774.46H189.1L194.195 1762.02H197.999V1779.18H195.016V1767.39H194.857L190.114 1779.13H187.885L183.142 1767.37H182.983V1779.18H180V1762.02Z" fill="#F3F2EE"/>
<rect x="377" y="1678" width="303" height="199" rx="7" stroke="#F3F2EE" stroke-width="2"/>
<path d="M378 1685C378 1681.13 381.134 1678 385 1678H673C676.866 1678 680 1681.13 680 1685V1735H378V1685Z" stroke="#F3F2EE" stroke-width="2"/>
<path d="M463.781 1716.63V1698.45H475.606V1701.21H467.075V1706.15H474.994V1708.91H467.075V1713.87H475.677V1716.63H463.781ZM488.848 1703.45C488.765 1702.68 488.416 1702.07 487.8 1701.64C487.19 1701.21 486.397 1700.99 485.421 1700.99C484.734 1700.99 484.145 1701.1 483.654 1701.3C483.163 1701.51 482.787 1701.79 482.527 1702.15C482.266 1702.5 482.133 1702.91 482.127 1703.36C482.127 1703.74 482.213 1704.07 482.385 1704.35C482.562 1704.63 482.802 1704.86 483.104 1705.06C483.406 1705.25 483.74 1705.41 484.107 1705.54C484.474 1705.67 484.844 1705.78 485.217 1705.87L486.921 1706.29C487.608 1706.45 488.268 1706.67 488.901 1706.94C489.54 1707.21 490.111 1707.56 490.614 1707.97C491.123 1708.38 491.526 1708.88 491.822 1709.47C492.118 1710.06 492.266 1710.74 492.266 1711.53C492.266 1712.6 491.993 1713.53 491.449 1714.34C490.904 1715.15 490.117 1715.78 489.087 1716.24C488.063 1716.69 486.824 1716.91 485.368 1716.91C483.953 1716.91 482.725 1716.69 481.683 1716.25C480.648 1715.82 479.837 1715.18 479.251 1714.34C478.671 1713.49 478.357 1712.47 478.31 1711.26H481.55C481.597 1711.9 481.793 1712.42 482.136 1712.84C482.479 1713.26 482.926 1713.58 483.477 1713.78C484.033 1713.99 484.654 1714.1 485.341 1714.1C486.057 1714.1 486.684 1713.99 487.223 1713.78C487.768 1713.56 488.194 1713.26 488.501 1712.87C488.809 1712.48 488.966 1712.02 488.972 1711.5C488.966 1711.03 488.827 1710.64 488.555 1710.33C488.282 1710.02 487.901 1709.76 487.409 1709.55C486.924 1709.34 486.356 1709.15 485.705 1708.98L483.636 1708.45C482.139 1708.06 480.955 1707.48 480.085 1706.7C479.221 1705.91 478.789 1704.87 478.789 1703.57C478.789 1702.5 479.079 1701.56 479.659 1700.75C480.245 1699.95 481.041 1699.32 482.047 1698.88C483.053 1698.43 484.193 1698.2 485.465 1698.2C486.755 1698.2 487.886 1698.43 488.857 1698.88C489.833 1699.32 490.6 1699.94 491.156 1700.73C491.712 1701.52 491.999 1702.43 492.017 1703.45H488.848ZM494.403 1701.21V1698.45H508.909V1701.21H503.29V1716.63H500.023V1701.21H494.403ZM511.706 1716.63V1698.45H523.531V1701.21H515V1706.15H522.919V1708.91H515V1713.87H523.602V1716.63H511.706ZM526.891 1716.63V1698.45H533.71C535.106 1698.45 536.278 1698.7 537.225 1699.18C538.178 1699.67 538.897 1700.35 539.383 1701.22C539.874 1702.09 540.119 1703.11 540.119 1704.27C540.119 1705.43 539.871 1706.45 539.374 1707.3C538.882 1708.16 538.157 1708.82 537.199 1709.28C536.24 1709.75 535.062 1709.98 533.665 1709.98H528.809V1707.24H533.221C534.038 1707.24 534.707 1707.13 535.228 1706.9C535.749 1706.67 536.133 1706.34 536.382 1705.9C536.636 1705.46 536.764 1704.91 536.764 1704.27C536.764 1703.62 536.636 1703.07 536.382 1702.62C536.127 1702.16 535.74 1701.81 535.219 1701.57C534.698 1701.33 534.026 1701.21 533.204 1701.21H530.185V1716.63H526.891ZM536.284 1708.4L540.785 1716.63H537.11L532.689 1708.4H536.284ZM559.398 1707.54C559.398 1709.5 559.031 1711.18 558.297 1712.58C557.569 1713.97 556.574 1715.03 555.314 1715.77C554.059 1716.51 552.636 1716.88 551.044 1716.88C549.452 1716.88 548.025 1716.51 546.764 1715.77C545.51 1715.03 544.515 1713.96 543.782 1712.57C543.054 1711.17 542.69 1709.5 542.69 1707.54C542.69 1705.58 543.054 1703.91 543.782 1702.52C544.515 1701.12 545.51 1700.05 546.764 1699.31C548.025 1698.57 549.452 1698.2 551.044 1698.2C552.636 1698.2 554.059 1698.57 555.314 1699.31C556.574 1700.05 557.569 1701.12 558.297 1702.52C559.031 1703.91 559.398 1705.58 559.398 1707.54ZM556.086 1707.54C556.086 1706.16 555.87 1705 555.438 1704.05C555.012 1703.1 554.42 1702.38 553.663 1701.9C552.905 1701.41 552.032 1701.16 551.044 1701.16C550.055 1701.16 549.182 1701.41 548.425 1701.9C547.667 1702.38 547.072 1703.1 546.64 1704.05C546.214 1705 546.001 1706.16 546.001 1707.54C546.001 1708.92 546.214 1710.09 546.64 1711.04C547.072 1711.99 547.667 1712.71 548.425 1713.2C549.182 1713.68 550.055 1713.93 551.044 1713.93C552.032 1713.93 552.905 1713.68 553.663 1713.2C554.42 1712.71 555.012 1711.99 555.438 1711.04C555.87 1710.09 556.086 1708.92 556.086 1707.54ZM562.512 1716.63V1698.45H565.805V1706.81H566.027L573.121 1698.45H577.142L570.111 1706.61L577.204 1716.63H573.245L567.821 1708.84L565.805 1711.22V1716.63H562.512ZM579.431 1716.63V1698.45H582.724V1706.15H591.149V1698.45H594.452V1716.63H591.149V1708.91H582.724V1716.63H579.431Z" fill="#F3F2EE"/>
<rect x="378" y="1809" width="302" height="68" rx="7" stroke="#F3F2EE" stroke-width="2"/>
<path fill-rule="evenodd" clip-rule="evenodd" d="M512.612 1847.73C513.18 1846.62 513.465 1845.28 513.465 1843.73C513.465 1842.17 513.18 1840.84 512.612 1839.73C512.044 1838.61 511.265 1837.75 510.276 1837.16C509.291 1836.56 508.171 1836.26 506.916 1836.26C505.657 1836.26 504.532 1836.56 503.543 1837.16C502.558 1837.75 501.781 1838.61 501.213 1839.73C500.645 1840.84 500.361 1842.17 500.361 1843.73C500.361 1845.28 500.645 1846.61 501.213 1847.73C501.781 1848.84 502.558 1849.7 503.543 1850.3C504.532 1850.9 505.657 1851.2 506.916 1851.2C508.171 1851.2 509.291 1850.9 510.276 1850.3C511.265 1849.7 512.044 1848.85 512.612 1847.73ZM510.716 1840.74C511.099 1841.55 511.291 1842.54 511.291 1843.73C511.291 1844.91 511.099 1845.91 510.716 1846.72C510.337 1847.53 509.816 1848.15 509.153 1848.57C508.495 1848.99 507.75 1849.2 506.916 1849.2C506.078 1849.2 505.33 1848.99 504.672 1848.57C504.014 1848.15 503.493 1847.53 503.109 1846.72C502.731 1845.91 502.541 1844.91 502.541 1843.73C502.541 1842.54 502.731 1841.55 503.109 1840.74C503.493 1839.92 504.014 1839.31 504.672 1838.89C505.33 1838.47 506.078 1838.26 506.916 1838.26C507.75 1838.26 508.495 1838.47 509.153 1838.89C509.816 1839.31 510.337 1839.92 510.716 1840.74ZM521.385 1836.45H516.201V1851H518.395V1845.5H521.378C521.426 1845.5 521.473 1845.5 521.52 1845.49L524.475 1851H526.975L523.756 1845.12C523.905 1845.07 524.047 1845 524.184 1844.93C524.932 1844.56 525.49 1844.04 525.86 1843.37C526.234 1842.69 526.421 1841.9 526.421 1841.01C526.421 1840.12 526.236 1839.33 525.867 1838.65C525.498 1837.96 524.939 1837.43 524.191 1837.04C523.447 1836.65 522.512 1836.45 521.385 1836.45ZM518.395 1843.61H521.179C521.89 1843.61 522.467 1843.5 522.912 1843.3C523.362 1843.1 523.691 1842.8 523.9 1842.41C524.108 1842.03 524.212 1841.56 524.212 1841.01C524.212 1840.47 524.106 1839.99 523.892 1839.59C523.684 1839.18 523.355 1838.88 522.905 1838.66C522.46 1838.45 521.875 1838.34 521.151 1838.34H518.395V1843.61ZM534.418 1836.45H529.091V1851H534.667C535.793 1851 536.719 1850.83 537.444 1850.49C538.168 1850.14 538.703 1849.68 539.049 1849.09C539.399 1848.5 539.574 1847.83 539.574 1847.09C539.574 1846.33 539.423 1845.69 539.12 1845.17C538.817 1844.64 538.433 1844.24 537.969 1843.95C537.51 1843.67 537.039 1843.51 536.556 1843.49V1843.34C537.001 1843.23 537.408 1843.05 537.777 1842.8C538.151 1842.55 538.45 1842.22 538.672 1841.81C538.895 1841.39 539.006 1840.88 539.006 1840.28C539.006 1839.56 538.838 1838.91 538.502 1838.34C538.166 1837.76 537.659 1837.3 536.982 1836.97C536.305 1836.63 535.45 1836.45 534.418 1836.45ZM534.454 1849.12H531.286V1844.46H534.532C535.119 1844.46 535.625 1844.57 536.052 1844.8C536.482 1845.03 536.814 1845.33 537.046 1845.72C537.278 1846.1 537.394 1846.52 537.394 1846.98C537.394 1847.59 537.167 1848.1 536.712 1848.51C536.258 1848.91 535.505 1849.12 534.454 1849.12ZM534.226 1842.75H531.286V1838.32H534.283C535.154 1838.32 535.801 1838.53 536.222 1838.93C536.643 1839.34 536.854 1839.84 536.854 1840.45C536.854 1840.91 536.736 1841.32 536.499 1841.67C536.267 1842.01 535.952 1842.27 535.554 1842.46C535.161 1842.65 534.719 1842.75 534.226 1842.75ZM542.177 1851H544.372V1836.45H542.177V1851ZM546.851 1836.45V1838.34H551.382V1851H553.569V1838.34H558.108V1836.45H546.851Z" fill="#F3F2EE"/>
<path d="M584 1762L584 1781" stroke="#F3F2EE" stroke-width="3"/>
<path d="M591 1762L591 1781" stroke="#F3F2EE"/>
<path d="M598 1762L598 1781" stroke="#F3F2EE"/>
<path d="M605 1762L605 1781" stroke="#F3F2EE"/>
<path d="M460.812 1780.25C459.475 1780.25 458.336 1779.88 457.395 1779.16C456.453 1778.42 455.734 1777.36 455.237 1775.97C454.74 1774.57 454.491 1772.89 454.491 1770.91C454.491 1768.94 454.74 1767.27 455.237 1765.88C455.74 1764.48 456.462 1763.41 457.403 1762.68C458.35 1761.94 459.487 1761.57 460.812 1761.57C462.138 1761.57 463.272 1761.94 464.213 1762.68C465.16 1763.41 465.882 1764.48 466.379 1765.88C466.882 1767.27 467.134 1768.94 467.134 1770.91C467.134 1772.89 466.885 1774.57 466.388 1775.97C465.891 1777.36 465.172 1778.42 464.23 1779.16C463.289 1779.88 462.15 1780.25 460.812 1780.25ZM460.812 1778.3C462.138 1778.3 463.168 1777.66 463.902 1776.38C464.636 1775.1 465.003 1773.28 465.003 1770.91C465.003 1769.33 464.834 1767.99 464.497 1766.89C464.165 1765.78 463.686 1764.94 463.059 1764.36C462.437 1763.78 461.688 1763.49 460.812 1763.49C459.499 1763.49 458.472 1764.14 457.732 1765.43C456.992 1766.72 456.622 1768.55 456.622 1770.91C456.622 1772.48 456.788 1773.82 457.119 1774.92C457.451 1776.02 457.927 1776.86 458.549 1777.43C459.176 1778.01 459.931 1778.3 460.812 1778.3ZM471.435 1780.14C470.997 1780.14 470.621 1779.99 470.307 1779.67C469.994 1779.36 469.837 1778.98 469.837 1778.54C469.837 1778.11 469.994 1777.73 470.307 1777.42C470.621 1777.1 470.997 1776.95 471.435 1776.95C471.873 1776.95 472.249 1777.1 472.562 1777.42C472.876 1777.73 473.033 1778.11 473.033 1778.54C473.033 1778.83 472.959 1779.1 472.811 1779.34C472.669 1779.59 472.477 1779.78 472.234 1779.93C471.997 1780.07 471.731 1780.14 471.435 1780.14ZM476.331 1776.27V1774.46L484.321 1761.82H485.635V1764.62H484.747L478.71 1774.18V1774.32H489.47V1776.27H476.331ZM484.889 1780V1775.72V1774.88V1761.82H486.984V1780H484.889Z" fill="#F3F2EE"/>
<path d="M527.559 1778.37C531.953 1778.37 535.5 1774.83 535.5 1770.48C535.5 1766.13 531.953 1762.59 527.559 1762.59C523.165 1762.59 519.618 1766.13 519.618 1770.48C519.618 1774.83 523.165 1778.37 527.559 1778.37Z" fill="#F3F2EE" stroke="#F3F2EE" stroke-width="3"/>
<path d="M497 1762.02H500.804L505.899 1774.46H506.1L511.195 1762.02H514.999V1779.18H512.016V1767.39H511.857L507.114 1779.13H504.885L500.142 1767.37H499.983V1779.18H497V1762.02Z" fill="#F3F2EE"/>
</g>
<defs>
<clipPath id="clip0_177_8">
<rect width="1080" height="1920" rx="60" fill="white"/>
</clipPath>
</defs>
</svg>
