<svg width="1080" height="1920" viewBox="0 0 1080 1920" fill="none" xmlns="http://www.w3.org/2000/svg">
<rect width="1080" height="1920" rx="60" fill="black"/>
<path d="M279.626 934.091V985H274.977V934.091H279.626ZM332.809 934.091V985H328.285L298.207 942.369H297.809V985H293.161V934.091H297.66L327.838 976.772H328.235V934.091H332.809ZM346.344 985V934.091H375.801V938.267H350.993V957.433H373.489V961.609H350.993V985H346.344ZM392.008 934.091V985H387.36V934.091H392.008ZM445.192 934.091V985H440.668L410.59 942.369H410.192V985H405.544V934.091H410.043L440.22 976.772H440.618V934.091H445.192ZM463.376 934.091V985H458.727V934.091H463.376ZM473.828 938.267V934.091H510.742V938.267H494.61V985H489.961V938.267H473.828ZM521.208 985V934.091H550.739V938.267H525.856V957.433H549.173V961.609H525.856V980.824H551.236V985H521.208ZM609.056 947.464C608.791 945.111 607.697 943.288 605.774 941.996C603.852 940.687 601.433 940.032 598.516 940.032C596.428 940.032 594.621 940.363 593.097 941.026C591.572 941.673 590.387 942.567 589.542 943.711C588.714 944.838 588.299 946.122 588.299 947.564C588.299 948.774 588.581 949.818 589.144 950.696C589.724 951.574 590.478 952.312 591.407 952.908C592.351 953.488 593.362 953.977 594.439 954.375C595.516 954.756 596.552 955.071 597.546 955.32L602.518 956.612C604.142 957.01 605.808 957.549 607.514 958.228C609.221 958.907 610.804 959.802 612.262 960.913C613.721 962.023 614.897 963.398 615.792 965.039C616.704 966.68 617.159 968.643 617.159 970.93C617.159 973.814 616.414 976.374 614.922 978.612C613.447 980.849 611.301 982.614 608.484 983.906C605.683 985.199 602.294 985.845 598.317 985.845C594.505 985.845 591.208 985.24 588.424 984.031C585.639 982.821 583.46 981.106 581.886 978.885C580.312 976.648 579.442 973.996 579.276 970.93H586.982C587.131 972.77 587.728 974.303 588.772 975.529C589.832 976.739 591.183 977.642 592.823 978.239C594.481 978.819 596.295 979.109 598.267 979.109C600.438 979.109 602.369 978.769 604.059 978.089C605.766 977.393 607.108 976.432 608.086 975.206C609.064 973.963 609.553 972.513 609.553 970.856C609.553 969.348 609.122 968.113 608.26 967.152C607.415 966.191 606.263 965.395 604.805 964.766C603.363 964.136 601.731 963.581 599.908 963.1L593.892 961.46C589.816 960.349 586.584 958.717 584.198 956.562C581.828 954.408 580.643 951.558 580.643 948.011C580.643 945.078 581.438 942.518 583.029 940.33C584.62 938.143 586.775 936.444 589.492 935.234C592.21 934.008 595.276 933.395 598.69 933.395C602.137 933.395 605.178 934 607.813 935.21C610.464 936.419 612.552 938.085 614.077 940.206C615.602 942.311 616.397 944.73 616.463 947.464H609.056ZM670.56 959.545C670.56 964.981 669.566 969.654 667.578 973.565C665.589 977.46 662.863 980.459 659.399 982.564C655.952 984.652 652.033 985.696 647.641 985.696C643.233 985.696 639.297 984.652 635.834 982.564C632.387 980.459 629.669 977.451 627.68 973.54C625.692 969.629 624.698 964.964 624.698 959.545C624.698 954.11 625.692 949.445 627.68 945.55C629.669 941.639 632.387 938.64 635.834 936.552C639.297 934.447 643.233 933.395 647.641 933.395C652.033 933.395 655.952 934.447 659.399 936.552C662.863 938.64 665.589 941.639 667.578 945.55C669.566 949.445 670.56 954.11 670.56 959.545ZM662.954 959.545C662.954 955.402 662.283 951.914 660.94 949.08C659.615 946.23 657.792 944.076 655.472 942.617C653.168 941.142 650.558 940.405 647.641 940.405C644.708 940.405 642.09 941.142 639.786 942.617C637.483 944.076 635.66 946.23 634.318 949.08C632.992 951.914 632.329 955.402 632.329 959.545C632.329 963.688 632.992 967.185 634.318 970.036C635.66 972.869 637.483 975.024 639.786 976.499C642.09 977.957 644.708 978.686 647.641 978.686C650.558 978.686 653.168 977.957 655.472 976.499C657.792 975.024 659.615 972.869 660.94 970.036C662.283 967.185 662.954 963.688 662.954 959.545ZM680.137 985V934.091H687.818V978.388H710.886V985H680.137ZM726.547 985H718.393L736.714 934.091H745.588L763.908 985H755.755L741.362 943.338H740.964L726.547 985ZM727.914 965.064H754.363V971.527H727.914V965.064ZM771.26 985V934.091H789.406C793.35 934.091 796.623 934.77 799.225 936.129C801.844 937.488 803.799 939.369 805.092 941.772C806.384 944.158 807.031 946.918 807.031 950.05C807.031 953.165 806.376 955.908 805.067 958.278C803.774 960.631 801.819 962.462 799.2 963.771C796.599 965.08 793.326 965.735 789.381 965.735H775.635V959.123H788.685C791.171 959.123 793.193 958.767 794.751 958.054C796.325 957.341 797.477 956.306 798.206 954.947C798.935 953.588 799.3 951.955 799.3 950.05C799.3 948.127 798.927 946.462 798.181 945.053C797.452 943.645 796.3 942.567 794.726 941.822C793.168 941.059 791.122 940.678 788.586 940.678H778.941V985H771.26ZM796.391 962.031L808.97 985H800.22L787.89 962.031H796.391Z" fill="#F3F2EE"/>
<path fill-rule="evenodd" clip-rule="evenodd" d="M536.551 1752.54H734V1814.15H536.551V1752.54ZM556.043 1797.51C558.349 1799.76 561.572 1800.88 565.71 1800.88C568.459 1800.88 570.844 1800.36 572.866 1799.31C574.888 1798.24 576.436 1796.74 577.51 1794.81C578.584 1792.89 579.121 1790.63 579.121 1788.04V1783.49C579.121 1783.14 579.01 1782.87 578.789 1782.68C578.6 1782.46 578.347 1782.35 578.031 1782.35H567.322C567.006 1782.35 566.737 1782.46 566.516 1782.68C566.326 1782.9 566.232 1783.17 566.232 1783.49V1785C566.232 1785.35 566.326 1785.64 566.516 1785.86C566.737 1786.05 567.006 1786.14 567.322 1786.14H574.43V1788.13C574.43 1791.04 573.64 1793.22 572.06 1794.67C570.481 1796.12 568.364 1796.85 565.71 1796.85C563.088 1796.85 561.035 1796.14 559.55 1794.72C558.065 1793.26 557.259 1791.02 557.133 1787.99C557.102 1787.04 557.086 1785.64 557.086 1783.77C557.086 1781.88 557.102 1780.47 557.133 1779.55C557.259 1776.55 558.065 1774.34 559.55 1772.92C561.035 1771.5 563.088 1770.79 565.71 1770.79C567.985 1770.79 569.786 1771.29 571.113 1772.3C572.471 1773.31 573.387 1774.53 573.861 1775.95C573.987 1776.3 574.114 1776.54 574.24 1776.66C574.398 1776.76 574.635 1776.81 574.951 1776.81H577.747C578.031 1776.81 578.268 1776.73 578.458 1776.57C578.647 1776.41 578.742 1776.21 578.742 1775.95V1775.86C578.679 1774.63 578.158 1773.3 577.178 1771.88C576.199 1770.46 574.73 1769.26 572.771 1768.28C570.844 1767.26 568.49 1766.76 565.71 1766.76C561.603 1766.76 558.397 1767.88 556.091 1770.12C553.784 1772.37 552.552 1775.43 552.394 1779.32C552.363 1780.23 552.347 1781.72 552.347 1783.77C552.347 1785.79 552.363 1787.28 552.394 1788.23C552.552 1792.14 553.769 1795.24 556.043 1797.51ZM585.186 1800.12C585.376 1800.31 585.597 1800.4 585.85 1800.4H588.267C588.582 1800.4 588.835 1800.33 589.025 1800.17C589.246 1799.98 589.388 1799.79 589.451 1799.6L592.058 1792.87H607.601L610.207 1799.6C610.27 1799.79 610.397 1799.98 610.586 1800.17C610.776 1800.33 611.044 1800.4 611.392 1800.4H613.809C614.061 1800.4 614.282 1800.31 614.472 1800.12C614.661 1799.93 614.756 1799.71 614.756 1799.46L614.661 1798.94L602.957 1768.28C602.704 1767.58 602.199 1767.23 601.44 1767.23H598.218C597.46 1767.23 596.954 1767.58 596.702 1768.28L584.949 1798.94C584.918 1799.03 584.902 1799.2 584.902 1799.46C584.902 1799.71 584.997 1799.93 585.186 1800.12ZM599.829 1771.97L606.226 1788.79H593.432L599.829 1771.97ZM623.756 1800.4C623.44 1800.4 623.172 1800.31 622.951 1800.12C622.761 1799.9 622.666 1799.63 622.666 1799.31V1768.37C622.666 1768.02 622.761 1767.75 622.951 1767.56C623.172 1767.34 623.44 1767.23 623.756 1767.23H626.126C626.631 1767.23 627.042 1767.49 627.358 1767.99L637.357 1787.14L647.45 1767.99C647.513 1767.8 647.64 1767.63 647.829 1767.47C648.05 1767.31 648.319 1767.23 648.635 1767.23H650.957C651.304 1767.23 651.573 1767.34 651.762 1767.56C651.984 1767.75 652.094 1768.02 652.094 1768.37V1799.31C652.094 1799.63 651.984 1799.9 651.762 1800.12C651.541 1800.31 651.273 1800.4 650.957 1800.4H648.635C648.319 1800.4 648.05 1800.31 647.829 1800.12C647.64 1799.9 647.545 1799.63 647.545 1799.31V1776L639.631 1791.45C639.315 1792.11 638.81 1792.44 638.115 1792.44H636.646C635.951 1792.44 635.445 1792.11 635.129 1791.45L627.168 1776V1799.31C627.168 1799.63 627.058 1799.9 626.836 1800.12C626.647 1800.31 626.394 1800.4 626.078 1800.4H623.756ZM663.417 1800.12C663.638 1800.31 663.907 1800.4 664.223 1800.4H684.173C684.489 1800.4 684.742 1800.31 684.931 1800.12C685.152 1799.9 685.263 1799.63 685.263 1799.31V1797.47C685.263 1797.12 685.168 1796.85 684.979 1796.66C684.789 1796.47 684.521 1796.38 684.173 1796.38H667.682V1785.62H682.751C683.067 1785.62 683.32 1785.52 683.51 1785.34C683.731 1785.11 683.841 1784.85 683.841 1784.53V1782.78C683.841 1782.43 683.731 1782.16 683.51 1781.97C683.32 1781.75 683.067 1781.64 682.751 1781.64H667.682V1771.26H683.794C684.141 1771.26 684.41 1771.17 684.599 1770.98C684.789 1770.76 684.884 1770.49 684.884 1770.17V1768.37C684.884 1768.02 684.773 1767.75 684.552 1767.56C684.363 1767.34 684.11 1767.23 683.794 1767.23H664.223C663.907 1767.23 663.638 1767.34 663.417 1767.56C663.228 1767.75 663.133 1768.02 663.133 1768.37V1799.31C663.133 1799.63 663.228 1799.9 663.417 1800.12ZM705.376 1800.88C702.754 1800.88 700.48 1800.47 698.553 1799.65C696.657 1798.83 695.204 1797.75 694.193 1796.42C693.182 1795.07 692.645 1793.61 692.582 1792.06C692.582 1791.81 692.677 1791.59 692.866 1791.4C693.087 1791.18 693.34 1791.07 693.624 1791.07H696.041C696.641 1791.07 697.052 1791.39 697.273 1792.02C697.557 1793.34 698.363 1794.48 699.69 1795.43C701.048 1796.38 702.944 1796.85 705.376 1796.85C707.999 1796.85 709.973 1796.39 711.3 1795.48C712.627 1794.53 713.29 1793.22 713.29 1791.54C713.29 1790.47 712.958 1789.6 712.295 1788.94C711.663 1788.27 710.715 1787.69 709.452 1787.18C708.188 1786.68 706.293 1786.05 703.765 1785.29C701.301 1784.59 699.342 1783.85 697.889 1783.06C696.436 1782.27 695.346 1781.29 694.619 1780.12C693.893 1778.95 693.529 1777.48 693.529 1775.72C693.529 1774.01 693.988 1772.48 694.904 1771.12C695.852 1769.76 697.194 1768.7 698.932 1767.94C700.669 1767.15 702.739 1766.76 705.139 1766.76C707.604 1766.76 709.72 1767.2 711.489 1768.09C713.259 1768.94 714.601 1770.03 715.517 1771.36C716.434 1772.68 716.923 1774.01 716.986 1775.34C716.986 1775.59 716.892 1775.81 716.702 1776C716.544 1776.19 716.307 1776.28 715.991 1776.28H713.48C712.816 1776.28 712.406 1775.98 712.248 1775.38C712.058 1774.06 711.316 1772.97 710.02 1772.11C708.725 1771.23 707.098 1770.79 705.139 1770.79C702.991 1770.79 701.301 1771.2 700.069 1772.02C698.837 1772.84 698.221 1774.06 698.221 1775.67C698.221 1776.74 698.505 1777.63 699.074 1778.32C699.674 1779.02 700.574 1779.63 701.775 1780.17C702.975 1780.68 704.729 1781.26 707.035 1781.92C709.72 1782.65 711.837 1783.41 713.385 1784.2C714.933 1784.96 716.086 1785.92 716.844 1787.09C717.602 1788.23 717.982 1789.68 717.982 1791.45C717.982 1794.39 716.844 1796.69 714.57 1798.37C712.295 1800.04 709.231 1800.88 705.376 1800.88ZM370.23 1782.31C371.129 1781.66 371.878 1780.83 372.427 1779.87C373.186 1778.53 373.572 1777.02 373.543 1775.48C373.589 1774.24 373.328 1773 372.783 1771.88C372.238 1770.76 371.427 1769.8 370.419 1769.07C367.864 1767.4 364.84 1766.6 361.795 1766.79H347V1799.29H362.667C365.896 1799.5 369.109 1798.69 371.851 1796.97C372.911 1796.2 373.765 1795.19 374.334 1794.02C374.903 1792.84 375.169 1791.54 375.109 1790.24C375.173 1788.36 374.619 1786.5 373.53 1784.97C372.676 1783.81 371.539 1782.9 370.23 1782.31ZM362.317 1793.69H353.671V1785.61H362.317C366.32 1785.61 368.391 1786.88 368.391 1789.65C368.391 1792.41 366.32 1793.69 362.317 1793.69ZM353.671 1772.38H361.184C362.675 1772.28 364.161 1772.64 365.448 1773.39C365.877 1773.73 366.224 1774.16 366.463 1774.65C366.701 1775.14 366.825 1775.67 366.825 1776.22C366.825 1776.76 366.701 1777.3 366.463 1777.79C366.224 1778.28 365.877 1778.71 365.448 1779.04C364.16 1779.8 362.675 1780.15 361.184 1780.05H353.671V1772.38ZM392.947 1766.79H386.272V1799.29H392.947V1766.79ZM431.718 1779.87C431.167 1780.83 430.418 1781.66 429.521 1782.31C430.83 1782.9 431.965 1783.81 432.821 1784.97C433.909 1786.5 434.464 1788.36 434.4 1790.24C434.46 1791.54 434.194 1792.84 433.625 1794.02C433.056 1795.19 432.202 1796.2 431.142 1796.97C428.4 1798.68 425.187 1799.5 421.958 1799.29H406.291V1766.79H421.086C424.131 1766.6 427.155 1767.4 429.71 1769.07C430.716 1769.8 431.527 1770.77 432.071 1771.88C432.615 1773 432.875 1774.24 432.829 1775.48C432.86 1777.02 432.476 1778.53 431.718 1779.87ZM412.962 1793.69H421.605C425.611 1793.69 427.682 1792.41 427.682 1789.65C427.682 1786.88 425.611 1785.61 421.608 1785.61H412.962V1793.69ZM420.477 1772.38H412.962V1780.05H420.477C421.967 1780.15 423.452 1779.8 424.74 1779.04C425.169 1778.71 425.516 1778.28 425.754 1777.79C425.993 1777.3 426.117 1776.76 426.117 1776.22C426.117 1775.67 425.993 1775.14 425.754 1774.65C425.516 1774.16 425.169 1773.73 424.74 1773.39C423.453 1772.64 421.967 1772.28 420.477 1772.38ZM452.238 1766.79H445.563V1799.29H452.238V1766.79ZM487.924 1799.29L484.877 1792H470.3L467.295 1799.29H460.345L474.513 1766.79H480.752L494.962 1799.29H487.924ZM472.637 1786.4H482.579L477.591 1774.46L472.637 1786.4ZM509.698 1766.79H503.024V1799.29H509.698V1766.79Z" fill="#F3F2EE"/>
<circle cx="540" cy="676" r="28" fill="#F3F2EE"/>
<circle cx="540" cy="676" r="116" stroke="#F3F2EE" stroke-width="2"/>
</svg>
