<svg width="1080" height="1920" viewBox="0 0 1080 1920" fill="none" xmlns="http://www.w3.org/2000/svg">
<g clip-path="url(#clip0_177_10)">
<rect width="1080" height="1920" rx="60" fill="#F3F2EE"/>
<path d="M700 964C700 1051.81 628.371 1123 540 1123C451.629 1123 380 1051.81 380 964C380 876.193 451.629 805 540 805C628.371 805 700 876.193 700 964Z" stroke="black" stroke-width="2"/>
<path d="M818 964C818 1116.42 693.542 1240 540 1240C386.458 1240 262 1116.42 262 964C262 811.576 386.458 688 540 688C693.542 688 818 811.576 818 964Z" stroke="black" stroke-width="2"/>
<path d="M965 964C965 1197.06 774.728 1386 540 1386C305.272 1386 115 1197.06 115 964C115 730.942 305.272 542 540 542C774.728 542 965 730.942 965 964Z" stroke="black" stroke-width="2"/>
<circle cx="540" cy="964" r="72" fill="black"/>
<path d="M514.592 116.636V153H510.189V121.253H509.976L501.098 127.148V122.673L510.189 116.636H514.592ZM536.414 153.497C534.331 153.497 532.454 153.083 530.785 152.254C529.116 151.426 527.779 150.289 526.773 148.845C525.766 147.401 525.216 145.756 525.121 143.909H529.383C529.548 145.554 530.294 146.916 531.62 147.993C532.958 149.058 534.556 149.591 536.414 149.591C537.905 149.591 539.231 149.242 540.391 148.543C541.563 147.845 542.48 146.886 543.143 145.667C543.818 144.436 544.155 143.045 544.155 141.494C544.155 139.908 543.806 138.494 543.108 137.251C542.421 135.996 541.474 135.008 540.267 134.286C539.06 133.563 537.681 133.196 536.13 133.185C535.017 133.173 533.875 133.344 532.703 133.7C531.531 134.043 530.566 134.487 529.809 135.031L525.69 134.534L527.891 116.636H546.783V120.543H531.584L530.306 131.267H530.519C531.265 130.675 532.2 130.184 533.324 129.793C534.449 129.403 535.621 129.207 536.84 129.207C539.065 129.207 541.048 129.74 542.788 130.805C544.54 131.859 545.913 133.303 546.908 135.138C547.914 136.973 548.417 139.068 548.417 141.423C548.417 143.743 547.896 145.815 546.854 147.638C545.824 149.449 544.404 150.881 542.593 151.935C540.782 152.976 538.722 153.497 536.414 153.497ZM567.331 153.497C564.656 153.497 562.377 152.769 560.495 151.313C558.613 149.845 557.175 147.721 556.18 144.939C555.186 142.145 554.689 138.772 554.689 134.818C554.689 130.888 555.186 127.532 556.18 124.751C557.187 121.957 558.631 119.826 560.513 118.359C562.407 116.879 564.68 116.139 567.331 116.139C569.983 116.139 572.249 116.879 574.131 118.359C576.025 119.826 577.47 121.957 578.464 124.751C579.47 127.532 579.973 130.888 579.973 134.818C579.973 138.772 579.476 142.145 578.482 144.939C577.487 147.721 576.049 149.845 574.167 151.313C572.285 152.769 570.006 153.497 567.331 153.497ZM567.331 149.591C569.983 149.591 572.042 148.312 573.51 145.756C574.978 143.199 575.712 139.553 575.712 134.818C575.712 131.67 575.374 128.988 574.7 126.775C574.037 124.561 573.078 122.875 571.823 121.714C570.58 120.554 569.083 119.974 567.331 119.974C564.703 119.974 562.649 121.271 561.17 123.863C559.69 126.443 558.95 130.095 558.95 134.818C558.95 137.967 559.282 140.642 559.945 142.844C560.608 145.045 561.56 146.72 562.803 147.869C564.058 149.017 565.567 149.591 567.331 149.591Z" fill="black"/>
<path d="M170.512 1845.36C168.829 1845.36 167.391 1844.91 166.197 1844.03C165.004 1843.15 164.092 1841.87 163.459 1840.18C162.827 1838.5 162.511 1836.47 162.511 1834.1C162.511 1831.74 162.827 1829.72 163.459 1828.04C164.099 1826.36 165.015 1825.09 166.208 1824.2C167.408 1823.32 168.843 1822.88 170.512 1822.88C172.181 1822.88 173.612 1823.33 174.805 1824.22C175.998 1825.1 176.911 1826.37 177.543 1828.05C178.182 1829.72 178.502 1831.74 178.502 1834.1C178.502 1836.48 178.186 1838.51 177.554 1840.2C176.922 1841.87 176.009 1843.15 174.816 1844.04C173.623 1844.92 172.188 1845.36 170.512 1845.36ZM170.512 1842.52C171.989 1842.52 173.143 1841.8 173.974 1840.36C174.812 1838.91 175.231 1836.83 175.231 1834.1C175.231 1832.29 175.04 1830.76 174.656 1829.51C174.28 1828.25 173.736 1827.3 173.026 1826.65C172.323 1826 171.485 1825.67 170.512 1825.67C169.042 1825.67 167.888 1826.4 167.05 1827.85C166.212 1829.3 165.789 1831.38 165.782 1834.1C165.782 1835.92 165.97 1837.46 166.347 1838.71C166.73 1839.96 167.273 1840.91 167.976 1841.56C168.68 1842.2 169.525 1842.52 170.512 1842.52Z" fill="black"/>
<path d="M97.5 1813L104.489 1823.88L116.997 1827.17L108.808 1837.17L109.55 1850.08L97.5 1845.39L85.4504 1850.08L86.1919 1837.17L78.0033 1827.17L90.5112 1823.88L97.5 1813Z" fill="black"/>
<rect x="65" y="1802" width="159" height="64" rx="7" stroke="black" stroke-width="2"/>
<path d="M354.512 1845.36C352.829 1845.36 351.391 1844.91 350.197 1844.03C349.004 1843.15 348.092 1841.87 347.459 1840.18C346.827 1838.5 346.511 1836.47 346.511 1834.1C346.511 1831.74 346.827 1829.72 347.459 1828.04C348.099 1826.36 349.015 1825.09 350.208 1824.2C351.408 1823.32 352.843 1822.88 354.512 1822.88C356.181 1822.88 357.612 1823.33 358.805 1824.22C359.998 1825.1 360.911 1826.37 361.543 1828.05C362.182 1829.72 362.502 1831.74 362.502 1834.1C362.502 1836.48 362.186 1838.51 361.554 1840.2C360.922 1841.87 360.009 1843.15 358.816 1844.04C357.623 1844.92 356.188 1845.36 354.512 1845.36ZM354.512 1842.52C355.989 1842.52 357.143 1841.8 357.974 1840.36C358.812 1838.91 359.231 1836.83 359.231 1834.1C359.231 1832.29 359.04 1830.76 358.656 1829.51C358.28 1828.25 357.736 1827.3 357.026 1826.65C356.323 1826 355.485 1825.67 354.512 1825.67C353.042 1825.67 351.888 1826.4 351.05 1827.85C350.212 1829.3 349.789 1831.38 349.782 1834.1C349.782 1835.92 349.97 1837.46 350.347 1838.71C350.73 1839.96 351.273 1840.91 351.976 1841.56C352.68 1842.2 353.525 1842.52 354.512 1842.52Z" fill="black"/>
<path d="M281.631 1850.53C291.105 1850.53 298.761 1842.9 298.761 1833.52C298.761 1824.13 291.105 1816.5 281.631 1816.5C272.156 1816.5 264.5 1824.13 264.5 1833.52C264.5 1842.9 272.156 1850.53 281.631 1850.53Z" stroke="black" stroke-width="5"/>
<path d="M283.143 1832.68C283.694 1833.64 283.362 1834.83 282.444 1835.36C281.526 1835.89 280.327 1835.58 279.776 1834.63C279.225 1833.67 279.557 1832.48 280.474 1831.95C281.392 1831.42 282.592 1831.73 283.143 1832.68Z" fill="black" stroke="black" stroke-width="5"/>
<rect x="249" y="1802" width="159" height="64" rx="7" stroke="black" stroke-width="2"/>
<path d="M538.512 1845.36C536.829 1845.36 535.391 1844.91 534.197 1844.03C533.004 1843.15 532.092 1841.87 531.459 1840.18C530.827 1838.5 530.511 1836.47 530.511 1834.1C530.511 1831.74 530.827 1829.72 531.459 1828.04C532.099 1826.36 533.015 1825.09 534.208 1824.2C535.408 1823.32 536.843 1822.88 538.512 1822.88C540.181 1822.88 541.612 1823.33 542.805 1824.22C543.998 1825.1 544.911 1826.37 545.543 1828.05C546.182 1829.72 546.502 1831.74 546.502 1834.1C546.502 1836.48 546.186 1838.51 545.554 1840.2C544.922 1841.87 544.009 1843.15 542.816 1844.04C541.623 1844.92 540.188 1845.36 538.512 1845.36ZM538.512 1842.52C539.989 1842.52 541.143 1841.8 541.974 1840.36C542.812 1838.91 543.231 1836.83 543.231 1834.1C543.231 1832.29 543.04 1830.76 542.656 1829.51C542.28 1828.25 541.736 1827.3 541.026 1826.65C540.323 1826 539.485 1825.67 538.512 1825.67C537.042 1825.67 535.888 1826.4 535.05 1827.85C534.212 1829.3 533.789 1831.38 533.782 1834.1C533.782 1835.92 533.97 1837.46 534.347 1838.71C534.73 1839.96 535.273 1840.91 535.976 1841.56C536.68 1842.2 537.525 1842.52 538.512 1842.52Z" fill="black"/>
<mask id="path-15-inside-1_177_10" fill="white">
<path d="M485 1833.5C485 1837.36 483.856 1841.13 481.714 1844.33C479.571 1847.54 476.525 1850.04 472.962 1851.52C469.399 1852.99 465.478 1853.38 461.696 1852.63C457.913 1851.87 454.439 1850.02 451.711 1847.29C448.984 1844.56 447.127 1841.09 446.375 1837.3C445.622 1833.52 446.008 1829.6 447.484 1826.04C448.96 1822.47 451.46 1819.43 454.666 1817.29C457.873 1815.14 461.643 1814 465.5 1814V1818.77C462.587 1818.77 459.74 1819.64 457.318 1821.26C454.897 1822.87 453.009 1825.17 451.895 1827.86C450.78 1830.56 450.488 1833.52 451.056 1836.37C451.625 1839.23 453.027 1841.85 455.087 1843.91C457.146 1845.97 459.77 1847.38 462.627 1847.94C465.484 1848.51 468.445 1848.22 471.136 1847.11C473.826 1845.99 476.126 1844.1 477.745 1841.68C479.363 1839.26 480.226 1836.41 480.226 1833.5H485Z"/>
</mask>
<path d="M485 1833.5C485 1837.36 483.856 1841.13 481.714 1844.33C479.571 1847.54 476.525 1850.04 472.962 1851.52C469.399 1852.99 465.478 1853.38 461.696 1852.63C457.913 1851.87 454.439 1850.02 451.711 1847.29C448.984 1844.56 447.127 1841.09 446.375 1837.3C445.622 1833.52 446.008 1829.6 447.484 1826.04C448.96 1822.47 451.46 1819.43 454.666 1817.29C457.873 1815.14 461.643 1814 465.5 1814V1818.77C462.587 1818.77 459.74 1819.64 457.318 1821.26C454.897 1822.87 453.009 1825.17 451.895 1827.86C450.78 1830.56 450.488 1833.52 451.056 1836.37C451.625 1839.23 453.027 1841.85 455.087 1843.91C457.146 1845.97 459.77 1847.38 462.627 1847.94C465.484 1848.51 468.445 1848.22 471.136 1847.11C473.826 1845.99 476.126 1844.1 477.745 1841.68C479.363 1839.26 480.226 1836.41 480.226 1833.5H485Z" stroke="black" stroke-width="8" mask="url(#path-15-inside-1_177_10)"/>
<rect x="433" y="1802" width="159" height="64" rx="7" stroke="black" stroke-width="2"/>
<rect x="-2" y="1888" width="1080" height="39" fill="black"/>
<path fill-rule="evenodd" clip-rule="evenodd" d="M951 1801C946.582 1801 943 1804.58 943 1809V1888H1078V1801H951ZM1025.41 1851.41L1010 1836L994.586 1851.41L997.414 1854.24L1010 1841.66L1022.59 1854.24L1025.41 1851.41Z" fill="black"/>
</g>
<defs>
<clipPath id="clip0_177_10">
<rect width="1080" height="1920" rx="60" fill="white"/>
</clipPath>
</defs>
</svg>
