<svg width="1080" height="1920" viewBox="0 0 1080 1920" fill="none" xmlns="http://www.w3.org/2000/svg">
<rect width="1080" height="1920" rx="60" fill="#F3F2EE"/>
<path d="M935 964C935 1181.6 758.155 1358 540 1358C321.845 1358 145 1181.6 145 964C145 746.402 321.845 570 540 570C758.155 570 935 746.402 935 964Z" stroke="black" stroke-width="2"/>
<circle cx="540" cy="964" r="179" fill="black"/>
<path d="M610.318 569.184C610.318 529.864 578.631 498 539.554 498C500.478 498 468.791 529.864 468.791 569.184C468.791 608.503 500.478 640.367 539.554 640.367C578.631 640.367 610.318 608.503 610.318 569.184Z" fill="#F3F2EE" stroke="black" stroke-width="2"/>
<path d="M554.895 569.184C554.895 577.715 548.021 584.62 539.554 584.62C531.087 584.62 524.214 577.715 524.214 569.184C524.214 560.653 531.087 553.748 539.554 553.748C548.021 553.748 554.895 560.653 554.895 569.184Z" fill="black" stroke="black" stroke-width="2"/>
<path d="M540 153.497C537.325 153.497 535.046 152.769 533.164 151.313C531.282 149.845 529.844 147.721 528.849 144.939C527.855 142.145 527.358 138.772 527.358 134.818C527.358 130.888 527.855 127.532 528.849 124.751C529.856 121.957 531.3 119.826 533.182 118.359C535.076 116.879 537.348 116.139 540 116.139C542.652 116.139 544.918 116.879 546.8 118.359C548.694 119.826 550.138 121.957 551.133 124.751C552.139 127.532 552.642 130.888 552.642 134.818C552.642 138.772 552.145 142.145 551.151 144.939C550.156 147.721 548.718 149.845 546.836 151.313C544.954 152.769 542.675 153.497 540 153.497ZM540 149.591C542.652 149.591 544.711 148.312 546.179 145.756C547.647 143.199 548.381 139.553 548.381 134.818C548.381 131.67 548.043 128.988 547.369 126.775C546.706 124.561 545.747 122.875 544.492 121.714C543.249 120.554 541.752 119.974 540 119.974C537.372 119.974 535.318 121.271 533.839 123.863C532.359 126.443 531.619 130.095 531.619 134.818C531.619 137.967 531.951 140.642 532.614 142.844C533.277 145.045 534.229 146.72 535.472 147.869C536.727 149.017 538.236 149.591 540 149.591Z" fill="black"/>
<path d="M170.512 1536.36C168.829 1536.36 167.391 1535.91 166.197 1535.03C165.004 1534.15 164.092 1532.87 163.459 1531.18C162.827 1529.5 162.511 1527.47 162.511 1525.1C162.511 1522.74 162.827 1520.72 163.459 1519.04C164.099 1517.36 165.015 1516.09 166.208 1515.2C167.408 1514.32 168.843 1513.88 170.512 1513.88C172.181 1513.88 173.612 1514.33 174.805 1515.22C175.998 1516.1 176.911 1517.37 177.543 1519.05C178.182 1520.72 178.502 1522.74 178.502 1525.1C178.502 1527.48 178.186 1529.51 177.554 1531.2C176.922 1532.87 176.009 1534.15 174.816 1535.04C173.623 1535.92 172.188 1536.36 170.512 1536.36ZM170.512 1533.52C171.989 1533.52 173.143 1532.8 173.974 1531.36C174.812 1529.91 175.231 1527.83 175.231 1525.1C175.231 1523.29 175.04 1521.76 174.656 1520.51C174.28 1519.25 173.736 1518.3 173.026 1517.65C172.323 1517 171.485 1516.67 170.512 1516.67C169.042 1516.67 167.888 1517.4 167.05 1518.85C166.212 1520.3 165.789 1522.38 165.782 1525.1C165.782 1526.92 165.97 1528.46 166.347 1529.71C166.73 1530.96 167.273 1531.91 167.976 1532.56C168.68 1533.2 169.525 1533.52 170.512 1533.52Z" fill="black"/>
<path d="M97.5 1504L104.489 1514.88L116.997 1518.17L108.808 1528.17L109.55 1541.08L97.5 1536.39L85.4504 1541.08L86.1919 1528.17L78.0033 1518.17L90.5112 1514.88L97.5 1504Z" fill="black"/>
<rect x="65" y="1493" width="159" height="64" rx="7" stroke="black" stroke-width="2"/>
<path d="M354.512 1536.36C352.829 1536.36 351.391 1535.91 350.197 1535.03C349.004 1534.15 348.092 1532.87 347.459 1531.18C346.827 1529.5 346.511 1527.47 346.511 1525.1C346.511 1522.74 346.827 1520.72 347.459 1519.04C348.099 1517.36 349.015 1516.09 350.208 1515.2C351.408 1514.32 352.843 1513.88 354.512 1513.88C356.181 1513.88 357.612 1514.33 358.805 1515.22C359.998 1516.1 360.911 1517.37 361.543 1519.05C362.182 1520.72 362.502 1522.74 362.502 1525.1C362.502 1527.48 362.186 1529.51 361.554 1531.2C360.922 1532.87 360.009 1534.15 358.816 1535.04C357.623 1535.92 356.188 1536.36 354.512 1536.36ZM354.512 1533.52C355.989 1533.52 357.143 1532.8 357.974 1531.36C358.812 1529.91 359.231 1527.83 359.231 1525.1C359.231 1523.29 359.04 1521.76 358.656 1520.51C358.28 1519.25 357.736 1518.3 357.026 1517.65C356.323 1517 355.485 1516.67 354.512 1516.67C353.042 1516.67 351.888 1517.4 351.05 1518.85C350.212 1520.3 349.789 1522.38 349.782 1525.1C349.782 1526.92 349.97 1528.46 350.347 1529.71C350.73 1530.96 351.273 1531.91 351.976 1532.56C352.68 1533.2 353.525 1533.52 354.512 1533.52Z" fill="black"/>
<path d="M281.631 1541.53C291.105 1541.53 298.761 1533.9 298.761 1524.52C298.761 1515.13 291.105 1507.5 281.631 1507.5C272.156 1507.5 264.5 1515.13 264.5 1524.52C264.5 1533.9 272.156 1541.53 281.631 1541.53Z" stroke="black" stroke-width="5"/>
<path d="M283.143 1523.68C283.693 1524.64 283.362 1525.83 282.444 1526.36C281.526 1526.89 280.327 1526.58 279.776 1525.63C279.225 1524.67 279.556 1523.48 280.474 1522.95C281.392 1522.42 282.592 1522.73 283.143 1523.68Z" fill="black" stroke="black" stroke-width="5"/>
<rect x="249" y="1493" width="159" height="64" rx="7" stroke="black" stroke-width="2"/>
<path d="M538.512 1536.36C536.829 1536.36 535.391 1535.91 534.197 1535.03C533.004 1534.15 532.092 1532.87 531.459 1531.18C530.827 1529.5 530.511 1527.47 530.511 1525.1C530.511 1522.74 530.827 1520.72 531.459 1519.04C532.099 1517.36 533.015 1516.09 534.208 1515.2C535.408 1514.32 536.843 1513.88 538.512 1513.88C540.181 1513.88 541.612 1514.33 542.805 1515.22C543.998 1516.1 544.911 1517.37 545.543 1519.05C546.182 1520.72 546.502 1522.74 546.502 1525.1C546.502 1527.48 546.186 1529.51 545.554 1531.2C544.922 1532.87 544.009 1534.15 542.816 1535.04C541.623 1535.92 540.188 1536.36 538.512 1536.36ZM538.512 1533.52C539.989 1533.52 541.143 1532.8 541.974 1531.36C542.812 1529.91 543.231 1527.83 543.231 1525.1C543.231 1523.29 543.04 1521.76 542.656 1520.51C542.28 1519.25 541.736 1518.3 541.026 1517.65C540.323 1517 539.485 1516.67 538.512 1516.67C537.042 1516.67 535.888 1517.4 535.05 1518.85C534.212 1520.3 533.789 1522.38 533.782 1525.1C533.782 1526.92 533.97 1528.46 534.347 1529.71C534.73 1530.96 535.273 1531.91 535.976 1532.56C536.68 1533.2 537.525 1533.52 538.512 1533.52Z" fill="black"/>
<mask id="path-15-inside-1_177_6" fill="white">
<path d="M485 1524.5C485 1528.36 483.856 1532.13 481.714 1535.33C479.571 1538.54 476.525 1541.04 472.962 1542.52C469.399 1543.99 465.478 1544.38 461.696 1543.63C457.913 1542.87 454.439 1541.02 451.711 1538.29C448.984 1535.56 447.127 1532.09 446.375 1528.3C445.622 1524.52 446.008 1520.6 447.484 1517.04C448.96 1513.47 451.46 1510.43 454.666 1508.29C457.873 1506.14 461.643 1505 465.5 1505V1509.77C462.587 1509.77 459.74 1510.64 457.318 1512.26C454.897 1513.87 453.009 1516.17 451.895 1518.86C450.78 1521.56 450.488 1524.52 451.056 1527.37C451.625 1530.23 453.027 1532.85 455.087 1534.91C457.146 1536.97 459.77 1538.38 462.627 1538.94C465.484 1539.51 468.445 1539.22 471.136 1538.11C473.826 1536.99 476.126 1535.1 477.745 1532.68C479.363 1530.26 480.226 1527.41 480.226 1524.5H485Z"/>
</mask>
<path d="M485 1524.5C485 1528.36 483.856 1532.13 481.714 1535.33C479.571 1538.54 476.525 1541.04 472.962 1542.52C469.399 1543.99 465.478 1544.38 461.696 1543.63C457.913 1542.87 454.439 1541.02 451.711 1538.29C448.984 1535.56 447.127 1532.09 446.375 1528.3C445.622 1524.52 446.008 1520.6 447.484 1517.04C448.96 1513.47 451.46 1510.43 454.666 1508.29C457.873 1506.14 461.643 1505 465.5 1505V1509.77C462.587 1509.77 459.74 1510.64 457.318 1512.26C454.897 1513.87 453.009 1516.17 451.895 1518.86C450.78 1521.56 450.488 1524.52 451.056 1527.37C451.625 1530.23 453.027 1532.85 455.087 1534.91C457.146 1536.97 459.77 1538.38 462.627 1538.94C465.484 1539.51 468.445 1539.22 471.136 1538.11C473.826 1536.99 476.126 1535.1 477.745 1532.68C479.363 1530.26 480.226 1527.41 480.226 1524.5H485Z" stroke="black" stroke-width="8" mask="url(#path-15-inside-1_177_6)"/>
<rect x="433" y="1493" width="159" height="64" rx="7" stroke="black" stroke-width="2"/>
<rect y="1585" width="1080" height="335" fill="black"/>
<path d="M120.145 1662.36C120.038 1661.46 119.606 1660.77 118.849 1660.27C118.091 1659.77 117.162 1659.52 116.061 1659.52C115.256 1659.52 114.552 1659.65 113.948 1659.91C113.35 1660.17 112.883 1660.53 112.545 1660.99C112.214 1661.44 112.048 1661.96 112.048 1662.54C112.048 1663.03 112.164 1663.44 112.395 1663.79C112.631 1664.14 112.933 1664.42 113.3 1664.65C113.667 1664.88 114.052 1665.07 114.454 1665.21C114.857 1665.36 115.227 1665.47 115.564 1665.56L117.411 1666.06C117.884 1666.18 118.411 1666.35 118.991 1666.57C119.577 1666.79 120.136 1667.09 120.669 1667.47C121.207 1667.84 121.651 1668.32 122 1668.91C122.35 1669.49 122.524 1670.21 122.524 1671.06C122.524 1672.05 122.267 1672.93 121.752 1673.73C121.243 1674.52 120.497 1675.15 119.515 1675.62C118.538 1676.09 117.351 1676.32 115.955 1676.32C114.652 1676.32 113.525 1676.11 112.572 1675.69C111.625 1675.27 110.879 1674.68 110.335 1673.93C109.796 1673.18 109.491 1672.31 109.42 1671.31H111.693C111.752 1672 111.983 1672.57 112.386 1673.02C112.794 1673.46 113.309 1673.79 113.93 1674.01C114.558 1674.22 115.232 1674.33 115.955 1674.33C116.795 1674.33 117.55 1674.19 118.218 1673.92C118.887 1673.64 119.417 1673.26 119.808 1672.77C120.198 1672.27 120.393 1671.69 120.393 1671.03C120.393 1670.42 120.225 1669.93 119.887 1669.55C119.55 1669.18 119.106 1668.87 118.556 1668.63C118.005 1668.39 117.411 1668.19 116.771 1668.01L114.534 1667.37C113.114 1666.96 111.989 1666.38 111.161 1665.62C110.332 1664.86 109.918 1663.87 109.918 1662.65C109.918 1661.63 110.193 1660.74 110.743 1659.98C111.3 1659.22 112.045 1658.63 112.98 1658.21C113.922 1657.78 114.972 1657.57 116.132 1657.57C117.304 1657.57 118.346 1657.78 119.257 1658.2C120.169 1658.61 120.891 1659.18 121.423 1659.9C121.962 1660.63 122.246 1661.45 122.276 1662.36H120.145ZM126.144 1676V1657.82H137.117V1659.77H128.346V1665.91H136.549V1667.87H128.346V1674.05H137.259V1676H126.144ZM141.831 1676H139.523L146.199 1657.82H148.472L155.148 1676H152.84L147.407 1660.69H147.264L141.831 1676ZM142.684 1668.9H151.987V1670.85H142.684V1668.9ZM157.98 1676V1657.82H164.123C165.544 1657.82 166.71 1658.06 167.621 1658.55C168.533 1659.03 169.208 1659.69 169.646 1660.53C170.083 1661.37 170.302 1662.32 170.302 1663.39C170.302 1664.46 170.083 1665.41 169.646 1666.24C169.208 1667.07 168.536 1667.72 167.63 1668.2C166.725 1668.66 165.568 1668.9 164.159 1668.9H159.187V1666.91H164.088C165.059 1666.91 165.84 1666.77 166.432 1666.48C167.03 1666.2 167.462 1665.8 167.728 1665.28C168 1664.75 168.136 1664.12 168.136 1663.39C168.136 1662.67 168 1662.03 167.728 1661.48C167.456 1660.94 167.021 1660.52 166.423 1660.22C165.825 1659.92 165.035 1659.77 164.052 1659.77H160.182V1676H157.98ZM166.538 1667.83L171.013 1676H168.456L164.052 1667.83H166.538ZM188.602 1663.5H186.4C186.27 1662.87 186.042 1662.31 185.717 1661.83C185.397 1661.35 185.006 1660.95 184.545 1660.62C184.089 1660.29 183.583 1660.04 183.027 1659.88C182.47 1659.71 181.89 1659.63 181.287 1659.63C180.186 1659.63 179.188 1659.91 178.295 1660.46C177.407 1661.02 176.7 1661.84 176.173 1662.92C175.652 1664.01 175.392 1665.33 175.392 1666.91C175.392 1668.48 175.652 1669.81 176.173 1670.9C176.7 1671.98 177.407 1672.8 178.295 1673.35C179.188 1673.91 180.186 1674.19 181.287 1674.19C181.89 1674.19 182.47 1674.11 183.027 1673.94C183.583 1673.77 184.089 1673.53 184.545 1673.2C185.006 1672.87 185.397 1672.47 185.717 1671.99C186.042 1671.5 186.27 1670.95 186.4 1670.32H188.602C188.436 1671.25 188.134 1672.08 187.696 1672.81C187.258 1673.55 186.714 1674.17 186.063 1674.69C185.412 1675.2 184.681 1675.58 183.87 1675.85C183.065 1676.12 182.204 1676.25 181.287 1676.25C179.736 1676.25 178.357 1675.87 177.15 1675.11C175.942 1674.35 174.992 1673.28 174.3 1671.88C173.607 1670.48 173.261 1668.83 173.261 1666.91C173.261 1664.99 173.607 1663.33 174.3 1661.94C174.992 1660.54 175.942 1659.46 177.15 1658.71C178.357 1657.95 179.736 1657.57 181.287 1657.57C182.204 1657.57 183.065 1657.7 183.87 1657.97C184.681 1658.24 185.412 1658.63 186.063 1659.14C186.714 1659.65 187.258 1660.27 187.696 1661.01C188.134 1661.73 188.436 1662.56 188.602 1663.5ZM192.16 1676V1657.82H194.361V1665.91H204.056V1657.82H206.258V1676H204.056V1667.87H194.361V1676H192.16ZM218.443 1676H216.134L222.81 1657.82H225.083L231.759 1676H229.451L224.018 1660.69H223.876L218.443 1676ZM219.295 1668.9H228.599V1670.85H219.295V1668.9ZM256.04 1657.82V1676H253.91L244.002 1661.72H243.824V1676H241.623V1657.82H243.753L253.696 1672.13H253.874V1657.82H256.04ZM260.446 1676V1657.82H271.419V1659.77H262.648V1665.91H270.851V1667.87H262.648V1674.05H271.561V1676H260.446ZM278.69 1676L273.718 1657.82H275.955L279.755 1672.63H279.933L283.803 1657.82H286.289L290.16 1672.63H290.338L294.137 1657.82H296.374L291.403 1676H289.13L285.117 1661.51H284.975L280.963 1676H278.69ZM306.149 1676V1657.82H312.292C313.719 1657.82 314.885 1658.08 315.79 1658.59C316.702 1659.1 317.376 1659.79 317.814 1660.66C318.252 1661.53 318.471 1662.5 318.471 1663.57C318.471 1664.64 318.252 1665.62 317.814 1666.49C317.382 1667.37 316.714 1668.07 315.808 1668.59C314.903 1669.1 313.742 1669.36 312.328 1669.36H307.925V1667.41H312.257C313.233 1667.41 314.018 1667.24 314.61 1666.9C315.201 1666.56 315.631 1666.11 315.897 1665.53C316.169 1664.95 316.305 1664.3 316.305 1663.57C316.305 1662.84 316.169 1662.19 315.897 1661.62C315.631 1661.04 315.198 1660.59 314.601 1660.27C314.003 1659.94 313.21 1659.77 312.221 1659.77H308.351V1676H306.149ZM322.018 1676V1657.82H324.22V1674.05H332.672V1676H322.018ZM337.974 1676H335.666L342.342 1657.82H344.614L351.291 1676H348.982L343.549 1660.69H343.407L337.974 1676ZM338.826 1668.9H348.13V1670.85H338.826V1668.9ZM368.54 1657.82V1676H366.41L356.502 1661.72H356.324V1676H354.123V1657.82H356.253L366.196 1672.13H366.374V1657.82H368.54ZM372.946 1676V1657.82H383.919V1659.77H375.148V1665.91H383.351V1667.87H375.148V1674.05H384.061V1676H372.946ZM386.893 1659.77V1657.82H400.529V1659.77H394.812V1676H392.61V1659.77H386.893Z" fill="#F3F2EE"/>
<path d="M77 1655L65 1667L77 1679" stroke="#F3F2EE" stroke-width="4"/>
<path d="M898.531 1835.28C898.455 1834.6 898.143 1834.08 897.594 1833.71C897.045 1833.34 896.353 1833.15 895.52 1833.15C894.923 1833.15 894.407 1833.25 893.972 1833.44C893.536 1833.62 893.197 1833.88 892.956 1834.2C892.719 1834.53 892.601 1834.89 892.601 1835.3C892.601 1835.65 892.681 1835.95 892.842 1836.2C893.008 1836.45 893.223 1836.66 893.489 1836.83C893.759 1837 894.047 1837.14 894.355 1837.25C894.663 1837.36 894.959 1837.45 895.243 1837.52L896.663 1837.89C897.127 1838 897.603 1838.16 898.091 1838.35C898.579 1838.54 899.031 1838.8 899.447 1839.12C899.864 1839.44 900.2 1839.83 900.456 1840.3C900.716 1840.77 900.847 1841.33 900.847 1841.98C900.847 1842.8 900.634 1843.54 900.207 1844.17C899.786 1844.81 899.173 1845.32 898.368 1845.69C897.568 1846.06 896.599 1846.24 895.463 1846.24C894.374 1846.24 893.432 1846.07 892.636 1845.72C891.841 1845.38 891.218 1844.89 890.768 1844.25C890.319 1843.61 890.07 1842.86 890.023 1841.98H892.224C892.267 1842.51 892.438 1842.94 892.736 1843.29C893.039 1843.64 893.425 1843.9 893.893 1844.07C894.367 1844.23 894.885 1844.32 895.449 1844.32C896.069 1844.32 896.621 1844.22 897.104 1844.03C897.591 1843.83 897.975 1843.55 898.254 1843.2C898.534 1842.85 898.673 1842.43 898.673 1841.96C898.673 1841.53 898.55 1841.18 898.304 1840.9C898.063 1840.63 897.733 1840.4 897.317 1840.22C896.905 1840.04 896.438 1839.88 895.918 1839.74L894.199 1839.27C893.034 1838.96 892.111 1838.49 891.429 1837.88C890.752 1837.26 890.413 1836.45 890.413 1835.43C890.413 1834.59 890.641 1833.86 891.095 1833.24C891.55 1832.61 892.165 1832.13 892.942 1831.78C893.718 1831.43 894.594 1831.26 895.57 1831.26C896.554 1831.26 897.423 1831.43 898.176 1831.77C898.934 1832.12 899.53 1832.6 899.966 1833.2C900.402 1833.8 900.629 1834.49 900.648 1835.28H898.531ZM915.55 1836.18H913.334C913.249 1835.71 913.09 1835.29 912.858 1834.93C912.626 1834.57 912.342 1834.27 912.006 1834.02C911.67 1833.77 911.293 1833.58 910.877 1833.45C910.465 1833.32 910.027 1833.26 909.563 1833.26C908.725 1833.26 907.974 1833.47 907.311 1833.89C906.653 1834.31 906.132 1834.93 905.749 1835.74C905.37 1836.56 905.181 1837.55 905.181 1838.73C905.181 1839.91 905.37 1840.91 905.749 1841.72C906.132 1842.54 906.656 1843.15 907.319 1843.57C907.981 1843.99 908.727 1844.2 909.556 1844.2C910.015 1844.2 910.451 1844.13 910.863 1844.01C911.279 1843.88 911.656 1843.7 911.992 1843.45C912.328 1843.2 912.612 1842.9 912.844 1842.55C913.081 1842.19 913.244 1841.78 913.334 1841.31L915.55 1841.32C915.432 1842.03 915.202 1842.69 914.861 1843.29C914.525 1843.89 914.092 1844.41 913.561 1844.84C913.036 1845.27 912.435 1845.61 911.757 1845.84C911.08 1846.08 910.342 1846.2 909.542 1846.2C908.282 1846.2 907.16 1845.9 906.175 1845.3C905.19 1844.7 904.414 1843.84 903.846 1842.73C903.282 1841.61 903 1840.28 903 1838.73C903 1837.17 903.284 1835.84 903.853 1834.73C904.421 1833.61 905.197 1832.75 906.182 1832.16C907.167 1831.56 908.287 1831.26 909.542 1831.26C910.313 1831.26 911.033 1831.37 911.701 1831.59C912.373 1831.81 912.977 1832.13 913.512 1832.56C914.047 1832.98 914.489 1833.49 914.84 1834.1C915.19 1834.71 915.427 1835.4 915.55 1836.18ZM919.307 1846H916.978L922.212 1831.45H924.748L929.982 1846H927.652L923.54 1834.1H923.426L919.307 1846ZM919.698 1840.3H927.255V1842.15H919.698V1840.3ZM943.822 1831.45V1846H941.805L934.412 1835.33H934.277V1846H932.082V1831.45H934.114L941.514 1842.14H941.649V1831.45H943.822ZM958.764 1831.45V1846H956.747L949.353 1835.33H949.218V1846H947.024V1831.45H949.055L956.456 1842.14H956.591V1831.45H958.764ZM964.16 1831.45V1846H961.965V1831.45H964.16ZM979.096 1831.45V1846H977.079L969.685 1835.33H969.55V1846H967.356V1831.45H969.387L976.788 1842.14H976.923V1831.45H979.096ZM992.141 1836.05C992.004 1835.62 991.819 1835.23 991.587 1834.89C991.36 1834.55 991.087 1834.25 990.77 1834.01C990.453 1833.77 990.091 1833.58 989.684 1833.45C989.281 1833.32 988.838 1833.26 988.355 1833.26C987.536 1833.26 986.798 1833.47 986.14 1833.89C985.481 1834.31 984.961 1834.93 984.577 1835.74C984.198 1836.55 984.009 1837.55 984.009 1838.72C984.009 1839.9 984.201 1840.9 984.584 1841.71C984.968 1842.52 985.493 1843.14 986.161 1843.56C986.828 1843.99 987.588 1844.2 988.441 1844.2C989.231 1844.2 989.92 1844.04 990.507 1843.71C991.099 1843.39 991.556 1842.94 991.878 1842.35C992.205 1841.76 992.368 1841.06 992.368 1840.26L992.936 1840.37H988.775V1838.56H994.492V1840.21C994.492 1841.43 994.231 1842.49 993.711 1843.39C993.194 1844.29 992.48 1844.98 991.566 1845.47C990.657 1845.96 989.615 1846.2 988.441 1846.2C987.124 1846.2 985.969 1845.9 984.975 1845.29C983.985 1844.68 983.213 1843.82 982.659 1842.71C982.105 1841.59 981.828 1840.27 981.828 1838.73C981.828 1837.57 981.989 1836.53 982.311 1835.61C982.633 1834.69 983.086 1833.9 983.668 1833.26C984.255 1832.61 984.944 1832.12 985.735 1831.77C986.53 1831.43 987.399 1831.26 988.341 1831.26C989.127 1831.26 989.859 1831.37 990.536 1831.6C991.218 1831.84 991.824 1832.16 992.354 1832.59C992.889 1833.02 993.332 1833.52 993.682 1834.11C994.033 1834.69 994.269 1835.34 994.392 1836.05H992.141ZM998.506 1846.13C998.118 1846.13 997.784 1846 997.505 1845.72C997.226 1845.44 997.086 1845.11 997.086 1844.71C997.086 1844.33 997.226 1843.99 997.505 1843.72C997.784 1843.44 998.118 1843.3 998.506 1843.3C998.895 1843.3 999.228 1843.44 999.508 1843.72C999.787 1843.99 999.927 1844.33 999.927 1844.71C999.927 1844.97 999.861 1845.21 999.728 1845.43C999.6 1845.64 999.43 1845.82 999.217 1845.94C999.004 1846.07 998.767 1846.13 998.506 1846.13ZM1004.17 1846.13C1003.78 1846.13 1003.45 1846 1003.17 1845.72C1002.89 1845.44 1002.75 1845.11 1002.75 1844.71C1002.75 1844.33 1002.89 1843.99 1003.17 1843.72C1003.45 1843.44 1003.78 1843.3 1004.17 1843.3C1004.56 1843.3 1004.89 1843.44 1005.17 1843.72C1005.45 1843.99 1005.59 1844.33 1005.59 1844.71C1005.59 1844.97 1005.52 1845.21 1005.39 1845.43C1005.26 1845.64 1005.09 1845.82 1004.88 1845.94C1004.67 1846.07 1004.43 1846.13 1004.17 1846.13ZM1009.83 1846.13C1009.45 1846.13 1009.11 1846 1008.83 1845.72C1008.55 1845.44 1008.41 1845.11 1008.41 1844.71C1008.41 1844.33 1008.55 1843.99 1008.83 1843.72C1009.11 1843.44 1009.45 1843.3 1009.83 1843.3C1010.22 1843.3 1010.56 1843.44 1010.84 1843.72C1011.12 1843.99 1011.25 1844.33 1011.25 1844.71C1011.25 1844.97 1011.19 1845.21 1011.06 1845.43C1010.93 1845.64 1010.76 1845.82 1010.54 1845.94C1010.33 1846.07 1010.09 1846.13 1009.83 1846.13Z" fill="#F3F2EE"/>
<path d="M947.061 1674.24C945.939 1674.24 944.98 1673.94 944.184 1673.35C943.389 1672.77 942.78 1671.91 942.359 1670.79C941.938 1669.67 941.727 1668.32 941.727 1666.73C941.727 1665.16 941.938 1663.81 942.359 1662.69C942.785 1661.58 943.396 1660.72 944.191 1660.14C944.992 1659.55 945.948 1659.26 947.061 1659.26C948.173 1659.26 949.127 1659.55 949.923 1660.14C950.718 1660.73 951.327 1661.58 951.748 1662.7C952.174 1663.81 952.387 1665.16 952.387 1666.73C952.387 1668.32 952.177 1669.67 951.755 1670.8C951.334 1671.91 950.725 1672.77 949.93 1673.36C949.135 1673.95 948.178 1674.24 947.061 1674.24ZM947.061 1672.35C948.046 1672.35 948.815 1671.86 949.369 1670.9C949.928 1669.94 950.207 1668.55 950.207 1666.73C950.207 1665.53 950.079 1664.51 949.824 1663.67C949.573 1662.84 949.21 1662.2 948.737 1661.77C948.268 1661.33 947.709 1661.12 947.061 1661.12C946.081 1661.12 945.311 1661.6 944.752 1662.57C944.194 1663.53 943.912 1664.92 943.907 1666.73C943.907 1667.95 944.033 1668.97 944.284 1669.81C944.539 1670.64 944.902 1671.28 945.37 1671.71C945.839 1672.13 946.403 1672.35 947.061 1672.35ZM956.335 1672.2C955.946 1672.2 955.612 1672.06 955.333 1671.78C955.054 1671.5 954.914 1671.17 954.914 1670.78C954.914 1670.39 955.054 1670.06 955.333 1669.78C955.612 1669.5 955.946 1669.36 956.335 1669.36C956.723 1669.36 957.057 1669.5 957.336 1669.78C957.615 1670.06 957.755 1670.39 957.755 1670.78C957.755 1671.04 957.689 1671.28 957.556 1671.49C957.428 1671.71 957.258 1671.88 957.045 1672C956.832 1672.13 956.595 1672.2 956.335 1672.2ZM956.335 1664.91C955.946 1664.91 955.612 1664.77 955.333 1664.5C955.054 1664.22 954.914 1663.88 954.914 1663.49C954.914 1663.1 955.054 1662.77 955.333 1662.49C955.612 1662.21 955.946 1662.08 956.335 1662.08C956.723 1662.08 957.057 1662.21 957.336 1662.49C957.615 1662.77 957.755 1663.1 957.755 1663.49C957.755 1663.75 957.689 1663.99 957.556 1664.21C957.428 1664.42 957.258 1664.59 957.045 1664.72C956.832 1664.85 956.595 1664.91 956.335 1664.91ZM965.635 1674.24C964.513 1674.24 963.554 1673.94 962.759 1673.35C961.963 1672.77 961.355 1671.91 960.933 1670.79C960.512 1669.67 960.301 1668.32 960.301 1666.73C960.301 1665.16 960.512 1663.81 960.933 1662.69C961.359 1661.58 961.97 1660.72 962.766 1660.14C963.566 1659.55 964.522 1659.26 965.635 1659.26C966.748 1659.26 967.702 1659.55 968.497 1660.14C969.293 1660.73 969.901 1661.58 970.322 1662.7C970.749 1663.81 970.962 1665.16 970.962 1666.73C970.962 1668.32 970.751 1669.67 970.33 1670.8C969.908 1671.91 969.3 1672.77 968.504 1673.36C967.709 1673.95 966.752 1674.24 965.635 1674.24ZM965.635 1672.35C966.62 1672.35 967.389 1671.86 967.943 1670.9C968.502 1669.94 968.781 1668.55 968.781 1666.73C968.781 1665.53 968.653 1664.51 968.398 1663.67C968.147 1662.84 967.785 1662.2 967.311 1661.77C966.842 1661.33 966.284 1661.12 965.635 1661.12C964.655 1661.12 963.885 1661.6 963.327 1662.57C962.768 1663.53 962.486 1664.92 962.482 1666.73C962.482 1667.95 962.607 1668.97 962.858 1669.81C963.114 1670.64 963.476 1671.28 963.945 1671.71C964.413 1672.13 964.977 1672.35 965.635 1672.35ZM978.545 1674.2C977.57 1674.2 976.699 1674.03 975.931 1673.69C975.169 1673.36 974.565 1672.89 974.12 1672.3C973.68 1671.69 973.443 1671 973.41 1670.21H975.64C975.669 1670.64 975.813 1671.01 976.074 1671.33C976.339 1671.64 976.684 1671.88 977.11 1672.05C977.537 1672.22 978.01 1672.31 978.531 1672.31C979.104 1672.31 979.61 1672.21 980.051 1672.01C980.496 1671.81 980.844 1671.54 981.095 1671.18C981.346 1670.82 981.471 1670.41 981.471 1669.94C981.471 1669.45 981.346 1669.02 981.095 1668.65C980.849 1668.28 980.486 1667.98 980.008 1667.77C979.535 1667.56 978.962 1667.45 978.289 1667.45H977.061V1665.66H978.289C978.829 1665.66 979.303 1665.56 979.71 1665.37C980.122 1665.18 980.444 1664.91 980.676 1664.56C980.908 1664.21 981.024 1663.8 981.024 1663.33C981.024 1662.88 980.922 1662.49 980.718 1662.16C980.52 1661.82 980.235 1661.56 979.866 1661.37C979.502 1661.18 979.071 1661.09 978.574 1661.09C978.1 1661.09 977.657 1661.18 977.245 1661.35C976.838 1661.52 976.507 1661.77 976.251 1662.09C975.995 1662.41 975.858 1662.79 975.839 1663.23H973.716C973.739 1662.45 973.971 1661.76 974.412 1661.16C974.857 1660.56 975.444 1660.1 976.173 1659.76C976.902 1659.42 977.712 1659.26 978.602 1659.26C979.535 1659.26 980.34 1659.44 981.017 1659.8C981.699 1660.16 982.224 1660.64 982.593 1661.24C982.967 1661.85 983.152 1662.5 983.147 1663.22C983.152 1664.03 982.925 1664.72 982.466 1665.29C982.011 1665.86 981.405 1666.24 980.647 1666.44V1666.55C981.613 1666.7 982.361 1667.08 982.892 1667.7C983.427 1668.32 983.692 1669.09 983.687 1670.01C983.692 1670.81 983.469 1671.53 983.02 1672.16C982.574 1672.79 981.966 1673.29 981.194 1673.66C980.422 1674.02 979.539 1674.2 978.545 1674.2ZM987.799 1672.2C987.411 1672.2 987.077 1672.06 986.798 1671.78C986.519 1671.5 986.379 1671.17 986.379 1670.78C986.379 1670.39 986.519 1670.06 986.798 1669.78C987.077 1669.5 987.411 1669.36 987.799 1669.36C988.188 1669.36 988.521 1669.5 988.801 1669.78C989.08 1670.06 989.22 1670.39 989.22 1670.78C989.22 1671.04 989.154 1671.28 989.021 1671.49C988.893 1671.71 988.723 1671.88 988.51 1672C988.297 1672.13 988.06 1672.2 987.799 1672.2ZM987.799 1664.91C987.411 1664.91 987.077 1664.77 986.798 1664.5C986.519 1664.22 986.379 1663.88 986.379 1663.49C986.379 1663.1 986.519 1662.77 986.798 1662.49C987.077 1662.21 987.411 1662.08 987.799 1662.08C988.188 1662.08 988.521 1662.21 988.801 1662.49C989.08 1662.77 989.22 1663.1 989.22 1663.49C989.22 1663.75 989.154 1663.99 989.021 1664.21C988.893 1664.42 988.723 1664.59 988.51 1664.72C988.297 1664.85 988.06 1664.91 987.799 1664.91ZM997.554 1659.45V1674H995.353V1661.66H995.267L991.787 1663.93V1661.83L995.417 1659.45H997.554ZM1006.55 1674.24C1005.43 1674.24 1004.47 1673.94 1003.68 1673.35C1002.88 1672.77 1002.27 1671.91 1001.85 1670.79C1001.43 1669.67 1001.22 1668.32 1001.22 1666.73C1001.22 1665.16 1001.43 1663.81 1001.85 1662.69C1002.28 1661.58 1002.89 1660.72 1003.68 1660.14C1004.48 1659.55 1005.44 1659.26 1006.55 1659.26C1007.67 1659.26 1008.62 1659.55 1009.42 1660.14C1010.21 1660.73 1010.82 1661.58 1011.24 1662.7C1011.67 1663.81 1011.88 1665.16 1011.88 1666.73C1011.88 1668.32 1011.67 1669.67 1011.25 1670.8C1010.83 1671.91 1010.22 1672.77 1009.42 1673.36C1008.63 1673.95 1007.67 1674.24 1006.55 1674.24ZM1006.55 1672.35C1007.54 1672.35 1008.31 1671.86 1008.86 1670.9C1009.42 1669.94 1009.7 1668.55 1009.7 1666.73C1009.7 1665.53 1009.57 1664.51 1009.32 1663.67C1009.06 1662.84 1008.7 1662.2 1008.23 1661.77C1007.76 1661.33 1007.2 1661.12 1006.55 1661.12C1005.57 1661.12 1004.8 1661.6 1004.24 1662.57C1003.69 1663.53 1003.4 1664.92 1003.4 1666.73C1003.4 1667.95 1003.52 1668.97 1003.78 1669.81C1004.03 1670.64 1004.39 1671.28 1004.86 1671.71C1005.33 1672.13 1005.89 1672.35 1006.55 1672.35Z" fill="#F3F2EE"/>
<path d="M96.5798 1827V1808.82H108.618V1811.99H100.424V1816.32H107.819V1819.49H100.424V1827H96.5798ZM115.048 1808.82V1827H111.204V1808.82H115.048ZM133.418 1808.82V1827H130.098L122.188 1815.56H122.055V1827H118.211V1808.82H121.584L129.432 1820.25H129.592V1808.82H133.418ZM140.439 1808.82V1827H136.594V1808.82H140.439ZM153.465 1814.05C153.394 1813.33 153.089 1812.77 152.55 1812.38C152.012 1811.98 151.281 1811.78 150.357 1811.78C149.73 1811.78 149.2 1811.87 148.768 1812.05C148.336 1812.22 148.005 1812.46 147.774 1812.77C147.549 1813.08 147.436 1813.43 147.436 1813.82C147.425 1814.14 147.493 1814.43 147.641 1814.67C147.795 1814.91 148.005 1815.12 148.271 1815.3C148.537 1815.47 148.845 1815.62 149.194 1815.75C149.543 1815.88 149.916 1815.98 150.313 1816.07L151.946 1816.46C152.74 1816.64 153.467 1816.88 154.13 1817.17C154.793 1817.47 155.367 1817.83 155.853 1818.26C156.338 1818.7 156.714 1819.21 156.98 1819.79C157.252 1820.38 157.391 1821.05 157.397 1821.81C157.391 1822.92 157.107 1823.88 156.545 1824.7C155.989 1825.51 155.184 1826.14 154.13 1826.59C153.083 1827.04 151.819 1827.26 150.34 1827.26C148.872 1827.26 147.593 1827.03 146.504 1826.58C145.421 1826.13 144.575 1825.47 143.965 1824.59C143.362 1823.7 143.045 1822.6 143.015 1821.29H146.735C146.777 1821.9 146.951 1822.41 147.259 1822.82C147.573 1823.22 147.99 1823.53 148.511 1823.73C149.037 1823.93 149.632 1824.03 150.295 1824.03C150.946 1824.03 151.511 1823.94 151.991 1823.75C152.476 1823.56 152.852 1823.3 153.118 1822.96C153.385 1822.62 153.518 1822.24 153.518 1821.8C153.518 1821.39 153.396 1821.05 153.154 1820.77C152.917 1820.49 152.568 1820.25 152.106 1820.06C151.65 1819.86 151.091 1819.68 150.428 1819.52L148.449 1819.03C146.916 1818.65 145.705 1818.07 144.818 1817.28C143.93 1816.49 143.489 1815.42 143.495 1814.07C143.489 1812.97 143.782 1812.01 144.374 1811.19C144.971 1810.37 145.791 1809.72 146.833 1809.26C147.874 1808.8 149.058 1808.57 150.384 1808.57C151.733 1808.57 152.911 1808.8 153.917 1809.26C154.929 1809.72 155.717 1810.37 156.279 1811.19C156.841 1812.01 157.131 1812.96 157.149 1814.05H153.465ZM159.983 1827V1808.82H163.827V1816.32H171.631V1808.82H175.466V1827H171.631V1819.49H163.827V1827H159.983ZM199.629 1808.82V1827H196.309L188.399 1815.56H188.266V1827H184.422V1808.82H187.795L195.643 1820.25H195.803V1808.82H199.629ZM219.513 1817.91C219.513 1819.89 219.138 1821.58 218.386 1822.97C217.64 1824.36 216.622 1825.42 215.332 1826.16C214.048 1826.88 212.604 1827.25 211 1827.25C209.384 1827.25 207.934 1826.88 206.649 1826.15C205.365 1825.41 204.35 1824.35 203.604 1822.96C202.859 1821.57 202.486 1819.89 202.486 1817.91C202.486 1815.93 202.859 1814.24 203.604 1812.85C204.35 1811.46 205.365 1810.4 206.649 1809.67C207.934 1808.94 209.384 1808.57 211 1808.57C212.604 1808.57 214.048 1808.94 215.332 1809.67C216.622 1810.4 217.64 1811.46 218.386 1812.85C219.138 1814.24 219.513 1815.93 219.513 1817.91ZM215.616 1817.91C215.616 1816.62 215.424 1815.54 215.039 1814.66C214.66 1813.78 214.125 1813.11 213.432 1812.65C212.74 1812.2 211.929 1811.97 211 1811.97C210.07 1811.97 209.26 1812.2 208.567 1812.65C207.875 1813.11 207.336 1813.78 206.951 1814.66C206.573 1815.54 206.383 1816.62 206.383 1817.91C206.383 1819.19 206.573 1820.28 206.951 1821.16C207.336 1822.04 207.875 1822.71 208.567 1823.16C209.26 1823.62 210.07 1823.85 211 1823.85C211.929 1823.85 212.74 1823.62 213.432 1823.16C214.125 1822.71 214.66 1822.04 215.039 1821.16C215.424 1820.28 215.616 1819.19 215.616 1817.91ZM225.77 1827L220.568 1808.82H224.767L227.777 1821.45H227.927L231.248 1808.82H234.843L238.155 1821.48H238.314L241.324 1808.82H245.523L240.321 1827H236.574L233.112 1815.11H232.97L229.517 1827H225.77Z" fill="#F3F2EE"/>
<rect x="65.5" y="1716.5" width="946" height="41" stroke="#F3F2EE" stroke-width="3"/>
<rect x="64" y="1715" width="792" height="44" fill="#F3F2EE"/>
<rect x="65" y="1786" width="222" height="64" rx="7" stroke="#F3F2EE" stroke-width="2"/>
<path fill-rule="evenodd" clip-rule="evenodd" d="M945 1506C945 1501.58 948.582 1498 953 1498H1080V1585H945V1506ZM1014.54 1541.71L1027.41 1554.59L1024.59 1557.41L1012 1544.83L999.414 1557.41L996.586 1554.59L1009.46 1541.71L996.586 1528.83L999.414 1526L1012 1538.59L1024.59 1526L1027.41 1528.83L1014.54 1541.71Z" fill="black"/>
</svg>
