<svg width="1080" height="1920" viewBox="0 0 1080 1920" fill="none" xmlns="http://www.w3.org/2000/svg">
<rect width="1080" height="1920" rx="60" fill="#F3F2EE"/>
<path d="M935 964C935 1181.6 758.155 1358 540 1358C321.845 1358 145 1181.6 145 964C145 746.402 321.845 570 540 570C758.155 570 935 746.402 935 964Z" stroke="black" stroke-width="2"/>
<circle opacity="0.2" cx="540" cy="964" r="303" stroke="black" stroke-width="2"/>
<circle cx="540" cy="964" r="179" fill="black"/>
<path d="M610.318 569.184C610.318 529.864 578.631 498 539.554 498C500.478 498 468.791 529.864 468.791 569.184C468.791 608.503 500.478 640.367 539.554 640.367C578.631 640.367 610.318 608.503 610.318 569.184Z" fill="#F3F2EE" stroke="black" stroke-width="2"/>
<path d="M554.895 569.184C554.895 577.715 548.021 584.62 539.554 584.62C531.087 584.62 524.214 577.715 524.214 569.184C524.214 560.653 531.087 553.748 539.554 553.748C548.021 553.748 554.895 560.653 554.895 569.184Z" fill="black" stroke="black" stroke-width="2"/>
<path d="M540 153.497C537.325 153.497 535.046 152.769 533.164 151.313C531.282 149.845 529.844 147.721 528.849 144.939C527.855 142.145 527.358 138.772 527.358 134.818C527.358 130.888 527.855 127.532 528.849 124.751C529.856 121.957 531.3 119.826 533.182 118.359C535.076 116.879 537.348 116.139 540 116.139C542.652 116.139 544.918 116.879 546.8 118.359C548.694 119.826 550.138 121.957 551.133 124.751C552.139 127.532 552.642 130.888 552.642 134.818C552.642 138.772 552.145 142.145 551.151 144.939C550.156 147.721 548.718 149.845 546.836 151.313C544.954 152.769 542.675 153.497 540 153.497ZM540 149.591C542.652 149.591 544.711 148.312 546.179 145.756C547.647 143.199 548.381 139.553 548.381 134.818C548.381 131.67 548.043 128.988 547.369 126.775C546.706 124.561 545.747 122.875 544.492 121.714C543.249 120.554 541.752 119.974 540 119.974C537.372 119.974 535.318 121.271 533.839 123.863C532.359 126.443 531.619 130.095 531.619 134.818C531.619 137.967 531.951 140.642 532.614 142.844C533.277 145.045 534.229 146.72 535.472 147.869C536.727 149.017 538.236 149.591 540 149.591Z" fill="black"/>
<path d="M170.512 1536.36C168.829 1536.36 167.391 1535.91 166.197 1535.03C165.004 1534.15 164.092 1532.87 163.459 1531.18C162.827 1529.5 162.511 1527.47 162.511 1525.1C162.511 1522.74 162.827 1520.72 163.459 1519.04C164.099 1517.36 165.015 1516.09 166.208 1515.2C167.408 1514.32 168.843 1513.88 170.512 1513.88C172.181 1513.88 173.612 1514.33 174.805 1515.22C175.998 1516.1 176.911 1517.37 177.543 1519.05C178.182 1520.72 178.502 1522.74 178.502 1525.1C178.502 1527.48 178.186 1529.51 177.554 1531.2C176.922 1532.87 176.009 1534.15 174.816 1535.04C173.623 1535.92 172.188 1536.36 170.512 1536.36ZM170.512 1533.52C171.989 1533.52 173.143 1532.8 173.974 1531.36C174.812 1529.91 175.231 1527.83 175.231 1525.1C175.231 1523.29 175.04 1521.76 174.656 1520.51C174.28 1519.25 173.736 1518.3 173.026 1517.65C172.323 1517 171.485 1516.67 170.512 1516.67C169.042 1516.67 167.888 1517.4 167.05 1518.85C166.212 1520.3 165.789 1522.38 165.782 1525.1C165.782 1526.92 165.97 1528.46 166.347 1529.71C166.73 1530.96 167.273 1531.91 167.976 1532.56C168.68 1533.2 169.525 1533.52 170.512 1533.52Z" fill="black"/>
<path d="M97.5 1504L104.489 1514.88L116.997 1518.17L108.808 1528.17L109.55 1541.08L97.5 1536.39L85.4504 1541.08L86.1919 1528.17L78.0033 1518.17L90.5112 1514.88L97.5 1504Z" fill="black"/>
<rect x="65" y="1493" width="159" height="64" rx="7" stroke="black" stroke-width="2"/>
<path d="M354.512 1536.36C352.829 1536.36 351.391 1535.91 350.197 1535.03C349.004 1534.15 348.092 1532.87 347.459 1531.18C346.827 1529.5 346.511 1527.47 346.511 1525.1C346.511 1522.74 346.827 1520.72 347.459 1519.04C348.099 1517.36 349.015 1516.09 350.208 1515.2C351.408 1514.32 352.843 1513.88 354.512 1513.88C356.181 1513.88 357.612 1514.33 358.805 1515.22C359.998 1516.1 360.911 1517.37 361.543 1519.05C362.182 1520.72 362.502 1522.74 362.502 1525.1C362.502 1527.48 362.186 1529.51 361.554 1531.2C360.922 1532.87 360.009 1534.15 358.816 1535.04C357.623 1535.92 356.188 1536.36 354.512 1536.36ZM354.512 1533.52C355.989 1533.52 357.143 1532.8 357.974 1531.36C358.812 1529.91 359.231 1527.83 359.231 1525.1C359.231 1523.29 359.04 1521.76 358.656 1520.51C358.28 1519.25 357.736 1518.3 357.026 1517.65C356.323 1517 355.485 1516.67 354.512 1516.67C353.042 1516.67 351.888 1517.4 351.05 1518.85C350.212 1520.3 349.789 1522.38 349.782 1525.1C349.782 1526.92 349.97 1528.46 350.347 1529.71C350.73 1530.96 351.273 1531.91 351.976 1532.56C352.68 1533.2 353.525 1533.52 354.512 1533.52Z" fill="black"/>
<path d="M281.631 1541.53C291.105 1541.53 298.761 1533.9 298.761 1524.52C298.761 1515.13 291.105 1507.5 281.631 1507.5C272.156 1507.5 264.5 1515.13 264.5 1524.52C264.5 1533.9 272.156 1541.53 281.631 1541.53Z" stroke="black" stroke-width="5"/>
<path d="M283.143 1523.68C283.693 1524.64 283.362 1525.83 282.444 1526.36C281.526 1526.89 280.327 1526.58 279.776 1525.63C279.225 1524.67 279.556 1523.48 280.474 1522.95C281.392 1522.42 282.592 1522.73 283.143 1523.68Z" fill="black" stroke="black" stroke-width="5"/>
<rect x="249" y="1493" width="159" height="64" rx="7" stroke="black" stroke-width="2"/>
<path d="M538.512 1536.36C536.829 1536.36 535.391 1535.91 534.197 1535.03C533.004 1534.15 532.092 1532.87 531.459 1531.18C530.827 1529.5 530.511 1527.47 530.511 1525.1C530.511 1522.74 530.827 1520.72 531.459 1519.04C532.099 1517.36 533.015 1516.09 534.208 1515.2C535.408 1514.32 536.843 1513.88 538.512 1513.88C540.181 1513.88 541.612 1514.33 542.805 1515.22C543.998 1516.1 544.911 1517.37 545.543 1519.05C546.182 1520.72 546.502 1522.74 546.502 1525.1C546.502 1527.48 546.186 1529.51 545.554 1531.2C544.922 1532.87 544.009 1534.15 542.816 1535.04C541.623 1535.92 540.188 1536.36 538.512 1536.36ZM538.512 1533.52C539.989 1533.52 541.143 1532.8 541.974 1531.36C542.812 1529.91 543.231 1527.83 543.231 1525.1C543.231 1523.29 543.04 1521.76 542.656 1520.51C542.28 1519.25 541.736 1518.3 541.026 1517.65C540.323 1517 539.485 1516.67 538.512 1516.67C537.042 1516.67 535.888 1517.4 535.05 1518.85C534.212 1520.3 533.789 1522.38 533.782 1525.1C533.782 1526.92 533.97 1528.46 534.347 1529.71C534.73 1530.96 535.273 1531.91 535.976 1532.56C536.68 1533.2 537.525 1533.52 538.512 1533.52Z" fill="black"/>
<mask id="path-16-inside-1_177_7" fill="white">
<path d="M485 1524.5C485 1528.36 483.856 1532.13 481.714 1535.33C479.571 1538.54 476.525 1541.04 472.962 1542.52C469.399 1543.99 465.478 1544.38 461.696 1543.63C457.913 1542.87 454.439 1541.02 451.711 1538.29C448.984 1535.56 447.127 1532.09 446.375 1528.3C445.622 1524.52 446.008 1520.6 447.484 1517.04C448.96 1513.47 451.46 1510.43 454.666 1508.29C457.873 1506.14 461.643 1505 465.5 1505V1509.77C462.587 1509.77 459.74 1510.64 457.318 1512.26C454.897 1513.87 453.009 1516.17 451.895 1518.86C450.78 1521.56 450.488 1524.52 451.056 1527.37C451.625 1530.23 453.027 1532.85 455.087 1534.91C457.146 1536.97 459.77 1538.38 462.627 1538.94C465.484 1539.51 468.445 1539.22 471.136 1538.11C473.826 1536.99 476.126 1535.1 477.745 1532.68C479.363 1530.26 480.226 1527.41 480.226 1524.5H485Z"/>
</mask>
<path d="M485 1524.5C485 1528.36 483.856 1532.13 481.714 1535.33C479.571 1538.54 476.525 1541.04 472.962 1542.52C469.399 1543.99 465.478 1544.38 461.696 1543.63C457.913 1542.87 454.439 1541.02 451.711 1538.29C448.984 1535.56 447.127 1532.09 446.375 1528.3C445.622 1524.52 446.008 1520.6 447.484 1517.04C448.96 1513.47 451.46 1510.43 454.666 1508.29C457.873 1506.14 461.643 1505 465.5 1505V1509.77C462.587 1509.77 459.74 1510.64 457.318 1512.26C454.897 1513.87 453.009 1516.17 451.895 1518.86C450.78 1521.56 450.488 1524.52 451.056 1527.37C451.625 1530.23 453.027 1532.85 455.087 1534.91C457.146 1536.97 459.77 1538.38 462.627 1538.94C465.484 1539.51 468.445 1539.22 471.136 1538.11C473.826 1536.99 476.126 1535.1 477.745 1532.68C479.363 1530.26 480.226 1527.41 480.226 1524.5H485Z" stroke="black" stroke-width="8" mask="url(#path-16-inside-1_177_7)"/>
<rect x="433" y="1493" width="159" height="64" rx="7" stroke="black" stroke-width="2"/>
<rect y="1585" width="1080" height="335" fill="black"/>
<path d="M120.145 1662.36C120.038 1661.46 119.606 1660.77 118.849 1660.27C118.091 1659.77 117.162 1659.52 116.061 1659.52C115.256 1659.52 114.552 1659.65 113.948 1659.91C113.35 1660.17 112.883 1660.53 112.545 1660.99C112.214 1661.44 112.048 1661.96 112.048 1662.54C112.048 1663.03 112.164 1663.44 112.395 1663.79C112.631 1664.14 112.933 1664.42 113.3 1664.65C113.667 1664.88 114.052 1665.07 114.454 1665.21C114.857 1665.36 115.227 1665.47 115.564 1665.56L117.411 1666.06C117.884 1666.18 118.411 1666.35 118.991 1666.57C119.577 1666.79 120.136 1667.09 120.669 1667.47C121.207 1667.84 121.651 1668.32 122 1668.91C122.35 1669.49 122.524 1670.21 122.524 1671.06C122.524 1672.05 122.267 1672.93 121.752 1673.73C121.243 1674.52 120.497 1675.15 119.515 1675.62C118.538 1676.09 117.351 1676.32 115.955 1676.32C114.652 1676.32 113.525 1676.11 112.572 1675.69C111.625 1675.27 110.879 1674.68 110.335 1673.93C109.796 1673.18 109.491 1672.31 109.42 1671.31H111.693C111.752 1672 111.983 1672.57 112.386 1673.02C112.794 1673.46 113.309 1673.79 113.93 1674.01C114.558 1674.22 115.232 1674.33 115.955 1674.33C116.795 1674.33 117.55 1674.19 118.218 1673.92C118.887 1673.64 119.417 1673.26 119.808 1672.77C120.198 1672.27 120.393 1671.69 120.393 1671.03C120.393 1670.42 120.225 1669.93 119.887 1669.55C119.55 1669.18 119.106 1668.87 118.556 1668.63C118.005 1668.39 117.411 1668.19 116.771 1668.01L114.534 1667.37C113.114 1666.96 111.989 1666.38 111.161 1665.62C110.332 1664.86 109.918 1663.87 109.918 1662.65C109.918 1661.63 110.193 1660.74 110.743 1659.98C111.3 1659.22 112.045 1658.63 112.98 1658.21C113.922 1657.78 114.972 1657.57 116.132 1657.57C117.304 1657.57 118.346 1657.78 119.257 1658.2C120.169 1658.61 120.891 1659.18 121.423 1659.9C121.962 1660.63 122.246 1661.45 122.276 1662.36H120.145ZM126.144 1676V1657.82H137.117V1659.77H128.346V1665.91H136.549V1667.87H128.346V1674.05H137.259V1676H126.144ZM141.831 1676H139.523L146.199 1657.82H148.472L155.148 1676H152.84L147.407 1660.69H147.264L141.831 1676ZM142.684 1668.9H151.987V1670.85H142.684V1668.9ZM157.98 1676V1657.82H164.123C165.544 1657.82 166.71 1658.06 167.621 1658.55C168.533 1659.03 169.208 1659.69 169.646 1660.53C170.083 1661.37 170.302 1662.32 170.302 1663.39C170.302 1664.46 170.083 1665.41 169.646 1666.24C169.208 1667.07 168.536 1667.72 167.63 1668.2C166.725 1668.66 165.568 1668.9 164.159 1668.9H159.187V1666.91H164.088C165.059 1666.91 165.84 1666.77 166.432 1666.48C167.03 1666.2 167.462 1665.8 167.728 1665.28C168 1664.75 168.136 1664.12 168.136 1663.39C168.136 1662.67 168 1662.03 167.728 1661.48C167.456 1660.94 167.021 1660.52 166.423 1660.22C165.825 1659.92 165.035 1659.77 164.052 1659.77H160.182V1676H157.98ZM166.538 1667.83L171.013 1676H168.456L164.052 1667.83H166.538ZM188.602 1663.5H186.4C186.27 1662.87 186.042 1662.31 185.717 1661.83C185.397 1661.35 185.006 1660.95 184.545 1660.62C184.089 1660.29 183.583 1660.04 183.027 1659.88C182.47 1659.71 181.89 1659.63 181.287 1659.63C180.186 1659.63 179.188 1659.91 178.295 1660.46C177.407 1661.02 176.7 1661.84 176.173 1662.92C175.652 1664.01 175.392 1665.33 175.392 1666.91C175.392 1668.48 175.652 1669.81 176.173 1670.9C176.7 1671.98 177.407 1672.8 178.295 1673.35C179.188 1673.91 180.186 1674.19 181.287 1674.19C181.89 1674.19 182.47 1674.11 183.027 1673.94C183.583 1673.77 184.089 1673.53 184.545 1673.2C185.006 1672.87 185.397 1672.47 185.717 1671.99C186.042 1671.5 186.27 1670.95 186.4 1670.32H188.602C188.436 1671.25 188.134 1672.08 187.696 1672.81C187.258 1673.55 186.714 1674.17 186.063 1674.69C185.412 1675.2 184.681 1675.58 183.87 1675.85C183.065 1676.12 182.204 1676.25 181.287 1676.25C179.736 1676.25 178.357 1675.87 177.15 1675.11C175.942 1674.35 174.992 1673.28 174.3 1671.88C173.607 1670.48 173.261 1668.83 173.261 1666.91C173.261 1664.99 173.607 1663.33 174.3 1661.94C174.992 1660.54 175.942 1659.46 177.15 1658.71C178.357 1657.95 179.736 1657.57 181.287 1657.57C182.204 1657.57 183.065 1657.7 183.87 1657.97C184.681 1658.24 185.412 1658.63 186.063 1659.14C186.714 1659.65 187.258 1660.27 187.696 1661.01C188.134 1661.73 188.436 1662.56 188.602 1663.5ZM192.16 1676V1657.82H194.361V1665.91H204.056V1657.82H206.258V1676H204.056V1667.87H194.361V1676H192.16ZM218.443 1676H216.134L222.81 1657.82H225.083L231.759 1676H229.451L224.018 1660.69H223.876L218.443 1676ZM219.295 1668.9H228.599V1670.85H219.295V1668.9ZM256.04 1657.82V1676H253.91L244.002 1661.72H243.824V1676H241.623V1657.82H243.753L253.696 1672.13H253.874V1657.82H256.04ZM260.446 1676V1657.82H271.419V1659.77H262.648V1665.91H270.851V1667.87H262.648V1674.05H271.561V1676H260.446ZM278.69 1676L273.718 1657.82H275.955L279.755 1672.63H279.933L283.803 1657.82H286.289L290.16 1672.63H290.338L294.137 1657.82H296.374L291.403 1676H289.13L285.117 1661.51H284.975L280.963 1676H278.69ZM306.149 1676V1657.82H312.292C313.719 1657.82 314.885 1658.08 315.79 1658.59C316.702 1659.1 317.376 1659.79 317.814 1660.66C318.252 1661.53 318.471 1662.5 318.471 1663.57C318.471 1664.64 318.252 1665.62 317.814 1666.49C317.382 1667.37 316.714 1668.07 315.808 1668.59C314.903 1669.1 313.742 1669.36 312.328 1669.36H307.925V1667.41H312.257C313.233 1667.41 314.018 1667.24 314.61 1666.9C315.201 1666.56 315.631 1666.11 315.897 1665.53C316.169 1664.95 316.305 1664.3 316.305 1663.57C316.305 1662.84 316.169 1662.19 315.897 1661.62C315.631 1661.04 315.198 1660.59 314.601 1660.27C314.003 1659.94 313.21 1659.77 312.221 1659.77H308.351V1676H306.149ZM322.018 1676V1657.82H324.22V1674.05H332.672V1676H322.018ZM337.974 1676H335.666L342.342 1657.82H344.614L351.291 1676H348.982L343.549 1660.69H343.407L337.974 1676ZM338.826 1668.9H348.13V1670.85H338.826V1668.9ZM368.54 1657.82V1676H366.41L356.502 1661.72H356.324V1676H354.123V1657.82H356.253L366.196 1672.13H366.374V1657.82H368.54ZM372.946 1676V1657.82H383.919V1659.77H375.148V1665.91H383.351V1667.87H375.148V1674.05H384.061V1676H372.946ZM386.893 1659.77V1657.82H400.529V1659.77H394.812V1676H392.61V1659.77H386.893Z" fill="#F3F2EE"/>
<path d="M77 1655L65 1667L77 1679" stroke="#F3F2EE" stroke-width="4"/>
<path d="M922.598 1846V1831.45H931.618V1833.34H924.793V1837.78H930.972V1839.66H924.793V1846H922.598ZM936.511 1831.45V1846H934.317V1831.45H936.511ZM951.447 1831.45V1846H949.43L942.037 1835.33H941.902V1846H939.707V1831.45H941.739L949.139 1842.14H949.274V1831.45H951.447ZM956.843 1831.45V1846H954.649V1831.45H956.843ZM967.973 1835.28C967.897 1834.6 967.584 1834.08 967.035 1833.71C966.486 1833.34 965.795 1833.15 964.961 1833.15C964.365 1833.15 963.849 1833.25 963.413 1833.44C962.977 1833.62 962.639 1833.88 962.397 1834.2C962.161 1834.53 962.042 1834.89 962.042 1835.3C962.042 1835.65 962.123 1835.95 962.284 1836.2C962.449 1836.45 962.665 1836.66 962.93 1836.83C963.2 1837 963.489 1837.14 963.797 1837.25C964.104 1837.36 964.4 1837.45 964.684 1837.52L966.105 1837.89C966.569 1838 967.045 1838.16 967.532 1838.35C968.02 1838.54 968.472 1838.8 968.889 1839.12C969.306 1839.44 969.642 1839.83 969.897 1840.3C970.158 1840.77 970.288 1841.33 970.288 1841.98C970.288 1842.8 970.075 1843.54 969.649 1844.17C969.227 1844.81 968.614 1845.32 967.809 1845.69C967.009 1846.06 966.041 1846.24 964.904 1846.24C963.815 1846.24 962.873 1846.07 962.078 1845.72C961.282 1845.38 960.66 1844.89 960.21 1844.25C959.76 1843.61 959.511 1842.86 959.464 1841.98H961.666C961.708 1842.51 961.879 1842.94 962.177 1843.29C962.48 1843.64 962.866 1843.9 963.335 1844.07C963.808 1844.23 964.327 1844.32 964.89 1844.32C965.511 1844.32 966.062 1844.22 966.545 1844.03C967.033 1843.83 967.416 1843.55 967.696 1843.2C967.975 1842.85 968.115 1842.43 968.115 1841.96C968.115 1841.53 967.992 1841.18 967.745 1840.9C967.504 1840.63 967.175 1840.4 966.758 1840.22C966.346 1840.04 965.88 1839.88 965.359 1839.74L963.64 1839.27C962.475 1838.96 961.552 1838.49 960.87 1837.88C960.193 1837.26 959.855 1836.45 959.855 1835.43C959.855 1834.59 960.082 1833.86 960.537 1833.24C960.991 1832.61 961.607 1832.13 962.383 1831.78C963.16 1831.43 964.036 1831.26 965.011 1831.26C965.996 1831.26 966.865 1831.43 967.618 1831.77C968.375 1832.12 968.972 1832.6 969.407 1833.2C969.843 1833.8 970.07 1834.49 970.089 1835.28H967.973ZM972.911 1846V1831.45H975.105V1837.78H982.357V1831.45H984.558V1846H982.357V1839.66H975.105V1846H972.911ZM987.754 1846V1831.45H996.874V1833.34H989.949V1837.78H996.398V1839.66H989.949V1844.11H996.959V1846H987.754ZM1004.51 1846H999.805V1831.45H1004.66C1006.09 1831.45 1007.31 1831.75 1008.33 1832.33C1009.36 1832.91 1010.14 1833.74 1010.69 1834.82C1011.23 1835.9 1011.51 1837.2 1011.51 1838.71C1011.51 1840.22 1011.23 1841.52 1010.68 1842.61C1010.13 1843.7 1009.33 1844.54 1008.29 1845.13C1007.25 1845.71 1005.99 1846 1004.51 1846ZM1002 1844.08H1004.39C1005.5 1844.08 1006.42 1843.87 1007.16 1843.46C1007.89 1843.04 1008.44 1842.43 1008.8 1841.63C1009.17 1840.83 1009.35 1839.86 1009.35 1838.71C1009.35 1837.56 1009.17 1836.6 1008.8 1835.8C1008.44 1835.01 1007.91 1834.4 1007.19 1833.99C1006.48 1833.58 1005.59 1833.37 1004.53 1833.37H1002V1844.08Z" fill="#F3F2EE"/>
<rect x="65.5" y="1716.5" width="946" height="41" stroke="#F3F2EE" stroke-width="3"/>
<rect x="64" y="1715" width="949" height="44" fill="#F3F2EE"/>
<rect x="65" y="1786" width="222" height="64" rx="7" fill="#F3F2EE" stroke="#F3F2EE" stroke-width="2"/>
<path d="M105.767 1814.7C105.643 1814.26 105.468 1813.88 105.243 1813.55C105.019 1813.21 104.743 1812.93 104.418 1812.7C104.098 1812.46 103.731 1812.28 103.317 1812.16C102.909 1812.03 102.456 1811.97 101.959 1811.97C101.029 1811.97 100.213 1812.2 99.5083 1812.66C98.81 1813.12 98.2654 1813.8 97.8748 1814.68C97.4842 1815.55 97.2889 1816.62 97.2889 1817.89C97.2889 1819.16 97.4812 1820.24 97.8659 1821.12C98.2507 1822.01 98.7952 1822.69 99.4995 1823.16C100.204 1823.62 101.035 1823.85 101.994 1823.85C102.864 1823.85 103.607 1823.69 104.222 1823.39C104.844 1823.07 105.317 1822.63 105.643 1822.06C105.974 1821.5 106.14 1820.82 106.14 1820.05L106.921 1820.16H102.234V1817.27H109.842V1819.56C109.842 1821.16 109.505 1822.53 108.83 1823.68C108.155 1824.82 107.226 1825.7 106.042 1826.33C104.859 1826.94 103.503 1827.25 101.976 1827.25C100.272 1827.25 98.7744 1826.87 97.4842 1826.12C96.194 1825.36 95.1878 1824.29 94.4657 1822.9C93.7496 1821.5 93.3915 1819.84 93.3915 1817.93C93.3915 1816.45 93.6046 1815.14 94.0307 1813.99C94.4628 1812.83 95.0665 1811.84 95.8418 1811.04C96.6171 1810.23 97.5197 1809.62 98.5495 1809.2C99.5794 1808.78 100.695 1808.57 101.896 1808.57C102.926 1808.57 103.885 1808.72 104.773 1809.02C105.661 1809.32 106.448 1809.74 107.134 1810.28C107.827 1810.83 108.392 1811.48 108.83 1812.23C109.268 1812.97 109.549 1813.8 109.673 1814.7H105.767ZM112.73 1827V1808.82H124.981V1811.99H116.574V1816.32H124.351V1819.49H116.574V1823.83H125.017V1827H112.73ZM127.345 1811.99V1808.82H142.277V1811.99H136.711V1827H132.911V1811.99H127.345ZM150.523 1827V1808.82H157.696C159.075 1808.82 160.25 1809.08 161.22 1809.61C162.191 1810.13 162.931 1810.85 163.44 1811.78C163.955 1812.71 164.212 1813.77 164.212 1814.98C164.212 1816.19 163.952 1817.25 163.431 1818.18C162.91 1819.1 162.156 1819.82 161.167 1820.33C160.185 1820.85 158.995 1821.11 157.598 1821.11H153.026V1818.02H156.977C157.717 1818.02 158.326 1817.9 158.806 1817.64C159.291 1817.38 159.652 1817.02 159.889 1816.57C160.131 1816.11 160.253 1815.58 160.253 1814.98C160.253 1814.38 160.131 1813.85 159.889 1813.4C159.652 1812.94 159.291 1812.59 158.806 1812.34C158.32 1812.09 157.705 1811.96 156.959 1811.96H154.367V1827H150.523ZM166.709 1827V1808.82H170.553V1823.83H178.348V1827H166.709ZM184.491 1827H180.372L186.649 1808.82H191.603L197.87 1827H193.751L189.197 1812.97H189.055L184.491 1827ZM184.234 1819.85H193.964V1822.85H184.234V1819.85ZM215.267 1808.82V1827H211.946L204.036 1815.56H203.903V1827H200.059V1808.82H203.432L211.28 1820.25H211.44V1808.82H215.267ZM218.443 1827V1808.82H230.694V1811.99H222.287V1816.32H230.064V1819.49H222.287V1823.83H230.729V1827H218.443ZM233.058 1811.99V1808.82H247.99V1811.99H242.424V1827H238.624V1811.99H233.058Z" fill="black"/>
<path fill-rule="evenodd" clip-rule="evenodd" d="M945 1506C945 1501.58 948.582 1498 953 1498H1080V1585H945V1506ZM1014.54 1541.71L1027.41 1554.59L1024.59 1557.41L1012 1544.83L999.414 1557.41L996.586 1554.59L1009.46 1541.71L996.586 1528.83L999.414 1526L1012 1538.59L1024.59 1526L1027.41 1528.83L1014.54 1541.71Z" fill="black"/>
</svg>
