<svg width="1080" height="1920" viewBox="0 0 1080 1920" fill="none" xmlns="http://www.w3.org/2000/svg">
<g clip-path="url(#clip0_177_9)">
<rect width="1080" height="1920" rx="60" fill="#F3F2EE"/>
<path d="M935 964C935 1181.6 758.155 1358 540 1358C321.845 1358 145 1181.6 145 964C145 746.402 321.845 570 540 570C758.155 570 935 746.402 935 964Z" stroke="black" stroke-width="2"/>
<circle cx="540" cy="964" r="179" fill="black"/>
<path d="M610.318 569.184C610.318 529.864 578.631 498 539.554 498C500.478 498 468.791 529.864 468.791 569.184C468.791 608.503 500.478 640.367 539.554 640.367C578.631 640.367 610.318 608.503 610.318 569.184Z" fill="#F3F2EE" stroke="black" stroke-width="2"/>
<path d="M554.895 569.184C554.895 577.715 548.021 584.62 539.554 584.62C531.087 584.62 524.214 577.715 524.214 569.184C524.214 560.653 531.087 553.748 539.554 553.748C548.021 553.748 554.895 560.653 554.895 569.184Z" fill="black" stroke="black" stroke-width="2"/>
<path d="M540 153.497C537.325 153.497 535.046 152.769 533.164 151.313C531.282 149.845 529.844 147.721 528.849 144.939C527.855 142.145 527.358 138.772 527.358 134.818C527.358 130.888 527.855 127.532 528.849 124.751C529.856 121.957 531.3 119.826 533.182 118.359C535.076 116.879 537.348 116.139 540 116.139C542.652 116.139 544.918 116.879 546.8 118.359C548.694 119.826 550.138 121.957 551.133 124.751C552.139 127.532 552.642 130.888 552.642 134.818C552.642 138.772 552.145 142.145 551.151 144.939C550.156 147.721 548.718 149.845 546.836 151.313C544.954 152.769 542.675 153.497 540 153.497ZM540 149.591C542.652 149.591 544.711 148.312 546.179 145.756C547.647 143.199 548.381 139.553 548.381 134.818C548.381 131.67 548.043 128.988 547.369 126.775C546.706 124.561 545.747 122.875 544.492 121.714C543.249 120.554 541.752 119.974 540 119.974C537.372 119.974 535.318 121.271 533.839 123.863C532.359 126.443 531.619 130.095 531.619 134.818C531.619 137.967 531.951 140.642 532.614 142.844C533.277 145.045 534.229 146.72 535.472 147.869C536.727 149.017 538.236 149.591 540 149.591Z" fill="black"/>
<path d="M170.512 1558.36C168.829 1558.36 167.391 1557.91 166.197 1557.03C165.004 1556.15 164.092 1554.87 163.459 1553.18C162.827 1551.5 162.511 1549.47 162.511 1547.1C162.511 1544.74 162.827 1542.72 163.459 1541.04C164.099 1539.36 165.015 1538.09 166.208 1537.2C167.408 1536.32 168.843 1535.88 170.512 1535.88C172.181 1535.88 173.612 1536.33 174.805 1537.22C175.998 1538.1 176.911 1539.37 177.543 1541.05C178.182 1542.72 178.502 1544.74 178.502 1547.1C178.502 1549.48 178.186 1551.51 177.554 1553.2C176.922 1554.87 176.009 1556.15 174.816 1557.04C173.623 1557.92 172.188 1558.36 170.512 1558.36ZM170.512 1555.52C171.989 1555.52 173.143 1554.8 173.974 1553.36C174.812 1551.91 175.231 1549.83 175.231 1547.1C175.231 1545.29 175.04 1543.76 174.656 1542.51C174.28 1541.25 173.736 1540.3 173.026 1539.65C172.323 1539 171.485 1538.67 170.512 1538.67C169.042 1538.67 167.888 1539.4 167.05 1540.85C166.212 1542.3 165.789 1544.38 165.782 1547.1C165.782 1548.92 165.97 1550.46 166.347 1551.71C166.73 1552.96 167.273 1553.91 167.976 1554.56C168.68 1555.2 169.525 1555.52 170.512 1555.52Z" fill="black"/>
<path d="M97.5001 1526L104.489 1536.88L116.997 1540.17L108.808 1550.17L109.55 1563.08L97.5001 1558.39L85.4505 1563.08L86.192 1550.17L78.0034 1540.17L90.5113 1536.88L97.5001 1526Z" fill="black"/>
<rect x="65" y="1515" width="159" height="64" rx="7" stroke="black" stroke-width="2"/>
<path d="M354.512 1558.36C352.829 1558.36 351.391 1557.91 350.197 1557.03C349.004 1556.15 348.092 1554.87 347.459 1553.18C346.827 1551.5 346.511 1549.47 346.511 1547.1C346.511 1544.74 346.827 1542.72 347.459 1541.04C348.099 1539.36 349.015 1538.09 350.208 1537.2C351.408 1536.32 352.843 1535.88 354.512 1535.88C356.181 1535.88 357.612 1536.33 358.805 1537.22C359.998 1538.1 360.911 1539.37 361.543 1541.05C362.182 1542.72 362.502 1544.74 362.502 1547.1C362.502 1549.48 362.186 1551.51 361.554 1553.2C360.922 1554.87 360.009 1556.15 358.816 1557.04C357.623 1557.92 356.188 1558.36 354.512 1558.36ZM354.512 1555.52C355.989 1555.52 357.143 1554.8 357.974 1553.36C358.812 1551.91 359.231 1549.83 359.231 1547.1C359.231 1545.29 359.04 1543.76 358.656 1542.51C358.28 1541.25 357.736 1540.3 357.026 1539.65C356.323 1539 355.485 1538.67 354.512 1538.67C353.042 1538.67 351.888 1539.4 351.05 1540.85C350.212 1542.3 349.789 1544.38 349.782 1547.1C349.782 1548.92 349.97 1550.46 350.347 1551.71C350.73 1552.96 351.273 1553.91 351.976 1554.56C352.68 1555.2 353.525 1555.52 354.512 1555.52Z" fill="black"/>
<path d="M281.631 1563.53C291.105 1563.53 298.761 1555.9 298.761 1546.52C298.761 1537.13 291.105 1529.5 281.631 1529.5C272.156 1529.5 264.5 1537.13 264.5 1546.52C264.5 1555.9 272.156 1563.53 281.631 1563.53Z" stroke="black" stroke-width="5"/>
<path d="M283.143 1545.68C283.694 1546.64 283.362 1547.83 282.444 1548.36C281.526 1548.89 280.327 1548.58 279.776 1547.63C279.225 1546.67 279.557 1545.48 280.474 1544.95C281.392 1544.42 282.592 1544.73 283.143 1545.68Z" fill="black" stroke="black" stroke-width="5"/>
<rect x="249" y="1515" width="159" height="64" rx="7" stroke="black" stroke-width="2"/>
<path d="M538.512 1558.36C536.829 1558.36 535.391 1557.91 534.197 1557.03C533.004 1556.15 532.092 1554.87 531.459 1553.18C530.827 1551.5 530.511 1549.47 530.511 1547.1C530.511 1544.74 530.827 1542.72 531.459 1541.04C532.099 1539.36 533.015 1538.09 534.208 1537.2C535.408 1536.32 536.843 1535.88 538.512 1535.88C540.181 1535.88 541.612 1536.33 542.805 1537.22C543.998 1538.1 544.911 1539.37 545.543 1541.05C546.182 1542.72 546.502 1544.74 546.502 1547.1C546.502 1549.48 546.186 1551.51 545.554 1553.2C544.922 1554.87 544.009 1556.15 542.816 1557.04C541.623 1557.92 540.188 1558.36 538.512 1558.36ZM538.512 1555.52C539.989 1555.52 541.143 1554.8 541.974 1553.36C542.812 1551.91 543.231 1549.83 543.231 1547.1C543.231 1545.29 543.04 1543.76 542.656 1542.51C542.28 1541.25 541.736 1540.3 541.026 1539.65C540.323 1539 539.485 1538.67 538.512 1538.67C537.042 1538.67 535.888 1539.4 535.05 1540.85C534.212 1542.3 533.789 1544.38 533.782 1547.1C533.782 1548.92 533.97 1550.46 534.347 1551.71C534.73 1552.96 535.273 1553.91 535.976 1554.56C536.68 1555.2 537.525 1555.52 538.512 1555.52Z" fill="black"/>
<mask id="path-15-inside-1_177_9" fill="white">
<path d="M485 1546.5C485 1550.36 483.856 1554.13 481.714 1557.33C479.571 1560.54 476.525 1563.04 472.962 1564.52C469.399 1565.99 465.478 1566.38 461.696 1565.63C457.913 1564.87 454.439 1563.02 451.711 1560.29C448.984 1557.56 447.127 1554.09 446.375 1550.3C445.622 1546.52 446.008 1542.6 447.484 1539.04C448.96 1535.47 451.46 1532.43 454.666 1530.29C457.873 1528.14 461.643 1527 465.5 1527V1531.77C462.587 1531.77 459.74 1532.64 457.318 1534.26C454.897 1535.87 453.009 1538.17 451.895 1540.86C450.78 1543.56 450.488 1546.52 451.056 1549.37C451.625 1552.23 453.027 1554.85 455.087 1556.91C457.146 1558.97 459.77 1560.38 462.627 1560.94C465.484 1561.51 468.445 1561.22 471.136 1560.11C473.826 1558.99 476.126 1557.1 477.745 1554.68C479.363 1552.26 480.226 1549.41 480.226 1546.5H485Z"/>
</mask>
<path d="M485 1546.5C485 1550.36 483.856 1554.13 481.714 1557.33C479.571 1560.54 476.525 1563.04 472.962 1564.52C469.399 1565.99 465.478 1566.38 461.696 1565.63C457.913 1564.87 454.439 1563.02 451.711 1560.29C448.984 1557.56 447.127 1554.09 446.375 1550.3C445.622 1546.52 446.008 1542.6 447.484 1539.04C448.96 1535.47 451.46 1532.43 454.666 1530.29C457.873 1528.14 461.643 1527 465.5 1527V1531.77C462.587 1531.77 459.74 1532.64 457.318 1534.26C454.897 1535.87 453.009 1538.17 451.895 1540.86C450.78 1543.56 450.488 1546.52 451.056 1549.37C451.625 1552.23 453.027 1554.85 455.087 1556.91C457.146 1558.97 459.77 1560.38 462.627 1560.94C465.484 1561.51 468.445 1561.22 471.136 1560.11C473.826 1558.99 476.126 1557.1 477.745 1554.68C479.363 1552.26 480.226 1549.41 480.226 1546.5H485Z" stroke="black" stroke-width="8" mask="url(#path-15-inside-1_177_9)"/>
<rect x="433" y="1515" width="159" height="64" rx="7" stroke="black" stroke-width="2"/>
<rect y="1617" width="1080" height="303" fill="black"/>
<path d="M120.145 1662.36C120.038 1661.46 119.606 1660.77 118.849 1660.27C118.091 1659.77 117.162 1659.52 116.061 1659.52C115.256 1659.52 114.552 1659.65 113.948 1659.91C113.35 1660.17 112.883 1660.53 112.545 1660.99C112.214 1661.44 112.048 1661.96 112.048 1662.54C112.048 1663.03 112.164 1663.44 112.395 1663.79C112.631 1664.14 112.933 1664.42 113.3 1664.65C113.667 1664.88 114.052 1665.07 114.454 1665.21C114.857 1665.36 115.227 1665.47 115.564 1665.56L117.411 1666.06C117.884 1666.18 118.411 1666.35 118.991 1666.57C119.577 1666.79 120.136 1667.09 120.669 1667.47C121.207 1667.84 121.651 1668.32 122 1668.91C122.35 1669.49 122.524 1670.21 122.524 1671.06C122.524 1672.05 122.267 1672.93 121.752 1673.73C121.243 1674.52 120.497 1675.15 119.515 1675.62C118.538 1676.09 117.351 1676.32 115.955 1676.32C114.652 1676.32 113.525 1676.11 112.572 1675.69C111.625 1675.27 110.879 1674.68 110.335 1673.93C109.796 1673.18 109.491 1672.31 109.42 1671.31H111.693C111.752 1672 111.983 1672.57 112.386 1673.02C112.794 1673.46 113.309 1673.79 113.93 1674.01C114.558 1674.22 115.232 1674.33 115.955 1674.33C116.795 1674.33 117.55 1674.19 118.218 1673.92C118.887 1673.64 119.417 1673.26 119.808 1672.77C120.198 1672.27 120.393 1671.69 120.393 1671.03C120.393 1670.42 120.225 1669.93 119.887 1669.55C119.55 1669.18 119.106 1668.87 118.556 1668.63C118.005 1668.39 117.411 1668.19 116.771 1668.01L114.534 1667.37C113.114 1666.96 111.989 1666.38 111.161 1665.62C110.332 1664.86 109.918 1663.87 109.918 1662.65C109.918 1661.63 110.193 1660.74 110.743 1659.98C111.3 1659.22 112.045 1658.63 112.98 1658.21C113.922 1657.78 114.972 1657.57 116.132 1657.57C117.304 1657.57 118.346 1657.78 119.257 1658.2C120.169 1658.61 120.891 1659.18 121.423 1659.9C121.962 1660.63 122.246 1661.45 122.276 1662.36H120.145ZM126.144 1676V1657.82H128.346V1666.84H128.559L136.726 1657.82H139.603L131.968 1666.02L139.603 1676H136.94L130.619 1667.55L128.346 1670.11V1676H126.144ZM144.654 1657.82V1676H142.453V1657.82H144.654ZM149.069 1676V1657.82H151.271V1674.05H159.722V1676H149.069ZM163.131 1676V1657.82H165.333V1674.05H173.785V1676H163.131ZM187.137 1662.36C187.031 1661.46 186.598 1660.77 185.841 1660.27C185.083 1659.77 184.154 1659.52 183.053 1659.52C182.248 1659.52 181.544 1659.65 180.94 1659.91C180.343 1660.17 179.875 1660.53 179.538 1660.99C179.206 1661.44 179.04 1661.96 179.04 1662.54C179.04 1663.03 179.156 1663.44 179.387 1663.79C179.623 1664.14 179.925 1664.42 180.292 1664.65C180.659 1664.88 181.044 1665.07 181.446 1665.21C181.849 1665.36 182.219 1665.47 182.556 1665.56L184.403 1666.06C184.876 1666.18 185.403 1666.35 185.983 1666.57C186.569 1666.79 187.128 1667.09 187.661 1667.47C188.199 1667.84 188.643 1668.32 188.993 1668.91C189.342 1669.49 189.516 1670.21 189.516 1671.06C189.516 1672.05 189.259 1672.93 188.744 1673.73C188.235 1674.52 187.489 1675.15 186.507 1675.62C185.53 1676.09 184.344 1676.32 182.947 1676.32C181.645 1676.32 180.517 1676.11 179.564 1675.69C178.617 1675.27 177.872 1674.68 177.327 1673.93C176.788 1673.18 176.484 1672.31 176.413 1671.31H178.685C178.745 1672 178.975 1672.57 179.378 1673.02C179.786 1673.46 180.301 1673.79 180.923 1674.01C181.55 1674.22 182.225 1674.33 182.947 1674.33C183.787 1674.33 184.542 1674.19 185.211 1673.92C185.879 1673.64 186.409 1673.26 186.8 1672.77C187.19 1672.27 187.386 1671.69 187.386 1671.03C187.386 1670.42 187.217 1669.93 186.88 1669.55C186.542 1669.18 186.098 1668.87 185.548 1668.63C184.998 1668.39 184.403 1668.19 183.763 1668.01L181.526 1667.37C180.106 1666.96 178.981 1666.38 178.153 1665.62C177.324 1664.86 176.91 1663.87 176.91 1662.65C176.91 1661.63 177.185 1660.74 177.735 1659.98C178.292 1659.22 179.038 1658.63 179.973 1658.21C180.914 1657.78 181.964 1657.57 183.124 1657.57C184.296 1657.57 185.338 1657.78 186.249 1658.2C187.161 1658.61 187.883 1659.18 188.415 1659.9C188.954 1660.63 189.238 1661.45 189.268 1662.36H187.137ZM200.913 1676H198.605L205.281 1657.82H207.554L214.23 1676H211.922L206.489 1660.69H206.347L200.913 1676ZM201.766 1668.9H211.07V1670.85H201.766V1668.9ZM231.48 1657.82V1676H229.349L219.441 1661.72H219.264V1676H217.062V1657.82H219.193L229.136 1672.13H229.313V1657.82H231.48ZM241.496 1676H235.885V1657.82H241.745C243.508 1657.82 245.018 1658.18 246.272 1658.91C247.527 1659.63 248.489 1660.67 249.158 1662.03C249.826 1663.38 250.161 1664.99 250.161 1666.87C250.161 1668.77 249.824 1670.4 249.149 1671.77C248.474 1673.13 247.492 1674.17 246.201 1674.91C244.911 1675.64 243.343 1676 241.496 1676ZM238.087 1674.05H241.354C242.857 1674.05 244.103 1673.76 245.092 1673.18C246.08 1672.6 246.817 1671.77 247.302 1670.7C247.788 1669.63 248.03 1668.35 248.03 1666.87C248.03 1665.41 247.79 1664.14 247.311 1663.08C246.832 1662.02 246.116 1661.2 245.163 1660.63C244.21 1660.06 243.023 1659.77 241.603 1659.77H238.087V1674.05ZM260.885 1676V1657.82H263.087V1674.05H271.539V1676H260.885ZM274.948 1676V1657.82H285.921V1659.77H277.15V1665.91H285.353V1667.87H277.15V1674.05H286.063V1676H274.948ZM290.635 1657.82L296.033 1673.12H296.246L301.643 1657.82H303.952L297.276 1676H295.003L288.327 1657.82H290.635ZM306.784 1676V1657.82H317.757V1659.77H308.985V1665.91H317.189V1667.87H308.985V1674.05H317.899V1676H306.784ZM321.725 1676V1657.82H323.927V1674.05H332.379V1676H321.725ZM345.731 1662.36C345.624 1661.46 345.192 1660.77 344.435 1660.27C343.677 1659.77 342.748 1659.52 341.647 1659.52C340.842 1659.52 340.138 1659.65 339.534 1659.91C338.936 1660.17 338.469 1660.53 338.131 1660.99C337.8 1661.44 337.634 1661.96 337.634 1662.54C337.634 1663.03 337.75 1663.44 337.98 1663.79C338.217 1664.14 338.519 1664.42 338.886 1664.65C339.253 1664.88 339.638 1665.07 340.04 1665.21C340.443 1665.36 340.812 1665.47 341.15 1665.56L342.996 1666.06C343.47 1666.18 343.997 1666.35 344.577 1666.57C345.163 1666.79 345.722 1667.09 346.255 1667.47C346.793 1667.84 347.237 1668.32 347.586 1668.91C347.935 1669.49 348.11 1670.21 348.11 1671.06C348.11 1672.05 347.853 1672.93 347.338 1673.73C346.829 1674.52 346.083 1675.15 345.1 1675.62C344.124 1676.09 342.937 1676.32 341.54 1676.32C340.238 1676.32 339.111 1676.11 338.158 1675.69C337.211 1675.27 336.465 1674.68 335.921 1673.93C335.382 1673.18 335.077 1672.31 335.006 1671.31H337.279C337.338 1672 337.569 1672.57 337.972 1673.02C338.38 1673.46 338.895 1673.79 339.516 1674.01C340.144 1674.22 340.818 1674.33 341.54 1674.33C342.381 1674.33 343.136 1674.19 343.804 1673.92C344.473 1673.64 345.003 1673.26 345.393 1672.77C345.784 1672.27 345.979 1671.69 345.979 1671.03C345.979 1670.42 345.811 1669.93 345.473 1669.55C345.136 1669.18 344.692 1668.87 344.142 1668.63C343.591 1668.39 342.996 1668.19 342.357 1668.01L340.12 1667.37C338.7 1666.96 337.575 1666.38 336.746 1665.62C335.918 1664.86 335.504 1663.87 335.504 1662.65C335.504 1661.63 335.779 1660.74 336.329 1659.98C336.886 1659.22 337.631 1658.63 338.566 1658.21C339.507 1657.78 340.558 1657.57 341.718 1657.57C342.89 1657.57 343.932 1657.78 344.843 1658.2C345.754 1658.61 346.477 1659.18 347.009 1659.9C347.548 1660.63 347.832 1661.45 347.862 1662.36H345.731Z" fill="#F3F2EE"/>
<path d="M77 1655L65 1667L77 1679" stroke="#F3F2EE" stroke-width="4"/>
<path d="M60 1720C60 1716.13 63.134 1713 67 1713H407C410.866 1713 414 1716.13 414 1720V1839H60V1720Z" fill="#F3F2EE" stroke="#F3F2EE" stroke-width="2"/>
<path d="M191.906 1737.33C191.84 1736.7 191.56 1736.22 191.068 1735.88C190.58 1735.53 189.946 1735.36 189.164 1735.36C188.615 1735.36 188.144 1735.44 187.751 1735.61C187.358 1735.77 187.057 1736 186.849 1736.28C186.641 1736.57 186.534 1736.89 186.529 1737.25C186.529 1737.56 186.598 1737.82 186.735 1738.04C186.877 1738.27 187.069 1738.45 187.311 1738.61C187.552 1738.76 187.82 1738.89 188.113 1738.99C188.407 1739.1 188.703 1739.19 189.001 1739.26L190.365 1739.6C190.914 1739.73 191.442 1739.9 191.949 1740.12C192.46 1740.33 192.917 1740.61 193.319 1740.94C193.726 1741.27 194.048 1741.67 194.285 1742.14C194.522 1742.61 194.64 1743.16 194.64 1743.79C194.64 1744.64 194.422 1745.39 193.987 1746.04C193.551 1746.68 192.922 1747.19 192.098 1747.55C191.279 1747.91 190.287 1748.09 189.122 1748.09C187.99 1748.09 187.008 1747.92 186.174 1747.57C185.346 1747.22 184.697 1746.7 184.228 1746.03C183.764 1745.36 183.513 1744.54 183.475 1743.58H186.068C186.106 1744.08 186.262 1744.5 186.537 1744.84C186.811 1745.18 187.169 1745.43 187.609 1745.59C188.054 1745.76 188.551 1745.84 189.1 1745.84C189.673 1745.84 190.175 1745.76 190.606 1745.59C191.042 1745.41 191.383 1745.17 191.629 1744.86C191.875 1744.55 192.001 1744.18 192.005 1743.77C192.001 1743.39 191.889 1743.08 191.672 1742.83C191.454 1742.58 191.148 1742.37 190.755 1742.2C190.367 1742.03 189.913 1741.88 189.392 1741.75L187.737 1741.32C186.539 1741.02 185.592 1740.55 184.896 1739.92C184.205 1739.29 183.859 1738.46 183.859 1737.42C183.859 1736.56 184.091 1735.81 184.555 1735.17C185.024 1734.52 185.661 1734.02 186.466 1733.67C187.27 1733.31 188.182 1733.13 189.2 1733.13C190.232 1733.13 191.136 1733.31 191.913 1733.67C192.694 1734.02 193.307 1734.52 193.752 1735.15C194.198 1735.78 194.427 1736.51 194.441 1737.33H191.906ZM206.158 1733.33H208.793V1742.83C208.793 1743.87 208.547 1744.79 208.055 1745.58C207.567 1746.37 206.88 1746.99 205.995 1747.43C205.11 1747.87 204.075 1748.09 202.891 1748.09C201.703 1748.09 200.666 1747.87 199.781 1747.43C198.895 1746.99 198.209 1746.37 197.721 1745.58C197.233 1744.79 196.989 1743.87 196.989 1742.83V1733.33H199.624V1742.61C199.624 1743.22 199.757 1743.76 200.022 1744.23C200.292 1744.7 200.671 1745.07 201.158 1745.34C201.646 1745.61 202.224 1745.74 202.891 1745.74C203.559 1745.74 204.137 1745.61 204.624 1745.34C205.117 1745.07 205.496 1744.7 205.761 1744.23C206.026 1743.76 206.158 1743.22 206.158 1742.61V1733.33ZM223.61 1733.33V1747.87H221.267L214.413 1737.96H214.292V1747.87H211.657V1733.33H214.015L220.862 1743.24H220.99V1733.33H223.61ZM231.442 1747.87V1733.33H234.077V1745.66H240.484V1747.87H231.442ZM242.771 1747.87V1733.33H252.231V1735.54H245.406V1739.48H251.741V1741.69H245.406V1745.66H252.288V1747.87H242.771ZM256.865 1733.33L260.651 1744.78H260.8L264.578 1733.33H267.476L262.348 1747.87H259.095L253.974 1733.33H256.865ZM269.392 1747.87V1733.33H278.852V1735.54H272.027V1739.48H278.362V1741.69H272.027V1745.66H278.909V1747.87H269.392ZM281.54 1747.87V1733.33H284.175V1745.66H290.581V1747.87H281.54Z" fill="black"/>
<rect x="58" y="1839" width="358" height="30" stroke="black" stroke-width="2"/>
<rect x="60" y="1841" width="354" height="26" fill="#F3F2EE" stroke="#F3F2EE" stroke-width="2"/>
<rect x="122" y="1769" width="229" height="53" rx="8" fill="black"/>
<path fill-rule="evenodd" clip-rule="evenodd" d="M207.944 1788.45H205.742V1797.84C205.742 1798.5 205.598 1799.09 205.309 1799.6C205.025 1800.11 204.613 1800.51 204.073 1800.81C203.538 1801.09 202.901 1801.24 202.163 1801.24C201.429 1801.24 200.794 1801.09 200.259 1800.81C199.724 1800.51 199.31 1800.11 199.017 1799.6C198.728 1799.09 198.583 1798.5 198.583 1797.84V1788.45H196.389V1798.02C196.389 1799.04 196.628 1799.94 197.106 1800.73C197.584 1801.51 198.257 1802.12 199.123 1802.57C199.99 1803.02 201.003 1803.24 202.163 1803.24C203.328 1803.24 204.343 1803.02 205.21 1802.57C206.076 1802.12 206.749 1801.51 207.227 1800.73C207.705 1799.94 207.944 1799.04 207.944 1798.02V1788.45ZM218.131 1790.71C218.68 1791.08 218.992 1791.6 219.068 1792.28H221.184C221.166 1791.49 220.938 1790.8 220.503 1790.2C220.067 1789.6 219.47 1789.12 218.713 1788.77C217.96 1788.43 217.091 1788.26 216.106 1788.26C215.131 1788.26 214.255 1788.43 213.479 1788.78C212.702 1789.13 212.086 1789.61 211.632 1790.24C211.177 1790.86 210.95 1791.59 210.95 1792.43C210.95 1793.45 211.289 1794.26 211.966 1794.88C212.648 1795.49 213.571 1795.96 214.736 1796.27L216.454 1796.74C216.975 1796.88 217.442 1797.04 217.854 1797.22C218.27 1797.4 218.599 1797.63 218.841 1797.9C219.087 1798.18 219.21 1798.53 219.21 1798.96C219.21 1799.43 219.07 1799.85 218.791 1800.2C218.512 1800.55 218.128 1800.83 217.64 1801.03C217.157 1801.22 216.606 1801.32 215.986 1801.32C215.422 1801.32 214.904 1801.23 214.43 1801.07C213.961 1800.9 213.576 1800.64 213.273 1800.29C212.974 1799.94 212.804 1799.51 212.761 1798.98H210.559C210.607 1799.86 210.855 1800.61 211.305 1801.25C211.755 1801.89 212.378 1802.38 213.173 1802.72C213.969 1803.07 214.911 1803.24 216 1803.24C217.136 1803.24 218.104 1803.06 218.905 1802.69C219.71 1802.32 220.323 1801.81 220.744 1801.17C221.17 1800.54 221.383 1799.8 221.383 1798.98C221.383 1798.33 221.253 1797.77 220.993 1797.3C220.737 1796.83 220.401 1796.44 219.984 1796.12C219.568 1795.8 219.115 1795.55 218.628 1795.35C218.14 1795.16 217.664 1795 217.2 1794.89L215.78 1794.52C215.496 1794.45 215.2 1794.36 214.892 1794.25C214.584 1794.14 214.295 1794 214.025 1793.83C213.76 1793.66 213.545 1793.45 213.379 1793.2C213.218 1792.95 213.138 1792.65 213.138 1792.3C213.138 1791.89 213.256 1791.53 213.493 1791.2C213.734 1790.88 214.073 1790.62 214.508 1790.44C214.944 1790.25 215.46 1790.15 216.057 1790.15C216.89 1790.15 217.581 1790.34 218.131 1790.71ZM224.006 1788.45V1803H233.21V1801.11H226.2V1796.66H232.649V1794.78H226.2V1790.34H233.125V1788.45H224.006ZM253.09 1803V1788.45H250.916V1799.14H250.781L243.381 1788.45H241.35V1803H243.544V1792.33H243.679L251.073 1803H253.09ZM268.074 1799.73C268.642 1798.62 268.926 1797.28 268.926 1795.73C268.926 1794.17 268.642 1792.84 268.074 1791.73C267.505 1790.61 266.727 1789.75 265.737 1789.16C264.752 1788.56 263.632 1788.26 262.378 1788.26C261.118 1788.26 259.994 1788.56 259.004 1789.16C258.019 1789.75 257.243 1790.61 256.675 1791.73C256.106 1792.84 255.822 1794.17 255.822 1795.73C255.822 1797.28 256.106 1798.61 256.675 1799.73C257.243 1800.84 258.019 1801.7 259.004 1802.3C259.994 1802.9 261.118 1803.2 262.378 1803.2C263.632 1803.2 264.752 1802.9 265.737 1802.3C266.727 1801.7 267.505 1800.85 268.074 1799.73ZM266.177 1792.74C266.561 1793.55 266.753 1794.54 266.753 1795.73C266.753 1796.91 266.561 1797.91 266.177 1798.72C265.799 1799.53 265.278 1800.15 264.615 1800.57C263.957 1800.99 263.211 1801.2 262.378 1801.2C261.54 1801.2 260.791 1800.99 260.133 1800.57C259.475 1800.15 258.954 1799.53 258.571 1798.72C258.192 1797.91 258.003 1796.91 258.003 1795.73C258.003 1794.54 258.192 1793.55 258.571 1792.74C258.954 1791.92 259.475 1791.31 260.133 1790.89C260.791 1790.47 261.54 1790.26 262.378 1790.26C263.211 1790.26 263.957 1790.47 264.615 1790.89C265.278 1791.31 265.799 1791.92 266.177 1792.74ZM272.608 1788.45H270.3L274.334 1803H276.55L279.611 1792.11H279.725L282.786 1803H284.995L289.036 1788.45H286.721L283.894 1799.73H283.759L280.812 1788.45H278.525L275.577 1799.72H275.442L272.608 1788.45Z" fill="#F3F2EE"/>
<path d="M433 1720C433 1716.13 436.134 1713 440 1713H780C783.866 1713 787 1716.13 787 1720V1839H433V1720Z" fill="#F3F2EE" stroke="black" stroke-width="2"/>
<path d="M567.181 1737.33C567.115 1736.7 566.836 1736.22 566.343 1735.88C565.856 1735.53 565.221 1735.36 564.44 1735.36C563.891 1735.36 563.419 1735.44 563.026 1735.61C562.633 1735.77 562.333 1736 562.124 1736.28C561.916 1736.57 561.81 1736.89 561.805 1737.25C561.805 1737.56 561.874 1737.82 562.011 1738.04C562.153 1738.27 562.345 1738.45 562.586 1738.61C562.828 1738.76 563.095 1738.89 563.389 1738.99C563.682 1739.1 563.978 1739.19 564.276 1739.26L565.64 1739.6C566.189 1739.73 566.717 1739.9 567.224 1740.12C567.735 1740.33 568.192 1740.61 568.595 1740.94C569.002 1741.27 569.324 1741.67 569.561 1742.14C569.797 1742.61 569.916 1743.16 569.916 1743.79C569.916 1744.64 569.698 1745.39 569.262 1746.04C568.827 1746.68 568.197 1747.19 567.373 1747.55C566.554 1747.91 565.562 1748.09 564.397 1748.09C563.266 1748.09 562.283 1747.92 561.45 1747.57C560.621 1747.22 559.972 1746.7 559.504 1746.03C559.04 1745.36 558.789 1744.54 558.751 1743.58H561.343C561.381 1744.08 561.537 1744.5 561.812 1744.84C562.087 1745.18 562.444 1745.43 562.884 1745.59C563.329 1745.76 563.827 1745.84 564.376 1745.84C564.949 1745.84 565.451 1745.76 565.882 1745.59C566.317 1745.41 566.658 1745.17 566.904 1744.86C567.151 1744.55 567.276 1744.18 567.281 1743.77C567.276 1743.39 567.165 1743.08 566.947 1742.83C566.729 1742.58 566.424 1742.37 566.031 1742.2C565.642 1742.03 565.188 1741.88 564.667 1741.75L563.012 1741.32C561.814 1741.02 560.867 1740.55 560.171 1739.92C559.48 1739.29 559.134 1738.46 559.134 1737.42C559.134 1736.56 559.366 1735.81 559.83 1735.17C560.299 1734.52 560.936 1734.02 561.741 1733.67C562.546 1733.31 563.457 1733.13 564.475 1733.13C565.508 1733.13 566.412 1733.31 567.188 1733.67C567.97 1734.02 568.583 1734.52 569.028 1735.15C569.473 1735.78 569.703 1736.51 569.717 1737.33H567.181ZM573.898 1747.87H571.086L576.206 1733.33H579.459L584.587 1747.87H581.775L577.89 1736.31H577.776L573.898 1747.87ZM573.991 1742.17H581.661V1744.29H573.991V1742.17ZM584.106 1735.54V1733.33H595.711V1735.54H591.215V1747.87H588.602V1735.54H584.106ZM597.948 1747.87V1733.33H607.409V1735.54H600.583V1739.48H606.919V1741.69H600.583V1745.66H607.465V1747.87H597.948ZM610.097 1747.87V1733.33H612.732V1745.66H619.138V1747.87H610.097ZM621.425 1747.87V1733.33H624.06V1745.66H630.466V1747.87H621.425ZM635.388 1733.33V1747.87H632.753V1733.33H635.388ZM637.602 1735.54V1733.33H649.207V1735.54H644.711V1747.87H642.098V1735.54H637.602ZM651.444 1747.87V1733.33H660.905V1735.54H654.079V1739.48H660.415V1741.69H654.079V1745.66H660.961V1747.87H651.444Z" fill="black"/>
<rect x="431" y="1839" width="358" height="30" stroke="black" stroke-width="2"/>
<rect x="433" y="1841" width="191" height="26" fill="#F3F2EE" stroke="#F3F2EE" stroke-width="2"/>
<path d="M654.5 1780L658.981 1786.75L667 1788.79L661.75 1794.99L662.225 1803L654.5 1800.09L646.775 1803L647.25 1794.99L642 1788.79L650.019 1786.75L654.5 1780Z" fill="black"/>
<path fill-rule="evenodd" clip-rule="evenodd" d="M571.209 1802.03V1783.85H568.537L564 1786.82V1789.45L568.35 1786.6H568.457V1802.03H571.209ZM578.862 1801.23C579.856 1801.96 581.054 1802.33 582.457 1802.34C583.854 1802.34 585.049 1801.97 586.044 1801.24C587.038 1800.5 587.799 1799.43 588.325 1798.03C588.852 1796.63 589.115 1794.93 589.115 1792.95C589.115 1790.98 588.849 1789.3 588.316 1787.91C587.79 1786.51 587.029 1785.45 586.035 1784.71C585.04 1783.97 583.848 1783.6 582.457 1783.6C581.066 1783.6 579.871 1783.97 578.87 1784.7C577.876 1785.44 577.113 1786.5 576.58 1787.9C576.053 1789.3 575.79 1790.98 575.79 1792.95C575.79 1794.93 576.053 1796.62 576.58 1798.02C577.107 1799.42 577.867 1800.49 578.862 1801.23ZM585.342 1798.16C584.65 1799.36 583.688 1799.97 582.457 1799.97C581.634 1799.97 580.93 1799.7 580.344 1799.17C579.758 1798.63 579.305 1797.84 578.986 1796.8C578.672 1795.75 578.515 1794.47 578.515 1792.95C578.521 1790.69 578.873 1788.95 579.572 1787.74C580.27 1786.53 581.232 1785.93 582.457 1785.93C583.268 1785.93 583.966 1786.2 584.552 1786.75C585.144 1787.29 585.597 1788.08 585.911 1789.13C586.23 1790.17 586.39 1791.44 586.39 1792.95C586.39 1795.22 586.041 1796.96 585.342 1798.16ZM593.366 1804.77L599.225 1783H596.855L590.995 1804.77H593.366ZM601.445 1800.05V1802.03H613.412V1799.68H605.226V1799.55L608.84 1795.77C609.947 1794.64 610.811 1793.69 611.432 1792.9C612.054 1792.11 612.489 1791.39 612.737 1790.74C612.992 1790.1 613.119 1789.44 613.119 1788.76C613.119 1787.79 612.873 1786.91 612.382 1786.13C611.891 1785.35 611.207 1784.74 610.331 1784.29C609.461 1783.83 608.455 1783.6 607.313 1783.6C606.182 1783.6 605.173 1783.83 604.285 1784.3C603.398 1784.75 602.699 1785.39 602.19 1786.22C601.681 1787.05 601.427 1788.02 601.427 1789.13H604.046C604.046 1788.47 604.176 1787.91 604.436 1787.42C604.697 1786.94 605.07 1786.56 605.555 1786.29C606.04 1786.03 606.608 1785.89 607.259 1785.89C607.875 1785.89 608.428 1786.02 608.92 1786.26C609.411 1786.49 609.799 1786.84 610.083 1787.28C610.367 1787.72 610.509 1788.24 610.509 1788.84C610.509 1789.37 610.402 1789.88 610.189 1790.35C609.976 1790.82 609.654 1791.32 609.222 1791.85C608.795 1792.37 608.254 1792.98 607.597 1793.67L601.445 1800.05ZM619.511 1801.23C620.505 1801.96 621.704 1802.33 623.106 1802.34C624.503 1802.34 625.699 1801.97 626.693 1801.24C627.687 1800.5 628.448 1799.43 628.975 1798.03C629.501 1796.63 629.765 1794.93 629.765 1792.95C629.765 1790.98 629.498 1789.3 628.966 1787.91C628.439 1786.51 627.679 1785.45 626.684 1784.71C625.69 1783.97 624.497 1783.6 623.106 1783.6C621.716 1783.6 620.52 1783.97 619.52 1784.7C618.525 1785.44 617.762 1786.5 617.229 1787.9C616.703 1789.3 616.439 1790.98 616.439 1792.95C616.439 1794.93 616.703 1796.62 617.229 1798.02C617.756 1799.42 618.517 1800.49 619.511 1801.23ZM625.992 1798.16C625.299 1799.36 624.338 1799.97 623.106 1799.97C622.284 1799.97 621.579 1799.7 620.994 1799.17C620.408 1798.63 619.955 1797.84 619.635 1796.8C619.322 1795.75 619.165 1794.47 619.165 1792.95C619.171 1790.69 619.523 1788.95 620.221 1787.74C620.92 1786.53 621.881 1785.93 623.106 1785.93C623.917 1785.93 624.616 1786.2 625.202 1786.75C625.793 1787.29 626.246 1788.08 626.56 1789.13C626.88 1790.17 627.039 1791.44 627.039 1792.95C627.039 1795.22 626.69 1796.96 625.992 1798.16Z" fill="black"/>
<path fill-rule="evenodd" clip-rule="evenodd" d="M946 1538C946 1533.58 949.582 1530 954 1530H1081V1617H946V1538ZM1015.54 1573.71L1028.41 1586.59L1025.59 1589.41L1013 1576.83L1000.41 1589.41L997.586 1586.59L1010.46 1573.71L997.586 1560.83L1000.41 1558L1013 1570.59L1025.59 1558L1028.41 1560.83L1015.54 1573.71Z" fill="black"/>
</g>
<defs>
<clipPath id="clip0_177_9">
<rect width="1080" height="1920" rx="60" fill="white"/>
</clipPath>
</defs>
</svg>
