<svg width="1080" height="1920" viewBox="0 0 1080 1920" fill="none" xmlns="http://www.w3.org/2000/svg">
<g clip-path="url(#clip0_177_4)">
<rect width="1080" height="1920" rx="60" fill="#F3F2EE"/>
<path d="M935 960C935 1177.6 758.155 1354 540 1354C321.845 1354 145 1177.6 145 960C145 742.402 321.845 566 540 566C758.155 566 935 742.402 935 960Z" stroke="black" stroke-width="2"/>
<circle cx="540" cy="960" r="179" fill="black"/>
<path d="M610.318 565.184C610.318 525.864 578.631 494 539.554 494C500.478 494 468.791 525.864 468.791 565.184C468.791 604.503 500.478 636.367 539.554 636.367C578.631 636.367 610.318 604.503 610.318 565.184Z" fill="black" stroke="black" stroke-width="2"/>
<path d="M540 153.497C537.325 153.497 535.046 152.769 533.164 151.313C531.282 149.845 529.844 147.721 528.849 144.939C527.855 142.145 527.358 138.772 527.358 134.818C527.358 130.888 527.855 127.532 528.849 124.751C529.856 121.957 531.3 119.826 533.182 118.359C535.076 116.879 537.348 116.139 540 116.139C542.652 116.139 544.918 116.879 546.8 118.359C548.694 119.826 550.138 121.957 551.133 124.751C552.139 127.532 552.642 130.888 552.642 134.818C552.642 138.772 552.145 142.145 551.151 144.939C550.156 147.721 548.718 149.845 546.836 151.313C544.954 152.769 542.675 153.497 540 153.497ZM540 149.591C542.652 149.591 544.711 148.312 546.179 145.756C547.647 143.199 548.381 139.553 548.381 134.818C548.381 131.67 548.043 128.988 547.369 126.775C546.706 124.561 545.747 122.875 544.492 121.714C543.249 120.554 541.752 119.974 540 119.974C537.372 119.974 535.318 121.271 533.839 123.863C532.359 126.443 531.619 130.095 531.619 134.818C531.619 137.967 531.951 140.642 532.614 142.844C533.277 145.045 534.229 146.72 535.472 147.869C536.727 149.017 538.236 149.591 540 149.591Z" fill="black"/>
<path d="M170.512 1845.36C168.829 1845.36 167.391 1844.91 166.197 1844.03C165.004 1843.15 164.092 1841.87 163.459 1840.18C162.827 1838.5 162.511 1836.47 162.511 1834.1C162.511 1831.74 162.827 1829.72 163.459 1828.04C164.099 1826.36 165.015 1825.09 166.208 1824.2C167.408 1823.32 168.843 1822.88 170.512 1822.88C172.181 1822.88 173.612 1823.33 174.805 1824.22C175.998 1825.1 176.911 1826.37 177.543 1828.05C178.182 1829.72 178.502 1831.74 178.502 1834.1C178.502 1836.48 178.186 1838.51 177.554 1840.2C176.922 1841.87 176.009 1843.15 174.816 1844.04C173.623 1844.92 172.188 1845.36 170.512 1845.36ZM170.512 1842.52C171.989 1842.52 173.143 1841.8 173.974 1840.36C174.812 1838.91 175.231 1836.83 175.231 1834.1C175.231 1832.29 175.04 1830.76 174.656 1829.51C174.28 1828.25 173.736 1827.3 173.026 1826.65C172.323 1826 171.485 1825.67 170.512 1825.67C169.042 1825.67 167.888 1826.4 167.05 1827.85C166.212 1829.3 165.789 1831.38 165.782 1834.1C165.782 1835.92 165.97 1837.46 166.347 1838.71C166.73 1839.96 167.273 1840.91 167.976 1841.56C168.68 1842.2 169.525 1842.52 170.512 1842.52Z" fill="black"/>
<path d="M97.5 1813L104.489 1823.88L116.997 1827.17L108.808 1837.17L109.55 1850.08L97.5 1845.39L85.4504 1850.08L86.1919 1837.17L78.0033 1827.17L90.5112 1823.88L97.5 1813Z" fill="black"/>
<rect x="65" y="1802" width="159" height="64" rx="7" stroke="black" stroke-width="2"/>
<path d="M354.512 1845.36C352.829 1845.36 351.391 1844.91 350.197 1844.03C349.004 1843.15 348.092 1841.87 347.459 1840.18C346.827 1838.5 346.511 1836.47 346.511 1834.1C346.511 1831.74 346.827 1829.72 347.459 1828.04C348.099 1826.36 349.015 1825.09 350.208 1824.2C351.408 1823.32 352.843 1822.88 354.512 1822.88C356.181 1822.88 357.612 1823.33 358.805 1824.22C359.998 1825.1 360.911 1826.37 361.543 1828.05C362.182 1829.72 362.502 1831.74 362.502 1834.1C362.502 1836.48 362.186 1838.51 361.554 1840.2C360.922 1841.87 360.009 1843.15 358.816 1844.04C357.623 1844.92 356.188 1845.36 354.512 1845.36ZM354.512 1842.52C355.989 1842.52 357.143 1841.8 357.974 1840.36C358.812 1838.91 359.231 1836.83 359.231 1834.1C359.231 1832.29 359.04 1830.76 358.656 1829.51C358.28 1828.25 357.736 1827.3 357.026 1826.65C356.323 1826 355.485 1825.67 354.512 1825.67C353.042 1825.67 351.888 1826.4 351.05 1827.85C350.212 1829.3 349.789 1831.38 349.782 1834.1C349.782 1835.92 349.97 1837.46 350.347 1838.71C350.73 1839.96 351.273 1840.91 351.976 1841.56C352.68 1842.2 353.525 1842.52 354.512 1842.52Z" fill="black"/>
<path d="M281.631 1850.53C291.105 1850.53 298.761 1842.9 298.761 1833.52C298.761 1824.13 291.105 1816.5 281.631 1816.5C272.156 1816.5 264.5 1824.13 264.5 1833.52C264.5 1842.9 272.156 1850.53 281.631 1850.53Z" stroke="black" stroke-width="5"/>
<path d="M283.143 1832.68C283.693 1833.64 283.362 1834.83 282.444 1835.36C281.526 1835.89 280.327 1835.58 279.776 1834.63C279.225 1833.67 279.556 1832.48 280.474 1831.95C281.392 1831.42 282.592 1831.73 283.143 1832.68Z" fill="black" stroke="black" stroke-width="5"/>
<rect x="249" y="1802" width="159" height="64" rx="7" stroke="black" stroke-width="2"/>
<path d="M538.512 1845.36C536.829 1845.36 535.391 1844.91 534.197 1844.03C533.004 1843.15 532.092 1841.87 531.459 1840.18C530.827 1838.5 530.511 1836.47 530.511 1834.1C530.511 1831.74 530.827 1829.72 531.459 1828.04C532.099 1826.36 533.015 1825.09 534.208 1824.2C535.408 1823.32 536.843 1822.88 538.512 1822.88C540.181 1822.88 541.612 1823.33 542.805 1824.22C543.998 1825.1 544.911 1826.37 545.543 1828.05C546.182 1829.72 546.502 1831.74 546.502 1834.1C546.502 1836.48 546.186 1838.51 545.554 1840.2C544.922 1841.87 544.009 1843.15 542.816 1844.04C541.623 1844.92 540.188 1845.36 538.512 1845.36ZM538.512 1842.52C539.989 1842.52 541.143 1841.8 541.974 1840.36C542.812 1838.91 543.231 1836.83 543.231 1834.1C543.231 1832.29 543.04 1830.76 542.656 1829.51C542.28 1828.25 541.736 1827.3 541.026 1826.65C540.323 1826 539.485 1825.67 538.512 1825.67C537.042 1825.67 535.888 1826.4 535.05 1827.85C534.212 1829.3 533.789 1831.38 533.782 1834.1C533.782 1835.92 533.97 1837.46 534.347 1838.71C534.73 1839.96 535.273 1840.91 535.976 1841.56C536.68 1842.2 537.525 1842.52 538.512 1842.52Z" fill="black"/>
<mask id="path-14-inside-1_177_4" fill="white">
<path d="M485 1833.5C485 1837.36 483.856 1841.13 481.714 1844.33C479.571 1847.54 476.525 1850.04 472.962 1851.52C469.399 1852.99 465.478 1853.38 461.696 1852.63C457.913 1851.87 454.439 1850.02 451.711 1847.29C448.984 1844.56 447.127 1841.09 446.375 1837.3C445.622 1833.52 446.008 1829.6 447.484 1826.04C448.96 1822.47 451.46 1819.43 454.666 1817.29C457.873 1815.14 461.643 1814 465.5 1814V1818.77C462.587 1818.77 459.74 1819.64 457.318 1821.26C454.897 1822.87 453.009 1825.17 451.895 1827.86C450.78 1830.56 450.488 1833.52 451.056 1836.37C451.625 1839.23 453.027 1841.85 455.087 1843.91C457.146 1845.97 459.77 1847.38 462.627 1847.94C465.484 1848.51 468.445 1848.22 471.136 1847.11C473.826 1845.99 476.126 1844.1 477.745 1841.68C479.363 1839.26 480.226 1836.41 480.226 1833.5H485Z"/>
</mask>
<path d="M485 1833.5C485 1837.36 483.856 1841.13 481.714 1844.33C479.571 1847.54 476.525 1850.04 472.962 1851.52C469.399 1852.99 465.478 1853.38 461.696 1852.63C457.913 1851.87 454.439 1850.02 451.711 1847.29C448.984 1844.56 447.127 1841.09 446.375 1837.3C445.622 1833.52 446.008 1829.6 447.484 1826.04C448.96 1822.47 451.46 1819.43 454.666 1817.29C457.873 1815.14 461.643 1814 465.5 1814V1818.77C462.587 1818.77 459.74 1819.64 457.318 1821.26C454.897 1822.87 453.009 1825.17 451.895 1827.86C450.78 1830.56 450.488 1833.52 451.056 1836.37C451.625 1839.23 453.027 1841.85 455.087 1843.91C457.146 1845.97 459.77 1847.38 462.627 1847.94C465.484 1848.51 468.445 1848.22 471.136 1847.11C473.826 1845.99 476.126 1844.1 477.745 1841.68C479.363 1839.26 480.226 1836.41 480.226 1833.5H485Z" stroke="black" stroke-width="8" mask="url(#path-14-inside-1_177_4)"/>
<rect x="433" y="1802" width="159" height="64" rx="7" stroke="black" stroke-width="2"/>
<rect x="-2" y="1888" width="1080" height="39" fill="black"/>
<path fill-rule="evenodd" clip-rule="evenodd" d="M952 1801C947.582 1801 944 1804.58 944 1809V1888H1079V1801H952ZM1026.41 1851.41L1011 1836L995.586 1851.41L998.414 1854.24L1011 1841.66L1023.59 1854.24L1026.41 1851.41Z" fill="black"/>
<path d="M905.004 801.918L891.35 794.875L876.531 798.925L879.01 783.764L870.579 770.922L885.764 768.595L895.372 756.607L902.278 770.33L916.648 775.764L905.731 786.572L905.004 801.918Z" fill="black"/>
</g>
<defs>
<clipPath id="clip0_177_4">
<rect width="1080" height="1920" rx="60" fill="white"/>
</clipPath>
</defs>
</svg>
