<svg width="1080" height="1920" viewBox="0 0 1080 1920" fill="none" xmlns="http://www.w3.org/2000/svg">
<g clip-path="url(#clip0_177_5)">
<rect width="1080" height="1920" rx="60" fill="#F3F2EE"/>
<path d="M935 960C935 1177.6 758.155 1354 540 1354C321.845 1354 145 1177.6 145 960C145 742.402 321.845 566 540 566C758.155 566 935 742.402 935 960Z" stroke="black" stroke-width="2"/>
<circle cx="540" cy="960" r="179" fill="black"/>
<path d="M610.318 565.184C610.318 525.864 578.631 494 539.554 494C500.478 494 468.791 525.864 468.791 565.184C468.791 604.503 500.478 636.367 539.554 636.367C578.631 636.367 610.318 604.503 610.318 565.184Z" fill="#F3F2EE" stroke="black" stroke-width="2"/>
<path d="M610 565.184C610 604.326 578.455 636.047 539.554 636.047C500.654 636.047 469.108 604.326 469.108 565.184C469.108 526.042 500.654 494.32 539.554 494.32C578.455 494.32 610 526.042 610 565.184Z" fill="black" stroke="black" stroke-width="2"/>
<path d="M540 153.497C537.325 153.497 535.046 152.769 533.164 151.313C531.282 149.845 529.844 147.721 528.849 144.939C527.855 142.145 527.358 138.772 527.358 134.818C527.358 130.888 527.855 127.532 528.849 124.751C529.856 121.957 531.3 119.826 533.182 118.359C535.076 116.879 537.348 116.139 540 116.139C542.652 116.139 544.918 116.879 546.8 118.359C548.694 119.826 550.138 121.957 551.133 124.751C552.139 127.532 552.642 130.888 552.642 134.818C552.642 138.772 552.145 142.145 551.151 144.939C550.156 147.721 548.718 149.845 546.836 151.313C544.954 152.769 542.675 153.497 540 153.497ZM540 149.591C542.652 149.591 544.711 148.312 546.179 145.756C547.647 143.199 548.381 139.553 548.381 134.818C548.381 131.67 548.043 128.988 547.369 126.775C546.706 124.561 545.747 122.875 544.492 121.714C543.249 120.554 541.752 119.974 540 119.974C537.372 119.974 535.318 121.271 533.839 123.863C532.359 126.443 531.619 130.095 531.619 134.818C531.619 137.967 531.951 140.642 532.614 142.844C533.277 145.045 534.229 146.72 535.472 147.869C536.727 149.017 538.236 149.591 540 149.591Z" fill="black"/>
<path d="M170.512 1845.36C168.829 1845.36 167.391 1844.91 166.197 1844.03C165.004 1843.15 164.092 1841.87 163.459 1840.18C162.827 1838.5 162.511 1836.47 162.511 1834.1C162.511 1831.74 162.827 1829.72 163.459 1828.04C164.099 1826.36 165.015 1825.09 166.208 1824.2C167.408 1823.32 168.843 1822.88 170.512 1822.88C172.181 1822.88 173.612 1823.33 174.805 1824.22C175.998 1825.1 176.911 1826.37 177.543 1828.05C178.182 1829.72 178.502 1831.74 178.502 1834.1C178.502 1836.48 178.186 1838.51 177.554 1840.2C176.922 1841.87 176.009 1843.15 174.816 1844.04C173.623 1844.92 172.188 1845.36 170.512 1845.36ZM170.512 1842.52C171.989 1842.52 173.143 1841.8 173.974 1840.36C174.812 1838.91 175.231 1836.83 175.231 1834.1C175.231 1832.29 175.04 1830.76 174.656 1829.51C174.28 1828.25 173.736 1827.3 173.026 1826.65C172.323 1826 171.485 1825.67 170.512 1825.67C169.042 1825.67 167.888 1826.4 167.05 1827.85C166.212 1829.3 165.789 1831.38 165.782 1834.1C165.782 1835.92 165.97 1837.46 166.347 1838.71C166.73 1839.96 167.273 1840.91 167.976 1841.56C168.68 1842.2 169.525 1842.52 170.512 1842.52Z" fill="black"/>
<path d="M97.5 1813L104.489 1823.88L116.997 1827.17L108.808 1837.17L109.55 1850.08L97.5 1845.39L85.4504 1850.08L86.1919 1837.17L78.0033 1827.17L90.5112 1823.88L97.5 1813Z" fill="black"/>
<rect x="65" y="1802" width="159" height="64" rx="7" stroke="black" stroke-width="2"/>
<path d="M354.512 1845.36C352.829 1845.36 351.391 1844.91 350.197 1844.03C349.004 1843.15 348.092 1841.87 347.459 1840.18C346.827 1838.5 346.511 1836.47 346.511 1834.1C346.511 1831.74 346.827 1829.72 347.459 1828.04C348.099 1826.36 349.015 1825.09 350.208 1824.2C351.408 1823.32 352.843 1822.88 354.512 1822.88C356.181 1822.88 357.612 1823.33 358.805 1824.22C359.998 1825.1 360.911 1826.37 361.543 1828.05C362.182 1829.72 362.502 1831.74 362.502 1834.1C362.502 1836.48 362.186 1838.51 361.554 1840.2C360.922 1841.87 360.009 1843.15 358.816 1844.04C357.623 1844.92 356.188 1845.36 354.512 1845.36ZM354.512 1842.52C355.989 1842.52 357.143 1841.8 357.974 1840.36C358.812 1838.91 359.231 1836.83 359.231 1834.1C359.231 1832.29 359.04 1830.76 358.656 1829.51C358.28 1828.25 357.736 1827.3 357.026 1826.65C356.323 1826 355.485 1825.67 354.512 1825.67C353.042 1825.67 351.888 1826.4 351.05 1827.85C350.212 1829.3 349.789 1831.38 349.782 1834.1C349.782 1835.92 349.97 1837.46 350.347 1838.71C350.73 1839.96 351.273 1840.91 351.976 1841.56C352.68 1842.2 353.525 1842.52 354.512 1842.52Z" fill="black"/>
<path d="M281.631 1850.53C291.105 1850.53 298.761 1842.9 298.761 1833.52C298.761 1824.13 291.105 1816.5 281.631 1816.5C272.156 1816.5 264.5 1824.13 264.5 1833.52C264.5 1842.9 272.156 1850.53 281.631 1850.53Z" stroke="black" stroke-width="5"/>
<path d="M283.143 1832.68C283.693 1833.64 283.362 1834.83 282.444 1835.36C281.526 1835.89 280.327 1835.58 279.776 1834.63C279.225 1833.67 279.556 1832.48 280.474 1831.95C281.392 1831.42 282.592 1831.73 283.143 1832.68Z" fill="black" stroke="black" stroke-width="5"/>
<rect x="249" y="1802" width="159" height="64" rx="7" stroke="black" stroke-width="2"/>
<path d="M538.512 1845.36C536.829 1845.36 535.391 1844.91 534.197 1844.03C533.004 1843.15 532.092 1841.87 531.459 1840.18C530.827 1838.5 530.511 1836.47 530.511 1834.1C530.511 1831.74 530.827 1829.72 531.459 1828.04C532.099 1826.36 533.015 1825.09 534.208 1824.2C535.408 1823.32 536.843 1822.88 538.512 1822.88C540.181 1822.88 541.612 1823.33 542.805 1824.22C543.998 1825.1 544.911 1826.37 545.543 1828.05C546.182 1829.72 546.502 1831.74 546.502 1834.1C546.502 1836.48 546.186 1838.51 545.554 1840.2C544.922 1841.87 544.009 1843.15 542.816 1844.04C541.623 1844.92 540.188 1845.36 538.512 1845.36ZM538.512 1842.52C539.989 1842.52 541.143 1841.8 541.974 1840.36C542.812 1838.91 543.231 1836.83 543.231 1834.1C543.231 1832.29 543.04 1830.76 542.656 1829.51C542.28 1828.25 541.736 1827.3 541.026 1826.65C540.323 1826 539.485 1825.67 538.512 1825.67C537.042 1825.67 535.888 1826.4 535.05 1827.85C534.212 1829.3 533.789 1831.38 533.782 1834.1C533.782 1835.92 533.97 1837.46 534.347 1838.71C534.73 1839.96 535.273 1840.91 535.976 1841.56C536.68 1842.2 537.525 1842.52 538.512 1842.52Z" fill="black"/>
<mask id="path-15-inside-1_177_5" fill="white">
<path d="M485 1833.5C485 1837.36 483.856 1841.13 481.714 1844.33C479.571 1847.54 476.525 1850.04 472.962 1851.52C469.399 1852.99 465.478 1853.38 461.696 1852.63C457.913 1851.87 454.439 1850.02 451.711 1847.29C448.984 1844.56 447.127 1841.09 446.375 1837.3C445.622 1833.52 446.008 1829.6 447.484 1826.04C448.96 1822.47 451.46 1819.43 454.666 1817.29C457.873 1815.14 461.643 1814 465.5 1814V1818.77C462.587 1818.77 459.74 1819.64 457.318 1821.26C454.897 1822.87 453.009 1825.17 451.895 1827.86C450.78 1830.56 450.488 1833.52 451.056 1836.37C451.625 1839.23 453.027 1841.85 455.087 1843.91C457.146 1845.97 459.77 1847.38 462.627 1847.94C465.484 1848.51 468.445 1848.22 471.136 1847.11C473.826 1845.99 476.126 1844.1 477.745 1841.68C479.363 1839.26 480.226 1836.41 480.226 1833.5H485Z"/>
</mask>
<path d="M485 1833.5C485 1837.36 483.856 1841.13 481.714 1844.33C479.571 1847.54 476.525 1850.04 472.962 1851.52C469.399 1852.99 465.478 1853.38 461.696 1852.63C457.913 1851.87 454.439 1850.02 451.711 1847.29C448.984 1844.56 447.127 1841.09 446.375 1837.3C445.622 1833.52 446.008 1829.6 447.484 1826.04C448.96 1822.47 451.46 1819.43 454.666 1817.29C457.873 1815.14 461.643 1814 465.5 1814V1818.77C462.587 1818.77 459.74 1819.64 457.318 1821.26C454.897 1822.87 453.009 1825.17 451.895 1827.86C450.78 1830.56 450.488 1833.52 451.056 1836.37C451.625 1839.23 453.027 1841.85 455.087 1843.91C457.146 1845.97 459.77 1847.38 462.627 1847.94C465.484 1848.51 468.445 1848.22 471.136 1847.11C473.826 1845.99 476.126 1844.1 477.745 1841.68C479.363 1839.26 480.226 1836.41 480.226 1833.5H485Z" stroke="black" stroke-width="8" mask="url(#path-15-inside-1_177_5)"/>
<rect x="433" y="1802" width="159" height="64" rx="7" stroke="black" stroke-width="2"/>
<rect x="-2" y="1888" width="1080" height="39" fill="black"/>
<path fill-rule="evenodd" clip-rule="evenodd" d="M951 1801C946.582 1801 943 1804.58 943 1809V1888H1078V1801H951ZM1025.41 1851.41L1010 1836L994.586 1851.41L997.414 1854.24L1010 1841.66L1022.59 1854.24L1025.41 1851.41Z" fill="black"/>
<path d="M66.1669 144V125.818H77.9921V128.579H69.4605V133.515H77.3796V136.276H69.4605V141.239H78.0632V144H66.1669ZM91.2334 130.816C91.1506 130.041 90.8014 129.437 90.1859 129.005C89.5762 128.573 88.7832 128.357 87.8066 128.357C87.12 128.357 86.5311 128.461 86.0399 128.668C85.5487 128.875 85.1728 129.156 84.9124 129.511C84.652 129.866 84.5188 130.272 84.5129 130.728C84.5129 131.106 84.5987 131.435 84.7704 131.713C84.9479 131.991 85.1876 132.228 85.4895 132.423C85.7913 132.613 86.1257 132.772 86.4927 132.903C86.8596 133.033 87.2295 133.142 87.6024 133.231L89.307 133.657C89.9935 133.817 90.6534 134.033 91.2867 134.305C91.9259 134.578 92.4971 134.921 93.0001 135.335C93.5091 135.75 93.9116 136.25 94.2075 136.836C94.5034 137.422 94.6514 138.108 94.6514 138.895C94.6514 139.961 94.3792 140.899 93.8347 141.71C93.2901 142.514 92.503 143.145 91.4731 143.6C90.4492 144.05 89.2093 144.275 87.7533 144.275C86.3388 144.275 85.1107 144.056 84.069 143.618C83.0333 143.18 82.2224 142.541 81.6365 141.701C81.0565 140.86 80.7428 139.836 80.6954 138.629H83.9359C83.9832 139.262 84.1785 139.789 84.5218 140.209C84.8651 140.629 85.3119 140.943 85.8623 141.15C86.4187 141.357 87.0401 141.461 87.7267 141.461C88.4428 141.461 89.0702 141.354 89.6088 141.141C90.1533 140.922 90.5794 140.621 90.8872 140.236C91.195 139.845 91.3518 139.389 91.3577 138.869C91.3518 138.395 91.2127 138.004 90.9405 137.697C90.6682 137.383 90.2865 137.123 89.7952 136.915C89.3099 136.702 88.7417 136.513 88.0907 136.347L86.0222 135.815C84.5248 135.43 83.341 134.847 82.471 134.066C81.6069 133.279 81.1748 132.234 81.1748 130.932C81.1748 129.861 81.4649 128.922 82.0449 128.118C82.6308 127.313 83.4269 126.688 84.433 126.244C85.4392 125.795 86.5785 125.57 87.851 125.57C89.1412 125.57 90.2717 125.795 91.2423 126.244C92.2189 126.688 92.9853 127.307 93.5417 128.1C94.098 128.887 94.3851 129.792 94.4028 130.816H91.2334ZM96.7888 128.579V125.818H111.295V128.579H105.675V144H102.408V128.579H96.7888ZM114.092 144V125.818H125.917V128.579H117.385V133.515H125.304V136.276H117.385V141.239H125.988V144H114.092ZM129.277 144V125.818H136.095C137.492 125.818 138.664 126.061 139.611 126.546C140.564 127.031 141.283 127.712 141.768 128.588C142.26 129.458 142.505 130.473 142.505 131.633C142.505 132.799 142.257 133.811 141.759 134.669C141.268 135.522 140.543 136.182 139.584 136.649C138.626 137.111 137.448 137.342 136.051 137.342H131.195V134.607H135.607C136.424 134.607 137.093 134.495 137.614 134.27C138.134 134.039 138.519 133.705 138.768 133.267C139.022 132.823 139.149 132.278 139.149 131.633C139.149 130.988 139.022 130.438 138.768 129.982C138.513 129.52 138.125 129.171 137.605 128.934C137.084 128.692 136.412 128.57 135.589 128.57H132.571V144H129.277ZM138.67 135.761L143.171 144H139.496L135.074 135.761H138.67ZM161.783 134.909C161.783 136.868 161.416 138.546 160.683 139.943C159.955 141.334 158.96 142.399 157.7 143.139C156.445 143.879 155.021 144.249 153.429 144.249C151.837 144.249 150.411 143.879 149.15 143.139C147.896 142.393 146.901 141.325 146.167 139.934C145.439 138.537 145.075 136.862 145.075 134.909C145.075 132.95 145.439 131.275 146.167 129.884C146.901 128.487 147.896 127.419 149.15 126.679C150.411 125.94 151.837 125.57 153.429 125.57C155.021 125.57 156.445 125.94 157.7 126.679C158.96 127.419 159.955 128.487 160.683 129.884C161.416 131.275 161.783 132.95 161.783 134.909ZM158.472 134.909C158.472 133.53 158.256 132.367 157.824 131.42C157.398 130.467 156.806 129.748 156.048 129.263C155.291 128.772 154.418 128.526 153.429 128.526C152.441 128.526 151.568 128.772 150.81 129.263C150.053 129.748 149.458 130.467 149.026 131.42C148.6 132.367 148.387 133.53 148.387 134.909C148.387 136.288 148.6 137.454 149.026 138.407C149.458 139.354 150.053 140.073 150.81 140.564C151.568 141.05 152.441 141.292 153.429 141.292C154.418 141.292 155.291 141.05 156.048 140.564C156.806 140.073 157.398 139.354 157.824 138.407C158.256 137.454 158.472 136.288 158.472 134.909ZM164.897 144V125.818H168.191V134.172H168.413L175.506 125.818H179.528L172.497 133.977L179.59 144H175.631L170.206 136.205L168.191 138.585V144H164.897ZM181.816 144V125.818H185.11V133.515H193.535V125.818H196.838V144H193.535V136.276H185.11V144H181.816Z" fill="black"/>
<path d="M876.402 144.346C874.94 144.346 873.686 143.976 872.638 143.237C871.596 142.491 870.794 141.417 870.232 140.014C869.676 138.605 869.398 136.91 869.398 134.927C869.404 132.944 869.685 131.257 870.241 129.866C870.803 128.47 871.605 127.404 872.647 126.67C873.694 125.937 874.946 125.57 876.402 125.57C877.858 125.57 879.11 125.937 880.158 126.67C881.205 127.404 882.007 128.47 882.563 129.866C883.126 131.263 883.407 132.95 883.407 134.927C883.407 136.915 883.126 138.614 882.563 140.023C882.007 141.425 881.205 142.497 880.158 143.237C879.116 143.976 877.864 144.346 876.402 144.346ZM876.402 141.567C877.539 141.567 878.435 141.008 879.092 139.89C879.755 138.765 880.087 137.111 880.087 134.927C880.087 133.483 879.936 132.269 879.634 131.287C879.332 130.304 878.906 129.565 878.355 129.067C877.805 128.564 877.154 128.313 876.402 128.313C875.272 128.313 874.378 128.875 873.721 130C873.064 131.118 872.733 132.761 872.727 134.927C872.721 136.377 872.866 137.596 873.162 138.585C873.464 139.573 873.89 140.319 874.44 140.822C874.991 141.319 875.645 141.567 876.402 141.567ZM887.664 144.195C887.125 144.195 886.664 144.006 886.279 143.627C885.894 143.248 885.705 142.787 885.711 142.242C885.705 141.71 885.894 141.254 886.279 140.875C886.664 140.496 887.125 140.307 887.664 140.307C888.185 140.307 888.637 140.496 889.022 140.875C889.413 141.254 889.611 141.71 889.617 142.242C889.611 142.603 889.516 142.932 889.333 143.228C889.155 143.524 888.918 143.76 888.623 143.938C888.333 144.109 888.013 144.195 887.664 144.195ZM892.571 140.626V138.007L900.286 125.818H902.47V129.547H901.138L895.945 137.777V137.919H906.713V140.626H892.571ZM901.245 144V139.827L901.28 138.656V125.818H904.387V144H901.245Z" fill="black"/>
<path d="M944.559 143.772C949.773 143.772 954 139.57 954 134.386C954 129.202 949.773 125 944.559 125C939.345 125 935.118 129.202 935.118 134.386C935.118 139.57 939.345 143.772 944.559 143.772Z" fill="black"/>
<path d="M914 125.93H917.804L922.899 138.365H923.1L928.195 125.93H931.999V143.091H929.016V131.301H928.857L924.114 143.041H921.885L917.142 131.276H916.983V143.091H914V125.93Z" fill="black"/>
<path d="M64 195H1008" stroke="black" stroke-width="2"/>
<path d="M536 195L538 493" stroke="black" stroke-width="2"/>
<path d="M987 125L987 144" stroke="black" stroke-width="3"/>
<path d="M994 125L994 144" stroke="black"/>
<path d="M1001 125L1001 144" stroke="black"/>
<path d="M1008 125L1008 144" stroke="black"/>
</g>
<defs>
<clipPath id="clip0_177_5">
<rect width="1080" height="1920" rx="60" fill="white"/>
</clipPath>
</defs>
</svg>
