<svg width="536" height="138" viewBox="0 0 536 138" fill="none" xmlns="http://www.w3.org/2000/svg">
<path d="M398.923 17H394.249C393.901 15.26 393.271 13.6525 392.36 12.1776C391.465 10.6861 390.338 9.38519 388.979 8.27487C387.62 7.16455 386.079 6.30281 384.356 5.68964C382.632 5.07648 380.768 4.7699 378.763 4.7699C375.548 4.7699 372.615 5.60678 369.963 7.28055C367.328 8.95432 365.215 11.4153 363.624 14.6634C362.05 17.8949 361.263 21.8556 361.263 26.5455C361.263 31.2685 362.05 35.2458 363.624 38.4773C365.215 41.7088 367.328 44.1615 369.963 45.8352C372.615 47.4924 375.548 48.321 378.763 48.321C380.768 48.321 382.632 48.0145 384.356 47.4013C386.079 46.7881 387.62 45.9347 388.979 44.8409C390.338 43.7306 391.465 42.4297 392.36 40.9382C393.271 39.4467 393.901 37.831 394.249 36.0909H398.923C398.508 38.4276 397.729 40.6068 396.586 42.6286C395.459 44.6338 394.017 46.3904 392.261 47.8985C390.521 49.4065 388.515 50.5831 386.245 51.4283C383.975 52.2735 381.481 52.696 378.763 52.696C374.487 52.696 370.692 51.6271 367.378 49.4894C364.063 47.335 361.462 44.3023 359.572 40.3913C357.7 36.4804 356.763 31.8651 356.763 26.5455C356.763 21.2259 357.7 16.6106 359.572 12.6996C361.462 8.7886 364.063 5.76422 367.378 3.62643C370.692 1.47208 374.487 0.394897 378.763 0.394897C381.481 0.394897 383.975 0.817484 386.245 1.66265C388.515 2.49125 390.521 3.66786 392.261 5.19248C394.017 6.70053 395.459 8.45716 396.586 10.4624C397.729 12.4676 398.508 14.6468 398.923 17Z" fill="#F3F2EE"/>
<path d="M345.515 1.09094V52H340.867V1.09094H345.515Z" fill="#F3F2EE"/>
<path d="M296.707 52V1.09094H313.138C316.75 1.09094 319.766 1.74554 322.186 3.05472C324.622 4.34733 326.453 6.14539 327.68 8.4489C328.922 10.7358 329.544 13.3625 329.544 16.3289C329.544 19.2953 328.922 21.9136 327.68 24.184C326.453 26.4543 324.63 28.2275 322.211 29.5036C319.791 30.7796 316.792 31.4176 313.212 31.4176H299.217V27.1669H313.088C315.739 27.1669 317.944 26.7278 319.7 25.8495C321.473 24.9711 322.791 23.72 323.653 22.0959C324.531 20.4719 324.97 18.5495 324.97 16.3289C324.97 14.1082 324.531 12.1693 323.653 10.5121C322.774 8.83834 321.448 7.54573 319.675 6.63426C317.919 5.72281 315.698 5.26708 313.013 5.26708H301.355V52H296.707ZM319.153 29.0313L331.682 52H326.312L313.908 29.0313H319.153Z" fill="#F3F2EE"/>
<path d="M249.327 5.26708V1.09094H286.241V5.26708H270.109V52H265.46V5.26708H249.327Z" fill="#F3F2EE"/>
<path d="M210.847 52V1.09094H240.378V5.26708H215.496V24.4326H238.812V28.6087H215.496V47.8239H240.876V52H210.847Z" fill="#F3F2EE"/>
<path d="M149.187 1.09094H154.556L173.026 45.4375H173.473L191.943 1.09094H197.312V52H192.937V10.9098H192.539L175.362 52H171.137L153.96 10.9098H153.562V52H149.187V1.09094Z" fill="#F3F2EE"/>
<path d="M137.945 26.5455C137.945 31.8485 137 36.4638 135.111 40.3913C133.222 44.3023 130.62 47.335 127.306 49.4894C124.008 51.6271 120.213 52.696 115.921 52.696C111.629 52.696 107.826 51.6271 104.511 49.4894C101.213 47.335 98.6198 44.3023 96.7306 40.3913C94.8579 36.4638 93.9216 31.8485 93.9216 26.5455C93.9216 21.2424 94.8579 16.6354 96.7306 12.7244C98.6198 8.79689 101.222 5.76422 104.536 3.62643C107.85 1.47208 111.645 0.394897 115.921 0.394897C120.213 0.394897 124.008 1.47208 127.306 3.62643C130.62 5.76422 133.222 8.79689 135.111 12.7244C137 16.6354 137.945 21.2424 137.945 26.5455ZM133.421 26.5455C133.421 21.9882 132.659 18.0855 131.134 14.8374C129.609 11.5727 127.53 9.07861 124.895 7.35513C122.26 5.63164 119.268 4.7699 115.921 4.7699C112.59 4.7699 109.607 5.63164 106.972 7.35513C104.337 9.07861 102.249 11.5644 100.708 14.8125C99.1832 18.0606 98.4209 21.9716 98.4209 26.5455C98.4209 31.1028 99.1832 35.0055 100.708 38.2536C102.232 41.5017 104.312 43.9958 106.947 45.7358C109.582 47.4593 112.573 48.321 115.921 48.321C119.268 48.321 122.26 47.4593 124.895 45.7358C127.546 44.0123 129.634 41.5265 131.159 38.2784C132.683 35.0137 133.437 31.1028 133.421 26.5455Z" fill="#F3F2EE"/>
<path d="M54.646 52V1.09094H84.1772V5.26708H59.2944V24.4326H82.6112V28.6087H59.2944V47.8239H84.6744V52H54.646Z" fill="#F3F2EE"/>
<path d="M37.985 17C37.521 15.3097 36.8416 13.727 35.9467 12.2521C35.0518 10.7607 33.9415 9.45977 32.6157 8.34944C31.3065 7.22255 29.7902 6.34424 28.0667 5.7145C26.3598 5.08477 24.454 4.7699 22.3494 4.7699C19.035 4.7699 16.0686 5.63164 13.4502 7.35513C10.8318 9.07861 8.76035 11.5644 7.23573 14.8125C5.72768 18.0606 4.97366 21.9716 4.97366 26.5455C4.97366 31.1028 5.73597 35.0055 7.26059 38.2536C8.78521 41.5017 10.8733 43.9958 13.5248 45.7358C16.1929 47.4593 19.2421 48.321 22.6725 48.321C25.8046 48.321 28.5721 47.625 30.9751 46.233C33.378 44.8409 35.2506 42.8523 36.593 40.2671C37.9519 37.6818 38.6148 34.6077 38.5816 31.0448L40.0731 31.5171H23.7663V27.3409H43.1058V31.5171C43.1058 35.8589 42.2274 39.6125 40.4708 42.7777C38.7142 45.943 36.303 48.3873 33.2372 50.1108C30.1713 51.8343 26.6498 52.696 22.6725 52.696C18.2312 52.696 14.3451 51.6271 11.0141 49.4894C7.68317 47.335 5.08966 44.3023 3.2336 40.3913C1.39411 36.4638 0.474365 31.8485 0.474365 26.5455C0.474365 22.5516 1.00467 18.9472 2.06527 15.7323C3.12588 12.5173 4.62564 9.76635 6.56456 7.47941C8.52006 5.19248 10.8318 3.44414 13.4999 2.23439C16.168 1.00806 19.1178 0.394897 22.3494 0.394897C25.1335 0.394897 27.6773 0.834055 29.9808 1.71237C32.3008 2.59068 34.3392 3.80044 36.0958 5.34163C37.869 6.86625 39.3191 8.63117 40.446 10.6364C41.5894 12.625 42.36 14.7462 42.7577 17H37.985Z" fill="#F3F2EE"/>
<path d="M497.476 137V86.0909H515.622C519.566 86.0909 522.839 86.7704 525.441 88.1293C528.059 89.4882 530.015 91.3691 531.308 93.7721C532.6 96.1584 533.246 98.9176 533.246 102.05C533.246 105.165 532.592 107.908 531.283 110.278C529.99 112.631 528.035 114.462 525.416 115.771C522.814 117.081 519.541 117.735 515.597 117.735H501.851V111.123H514.901C517.387 111.123 519.409 110.767 520.967 110.054C522.541 109.341 523.693 108.306 524.422 106.947C525.151 105.588 525.516 103.956 525.516 102.05C525.516 100.127 525.143 98.4619 524.397 97.0533C523.668 95.6447 522.516 94.5675 520.942 93.8218C519.384 93.0595 517.337 92.6783 514.802 92.6783H505.157V137H497.476ZM522.607 114.031L535.185 137H526.435L514.106 114.031H522.607Z" fill="#F3F2EE"/>
<path d="M487.899 111.545C487.899 116.981 486.905 121.654 484.916 125.565C482.928 129.46 480.202 132.459 476.738 134.564C473.291 136.652 469.372 137.696 464.98 137.696C460.572 137.696 456.636 136.652 453.173 134.564C449.726 132.459 447.008 129.451 445.019 125.54C443.031 121.63 442.036 116.964 442.036 111.545C442.036 106.11 443.031 101.445 445.019 97.5504C447.008 93.6395 449.726 90.6399 453.173 88.5519C456.636 86.4472 460.572 85.3949 464.98 85.3949C469.372 85.3949 473.291 86.4472 476.738 88.5519C480.202 90.6399 482.928 93.6395 484.916 97.5504C486.905 101.445 487.899 106.11 487.899 111.545ZM480.293 111.545C480.293 107.402 479.622 103.914 478.279 101.08C476.954 98.2299 475.131 96.0755 472.811 94.6172C470.507 93.1423 467.897 92.4048 464.98 92.4048C462.047 92.4048 459.429 93.1423 457.125 94.6172C454.822 96.0755 452.999 98.2299 451.656 101.08C450.331 103.914 449.668 107.402 449.668 111.545C449.668 115.688 450.331 119.185 451.656 122.036C452.999 124.869 454.822 127.024 457.125 128.499C459.429 129.957 462.047 130.686 464.98 130.686C467.897 130.686 470.507 129.957 472.811 128.499C475.131 127.024 476.954 124.869 478.279 122.036C479.622 119.185 480.293 115.688 480.293 111.545Z" fill="#F3F2EE"/>
<path d="M398.56 137V86.0909H416.706C420.65 86.0909 423.923 86.7704 426.525 88.1293C429.143 89.4882 431.099 91.3691 432.391 93.7721C433.684 96.1584 434.33 98.9176 434.33 102.05C434.33 105.165 433.676 107.908 432.367 110.278C431.074 112.631 429.119 114.462 426.5 115.771C423.898 117.081 420.625 117.735 416.681 117.735H402.935V111.123H415.985C418.471 111.123 420.493 110.767 422.051 110.054C423.625 109.341 424.777 108.306 425.506 106.947C426.235 105.588 426.6 103.956 426.6 102.05C426.6 100.127 426.227 98.4619 425.481 97.0533C424.752 95.6447 423.6 94.5675 422.026 93.8218C420.468 93.0595 418.421 92.6783 415.886 92.6783H406.241V137H398.56ZM423.691 114.031L436.269 137H427.519L415.19 114.031H423.691Z" fill="#F3F2EE"/>
<path d="M353.443 137V86.0909H371.589C375.533 86.0909 378.806 86.7704 381.408 88.1293C384.026 89.4882 385.982 91.3691 387.274 93.7721C388.567 96.1584 389.213 98.9176 389.213 102.05C389.213 105.165 388.559 107.908 387.249 110.278C385.957 112.631 384.001 114.462 381.383 115.771C378.781 117.081 375.508 117.735 371.564 117.735H357.818V111.123H370.868C373.354 111.123 375.376 110.767 376.933 110.054C378.508 109.341 379.659 108.306 380.389 106.947C381.118 105.588 381.482 103.956 381.482 102.05C381.482 100.127 381.11 98.4619 380.364 97.0533C379.635 95.6447 378.483 94.5675 376.909 93.8218C375.351 93.0595 373.304 92.6783 370.769 92.6783H361.124V137H353.443ZM378.574 114.031L391.152 137H382.402L370.073 114.031H378.574Z" fill="#F3F2EE"/>
<path d="M342.257 86.0909V137H334.575V86.0909H342.257Z" fill="#F3F2EE"/>
<path d="M271.753 86.0909H281.075L297.282 125.665H297.879L314.086 86.0909H323.408V137H316.1V100.161H315.627L300.613 136.925H294.548L279.534 100.136H279.061V137H271.753V86.0909Z" fill="#F3F2EE"/>
</svg>
